<svg xmlns="http://www.w3.org/2000/svg" xmlns:xlink="http://www.w3.org/1999/xlink" viewBox="0 0 1060.2 612"><defs><style>.cls-1{stroke:#000;stroke-width:0.91px;fill:url(#linear-gradient);}.cls-1,.cls-10,.cls-6{stroke-miterlimit:10;}.cls-2{fill:#a54973;}.cls-3{fill:url(#radial-gradient);}.cls-4{fill:#6b6b6a;}.cls-5{opacity:0.37;}.cls-6{fill:#9ae1f4;stroke:#725141;stroke-width:19.14px;}.cls-7{fill:#bddcf4;}.cls-8{fill:#725141;}.cls-9{fill:#989b95;}.cls-10{fill:none;stroke:#848483;stroke-width:5px;}.cls-11{fill:#2b4f09;}.cls-12{fill:#36660c;}.cls-13{fill:#a34f1f;}.cls-14{fill:#89421f;}.cls-15{fill:#d18f09;}.cls-16{fill:#ede103;}.cls-17{fill:#364f1c;}.cls-18{opacity:0.13;}.cls-19{fill:#4c9307;}.cls-20{fill:#a31a58;}.cls-21{fill:#ba353b;}.cls-22,.cls-25,.cls-26{fill:#26292b;}.cls-22{opacity:0.48;}.cls-23{fill:#d2d5d8;}.cls-24{fill:#1b3177;}.cls-25,.cls-31{opacity:0.25;}.cls-26{opacity:0.55;}.cls-27{fill:#664c40;}.cls-28{fill:#1a5ae8;}.cls-29{fill:#3554b7;}.cls-30{opacity:0.39;}.cls-31{fill:#0e0f0f;}.cls-32{fill:#48889b;}.cls-33{fill:#8b6199;}.cls-34{fill:#a84e8a;}.cls-35{fill:#474749;}.cls-36,.cls-38{fill:#374751;}.cls-37{fill:#dda254;}.cls-38{opacity:0.31;}</style><linearGradient id="linear-gradient" x1="528.77" y1="397.79" x2="528.77" y2="604.97" gradientUnits="userSpaceOnUse"><stop offset="0" stop-color="#994d33"/><stop offset="1" stop-color="#be7799"/></linearGradient><radialGradient id="radial-gradient" cx="530.1" cy="209.09" r="403.96" gradientTransform="translate(0 2.99) scale(1 0.99)" gradientUnits="userSpaceOnUse"><stop offset="0" stop-color="#2ccc7f"/><stop offset="0.06" stop-color="#2ec47a"/><stop offset="0.28" stop-color="#37a968"/><stop offset="0.51" stop-color="#3c965c"/><stop offset="0.75" stop-color="#408b54"/><stop offset="1" stop-color="#418752"/></radialGradient></defs><title>wideInnerHouse</title><g id="Plants"><rect class="cls-1" x="-2.62" y="397.79" width="1062.77" height="207.18"/><path class="cls-2" d="M1061.22,611.19C1003.31,609.14,1,611.65.8,610.47-11.44,547.24,364,532.56,1007.53,510.06c18.75-.66,34.43-1.23,53-1.8C1060.5,508.26,1058.32,588.33,1061.22,611.19Z"/><polygon class="cls-3" points="-0.82 1.16 0.55 420.03 1061.02 420.03 1061.02 1.16 -0.82 1.16"/><rect class="cls-4" y="402.23" width="1061.02" height="19.49"/><g id="window"><rect class="cls-5" x="106.31" y="282.05" width="866.88" height="24" rx="12"/><rect class="cls-6" x="126.92" y="76.73" width="831.14" height="203.92" rx="12"/><polygon class="cls-7" points="326.24 271.73 446.21 84.77 490.35 84.77 326.24 271.73"/><polygon class="cls-7" points="781.14 282.94 901.12 95.97 945.25 95.97 781.14 282.94"/><polygon class="cls-7" points="144.34 271.59 264.31 84.63 308.45 84.63 144.34 271.59"/><polygon class="cls-7" points="825.1 93.96 703.28 279.73 659.14 279.29 825.1 93.96"/><rect class="cls-8" x="108.31" y="263.73" width="878.88" height="30.93" rx="12"/><rect class="cls-9" x="146.93" y="82.73" width="792.88" height="22.47" rx="11.23"/><line class="cls-10" x1="917.87" y1="81.33" x2="921.13" y2="198.21"/></g><path class="cls-11" d="M394.52,232.82s9.57-5.57,17.72,3.78C417.91,250,401.05,231.18,394.52,232.82Z"/><path class="cls-11" d="M414.82,207.53s.15-6.82,6.77-7.92C429.4,201.15,415.91,203.6,414.82,207.53Z"/><path class="cls-11" d="M430.35,192.53s-6.77-.77-8.57,5.06C422.48,204.83,426.33,193,430.35,192.53Z"/><path class="cls-11" d="M432.31,226.53s-15.64-2.21-20.25,11.38C412.67,253.57,421.93,224.12,432.31,226.53Z"/><path class="cls-12" d="M417.91,255.42a27.55,27.55,0,0,1-5.48-8.31A22.47,22.47,0,0,1,410.57,237a19.78,19.78,0,0,1,3.42-10,28,28,0,0,1,7.39-7.32c.7-.49,1.43-1,2.14-1.39s1.32-.83,2-1.27a25.23,25.23,0,0,0,3.49-2.86,9.64,9.64,0,0,0,2.33-3.35,5.35,5.35,0,0,0,0-3.66,10.28,10.28,0,0,0-2.33-3.56,23.23,23.23,0,0,0-3.53-3.06,58.6,58.6,0,0,0-8.33-5,37,37,0,0,1,9.37,3.32,25.29,25.29,0,0,1,4.28,2.82,12.67,12.67,0,0,1,3.4,4.29,8.34,8.34,0,0,1,.75,2.9,8.42,8.42,0,0,1-.37,3,13.07,13.07,0,0,1-2.9,4.84,26.25,26.25,0,0,1-4,3.45c-.7.5-1.42,1-2.14,1.42s-1.32.84-2,1.28a27.86,27.86,0,0,0-6.63,6.21,18,18,0,0,0-3.42,8.17,22.84,22.84,0,0,0,.65,9.19A35.88,35.88,0,0,0,417.91,255.42Z"/><path class="cls-13" d="M420.06,273H404.71a4.66,4.66,0,0,1-4.64-4.64l-6.39-25.88a4.66,4.66,0,0,1,4.64-4.65h29.25a4.67,4.67,0,0,1,4.65,4.65l-7.52,25.88A4.66,4.66,0,0,1,420.06,273Z"/><rect class="cls-14" x="390.51" y="237.48" width="45.09" height="4.65" rx="2.19"/><polygon class="cls-15" points="416.5 185.7 419.96 192.16 427.18 190.85 422.11 196.15 425.58 202.6 418.98 199.42 413.91 204.71 414.9 197.45 408.29 194.26 415.51 192.96 416.5 185.7"/><polygon class="cls-16" points="420.38 205.06 416.86 199.21 410.21 200.74 414.69 195.59 411.18 189.74 417.46 192.41 421.94 187.25 421.34 194.06 427.63 196.72 420.97 198.26 420.38 205.06"/><circle class="cls-15" cx="418.35" cy="195.94" r="2.19"/><path class="cls-11" d="M844.67,229s9.57-5.57,17.72,3.77C868.05,246.2,851.2,227.34,844.67,229Z"/><path class="cls-11" d="M865,203.69s.14-6.81,6.76-7.92C879.54,197.31,866.06,199.76,865,203.69Z"/><path class="cls-11" d="M880.49,188.7s-6.77-.77-8.57,5.05C872.62,201,876.48,189.16,880.49,188.7Z"/><path class="cls-11" d="M882.46,222.7s-15.64-2.22-20.26,11.38C862.82,249.73,872.08,220.29,882.46,222.7Z"/><path class="cls-12" d="M868.06,251.58a27.32,27.32,0,0,1-5.48-8.3,22.49,22.49,0,0,1-1.86-10.09,19.73,19.73,0,0,1,3.41-10,28,28,0,0,1,7.4-7.32c.69-.5,1.43-1,2.14-1.4s1.32-.83,2-1.27a24,24,0,0,0,3.5-2.85,9.87,9.87,0,0,0,2.33-3.35,5.32,5.32,0,0,0,0-3.67,10.11,10.11,0,0,0-2.32-3.56,23.23,23.23,0,0,0-3.53-3.06,60.05,60.05,0,0,0-8.34-5,37.15,37.15,0,0,1,9.37,3.32,25.58,25.58,0,0,1,4.29,2.82,12.61,12.61,0,0,1,3.4,4.3,8.22,8.22,0,0,1,.75,2.9,8.48,8.48,0,0,1-.37,3,13.2,13.2,0,0,1-2.9,4.84,27.26,27.26,0,0,1-4,3.44c-.71.5-1.42,1-2.14,1.42s-1.32.84-2,1.28a27.71,27.71,0,0,0-6.63,6.22,18,18,0,0,0-3.43,8.17,23,23,0,0,0,.65,9.18A36.14,36.14,0,0,0,868.06,251.58Z"/><path class="cls-13" d="M870.2,269.17H854.86a4.66,4.66,0,0,1-4.64-4.65l-6.4-25.88a4.67,4.67,0,0,1,4.65-4.65h29.25a4.66,4.66,0,0,1,4.64,4.65l-7.51,25.88A4.66,4.66,0,0,1,870.2,269.17Z"/><rect class="cls-14" x="840.66" y="233.65" width="45.09" height="4.65" rx="2.19"/><polygon class="cls-15" points="866.64 181.86 870.11 188.32 877.32 187.01 872.25 192.31 875.73 198.77 869.12 195.58 864.05 200.88 865.04 193.61 858.44 190.43 865.65 189.13 866.64 181.86"/><polygon class="cls-16" points="870.52 201.22 867.01 195.37 860.36 196.9 864.84 191.75 861.33 185.9 867.61 188.57 872.09 183.42 871.49 190.22 877.77 192.89 871.12 194.42 870.52 201.22"/><circle class="cls-15" cx="868.49" cy="192.1" r="2.19"/><path class="cls-17" d="M702.41,229.24a16.32,16.32,0,0,0-19.95,4.09C676.09,247.92,695.05,227.45,702.41,229.24Z"/><path class="cls-17" d="M680,207.11s-6.94,2.57-5.64,10C678.78,224.88,676.34,209.67,680,207.11Z"/><path class="cls-17" d="M665.21,192.51s7.62-.83,9.65,5.48C674.07,205.85,669.73,193,665.21,192.51Z"/><path class="cls-18" d="M679.56,271l14-.37c2.34-.06,5,.73,6,1.77l15.5,10.37c.95,1-.18,1.94-2.52,2l-26.75.72c-2.34.06-5-.74-6-1.78L677,273C676.09,272,677.22,271.05,679.56,271Z"/><path class="cls-18" d="M405.34,273.86h14.28c2.38,0,4.33.72,4.33,1.59l5.95,8.87c0,.88-1.95,1.6-4.33,1.6H398.34c-2.37,0-4.32-.72-4.32-1.6l7-8.87C401,274.58,403,273.86,405.34,273.86Z"/><path class="cls-18" d="M853.74,267.83H868c2.38,0,4.33.72,4.33,1.6l5.95,8.87c0,.87-1.95,1.59-4.33,1.59H846.74c-2.38,0-4.32-.72-4.32-1.59l7-8.87C849.41,268.55,851.36,267.83,853.74,267.83Z"/><path class="cls-18" d="M546,273.7h14.28c2.38,0,4.33.71,4.33,1.59l6,8.87c0,.88-2,1.59-4.32,1.59H539c-2.38,0-4.33-.71-4.33-1.59l7-8.87C541.71,274.41,543.65,273.7,546,273.7Z"/><path class="cls-17" d="M659.14,222.41s17.6-2.4,22.8,12.35C681.25,251.74,670.83,219.8,659.14,222.41Z"/><path class="cls-19" d="M681,253.75a20.38,20.38,0,0,0,1.68-8.61,33.43,33.43,0,0,0-1.2-8.56,63.13,63.13,0,0,0-7-15.87l-1.14-1.87L672.09,217l-.65-1c-.22-.39-.44-.78-.62-1.19a11.4,11.4,0,0,1-.85-2.57,12.16,12.16,0,0,1,.11-5.34,17.25,17.25,0,0,1,1.92-4.64,35.22,35.22,0,0,1,6-7.22c1.08-1.07,2.22-2.06,3.25-3.11a7.61,7.61,0,0,0,1.37-1.62c.15-.29.26-.57.11-.82a1.74,1.74,0,0,0-.87-.58,1.73,1.73,0,0,1,1.15.33,1.1,1.1,0,0,1,.33.64,1.87,1.87,0,0,1,0,.67,9,9,0,0,1-1,2.2c-.82,1.31-1.69,2.56-2.56,3.78a47.93,47.93,0,0,0-4.51,7.4,11.27,11.27,0,0,0-1.12,7.39,9.12,9.12,0,0,0,.61,1.68c.13.28.28.54.43.81l.56.86c.85,1.28,1.65,2.6,2.43,3.93a51,51,0,0,1,6.46,17.4,30.45,30.45,0,0,1,.37,4.68,25.25,25.25,0,0,1-.35,4.68,21.18,21.18,0,0,1-1.26,4.5A13.33,13.33,0,0,1,681,253.75Z"/><path class="cls-13" d="M678.55,272.83h17.27a5.16,5.16,0,0,0,5.23-5l7.19-28.08a5.15,5.15,0,0,0-5.23-5H670.1a5.15,5.15,0,0,0-5.23,5l8.46,28.08A5.15,5.15,0,0,0,678.55,272.83Z"/><rect class="cls-14" x="661.07" y="234.29" width="50.74" height="5.04" rx="2.2" transform="translate(1372.87 473.62) rotate(-180)"/><polygon class="cls-20" points="682.56 178.11 678.66 185.11 670.54 183.7 676.24 189.44 672.34 196.45 679.77 192.99 685.47 198.74 684.36 190.86 691.79 187.4 683.67 185.99 682.56 178.11"/><polygon class="cls-21" points="678.19 199.11 682.15 192.76 689.63 194.43 684.59 188.84 688.54 182.49 681.47 185.38 676.43 179.8 677.11 187.18 670.03 190.07 677.52 191.74 678.19 199.11"/><ellipse class="cls-15" cx="680.48" cy="189.22" rx="2.46" ry="2.37"/><path class="cls-22" d="M66.27,35.9A45.1,45.1,0,0,1,.07,75.74C-3.39,6.72,66.84-5.61,66.27,35.9Z"/><path class="cls-23" d="M58.06.11-.09,0,0,63.25c6.42,3.52,11.22,4.11,19.06,4.11A45.08,45.08,0,0,0,64.13,22.27,42.26,42.26,0,0,0,58.06.11Z"/><path class="cls-24" d="M62.08.11c-2.54-.1-4.7.1-7.24,0,4.36,6.61,6.09,13.67,6.09,22.16A41.92,41.92,0,0,1,19.05,64.15c-7.44,0-13-1.11-19.06-4.52.08,2.41.12,4.43.08,6.84a41.44,41.44,0,0,0,19,4.09A48.34,48.34,0,0,0,67.34,22.27,45.48,45.48,0,0,0,62.08.11Z"/><rect class="cls-25" x="18.41" y="21.24" width="2.42" height="25.44" rx="1.21"/><rect class="cls-26" x="28.5" y="15.65" width="2.42" height="26.57" rx="1.21" transform="translate(70.1 19.55) rotate(122.68)"/><rect class="cls-27" x="28.31" y="16.41" width="2.42" height="25.44" rx="1.21" transform="translate(69.98 20.01) rotate(122.68)"/><rect class="cls-27" x="17.84" y="21.24" width="2.42" height="25.44" rx="1.21"/><path class="cls-17" d="M539.9,229.28a16.27,16.27,0,0,1,19.91,4.1C566.18,248,547.24,227.5,539.9,229.28Z"/><path class="cls-17" d="M562.3,207.16s6.93,2.57,5.63,10C563.48,224.93,565.93,209.72,562.3,207.16Z"/><path class="cls-17" d="M577,192.56s-7.61-.84-9.63,5.48C568.19,205.9,572.53,193.06,577,192.56Z"/><path class="cls-17" d="M583.1,222.46s-17.58-2.41-22.76,12.34C561,251.79,571.43,219.84,583.1,222.46Z"/><path class="cls-19" d="M561.3,253.79a13.17,13.17,0,0,1-2.35-3.94,20.37,20.37,0,0,1-1.26-4.49,25.32,25.32,0,0,1-.36-4.68,28.15,28.15,0,0,1,.39-4.68,50.2,50.2,0,0,1,6.44-17.39c.77-1.34,1.57-2.65,2.42-3.94l.56-.86c.15-.27.3-.53.43-.81a9.12,9.12,0,0,0,.61-1.68,11.27,11.27,0,0,0-1.12-7.39,47.85,47.85,0,0,0-4.5-7.4c-.87-1.22-1.74-2.47-2.56-3.79a8.92,8.92,0,0,1-1-2.19,1.91,1.91,0,0,1,0-.68,1,1,0,0,1,.32-.63,1.7,1.7,0,0,1,1.15-.33,1.66,1.66,0,0,0-.86.57.82.82,0,0,0,.11.83,7.86,7.86,0,0,0,1.36,1.62c1,1,2.17,2,3.25,3.11a35.18,35.18,0,0,1,6,7.22,17.39,17.39,0,0,1,1.92,4.64,12.16,12.16,0,0,1,.11,5.34,11.4,11.4,0,0,1-.85,2.57c-.19.41-.4.8-.62,1.19l-.65,1L569,218.88l-1.14,1.88a63.86,63.86,0,0,0-7,15.87,34.72,34.72,0,0,0-1.19,8.56A20.31,20.31,0,0,0,561.3,253.79Z"/><path class="cls-13" d="M563.71,272.87H546.47a5.15,5.15,0,0,1-5.22-5l-7.18-28.07a5.15,5.15,0,0,1,5.22-5h32.87a5.15,5.15,0,0,1,5.22,5l-8.45,28.07A5.14,5.14,0,0,1,563.71,272.87Z"/><rect class="cls-14" x="530.51" y="234.34" width="50.67" height="5.04" rx="2.2"/><polygon class="cls-28" points="559.71 178.16 563.61 185.16 571.72 183.75 566.02 189.49 569.92 196.49 562.5 193.04 556.8 198.78 557.91 190.91 550.5 187.45 558.6 186.03 559.71 178.16"/><polygon class="cls-29" points="564.07 199.16 560.13 192.81 552.65 194.47 557.69 188.88 553.74 182.53 560.8 185.43 565.83 179.84 565.16 187.22 572.22 190.12 564.75 191.78 564.07 199.16"/><ellipse class="cls-15" cx="561.79" cy="189.27" rx="2.46" ry="2.37"/><path class="cls-17" d="M19.48,342.77S46.37,327.68,69.23,353C85.14,389.44,37.82,338.31,19.48,342.77Z"/><path class="cls-17" d="M75.45,287.51s17.31,6.42,14.07,25C78.41,331.89,84.51,293.89,75.45,287.51Z"/><path class="cls-17" d="M112.27,251s-19-2.09-24.06,13.7c2,19.63,12.79-12.44,24.06-13.7"/><path class="cls-17" d="M41.57,232S66,238.88,65,255.49c-11.52,16.84-10-17.16-23.4-23.52"/><path class="cls-17" d="M127.41,325.73s-43.91-6-56.86,30.84c1.72,42.44,27.71-37.38,56.86-30.84"/><path class="cls-19" d="M73,404a32.8,32.8,0,0,1-5.88-9.85,51,51,0,0,1-3.16-11.22,65.47,65.47,0,0,1-.9-11.7A80.24,80.24,0,0,1,64,359.55,106.22,106.22,0,0,1,70.07,337a153.28,153.28,0,0,1,10-20.91l3-5,3.11-4.85.77-1.18c.21-.32.42-.65.62-1,.4-.66.76-1.33,1.09-2a22.35,22.35,0,0,0,1.51-4.19,22.58,22.58,0,0,0,.25-9,38.23,38.23,0,0,0-3-9.44c-2.86-6.3-7-12.38-11.28-18.49-2.14-3.06-4.35-6.14-6.37-9.46A22,22,0,0,1,67.22,246a4.67,4.67,0,0,1-.1-1.68,2.56,2.56,0,0,1,.82-1.59,4.33,4.33,0,0,1,2.88-.82,4.26,4.26,0,0,0-2.18,1.44c-.37.63-.1,1.33.28,2.06a19.94,19.94,0,0,0,3.41,4.05c2.61,2.59,5.42,5.1,8.13,7.76,5.43,5.3,10.75,11,14.88,18a42.19,42.19,0,0,1,4.79,11.59,33.11,33.11,0,0,1,.89,6.57,30.22,30.22,0,0,1-.61,6.76,28,28,0,0,1-2.12,6.43c-.47,1-1,2-1.54,3-.28.48-.57.95-.87,1.4l-.76,1.19c-1,1.56-2,3.08-3,4.62l-2.84,4.69a193.05,193.05,0,0,0-10.16,19.3c-1.52,3.29-2.88,6.65-4.12,10-.63,1.69-1.19,3.4-1.76,5.12l-.77,2.59c-.27.86-.5,1.73-.72,2.6a84.74,84.74,0,0,0-3,21.39c0,1.81.08,3.62.21,5.44s.37,3.63.7,5.44A46.18,46.18,0,0,0,71,398.78,30.77,30.77,0,0,0,73,404Z"/><path class="cls-17" d="M110.06,322.55S84.64,307.45,63,332.78C48,369.21,92.71,318.09,110.06,322.55Z"/><path class="cls-17" d="M39.58,290.94S66.29,280,78.22,305C81.22,339.18,56.15,288.73,39.58,290.94Z"/><path class="cls-17" d="M125.29,280.4s-25.43-15.09-47.05,10.24C63.19,327.07,107.94,275.94,125.29,280.4Z"/><path class="cls-17" d="M131.07,295.64s-25.42-15.1-47,10.23C69,342.31,113.73,291.18,131.07,295.64Z"/><path class="cls-17" d="M74.66,295.57s-8.28-15.51-26.37-10.31C30.25,297.94,67.32,287.8,74.66,295.57Z"/><path class="cls-17" d="M25.17,258.12s18-2.08,22.75,13.7c-1.86,19.63-12.1-12.43-22.75-13.7"/><path class="cls-17" d="M8,305.5s41.52-6,53.78,30.84C60.14,378.78,35.55,299,8,305.5"/><path class="cls-17" d="M-5.86,266s41.52-6,53.78,30.84C46.29,339.31,21.71,259.49-5.86,266"/><path class="cls-19" d="M59.22,383.83a25.93,25.93,0,0,0,1.68-4.27,39.75,39.75,0,0,0,1.08-4.4,49.53,49.53,0,0,0,.88-8.9,68.82,68.82,0,0,0-2.23-17.52c-2.91-11.45-8.08-22.25-14.14-32.53-.78-1.28-1.53-2.57-2.33-3.83l-2.42-3.79-.66-1q-.36-.58-.69-1.17a27,27,0,0,1-1.23-2.47,23.57,23.57,0,0,1-1.6-5.35,24.68,24.68,0,0,1-.32-5.55,28.36,28.36,0,0,1,.89-5.34,36.46,36.46,0,0,1,4.12-9.36,74.6,74.6,0,0,1,12.32-14.63c2.23-2.17,4.54-4.21,6.68-6.33a17.59,17.59,0,0,0,2.82-3.31c.33-.59.56-1.16.26-1.68a3.34,3.34,0,0,0-1.78-1.15,3.41,3.41,0,0,1,2.36.65,2.06,2.06,0,0,1,.65,1.31,3.92,3.92,0,0,1-.1,1.38A17.3,17.3,0,0,1,63.38,259c-1.66,2.71-3.48,5.22-5.25,7.72a105.12,105.12,0,0,0-9.41,15.09,33.22,33.22,0,0,0-2.66,7.72,18.45,18.45,0,0,0,0,7.4,17.79,17.79,0,0,0,1.14,3.44,16.1,16.1,0,0,0,.85,1.65c.15.27.32.54.49.8l.58.91,2.55,4c.82,1.35,1.6,2.72,2.41,4.08A122.05,122.05,0,0,1,62.21,329a85.16,85.16,0,0,1,4.84,18.52,62.88,62.88,0,0,1,.66,9.6,52.09,52.09,0,0,1-.86,9.57,43.2,43.2,0,0,1-2.71,9.15A27.84,27.84,0,0,1,59.22,383.83Z"/><path class="cls-17" d="M36.54,307.31s15.75-15.1,29.14,10.23C75,354,47.28,302.85,36.54,307.31Z"/><path class="cls-17" d="M58.61,262.25S71.19,253.47,82.89,273C91.52,299.9,67.35,260.39,58.61,262.25Z"/><path class="cls-17" d="M91.53,230.31S80.4,228.22,77.44,244c1.15,19.64,7.49-12.43,14.09-13.69"/><path class="cls-17" d="M99.75,290.26s-25.72-6-33.3,30.85c1,42.43,16.23-37.39,33.3-30.85"/><path class="cls-19" d="M67.86,368.55a32.84,32.84,0,0,1-3.3-8.46,56.15,56.15,0,0,1-1.59-9,84.58,84.58,0,0,1,.33-18.34A134,134,0,0,1,73,297.49c.56-1.41,1.21-2.79,1.81-4.18s1.25-2.77,1.9-4.14l1.88-3.94a29,29,0,0,0,1.32-3.69A31.72,31.72,0,0,0,80,265.63a83.1,83.1,0,0,0-5.86-16.22c-1.23-2.7-2.51-5.42-3.66-8.26a22.84,22.84,0,0,1-1.33-4.51,4.19,4.19,0,0,1,.26-2.48,2.39,2.39,0,0,1,2-1.23A2.18,2.18,0,0,0,70,234.39a3.62,3.62,0,0,0,.36,1.93A21.17,21.17,0,0,0,72.58,240c1.65,2.43,3.46,4.84,5.14,7.36A65.18,65.18,0,0,1,86.16,264a35.12,35.12,0,0,1,.87,19.5,33,33,0,0,1-1.63,4.76c-.72,1.61-1.3,2.82-1.94,4.17s-1.28,2.65-1.87,4-1.24,2.67-1.79,4a179.42,179.42,0,0,0-11.11,33.23A107.62,107.62,0,0,0,66.3,351a76.19,76.19,0,0,0,.09,8.81c.09,1.47.28,2.94.5,4.4A30.23,30.23,0,0,0,67.86,368.55Z"/><path class="cls-30" d="M136.78,364.26l-21.09,70.15a12.87,12.87,0,0,1-13,12.59H59.58a12.87,12.87,0,0,1-13-12.59L28.59,364.26a12.86,12.86,0,0,1,13-12.59h82.11a12.86,12.86,0,0,1,13,12.59"/><path class="cls-13" d="M124.24,368l-21.09,70.14a12.86,12.86,0,0,1-13,12.6H47a12.87,12.87,0,0,1-13-12.6L16.05,368a12.86,12.86,0,0,1,13-12.59H111.2a12.86,12.86,0,0,1,13,12.59"/><path class="cls-14" d="M128.24,367H12.65a5.51,5.51,0,0,1-5.49-5.49v-1.61a5.51,5.51,0,0,1,5.49-5.49H128.24Q133.91,360.73,128.24,367Z"/><path class="cls-31" d="M884.89,292.23c-3.35,4.17-3.43,8.29,0,12.36q90,1,179.92.53c-.4-4.42-1.12-8.84-1.55-13.25Q975,291.56,884.89,292.23Z"/><path class="cls-31" d="M1064.35,300.91c-59-3.7-117.92-2-178.68,3.74a1062.05,1062.05,0,0,0,0,137.27,734,734,0,0,0,177.81,3.5C1061,400.84,1064.76,304.28,1064.35,300.91Z"/><path class="cls-32" d="M1063.67,295.52a1094.7,1094.7,0,0,0-167.46,3.79,1174.7,1174.7,0,0,0,0,144.13,719.51,719.51,0,0,0,167.48,5.61C1061,403.23,1064.31,300.68,1063.67,295.52Z"/><path class="cls-31" d="M895.48,292.26l.74,13.26,166.68.71c-.36-4.66.87-9.31.4-14Z"/><path class="cls-33" d="M881.55,290.43c-3.34,4.16-3.43,8.28,0,12.35,61,.69,121.05.87,182.08.52-.48-4.41-.19-8.82-.53-13.23Q973.25,289.74,881.55,290.43Z"/><path class="cls-31" d="M1062,323.4q-56.57-1-110.84,0c-3.58.07-6.43.58-6.8,1.24-3.46,6.1-2.65,13.05.22,20.42.26.68,3.14,1.22,6.8,1.29q55.36,1.08,110.66,0h.61q.54-11.37,1.4-22.83C1063.42,323.44,1062.73,323.41,1062,323.4Z"/><path class="cls-34" d="M1058.24,323q-58.18-1-114,0c-3.69.07-6.62.6-7,1.28-3.56,6.27-2.73,13.43.23,21,.27.69,3.23,1.25,7,1.32q57,1.11,113.86,0a31.64,31.64,0,0,0,4.38-.37q.54-11.23,1.39-22.57A24.67,24.67,0,0,0,1058.24,323Z"/><rect class="cls-31" x="1000.97" y="309.31" width="4.17" height="50.98" rx="2.05" transform="translate(1337.85 -668.26) rotate(90)"/><rect class="cls-35" x="1000.05" y="308.99" width="4.17" height="50.98" rx="2.05" transform="translate(1336.62 -667.65) rotate(90)"/><path class="cls-31" d="M1060.26,365.08q-56.57-1-110.84,0c-3.58.07-6.43.58-6.8,1.24-3.46,6.1-2.65,13.05.22,20.42.26.67,3.14,1.21,6.8,1.28q55.36,1.08,110.66,0c.49,0,1,0,1.43-.06q0-11.37.26-22.8C1061.44,365.11,1060.86,365.09,1060.26,365.08Z"/><path class="cls-34" d="M1056.49,364.66q-58.2-1-114,0c-3.69.07-6.62.6-7,1.28-3.55,6.27-2.72,13.42.23,21,.28.7,3.24,1.25,7,1.33q57,1.11,113.86,0a27.08,27.08,0,0,0,5.2-.52q0-11.22.26-22.5A26.57,26.57,0,0,0,1056.49,364.66Z"/><rect class="cls-31" x="999.22" y="350.98" width="4.17" height="50.98" rx="2.05" transform="translate(1377.78 -624.83) rotate(90)"/><rect class="cls-35" x="998.3" y="350.67" width="4.17" height="50.98" rx="2.05" transform="translate(1376.54 -624.22) rotate(90)"/><path class="cls-31" d="M1058.51,407q-56.57-1-110.84,0c-3.58.07-6.43.59-6.81,1.25-3.45,6.09-2.64,13.05.23,20.41.26.68,3.14,1.22,6.8,1.29q55.35,1.08,110.66,0a29.13,29.13,0,0,0,4.13-.34q-.48-11.19-.72-22.37A34,34,0,0,0,1058.51,407Z"/><path class="cls-34" d="M1061.72,407.88c-.34-.68-3.28-1.22-7-1.29q-58.2-1-114,0c-3.69.07-6.62.6-7,1.28-3.55,6.28-2.72,13.43.23,21,.28.7,3.24,1.25,7,1.32q57,1.11,113.86,0c3.68-.07,6.58-.62,6.9-1.3s.62-1.39.89-2.09q-.37-9.18-.59-18.36C1061.89,408.26,1061.81,408.07,1061.72,407.88Z"/><rect class="cls-31" x="997.47" y="392.92" width="4.17" height="50.98" rx="2.05" transform="translate(1417.96 -581.15) rotate(90)"/><rect class="cls-35" x="996.55" y="392.61" width="4.17" height="50.98" rx="2.05" transform="translate(1416.73 -580.54) rotate(90)"/><path class="cls-36" d="M909.16,439.94c-2.22-.15-4.16.81-4.07,2l.25,3.36c56.44,7.49,107.73,8.55,158.37,4.17q-.23-3.78-.43-7.55A1385.51,1385.51,0,0,1,909.16,439.94Z"/><path class="cls-37" d="M1023.37,430q15.93-.13,31.87-.74c2.69-.1,4.81-.87,5-1.84,1-5.26,1.73-6.48,1.83-11.36C1061.29,430.15,1053.51,428.47,1023.37,430Z"/><path class="cls-38" d="M934.77,421.65c.1-4.88.77-6.1,1.82-11.35.2-1,2.31-1.75,5-1.85q15.95-.6,31.87-.73C943.32,409.2,935.54,407.51,934.77,421.65Z"/><path class="cls-38" d="M934.77,379.69c.1-4.88.77-6.1,1.82-11.35.2-1,2.31-1.75,5-1.85q15.95-.6,31.87-.73C943.32,367.24,935.54,365.55,934.77,379.69Z"/><path class="cls-38" d="M937.92,337.73c.1-4.88.77-6.1,1.82-11.35.19-1,2.31-1.75,5-1.85q15.93-.6,31.87-.73C946.47,325.28,938.69,323.59,937.92,337.73Z"/><path class="cls-37" d="M1027.62,346.16q15.93-.12,31.87-.73a12,12,0,0,0,3.24-.54l.15-3.31C1058.23,345.61,1048.08,345.16,1027.62,346.16Z"/><path class="cls-37" d="M1025.87,388q15.93-.13,31.87-.74a10.15,10.15,0,0,0,4-.84v-3.58C1057.38,387.5,1047.26,387,1025.87,388Z"/></g></svg>