<svg xmlns="http://www.w3.org/2000/svg" xmlns:xlink="http://www.w3.org/1999/xlink" viewBox="0 0 1060.2 612"><defs><style>.cls-1{stroke:#000;stroke-width:0.93px;fill:url(#linear-gradient);}.cls-1,.cls-19,.cls-20,.cls-23,.cls-24,.cls-27,.cls-29,.cls-32,.cls-4,.cls-46{stroke-miterlimit:10;}.cls-2{fill:url(#radial-gradient);}.cls-3,.cls-5,.cls-6{fill:#26292b;}.cls-3{opacity:0.48;}.cls-4{fill:#d2d5d8;stroke:#af8d00;stroke-width:6.41px;}.cls-5,.cls-9{opacity:0.25;}.cls-6{opacity:0.55;}.cls-7{fill:#664c40;}.cls-8{fill:#6b6b6a;}.cls-9{fill:#0e0f0f;}.cls-10{fill:#af610b;}.cls-11{fill:#b79502;}.cls-12{fill:#f47119;}.cls-13{fill:#474749;}.cls-14,.cls-16{fill:#374751;}.cls-15{fill:#dda254;}.cls-16{opacity:0.31;}.cls-17,.cls-19,.cls-20,.cls-22,.cls-23,.cls-24,.cls-27{fill:#513c28;}.cls-18{fill:#725141;}.cls-19,.cls-20,.cls-23,.cls-24,.cls-27,.cls-29,.cls-46{stroke:#725141;}.cls-19{stroke-width:3.23px;}.cls-20{stroke-width:2.16px;}.cls-21{fill:#fff;}.cls-22{opacity:0.42;}.cls-23{stroke-width:3.17px;}.cls-24{stroke-width:2.16px;}.cls-25{fill:#c6dfe0;}.cls-26{fill:#c9e1e2;}.cls-27{stroke-width:1.78px;}.cls-28{opacity:0.37;}.cls-29{fill:#9ae1f4;stroke-width:12.26px;}.cls-30{fill:#bddcf4;}.cls-31{fill:#989b95;}.cls-32,.cls-46{fill:none;}.cls-32{stroke:#848483;stroke-width:5px;}.cls-33{fill:#2b4f09;}.cls-34{fill:#36660c;}.cls-35{fill:#a34f1f;}.cls-36{fill:#89421f;}.cls-37{fill:#d18f09;}.cls-38{fill:#ede103;}.cls-39{fill:#364f1c;}.cls-40{opacity:0.13;}.cls-41{fill:#4c9307;}.cls-42{fill:#a31a58;}.cls-43{fill:#ba353b;}.cls-44{fill:#f5f7c6;opacity:0.17;}.cls-45{fill:#68605a;}.cls-47{fill:#c6b136;}</style><linearGradient id="linear-gradient" x1="528.24" y1="397.86" x2="528.24" y2="612.9" gradientUnits="userSpaceOnUse"><stop offset="0" stop-color="#994d33"/><stop offset="1" stop-color="#be7799"/></linearGradient><radialGradient id="radial-gradient" cx="529.9" cy="210.94" fx="472.3472437820491" fy="227.9059106792603" r="403.96" gradientTransform="scale(1 0.93)" gradientUnits="userSpaceOnUse"><stop offset="0" stop-color="#6cb"/><stop offset="0.14" stop-color="#66b5ba"/><stop offset="0.35" stop-color="#669aba"/><stop offset="0.56" stop-color="#6687b9"/><stop offset="0.77" stop-color="#667cb9"/><stop offset="1" stop-color="#6678b9"/></radialGradient></defs><title>wideInnerHouse</title><g id="Bedroom"><rect class="cls-1" x="-5.39" y="397.86" width="1067.25" height="215.05"/><polygon class="cls-2" points="-1.03 0 0.35 391.42 1060.82 391.42 1060.82 0 -1.03 0"/><circle class="cls-3" cx="153.29" cy="90.45" r="45.08"/><circle class="cls-4" cx="160.46" cy="93.6" r="45.08"/><rect class="cls-5" x="159.82" y="92.57" width="2.42" height="25.44" rx="1.21"/><rect class="cls-6" x="169.91" y="86.97" width="2.42" height="26.57" rx="1.21" transform="translate(347.9 10.35) rotate(122.68)"/><rect class="cls-7" x="169.73" y="87.74" width="2.42" height="25.44" rx="1.21" transform="translate(347.79 10.82) rotate(122.68)"/><rect class="cls-7" x="159.26" y="92.57" width="2.42" height="25.44" rx="1.21"/><rect class="cls-8" x="244.62" y="391.42" width="816.2" height="12.92"/><path class="cls-9" d="M371.91,281.89c-2.48,4.17-2.54,8.29,0,12.36q90.93,1.38,181.86,0c3-4.07,2.9-8.19,0-12.36Q464.12,281,371.91,281.89Z"/><path class="cls-9" d="M382.22,297.12q-3.27,69.48,0,137.27c53,10.29,106,9.39,159-.91A986.3,986.3,0,0,0,540,296.09C487.72,289.13,435.93,290.35,382.22,297.12Z"/><path class="cls-10" d="M380.32,289q-3.24,72.94,0,144.13a398.16,398.16,0,0,0,159.88,0V289C488.22,281.66,433.75,281.86,380.32,289Z"/><polygon class="cls-9" points="379.78 281.93 380.33 295.18 540.2 296.08 539.92 281.93 379.78 281.93"/><path class="cls-11" d="M369.44,280.09c-2.49,4.16-2.55,8.28,0,12.35q90.93,1.4,181.85,0c3-4.07,2.9-8.19,0-12.35Q461.64,279.15,369.44,280.09Z"/><path class="cls-9" d="M503.48,336q-41.07,1.1-82.18,0c-2.72-.07-4.85-.61-5.05-1.29-2.13-7.37-2.73-14.32-.17-20.42.28-.66,2.4-1.17,5.06-1.24q40.28-1,82.31,0c2.67.06,4.79.59,5,1.25a29.17,29.17,0,0,1,0,20.42C508.23,335.39,506.14,335.92,503.48,336Z"/><path class="cls-12" d="M500.68,336.24q-42.26,1.11-84.55,0c-2.8-.07-5-.63-5.2-1.32-2.2-7.58-2.81-14.73-.17-21,.28-.68,2.46-1.21,5.2-1.28q41.44-1.06,84.69,0c2.75.07,4.93.61,5.19,1.29a30,30,0,0,1,0,21C505.57,335.62,503.42,336.17,500.68,336.24Z"/><rect class="cls-9" x="457.59" y="305.53" width="4.17" height="37.86" rx="2.05" transform="translate(784.12 -135.21) rotate(90)"/><rect class="cls-13" x="456.9" y="305.21" width="4.17" height="37.86" rx="2.05" transform="translate(783.13 -134.84) rotate(90)"/><path class="cls-9" d="M502.18,377.67q-41.07,1.08-82.18,0c-2.72-.07-4.85-.61-5.05-1.28-2.13-7.37-2.73-14.32-.17-20.42.28-.66,2.4-1.17,5.06-1.24q40.28-1,82.31,0c2.67.06,4.79.59,5,1.25a29.17,29.17,0,0,1,0,20.42C506.93,377.07,504.84,377.6,502.18,377.67Z"/><path class="cls-12" d="M499.38,377.91q-42.25,1.13-84.55,0c-2.8-.08-5-.63-5.2-1.33-2.2-7.57-2.81-14.73-.17-21,.28-.68,2.46-1.21,5.2-1.28q41.44-1.06,84.69,0c2.75.06,4.93.61,5.19,1.29a30,30,0,0,1,0,21C504.27,377.3,502.12,377.84,499.38,377.91Z"/><rect class="cls-9" x="456.29" y="347.2" width="4.17" height="37.86" rx="2.05" transform="translate(824.5 -92.24) rotate(90)"/><rect class="cls-13" x="455.6" y="346.89" width="4.17" height="37.86" rx="2.05" transform="matrix(0, 1, -1, 0, 823.5, -91.86)"/><path class="cls-9" d="M500.88,419.61q-41.07,1.08-82.18,0c-2.72-.07-4.85-.61-5.05-1.29-2.13-7.36-2.73-14.31-.17-20.41.28-.66,2.4-1.18,5.06-1.25q40.27-1,82.31,0c2.67.07,4.79.59,5,1.26a29.17,29.17,0,0,1,0,20.42C505.63,419,503.54,419.54,500.88,419.61Z"/><path class="cls-12" d="M498.08,419.85q-42.25,1.13-84.55,0c-2.8-.07-5-.62-5.2-1.32-2.2-7.58-2.81-14.73-.17-21,.28-.67,2.46-1.2,5.2-1.28q41.44-1,84.69,0c2.75.07,4.93.61,5.19,1.29a30,30,0,0,1,0,21C503,419.23,500.82,419.78,498.08,419.85Z"/><rect class="cls-9" x="454.99" y="389.14" width="4.17" height="37.86" rx="2.05" transform="translate(865.14 -49) rotate(90)"/><rect class="cls-13" x="454.3" y="388.83" width="4.17" height="37.86" rx="2.05" transform="translate(864.14 -48.63) rotate(90)"/><path class="cls-14" d="M389.94,429.6a748.78,748.78,0,0,0,139.16.09c2-.19,3.82,1,3.75,2.47l-.12,2.74c-46.91,8.78-93.29,9.45-145.63.09l-.19-3.36C386.85,430.41,388.29,429.45,389.94,429.6Z"/><path class="cls-15" d="M503.49,405.67c-.07,4.88-.57,6.1-1.35,11.36-.15,1-1.72,1.74-3.71,1.84q-11.83.6-23.67.74C497.14,418.13,502.92,419.81,503.49,405.67Z"/><path class="cls-16" d="M409,411.31c.07-4.88.57-6.1,1.35-11.35.15-1,1.72-1.75,3.71-1.85q11.84-.6,23.67-.73C415.31,398.86,409.53,397.17,409,411.31Z"/><path class="cls-16" d="M409,369.35c.07-4.88.57-6.1,1.35-11.35.15-1,1.72-1.74,3.71-1.85q11.84-.6,23.67-.73C415.31,356.9,409.53,355.21,409,369.35Z"/><path class="cls-16" d="M411.29,327.39c.08-4.88.58-6.1,1.36-11.35.14-1,1.71-1.74,3.71-1.85q11.83-.6,23.67-.73C417.65,314.94,411.87,313.25,411.29,327.39Z"/><path class="cls-15" d="M506.65,321.89c-.08,4.88-.58,6.1-1.36,11.35-.14,1-1.71,1.74-3.71,1.85q-11.83.6-23.67.73C500.29,334.34,506.07,336,506.65,321.89Z"/><path class="cls-15" d="M505.35,363.74c-.08,4.88-.58,6.1-1.36,11.35-.14,1-1.71,1.74-3.71,1.84q-11.83.61-23.67.74C499,376.19,504.77,377.88,505.35,363.74Z"/><path class="cls-17" d="M316,296.29H44.84c-10.93,0-19.88-10-19.88-22.3h0C25.39,233,43.32,185.7,82,170.85c16.86-6.47,35.28-4.57,51.37,4,34.59,18.45,68.17,17,100.79-3.67a42,42,0,0,1,24.22-6.71C308,166.54,337.63,225.1,335.83,274h0C335.83,286.25,326.89,296.29,316,296.29Z"/><path class="cls-18" d="M316,296.9c-25.35-.14-50.71-.11-76.06.27s-50.71,1-76.06,1.48-50.71.75-76.06,1l-38,.35L45,300c-.89,0-1.9,0-2.84-.15l-1.42-.23a9.57,9.57,0,0,1-1.41-.31,23.23,23.23,0,0,1-9.88-5.46A27.66,27.66,0,0,1,20.92,274l1.79-3.36-1.79,3.31a156.55,156.55,0,0,1,2.86-29.2,140.9,140.9,0,0,1,8.51-28.2,108.87,108.87,0,0,1,15.05-25.7,82.67,82.67,0,0,1,22.74-20,70.92,70.92,0,0,1,14-6.33,63.7,63.7,0,0,1,15.3-2.87,68.81,68.81,0,0,1,30.44,5.09c1.18.52,2.38,1,3.54,1.55l3.4,1.66c2.06,1,4.08,2,6.16,2.92s4.16,1.77,6.28,2.54l3.19,1.11c1.06.35,2.11.77,3.2,1a88.93,88.93,0,0,0,26.28,3.78A84.46,84.46,0,0,0,208,176.9l3.14-1.16c1-.4,2.11-.73,3.13-1.21l3.08-1.35c1-.44,2.06-.88,3.06-1.42l3-1.53,1.5-.77c.5-.27,1-.57,1.47-.85l2.94-1.72,1.46-.86,1.72-1a48.42,48.42,0,0,1,15.23-5.66,44.59,44.59,0,0,1,8.16-.79,71.25,71.25,0,0,1,7.91.57,68.52,68.52,0,0,1,28.71,11,74.82,74.82,0,0,1,11.72,9.66,92.79,92.79,0,0,1,9.71,11.39,117.34,117.34,0,0,1,7.81,12.58,134.73,134.73,0,0,1,6.09,13.36A138.72,138.72,0,0,1,337,274l-.11.43L337,274a25.18,25.18,0,0,1-6,15.79,21.31,21.31,0,0,1-6.73,5.23A18.38,18.38,0,0,1,316,296.9Zm0-1.22a17.31,17.31,0,0,0,7.67-1.92,19.22,19.22,0,0,0,6.14-5,22.3,22.3,0,0,0,3.79-6.95,22.85,22.85,0,0,0,1.16-7.81l.11-.48-.11.44a130.56,130.56,0,0,0-.69-14.13,123.53,123.53,0,0,0-2.36-13.91c-1.06-4.58-2.37-9.09-3.87-13.53a138,138,0,0,0-5.34-12.94,128.41,128.41,0,0,0-6.75-12.17,109.48,109.48,0,0,0-8.17-11.11,78.67,78.67,0,0,0-20.41-17.47,57.94,57.94,0,0,0-12-5.44,63.87,63.87,0,0,0-12.71-2.66c-2.15-.1-4.38-.33-6.35-.22a36.16,36.16,0,0,0-6,.76,39,39,0,0,0-11.35,4.53l-2.93,1.8-3.21,1.95c-.53.32-1.06.65-1.61,1l-1.66.88L226,183c-1.09.61-2.24,1.13-3.39,1.64l-3.45,1.57c-1.13.55-2.35.93-3.53,1.39l-3.56,1.32a92.78,92.78,0,0,1-30,5.12l-3.84,0c-1.27-.07-2.54-.18-3.82-.27s-2.55-.15-3.81-.34l-3.78-.56A104.16,104.16,0,0,1,152,189.32c-1.22-.33-2.38-.82-3.57-1.24l-3.54-1.3c-2.34-.92-4.6-2-6.9-3s-4.44-2.25-6.66-3.38l-3-1.55c-1-.51-2-.93-3-1.39A57.24,57.24,0,0,0,100,172.53a53.2,53.2,0,0,0-12.77,2.12,60,60,0,0,0-12.08,5.14,71.82,71.82,0,0,0-20.32,17.15,99,99,0,0,0-14.17,23.24A141.81,141.81,0,0,0,29,274l-1.79,3.32L29,274a19.74,19.74,0,0,0,5.75,14.25A15.41,15.41,0,0,0,41.26,292a4.16,4.16,0,0,0,.91.22l.92.17c.63.08,1.21.1,1.9.15l4.75,0,38,.35c25.35.23,50.7.47,76.06,1s50.71,1.08,76.06,1.48S290.61,295.82,316,295.68Z"/><path class="cls-19" d="M-6.8,418.52C-2.22,330.6,0,245.27-6.8,169.73c0-8.88,7.57-16.09,16.91-16.09h0c9.26,0,16.79,7.08,16.91,15.88-1.19,73.25.39,158.15,3.39,249Z"/><ellipse class="cls-20" cx="10.15" cy="133.8" rx="22.76" ry="21.08"/><path class="cls-21" d="M154.3,260.71l-82.67,6.87c-5.06.42-9.41-2.58-9.68-6.67l-.49-7.54c-.34-5.29,4.74-10.07,11.3-10.61L150,236.34c6.56-.54,12.2,3.34,12.55,8.63l.48,7.55C163.29,256.61,159.37,260.29,154.3,260.71Z"/><path class="cls-21" d="M154.3,260.71c-19.58,1.63-39.13,3.7-58.66,5.93L81,268.29l-7.33.78-1.83.2a14.79,14.79,0,0,1-2.11.06,11.7,11.7,0,0,1-4.19-1,10.11,10.11,0,0,1-3.59-2.68,8.1,8.1,0,0,1-1.88-4.34c0-.22,0-.38-.06-.52l0-.46-.08-.92-.14-1.83-.28-3.68c0-.16,0-.29,0-.48v-.58a5.51,5.51,0,0,1,.07-1.15,6.17,6.17,0,0,1,.19-1.14,6.66,6.66,0,0,1,.33-1.1,11.72,11.72,0,0,1,2.27-3.83,15.19,15.19,0,0,1,7.21-4.41,14.6,14.6,0,0,1,2.07-.42l1-.13.92-.07,3.67-.28,7.35-.57c4.9-.38,9.8-.67,14.7-1,9.81-.62,19.63-1.16,29.44-1.68l14.73-.8c2.46-.12,4.88-.31,7.39-.39a13.89,13.89,0,0,1,7.23,1.92,9.32,9.32,0,0,1,4.46,5.83,25.79,25.79,0,0,1,.32,3.7L163,251a10.36,10.36,0,0,1-.17,3.68,7.54,7.54,0,0,1-1.92,3.12A10.43,10.43,0,0,1,154.3,260.71Zm0,0a10.4,10.4,0,0,0,6.56-3,7.3,7.3,0,0,0,1.86-3.11,9.62,9.62,0,0,0,.12-3.63l-.27-3.68a23.87,23.87,0,0,0-.43-3.62,8.85,8.85,0,0,0-4.41-5.41,12.72,12.72,0,0,0-6.91-1.51c-2.4.19-4.87.5-7.31.75l-14.65,1.65c-9.77,1.1-19.54,2.19-29.31,3.2-4.89.47-9.78,1-14.67,1.43l-7.34.65-3.68.32-.91.08-.79.11a11.73,11.73,0,0,0-1.54.33,10.94,10.94,0,0,0-5.24,3.09,7.64,7.64,0,0,0-1.5,2.45,6.56,6.56,0,0,0-.33,1.34,2.57,2.57,0,0,0,0,.68v.34c0,.11,0,.29,0,.44l.39,7.29a5.2,5.2,0,0,0,3.15,4.1,8.7,8.7,0,0,0,2.91.82,11.68,11.68,0,0,0,1.57,0l1.84-.11,7.36-.43,14.72-.8C115.1,263.53,134.72,262.34,154.3,260.71Z"/><path class="cls-22" d="M260.22,541.25q-175.58,5.24-336.49-1.78c-6.29,0-7.73-4-3.21-8.75,29-33.68,59-65.9,90.59-95.71,4.52-4.78,13.36-8.66,19.64-8.63a2986.22,2986.22,0,0,1,336.49,1.79c6.29,0,7.73,4,3.21,8.74-30,34.48-60.17,66.88-90.58,95.71C275.35,537.4,266.51,541.28,260.22,541.25Z"/><path class="cls-21" d="M286,265.42l-82-5.23c-5.07-.33-9-4.16-8.82-8.53l.41-8c.28-5.66,5.88-9.94,12.44-9.52l76.6,4.88c6.56.42,11.7,5.39,11.42,11l-.41,8.06C295.35,262.43,291,265.74,286,265.42Z"/><path class="cls-21" d="M286,265.42c-19.71-1.26-39.45-2.06-59.21-2.69l-14.81-.5-7.4-.29a17.36,17.36,0,0,1-2-.16,11.8,11.8,0,0,1-2.11-.51,11.31,11.31,0,0,1-3.8-2.15,10.29,10.29,0,0,1-2.72-3.61,9.76,9.76,0,0,1-.65-2.26,8,8,0,0,1-.1-1.19c0-.19,0-.42,0-.57V251c.09-2.47.15-4.93.27-7.4a11.16,11.16,0,0,1,1.1-4.39,12.16,12.16,0,0,1,2.66-3.6A14.46,14.46,0,0,1,205,232a16.46,16.46,0,0,1,2.14-.13l1.06,0,.92.06,3.7.26,7.39.51c4.92.35,9.85.78,14.77,1.16q14.76,1.25,29.52,2.68L279.23,238l3.69.33a24.59,24.59,0,0,1,3.74.49,13.46,13.46,0,0,1,6.56,3.7,10,10,0,0,1,2.93,6.8c-.07,2.49-.32,4.93-.43,7.41a10.1,10.1,0,0,1-.6,3.65,7.64,7.64,0,0,1-2.23,2.95A9.84,9.84,0,0,1,286,265.42Zm0,0a9.76,9.76,0,0,0,6.88-2.19A7.55,7.55,0,0,0,295,260.3a10,10,0,0,0,.56-3.61c.06-1.23.11-2.47.14-3.7s.13-2.49.08-3.69a9.53,9.53,0,0,0-3-6.38,12.25,12.25,0,0,0-6.32-3.2,23.56,23.56,0,0,0-3.61-.29l-3.71-.14-14.81-.51c-9.88-.32-19.75-.66-29.62-1.09-4.93-.25-9.87-.45-14.8-.73l-7.4-.43-3.69-.21-.93-.06h-.79a11.42,11.42,0,0,0-1.55.11,10.1,10.1,0,0,0-5.47,2.43,7.37,7.37,0,0,0-2.47,5c-.13,2.46-.31,4.93-.47,7.39l0,.46c0,.16,0,.24,0,.36a3.49,3.49,0,0,0,0,.65,5.12,5.12,0,0,0,.32,1.31,6.39,6.39,0,0,0,1.63,2.3,8.18,8.18,0,0,0,2.54,1.58,8.92,8.92,0,0,0,1.47.44,15.89,15.89,0,0,0,1.65.2l7.38.66,14.76,1.38C246.57,262.45,266.25,264.16,286,265.42Z"/><path class="cls-23" d="M331.54,408.22c5.53-88.58,7.19-170.94,0-239.11,0-8.54,7.57-15.47,16.91-15.47h0c9.26,0,16.79,6.81,16.91,15.27-4.62,70.28-1.64,153.12,3.39,239.31Z"/><ellipse class="cls-24" cx="348.49" cy="133.8" rx="22.76" ry="21.08"/><path class="cls-25" d="M329.48,324.46C230.86,337,131.14,336.63,30.4,324.2c-14.17-1.75-25.12-13.65-25.09-27.93,0-.17,0-.34,0-.51A28.41,28.41,0,0,1,30.78,268c100.48-11,199.94-11.3,298.31-.23a28.44,28.44,0,0,1,25.35,27.84v.93A28.39,28.39,0,0,1,329.48,324.46Z"/><path class="cls-26" d="M329.54,325c-15.82,1.89-31.62,4-47.46,5.78-4,.47-7.92,1-11.89,1.38l-11.9,1.33c-4,.47-8,.79-11.92,1.19s-8,.82-11.94,1.11a670.61,670.61,0,0,1-95.82,1.3c-8-.47-16-1-23.91-1.73S98.79,333.81,90.85,333Q67,330.34,43.31,327.33l-11.87-1.46a32.7,32.7,0,0,1-11.92-3.55,31.15,31.15,0,0,1-9.59-8A30.05,30.05,0,0,1,4.41,303a28.8,28.8,0,0,1-.87-6.27A32.79,32.79,0,0,1,4,290.43a30,30,0,0,1,4.78-11.78,31.39,31.39,0,0,1,21.35-13.36L42,263.71c4-.52,7.91-1,11.88-1.5l11.9-1.4c4-.46,7.94-.81,11.92-1.21C93.6,258,109.55,257,125.51,256s31.94-1.46,47.92-1.64c8-.21,16-.11,24-.11,4,0,8,.14,12,.2s8,.12,12,.31c8,.33,16,.58,24,1.11,4,.25,8,.44,12,.73l12,.93c15.93,1.33,31.81,3.24,47.63,5.54l11.85,1.78c.48.06,1,.16,1.55.27l1.61.33c1.05.25,2.09.6,3.13.91s2,.76,3,1.24a29.88,29.88,0,0,1,2.84,1.54,31.08,31.08,0,0,1,9.28,8.69,30.31,30.31,0,0,1,4.89,11.54,9.89,9.89,0,0,1,.25,1.54l.18,1.55c.09,1,.07,2.08.1,3.12s-.11,2.05-.18,3.07-.32,2.05-.47,3.07a29.67,29.67,0,0,1-5,11.15,29.37,29.37,0,0,1-1.92,2.38c-.67.77-1.43,1.46-2.15,2.18A30.16,30.16,0,0,1,341,321,29.79,29.79,0,0,1,329.54,325Zm-.12-1a27.72,27.72,0,0,0,19.32-11.91A26.58,26.58,0,0,0,353,301.38c.09-1,.27-1.9.28-2.86s.08-1.9,0-2.89-.15-1.91-.29-2.85l-.27-1.4a9.51,9.51,0,0,0-.32-1.38,25.9,25.9,0,0,0-13.72-16.8,23.36,23.36,0,0,0-2.52-1.09c-.84-.34-1.74-.55-2.59-.83s-1.78-.39-2.67-.52l-1.35-.14a13.94,13.94,0,0,0-1.4-.13l-11.91-.73-5.94-.38-6-.3c-4-.18-7.93-.43-11.89-.66l-23.79-1.12-11.89-.55c-4-.2-7.93-.31-11.89-.46-7.93-.32-15.85-.52-23.78-.74-31.71-.78-63.45-.89-95.19,0-15.86.54-31.72,1.2-47.58,2.11s-31.76,1.85-47.55,3.11a26,26,0,0,0-18.52,10.36,25.56,25.56,0,0,0-4.58,10,27.18,27.18,0,0,0,.07,11.11,25,25,0,0,0,4.7,10.1A27.66,27.66,0,0,0,21,319.61c.83.45,1.69.84,2.54,1.23s1.76.7,2.67.93a24,24,0,0,0,2.76.64c.92.16,1.85.32,2.86.41l11.86,1.28c31.65,3.35,63.51,4,95.24,4.57,7.93.22,15.87.14,23.8.33l11.9.09,5.95.08h5.95l11.9.09,11.91,0c7.94.08,15.88,0,23.83,0C265.93,329.29,297.83,328,329.42,324Z"/><path class="cls-17" d="M359,443.72q-178.29,8.47-353.37,0a12,12,0,0,1-12-12c-3-46.52-3.51-91.05,0-132.26a12,12,0,0,1,12-12c113.25-8.89,231.24-8.52,353.37,0a12,12,0,0,1,12,12c2.74,47.62,3.27,92.4,0,132.26A12,12,0,0,1,359,443.72Z"/><path class="cls-18" d="M359,444.17c-21,1.06-42,2-63,2.75l-31.53,1.17-15.77.54-15.78.45c-42.06,1.26-84.16,2.25-126.28,2.23-21.06.06-42.12-.14-63.18-.48l-15.8-.28-15.7-.38L8,450.07l-2,0-1.13,0c-.47,0-.91,0-1.4-.07a18.52,18.52,0,0,1-16.37-15.59l-.12-.75,0-.68-.09-1.24-.16-1.93-.32-3.86c-.23-2.53-.39-5.21-.57-7.84l-.5-7.92c-.33-5.27-.6-10.56-.85-15.85q-.73-15.86-1-31.76-.36-31.81,2.12-63.72l0,.68a20.12,20.12,0,0,1,1.52-7.69,20.23,20.23,0,0,1,4.33-6.49,20.12,20.12,0,0,1,6.47-4.36,19.68,19.68,0,0,1,7.71-1.56l-.64,0q31.6-2.28,63.25-3.7,7.91-.35,15.82-.56c5.28-.18,10.55-.29,15.83-.38s10.55-.24,15.83-.29l15.83-.15q15.82-.12,31.65.17l15.82.28,15.82.43c21.08.62,42.15,1.46,63.2,2.64,10.52.52,21,1.23,31.55,1.88l15.77,1.1q7.88.54,15.75,1.18l15.75,1.25,15.68,1.38,8,.68a14.23,14.23,0,0,1,8.2,4.05,13.94,13.94,0,0,1,4,8.1,18.56,18.56,0,0,1,.13,2.18l.06,2,.13,3.93c.79,21,1.29,42.1,1.07,63.15s-.77,42.11-2.6,63.1v0a12.54,12.54,0,0,1-7.76,11.52A12.38,12.38,0,0,1,359,444.17Zm0-.9a11.57,11.57,0,0,0,11.54-11.55h0v0c3.32-41.93,2.46-84.07.22-126.06l-.22-3.95-.11-2a14.6,14.6,0,0,0-.15-1.89,11.33,11.33,0,0,0-3.37-6.55,11.55,11.55,0,0,0-6.67-3.14l-7.83-.49-15.76-1-15.74-.9q-7.87-.46-15.76-.82l-15.75-.75c-10.51-.41-21-.88-31.53-1.17q-63.06-2-126.17-.8c-21,.42-42,1.19-63,2.17s-42,2.4-62.95,4H5.63a11.13,11.13,0,0,0-11.12,11.1v.07c-3.56,41.87-2.9,84-.48,126l.23,3.95.12,2a18.65,18.65,0,0,0,.14,1.88,11.23,11.23,0,0,0,3.28,6.47,11.33,11.33,0,0,0,6.54,3.13c1.21.09,2.56.13,3.87.2l3.94.18,15.77.74,15.75.64c21,.81,42,1.49,63.05,1.91s42.05.73,63.08.79,42,0,63.08-.29Q296,446.24,359,443.27Z"/><rect class="cls-27" x="21.12" y="322.96" width="134.13" height="85.14" rx="12"/><rect class="cls-27" x="206.95" y="323.08" width="134.13" height="85.14" rx="12"/><path class="cls-18" d="M337.64,347.83c-.13,18.85,1.41,25,.21,42.42-.55,7.88-6,14.24-13.05,15-12.72,1.35-25.43-.39-38.13-.06C330.49,401.8,339.8,412.78,337.64,347.83Z"/><path class="cls-18" d="M152,347.83c-.12,18.85,1.41,25,.21,42.42-.54,7.88-6,14.24-13,15-12.71,1.35-25.42-.39-38.13-.06C144.84,401.8,154.15,412.78,152,347.83Z"/><path class="cls-18" d="M23.34,383.23c.12-18.85-1.41-25-.21-42.42.54-7.88,6-14.24,13.05-15,12.71-1.35,25.42.38,38.13.06C30.49,329.25,21.18,318.27,23.34,383.23Z"/><path class="cls-18" d="M209.85,383.23c.12-18.85-1.41-25-.21-42.42.54-7.88,6-14.24,13.05-15,12.71-1.35,25.42.38,38.13.06C217,329.25,207.69,318.27,209.85,383.23Z"/><g id="window"><rect class="cls-28" x="617.82" y="242.84" width="378.83" height="32.86" rx="12"/><rect class="cls-29" x="631.4" y="48.51" width="341.15" height="203.92" rx="12"/><polygon class="cls-30" points="732.15 239.59 852.12 52.62 896.26 52.62 732.15 239.59"/><polygon class="cls-30" points="629.88 250.11 749.85 63.15 793.99 63.15 629.88 250.11"/><polygon class="cls-30" points="966.42 71.41 844.6 257.17 800.46 256.73 966.42 71.41"/><rect class="cls-18" x="614.5" y="235.52" width="378.83" height="32.86" rx="12"/><rect class="cls-31" x="639.61" y="52.62" width="325.45" height="22.47" rx="11.23"/><line class="cls-32" x1="946.26" y1="59.62" x2="949.52" y2="176.5"/></g><path class="cls-33" d="M655.85,204.61s9.58-5.57,17.72,3.78C679.24,221.83,662.39,203,655.85,204.61Z"/><path class="cls-33" d="M676.15,179.32s.15-6.82,6.77-7.93C690.73,172.94,677.25,175.38,676.15,179.32Z"/><path class="cls-33" d="M691.68,164.32s-6.77-.77-8.57,5.05C683.81,176.62,687.67,164.79,691.68,164.32Z"/><path class="cls-33" d="M693.65,198.32S678,196.1,673.39,209.7C674,225.36,683.26,195.91,693.65,198.32Z"/><path class="cls-34" d="M679.24,227.2a27.35,27.35,0,0,1-5.47-8.3,22.36,22.36,0,0,1-1.86-10.09,19.76,19.76,0,0,1,3.41-10,28.1,28.1,0,0,1,7.39-7.32c.7-.49,1.44-1,2.15-1.39s1.32-.83,1.95-1.27a24.74,24.74,0,0,0,3.5-2.86,9.87,9.87,0,0,0,2.33-3.35,5.29,5.29,0,0,0,0-3.66,10.28,10.28,0,0,0-2.32-3.57,23.18,23.18,0,0,0-3.53-3.05,58.16,58.16,0,0,0-8.34-5,36.73,36.73,0,0,1,9.37,3.31,26.48,26.48,0,0,1,4.29,2.83,12.69,12.69,0,0,1,3.4,4.29,8.08,8.08,0,0,1,.38,5.91,13.2,13.2,0,0,1-2.9,4.84,26.89,26.89,0,0,1-4,3.45c-.7.49-1.41,1-2.14,1.42l-2,1.27a28.3,28.3,0,0,0-6.63,6.22,18.14,18.14,0,0,0-3.42,8.17,23,23,0,0,0,.65,9.19A36.58,36.58,0,0,0,679.24,227.2Z"/><path class="cls-35" d="M681.39,244.79H666.05a4.66,4.66,0,0,1-4.65-4.65L655,214.26a4.66,4.66,0,0,1,4.65-4.64H688.9a4.66,4.66,0,0,1,4.65,4.64L686,240.14A4.67,4.67,0,0,1,681.39,244.79Z"/><rect class="cls-36" x="651.84" y="209.27" width="45.09" height="4.65" rx="2.19"/><polygon class="cls-37" points="677.83 157.49 681.3 163.94 688.51 162.64 683.44 167.93 686.91 174.39 680.31 171.21 675.24 176.5 676.23 169.24 669.63 166.05 676.84 164.75 677.83 157.49"/><polygon class="cls-38" points="681.71 176.84 678.2 170.99 671.54 172.53 676.03 167.38 672.51 161.52 678.79 164.19 683.28 159.04 682.68 165.84 688.96 168.51 682.31 170.04 681.71 176.84"/><circle class="cls-37" cx="679.68" cy="167.73" r="2.19"/><path class="cls-39" d="M963.74,201a16.32,16.32,0,0,0-19.94,4.1C937.42,219.7,956.39,199.24,963.74,201Z"/><path class="cls-39" d="M941.31,178.9s-6.94,2.57-5.64,10C940.12,196.67,937.67,181.46,941.31,178.9Z"/><path class="cls-39" d="M926.55,164.3s7.62-.84,9.64,5.48C935.4,177.64,931.06,164.81,926.55,164.3Z"/><path class="cls-40" d="M940.89,242.78l14-.37c2.33-.07,5,.73,6,1.77l15.49,10.37c1,1-.18,1.94-2.52,2l-26.75.71c-2.34.07-5-.73-6-1.77l-2.77-10.71C937.42,243.74,938.56,242.84,940.89,242.78Z"/><path class="cls-40" d="M666.67,245.65H681c2.38,0,4.32.71,4.32,1.59l6,8.87c0,.88-1.94,1.59-4.32,1.59H659.68c-2.38,0-4.33-.71-4.33-1.59l7-8.87C662.35,246.36,664.3,245.65,666.67,245.65Z"/><path class="cls-39" d="M920.48,194.2s17.6-2.41,22.79,12.35C942.58,223.53,932.16,191.58,920.48,194.2Z"/><path class="cls-41" d="M942.3,225.53a20.32,20.32,0,0,0,1.69-8.6,33.44,33.44,0,0,0-1.21-8.56,63.46,63.46,0,0,0-7-15.87l-1.14-1.88-1.2-1.84-.65-1c-.22-.39-.43-.78-.62-1.19a11.32,11.32,0,0,1-.85-2.58,12.11,12.11,0,0,1,.11-5.33,17.27,17.27,0,0,1,1.93-4.64,35.18,35.18,0,0,1,6-7.22c1.08-1.07,2.23-2.06,3.26-3.11a7.86,7.86,0,0,0,1.36-1.62c.15-.29.26-.57.11-.82a1.6,1.6,0,0,0-.87-.58,1.72,1.72,0,0,1,1.16.33,1,1,0,0,1,.32.63,1.91,1.91,0,0,1,0,.68,8.59,8.59,0,0,1-1,2.19c-.82,1.32-1.69,2.57-2.55,3.79a48.32,48.32,0,0,0-4.52,7.4,11.33,11.33,0,0,0-1.11,7.39,9.35,9.35,0,0,0,.6,1.68c.13.27.28.54.44.81l.55.86c.85,1.28,1.66,2.6,2.43,3.93a50.82,50.82,0,0,1,6.47,17.39,30.68,30.68,0,0,1,.37,4.69,25.32,25.32,0,0,1-.36,4.68,20.37,20.37,0,0,1-1.26,4.49A13,13,0,0,1,942.3,225.53Z"/><path class="cls-35" d="M939.89,244.61h17.26a5.15,5.15,0,0,0,5.23-5l7.19-28.07a5.14,5.14,0,0,0-5.22-5H931.43a5.15,5.15,0,0,0-5.23,5l8.46,28.07A5.15,5.15,0,0,0,939.89,244.61Z"/><rect class="cls-36" x="922.4" y="206.08" width="50.74" height="5.04" rx="2.2" transform="translate(1895.54 417.2) rotate(-180)"/><polygon class="cls-42" points="943.9 149.9 939.99 156.9 931.88 155.49 937.58 161.23 933.67 168.24 941.1 164.78 946.81 170.53 945.7 162.65 953.13 159.19 945.01 157.78 943.9 149.9"/><polygon class="cls-43" points="939.53 170.9 943.48 164.55 950.97 166.21 945.92 160.63 949.88 154.28 942.81 157.17 937.77 151.59 938.44 158.96 931.37 161.86 938.86 163.52 939.53 170.9"/><ellipse class="cls-37" cx="941.81" cy="161.01" rx="2.46" ry="2.37"/><g id="Lamp"><path class="cls-44" d="M491.36,205.47l58,73.93H368.62l58-73.93A41.15,41.15,0,0,1,491.36,205.47Z"/><rect class="cls-45" x="457.73" y="211.89" width="5.67" height="62.58"/><path class="cls-18" d="M463.46,274.54c-1.82.09-3.74.28-5.73.35l-.41,0,0-.44-.35-7.82-.17-3.91-.11-3.91-.43-15.65c-.12-5.21-.16-10.43-.24-15.64l-.07-15.65v-1.81h1.81l5.66,0h1.78v1.76c0,5.32,0,10.65-.15,16l-.15,8-.25,7.89-.5,15.62Zm-.14-.14-.12-62.51.19.19h-5.66l.2-.2-.1,62.58-.1-.11Z"/><line class="cls-46" x1="444.36" y1="217.05" x2="444.36" y2="252.07"/><path class="cls-45" d="M493,280.07H429.08c-3.12,0-5.67-1.47-5.67-3.26l37.3-9.15,38,9.15C498.7,278.6,496.15,280.07,493,280.07Z"/><path class="cls-18" d="M493,280.17l-17.77.23c-3,0-5.92.13-8.88.23l-8.89.28-17.77.58c-3,.12-5.93.15-8.89.18l-1.11,0h-1.19a10.61,10.61,0,0,1-2.59-.42,7.43,7.43,0,0,1-2.55-1.27,4.86,4.86,0,0,1-1.13-1.27,3.79,3.79,0,0,1-.56-1.92l0-1.33,1.32-.34c3.11-.79,6.19-1.64,9.32-2.33l9.35-2.17c3.12-.71,6.23-1.47,9.36-2.14l9.4-2,.32-.07.24.07,18.84,5.19c3.14.87,6.28,1.74,9.45,2.52l9.46,2.4.15,0v.15a2.54,2.54,0,0,1-.79,1.7,5,5,0,0,1-1.54,1A8.72,8.72,0,0,1,493,280.17Zm0-.2a8.38,8.38,0,0,0,3.43-.69,4.71,4.71,0,0,0,1.44-1,2.24,2.24,0,0,0,.69-1.51l.08.1-38-9.1h.07L423.46,277l.15-.18a2.32,2.32,0,0,0,1,1.73,5.7,5.7,0,0,0,1.9,1,14,14,0,0,0,4.35.38h8.89l17.77,0Z"/><path class="cls-47" d="M499.72,221.64H426.54c-2.57,0-25.19-1.21-25.19-2.69,0,0,45.42-42.24,48-42.24h23.43c2.57,0,48,42.24,48,42.24C520.77,220.43,502.29,221.64,499.72,221.64Z"/><path class="cls-18" d="M499.72,221.84l-12.34.1-6.16,0-6.17.13-12.34.29-12.33.46-24.74.9c-4.18,0-8.29-.11-12.45-.28-2.07-.09-4.15-.2-6.26-.37-1.05-.08-2.11-.18-3.21-.32-.55-.08-1.11-.16-1.73-.29a7.87,7.87,0,0,1-1.06-.27,4.88,4.88,0,0,1-.79-.34,3.33,3.33,0,0,1-.78-.54,3.27,3.27,0,0,1-1.07-2.4l0-1.26,1-1c4.54-4.4,9.07-8.8,13.67-13.14s9.26-8.6,14-12.83,9.49-8.36,14.45-12.42c1.27-1,2.52-2,3.9-3,.35-.25.7-.5,1.11-.76.19-.13.44-.27.67-.41l.46-.25.37-.16.21-.08.11,0,.28-.08a5.4,5.4,0,0,1,.58-.09l.28,0h1.1l1.18,0c3.16.08,6.31.11,9.47.25l9.46.35,1.18,0,.59,0,.3,0h.2l.23,0a3.4,3.4,0,0,1,.46.08,4.25,4.25,0,0,1,1.22.56c.21.13.43.28.61.41.37.27.7.53,1,.8,1.3,1.05,2.49,2.1,3.69,3.17,4.73,4.27,9.28,8.64,13.84,13s9.06,8.81,13.56,13.24,9.09,8.77,13.6,13.18l.15.14,0,.15a.76.76,0,0,1-.36.58,2.61,2.61,0,0,1-.37.19,6,6,0,0,1-.68.22c-.45.12-.89.21-1.33.29-.89.17-1.78.3-2.67.42-1.77.23-3.55.41-5.33.56s-3.56.28-5.34.4S501.52,221.82,499.72,221.84Zm0-.4c1.76,0,3.55-.16,5.33-.28s3.55-.27,5.32-.44,3.55-.37,5.31-.61c.88-.12,1.76-.26,2.63-.43.43-.09.86-.19,1.28-.31a5.29,5.29,0,0,0,.6-.21,2,2,0,0,0,.35-.21l.07.17q-13.91-12.84-28-25.5c-4.71-4.19-9.43-8.38-14.26-12.42-1.21-1-2.43-2-3.69-2.94-.31-.24-.63-.47-.95-.68a4.28,4.28,0,0,0-.92-.53h-2.29l-9.46,0H449.52l-.21,0a4.66,4.66,0,0,0-.91.52c-.32.21-.63.45-.95.68-1.25.94-2.46,1.94-3.67,3-4.82,4-9.53,8.26-14.22,12.47q-14.1,12.61-28,25.49l.11-.25c0-.18,0-.06.07,0a2.22,2.22,0,0,0,.31.13,7.15,7.15,0,0,0,.7.2c.49.12,1,.21,1.49.3,1,.16,2,.3,3,.42,2,.23,4.08.42,6.12.59q6.15.49,12.3.76l24.66.05Z"/></g></g></svg>