<svg xmlns="http://www.w3.org/2000/svg" xmlns:xlink="http://www.w3.org/1999/xlink" viewBox="0 0 1060.2 612"><defs><style>.cls-1,.cls-5,.cls-6{stroke:#000;}.cls-1,.cls-15,.cls-20,.cls-40,.cls-41,.cls-5,.cls-6{stroke-miterlimit:10;}.cls-1{stroke-width:0.87px;fill:url(#linear-gradient);}.cls-2{fill:#7e9ece;}.cls-3{fill:#b4d3cd;}.cls-4{fill:#994270;}.cls-40,.cls-41,.cls-5,.cls-6{fill:none;}.cls-6{stroke-width:0.97px;}.cls-7{fill:#878483;}.cls-8{fill:#aaa5a5;}.cls-9{fill:#0e0f0f;}.cls-16,.cls-9{opacity:0.25;}.cls-10{fill:#7d7e7f;}.cls-11{fill:#5e8bcc;}.cls-12{fill:#474749;}.cls-13,.cls-23,.cls-24{fill:#374751;}.cls-14,.cls-16,.cls-17,.cls-18{fill:#26292b;}.cls-14{opacity:0.48;}.cls-15{fill:#d2d5d8;stroke:#595982;stroke-width:6.41px;}.cls-17{opacity:0.55;}.cls-19{fill:#1a1a1a;}.cls-19,.cls-37{opacity:0.49;}.cls-20,.cls-36{fill:#686868;}.cls-20{stroke:#494951;stroke-width:6.11px;}.cls-21{fill:#88b2e5;}.cls-22{fill:#82b3db;}.cls-23{opacity:0.31;}.cls-24{opacity:0.19;}.cls-25{fill:#183023;opacity:0.21;}.cls-26{fill:#36845d;}.cls-27{fill:#2d443a;opacity:0.59;}.cls-28{fill:#6aa58c;}.cls-29{opacity:0.26;}.cls-30{fill:#8c9b93;}.cls-31{fill:#686d6a;}.cls-32{fill:#050504;opacity:0.33;}.cls-33{fill:#dfe5c6;}.cls-34{fill:#d3d6bd;}.cls-35{fill:#3f3c3a;}.cls-37{fill:#191919;}.cls-38{fill:#595654;}.cls-39{fill:#e8e8e8;}.cls-40,.cls-41{stroke:#333;stroke-width:3.86px;}.cls-40{opacity:0.39;}</style><linearGradient id="linear-gradient" x1="520.9" y1="420.88" x2="520.9" y2="613.51" gradientTransform="matrix(1, 0, 0, -1, 8.39, 1034.39)" gradientUnits="userSpaceOnUse"><stop offset="0" stop-color="#5c6b99"/><stop offset="1" stop-color="#7d89ad"/></linearGradient></defs><title>wideInnerHouse</title><g id="Kitchen"><rect class="cls-1" x="-1.62" y="420.88" width="1061.83" height="192.64" transform="translate(1058.59 1034.39) rotate(-180)"/><path class="cls-2" d="M1059.53,471.82c-7.17.52-6.57,1.21-13.82,1.82C800.78,494.22,605.2,557.12,603.5,615.14l457-3.19Z"/><polygon class="cls-3" points="1060.98 0 1059.6 421.88 -1.62 421.88 -1.62 0 1060.98 0"/><g id="Tiles"><rect class="cls-4" x="128.9" y="108.48" width="232.45" height="173.39" rx="12" transform="translate(490.24 390.35) rotate(-180)"/><line class="cls-5" x1="361.34" y1="134.31" x2="128.9" y2="134.31"/><line class="cls-5" x1="361.34" y1="169.35" x2="128.9" y2="169.35"/><line class="cls-5" x1="361.34" y1="207.91" x2="128.9" y2="207.91"/><line class="cls-5" x1="361.34" y1="243.82" x2="128.9" y2="243.82"/><line class="cls-5" x1="338.4" y1="108.48" x2="338.4" y2="281.87"/><line class="cls-5" x1="292.28" y1="108.48" x2="292.28" y2="281.87"/><line class="cls-5" x1="246.17" y1="108.59" x2="246.17" y2="281.87"/><line class="cls-5" x1="203.16" y1="108.48" x2="203.16" y2="281.87"/><line class="cls-5" x1="159.71" y1="108.59" x2="159.71" y2="281.87"/></g><g id="Tiles-2" data-name="Tiles"><rect class="cls-4" x="-1.62" y="108.48" width="145.57" height="173.39" transform="translate(142.33 390.35) rotate(-180)"/><path class="cls-6" d="M144,134.31C96.15,134,49.06,134,.69,134.26"/><path class="cls-6" d="M144,169.35c-47.8-.35-96.77-.35-144.58,0"/><path class="cls-6" d="M144,207.91c-47.8.09-96.77.09-144.62,0"/><path class="cls-6" d="M144,243.82c-47.8.18-96.77.18-144.7,0"/><line class="cls-6" x1="122.34" y1="108.48" x2="122.34" y2="281.87"/><line class="cls-6" x1="78.91" y1="108.48" x2="78.91" y2="281.87"/><line class="cls-6" x1="35.49" y1="108.59" x2="35.49" y2="281.87"/></g><path class="cls-7" d="M548.81,247.91v-5.76s-23.94,2.66-27.93-10.64c-3.4-11.33,24,0,32.29,3.62a4.09,4.09,0,0,1,2.43,3.51l.53,9.27h13.3s-8-53,30.59-51.65c21.27.73,33.85.65,40.85.43a9.27,9.27,0,0,1,9.62,8.91,39.76,39.76,0,0,1-.09,4.29c-.66,9.31-11.14,7.65-11.8,5s2.14-7.46-6.33-7.31l-37.25.66s-16.95.89-12.29,39.68h14.63l.49-8.71a5,5,0,0,1,3-4.3c8.82-3.84,35.09-14.48,31.76-3.39-4,13.3-27.93,10.64-27.93,10.64v5.76l28.6,10.87H520.21Z"/><rect class="cls-8" x="595.87" y="197.42" width="45.39" height="2.99" rx="1.5" transform="translate(1237.13 397.82) rotate(180)"/><path class="cls-8" d="M525.44,229.68a80.58,80.58,0,0,1,26.85,8.85,1.25,1.25,0,0,0,1.57-.79h0a1.26,1.26,0,0,0-.79-1.58,108.23,108.23,0,0,0-26.85-8.85,1.24,1.24,0,0,0-1.57.79h0A1.25,1.25,0,0,0,525.44,229.68Z"/><path class="cls-8" d="M601.94,238.55a80.6,80.6,0,0,1,26.73-9.2,1.25,1.25,0,0,0,.77-1.58h0a1.25,1.25,0,0,0-1.58-.78,98.65,98.65,0,0,0-26.73,9.2,1.25,1.25,0,0,0-.77,1.59h0A1.24,1.24,0,0,0,601.94,238.55Z"/><rect class="cls-8" x="489.2" y="254.72" width="171.05" height="11.97" rx="5.99" transform="translate(1149.45 521.4) rotate(180)"/><path class="cls-9" d="M725.33,270.85c9.82,51.3,10.07,102,0,152-239.67,11.41-479.35,10.41-719-1-11.75-50-10.88-103.4,5.56-152.16C248.19,262,482.39,263.36,725.33,270.85Z"/><path class="cls-2" d="M728.3,273.22c9.86,50.22,10.11,99.85,0,148.83-240.67,11.17-489.25,11.17-729.92,0V273.22C235.68,265.67,484.35,265.88,728.3,273.22Z"/><polygon class="cls-9" points="730.71 265.03 728.18 279.71 -3.02 280.71 -1.75 265.03 730.71 265.03"/><path class="cls-10" d="M741.65,264.53c10,3.39,10.28,6.74,0,10.06-244.47.75-741.34,0-741.34,0l.32-10.06S493.85,264,741.65,264.53Z"/><path class="cls-9" d="M594.09,408.13a495.54,495.54,0,0,0,104.95,0,7.19,7.19,0,0,0,6.45-6.62c2.73-37.91,3.49-73.69.22-105.07a7.23,7.23,0,0,0-6.46-6.4,529,529,0,0,0-105.12.05,7.15,7.15,0,0,0-6.43,6.45,586.45,586.45,0,0,0,0,105.09A7.15,7.15,0,0,0,594.09,408.13Z"/><path class="cls-11" d="M596.67,408.38a510.14,510.14,0,0,0,108,0,7.41,7.41,0,0,0,6.64-6.81c2.8-39,3.59-75.82.22-108.11a7.42,7.42,0,0,0-6.64-6.58,543.69,543.69,0,0,0-108.16,0,7.37,7.37,0,0,0-6.62,6.65,603.48,603.48,0,0,0,0,108.12A7.36,7.36,0,0,0,596.67,408.38Z"/><rect class="cls-9" x="605.2" y="319.11" width="7.65" height="33.17" rx="3.82"/><rect class="cls-12" x="606.64" y="319.11" width="7.65" height="33.17" rx="3.82"/><path class="cls-9" d="M560.65,408.13a495.54,495.54,0,0,1-104.95,0,7.19,7.19,0,0,1-6.45-6.62c-2.72-37.91-3.49-73.69-.21-105.07a7.22,7.22,0,0,1,6.45-6.4,529,529,0,0,1,105.12.05,7.17,7.17,0,0,1,6.44,6.45,588.31,588.31,0,0,1,0,105.09A7.17,7.17,0,0,1,560.65,408.13Z"/><path class="cls-11" d="M566.08,408.38a510.24,510.24,0,0,1-108,0,7.39,7.39,0,0,1-6.63-6.81c-2.81-39-3.6-75.82-.22-108.11a7.4,7.4,0,0,1,6.64-6.58,543.68,543.68,0,0,1,108.16,0,7.38,7.38,0,0,1,6.62,6.65,604.41,604.41,0,0,1,0,108.12A7.36,7.36,0,0,1,566.08,408.38Z"/><rect class="cls-9" x="547.9" y="319.11" width="7.65" height="33.17" rx="3.82" transform="translate(1103.45 671.4) rotate(-180)"/><rect class="cls-12" x="548.46" y="319.11" width="7.65" height="33.17" rx="3.82" transform="translate(1104.56 671.4) rotate(-180)"/><path class="cls-9" d="M353.92,313.91q33.16,1.2,66.35,0c2.19-.08,3.92-.68,4.08-1.43,1.72-8.15,2.2-15.85.13-22.61-.22-.73-1.93-1.3-4.08-1.37q-32.52-1.15-66.45,0c-2.16.07-3.87.65-4.07,1.39a43.67,43.67,0,0,0,0,22.61C350.09,313.24,351.78,313.83,353.92,313.91Z"/><path class="cls-11" d="M356.18,314.18q34.11,1.23,68.26,0c2.26-.08,4-.7,4.2-1.47,1.77-8.39,2.27-16.31.14-23.26-.23-.75-2-1.34-4.2-1.42q-33.45-1.17-68.37,0c-2.22.08-4,.68-4.19,1.43a45,45,0,0,0,0,23.27C352.24,313.49,354,314.1,356.18,314.18Z"/><rect class="cls-9" x="386.98" y="285.85" width="4.62" height="30.56" rx="2.05" transform="translate(690.42 -88.17) rotate(90)"/><rect class="cls-12" x="387.54" y="285.5" width="4.62" height="30.56" rx="2.05" transform="translate(690.63 -89.06) rotate(90)"/><path class="cls-9" d="M355,360.06q33.16,1.2,66.35,0c2.19-.08,3.92-.68,4.08-1.43,1.72-8.16,2.2-15.86.13-22.61-.22-.73-1.93-1.3-4.08-1.38q-32.52-1.14-66.45,0c-2.16.07-3.87.66-4.07,1.39a43.7,43.7,0,0,0,0,22.62C351.14,359.4,352.83,360,355,360.06Z"/><path class="cls-11" d="M357.23,360.33q34.11,1.25,68.26,0c2.26-.08,4-.7,4.2-1.47,1.77-8.39,2.27-16.32.14-23.26-.23-.76-2-1.34-4.2-1.42q-33.45-1.19-68.37,0c-2.22.07-4,.67-4.19,1.43a44.9,44.9,0,0,0,0,23.27C353.29,359.65,355,360.25,357.23,360.33Z"/><rect class="cls-9" x="388.03" y="332" width="4.62" height="30.56" rx="2.05" transform="translate(737.62 -43.06) rotate(90)"/><rect class="cls-12" x="388.59" y="331.66" width="4.62" height="30.56" rx="2.05" transform="translate(737.83 -43.96) rotate(90)"/><path class="cls-9" d="M356,406.51q33.15,1.2,66.35,0c2.19-.08,3.92-.68,4.08-1.42,1.72-8.16,2.2-15.86.13-22.62-.23-.73-1.93-1.3-4.08-1.37q-32.52-1.16-66.45,0c-2.16.07-3.87.65-4.07,1.39a43.67,43.67,0,0,0,0,22.61C352.19,405.84,353.88,406.43,356,406.51Z"/><path class="cls-11" d="M358.28,406.78q34.11,1.23,68.26,0c2.26-.08,4-.69,4.2-1.47,1.77-8.39,2.27-16.31.14-23.26-.23-.75-2-1.34-4.2-1.42q-33.45-1.17-68.38,0c-2.21.08-4,.68-4.18,1.43a44.9,44.9,0,0,0,0,23.27C354.34,406.09,356.07,406.7,358.28,406.78Z"/><rect class="cls-9" x="389.08" y="378.45" width="4.62" height="30.56" rx="2.05" transform="translate(785.12 2.34) rotate(90)"/><rect class="cls-12" x="389.64" y="378.1" width="4.62" height="30.56" rx="2.05" transform="translate(785.33 1.44) rotate(90)"/><path class="cls-13" d="M729.37,415.25Q356.28,423-3,415.25l1.24,6.2c231.86,12.1,475.94,11.53,729.54,1.09Z"/><circle class="cls-14" cx="754.91" cy="72.65" r="45.08"/><circle class="cls-15" cx="761.73" cy="69.8" r="45.08"/><rect class="cls-16" x="759.96" y="68.77" width="2.42" height="25.44" rx="1.21" transform="translate(1522.33 162.98) rotate(180)"/><rect class="cls-17" x="749.87" y="63.17" width="2.42" height="26.57" rx="1.21" transform="translate(409.9 -597.01) rotate(57.32)"/><rect class="cls-18" x="750.05" y="63.94" width="2.42" height="25.44" rx="1.21" transform="translate(410.15 -597.07) rotate(57.32)"/><rect class="cls-18" x="760.52" y="68.77" width="2.42" height="25.44" rx="1.21" transform="translate(1523.47 162.98) rotate(180)"/><path class="cls-19" d="M310.59,6.81,317,103.72a5,5,0,0,0,1.35,3.07l44.1,47.27,10.92,10.8c3.4,3.36.77,8.78-4.26,8.78H137.4a5.53,5.53,0,0,1-5.78-5.24V7.12a5.53,5.53,0,0,1,5.78-5.24H304.83A5.57,5.57,0,0,1,310.59,6.81Z"/><path class="cls-20" d="M316.51,6.68l6.32,80.21a3.92,3.92,0,0,0,1.34,2.54l43.45,39.12,10.76,8.94c3.35,2.78.76,7.27-4.2,7.27H145.85c-3.14,0-5.69-1.94-5.69-4.34V6.94c0-2.39,2.55-4.33,5.69-4.33h165C313.83,2.61,316.32,4.39,316.51,6.68Z"/><path class="cls-21" d="M238.32,363.76l-45.74-71.29c-4.38,2.86-6.73,8.08-5.47,17.51l36.14,53.78Z"/><path class="cls-21" d="M317,338.18l-27.65-47.89h-17.3l44.44,66.14C317,354,317.19,348.05,317,338.18Z"/><path class="cls-22" d="M451.69,362.91c.12,16.29.92,20.37,2.18,37.9a6.7,6.7,0,0,0,6,6.15q19.11,2,38.21,2.46C461.94,404.48,452.62,410.11,451.69,362.91Z"/><path class="cls-22" d="M589.65,362.91c.12,16.29.93,20.37,2.19,37.9a6.69,6.69,0,0,0,6,6.15q19.11,2,38.21,2.46C599.9,404.48,590.58,410.11,589.65,362.91Z"/><path class="cls-22" d="M353.91,391.07c.06,5.41.47,6.76,1.1,12.58.11,1.07,1.38,1.93,3,2q9.56.68,19.11.82C359,404.87,354.38,406.74,353.91,391.07Z"/><path class="cls-23" d="M430.23,397.32c-.06-5.41-.46-6.76-1.09-12.58-.12-1.07-1.39-1.93-3-2q-9.56-.68-19.1-.81C425.1,383.53,429.77,381.66,430.23,397.32Z"/><path class="cls-23" d="M430.23,350.85c-.06-5.41-.46-6.76-1.09-12.58-.12-1.07-1.39-1.92-3-2q-9.56-.68-19.1-.81C425.1,337.06,429.77,335.19,430.23,350.85Z"/><path class="cls-23" d="M428.35,304.38c-.06-5.41-.47-6.76-1.1-12.58-.11-1.07-1.38-1.92-3-2q-9.56-.67-19.11-.81C423.22,290.59,427.88,288.72,428.35,304.38Z"/><path class="cls-22" d="M351.37,298.28c.06,5.41.46,6.76,1.09,12.58.12,1.07,1.38,1.93,3,2q9.56.68,19.1.82C356.49,312.08,351.83,313.94,351.37,298.28Z"/><path class="cls-22" d="M352.42,344.63c.05,5.41.46,6.76,1.09,12.58.12,1.07,1.38,1.92,3,2q9.56.66,19.1.81C357.54,358.42,352.88,360.29,352.42,344.63Z"/><path class="cls-24" d="M571.1,334c-.12-16.3-.93-20.37-2.19-37.9a6.69,6.69,0,0,0-6-6.15q-19.11-2-38.22-2.46C560.84,292.4,570.17,286.77,571.1,334Z"/><path class="cls-24" d="M710.54,334c-.12-16.3-.93-20.37-2.19-37.9a6.69,6.69,0,0,0-6-6.15q-19.11-2-38.21-2.46C700.29,292.4,709.61,286.77,710.54,334Z"/><g id="Fridge"><path class="cls-25" d="M845.79,425.57h150.5c7.1,0,12.86-6.52,12.86-14.57,5.08-86.19,5.91-167.74,0-241.95,0-26.81-19.18-48.55-42.84-48.55a292.14,292.14,0,0,0-90.54,0c-23.66,0-42.84,21.74-42.84,48.55-4.2,81.5-4.49,162,0,242C832.93,419.05,838.69,425.57,845.79,425.57Z"/><path class="cls-26" d="M854.28,424.22h154.16c7.27,0,13.17-6.68,13.17-14.92,5.21-88.29,6.05-171.83,0-247.85,0-27.46-19.65-49.72-43.88-49.72a298.89,298.89,0,0,0-92.74,0c-24.24,0-43.88,22.26-43.88,49.72-4.3,83.49-4.61,166,0,247.85C841.11,417.54,847,424.22,854.28,424.22Z"/><path class="cls-27" d="M951.49,260.78c18.31-.66,36.61-1.56,54.92-1.89,3.21-.05,6.41-.09,9.62-.11.88,47-.52,96.49-3.62,147.75,0,7.41-5.42,13.42-12.11,13.42H858.48c-6.69,0-12.11-6-12.11-13.42q-4.15-72.25-2.74-145.34C879.55,262.94,915.57,262.07,951.49,260.78Z"/><path class="cls-28" d="M953.5,261.78c18.3-.66,36.6-1.56,54.91-1.89q4.82-.08,9.63-.11c.88,47-.53,96.49-3.62,147.75,0,7.41-5.43,13.42-12.12,13.42H860.49c-6.69,0-12.12-6-12.12-13.42-2.77-48.17-3.59-96.59-2.73-145.34C881.56,263.94,917.58,263.07,953.5,261.78Z"/><path class="cls-27" d="M1001.81,235.1c-52.64,1.24-105.47,4.8-158.07,2.25q.74-35.76,2.6-71.75c0-25.26,18.08-45.74,40.37-45.74a274.85,274.85,0,0,1,85.31,0c22.29,0,40.37,20.48,40.37,45.74q2.67,33.61,3.47,69.3Q1008.83,234.93,1001.81,235.1Z"/><path class="cls-28" d="M1003.81,234.1c-52.64,1.24-105.46,4.8-158.07,2.25q.75-35.76,2.61-71.75c0-25.26,18.07-45.74,40.37-45.74a274.79,274.79,0,0,1,85.3,0c22.3,0,40.37,20.48,40.37,45.74q2.68,33.61,3.47,69.3Q1010.84,233.93,1003.81,234.1Z"/><path class="cls-29" d="M996.43,190.56c-1.36-1.48-5.54-5.06-9.87.4a1.91,1.91,0,0,0-.38,1.2l1.13,33.72a1.79,1.79,0,0,0,1.81,1.77l7.23-.26a1.8,1.8,0,0,0,1.69-1.9l-1.12-33.73A1.77,1.77,0,0,0,996.43,190.56Z"/><path class="cls-30" d="M997.77,190.56c-1.37-1.48-5.54-5.06-9.87.4a1.85,1.85,0,0,0-.38,1.2l1.12,33.72a1.8,1.8,0,0,0,1.82,1.77l7.22-.26a1.82,1.82,0,0,0,1.7-1.9l-1.12-33.73A1.87,1.87,0,0,0,997.77,190.56Z"/><path class="cls-31" d="M996.61,193.26c-.19-.84-1.44-6-2.42.07a1.94,1.94,0,0,0,0,.24l1.11,31.86a1.22,1.22,0,0,0,1.27,1.16h0a1.22,1.22,0,0,0,1.19-1.24l-1.1-31.88Z"/><path class="cls-30" d="M1000.93,307.46c-1.21,1.52-5.22,5.6-10,.3a1.67,1.67,0,0,1-.4-1l-1.07-34A1.58,1.58,0,0,1,991,271l7.66-.26a1.57,1.57,0,0,1,1.59,1.55l1.07,34A1.65,1.65,0,0,1,1000.93,307.46Z"/><path class="cls-29" d="M998.93,307.46c-1.21,1.52-5.22,5.6-10,.3a1.66,1.66,0,0,1-.39-1l-1.07-34A1.57,1.57,0,0,1,989,271l7.67-.26a1.56,1.56,0,0,1,1.58,1.55l1.08,34A1.7,1.7,0,0,1,998.93,307.46Z"/><path class="cls-30" d="M1000.27,307.46c-1.22,1.52-5.23,5.6-10,.3a1.67,1.67,0,0,1-.4-1l-1.07-34A1.58,1.58,0,0,1,990.3,271l7.66-.26a1.57,1.57,0,0,1,1.59,1.55l1.07,34A1.64,1.64,0,0,1,1000.27,307.46Z"/><path class="cls-30" d="M1000.93,307.46c-1.21,1.52-5.22,5.6-10,.3a1.67,1.67,0,0,1-.4-1l-1.07-34A1.58,1.58,0,0,1,991,271l7.66-.26a1.57,1.57,0,0,1,1.59,1.55l1.07,34A1.65,1.65,0,0,1,1000.93,307.46Z"/><path class="cls-32" d="M867.26,199.44c14.39,2.79,27.1,3.26,37.1,0a88.4,88.4,0,0,0,0-29.48,98.91,98.91,0,0,0-37.1,0A50.86,50.86,0,0,1,867.26,199.44Z"/><path class="cls-31" d="M999.68,305.29c-.13.87-1,6.24-2.41.09a2.17,2.17,0,0,1,0-.25l-1.07-32.81a1.22,1.22,0,0,1,1.19-1.27h0a1.23,1.23,0,0,1,1.27,1.19l1.08,32.82A.9.9,0,0,1,999.68,305.29Z"/><path class="cls-33" d="M868.72,200c14.4,2.93,27.11,3.43,37.11,0a98.44,98.44,0,0,0,0-31.12c-12.37-2.31-24.73-2.64-37.11,0A56.93,56.93,0,0,1,868.72,200Z"/><path class="cls-32" d="M888.88,212.66c13.38,2.46,25.24,2.85,34.76,0a1.46,1.46,0,0,0,1-1.18,88.26,88.26,0,0,0,0-27.53,1.49,1.49,0,0,0-1.22-1.23,98.91,98.91,0,0,0-34.66-.09,1.48,1.48,0,0,0-1.17,1.68c1.25,7.88,2,16.81.07,26.61A1.48,1.48,0,0,0,888.88,212.66Z"/><path class="cls-34" d="M891.49,213.47c12.46,2.31,23.56,2.67,32.63.07a2.74,2.74,0,0,0,2-2.46,228,228,0,0,0,0-27,2.78,2.78,0,0,0-2.33-2.59,93.65,93.65,0,0,0-32.25-.13,2.78,2.78,0,0,0-2.27,3.08,98,98,0,0,1,0,26A2.76,2.76,0,0,0,891.49,213.47Z"/><path class="cls-32" d="M877.9,307.55c13.37,2.79,25.24,3.23,34.76,0a1.6,1.6,0,0,0,1-1.34,113.11,113.11,0,0,0,0-31.24,1.58,1.58,0,0,0-1.21-1.39,87.36,87.36,0,0,0-34.66-.11,1.67,1.67,0,0,0-1.17,1.91c1.25,8.94,2,19.08.07,30.2A1.67,1.67,0,0,0,877.9,307.55Z"/><path class="cls-33" d="M880.51,308.46c12.45,2.63,23.56,3,32.63.09a3.08,3.08,0,0,0,2-2.8,296.43,296.43,0,0,0,0-30.69,3,3,0,0,0-2.33-2.94,82.56,82.56,0,0,0-32.25-.14,3.1,3.1,0,0,0-2.27,3.49,126.1,126.1,0,0,1,0,29.51A3.11,3.11,0,0,0,880.51,308.46Z"/><path class="cls-32" d="M941.26,192.18c8.58,3.35,16.16,3.92,22.12,0a214.7,214.7,0,0,0,0-35.5c-7.37-2.63-14.74-3-22.12,0A121.34,121.34,0,0,1,941.26,192.18Z"/><path class="cls-33" d="M942.14,192.87c8.57,3.53,16.15,4.13,22.11,0a236.61,236.61,0,0,0,0-37.46c-7.37-2.78-14.74-3.18-22.11,0A136.62,136.62,0,0,1,942.14,192.87Z"/><path class="cls-32" d="M979.89,171.65a16.62,16.62,0,0,0,7.87,0,18.08,18.08,0,0,0,0-6.14,21.47,21.47,0,0,0-7.87,0A10.44,10.44,0,0,1,979.89,171.65Z"/><path class="cls-34" d="M980.2,171.77a15.81,15.81,0,0,0,7.88,0,20.13,20.13,0,0,0,0-6.48,20.29,20.29,0,0,0-7.88,0A11.7,11.7,0,0,1,980.2,171.77Z"/><path class="cls-32" d="M969.8,171.69a16.54,16.54,0,0,0,7.88,0,18,18,0,0,0,0-6.13,21.3,21.3,0,0,0-7.88,0A10.33,10.33,0,0,1,969.8,171.69Z"/><path class="cls-34" d="M970.11,171.81a15.58,15.58,0,0,0,7.88,0,20.06,20.06,0,0,0,0-6.47,20.29,20.29,0,0,0-7.88,0A11.67,11.67,0,0,1,970.11,171.81Z"/><path class="cls-32" d="M954,162.65a16.54,16.54,0,0,0,7.88,0,18,18,0,0,0,0-6.13,21.3,21.3,0,0,0-7.88,0A10.33,10.33,0,0,1,954,162.65Z"/><path class="cls-34" d="M954.29,162.77c3.06.61,5.75.72,7.88,0a20.07,20.07,0,0,0,0-6.47,20.29,20.29,0,0,0-7.88,0A11.67,11.67,0,0,1,954.29,162.77Z"/></g><path class="cls-9" d="M171.42,425.17a666.13,666.13,0,0,0,147.16,0,10.35,10.35,0,0,0,9.05-9.7c3.81-55.51,4.89-107.91.29-153.87a10.33,10.33,0,0,0-9.05-9.37c-48.08-5.2-97.26-5-147.4.07a10.27,10.27,0,0,0-9,9.45,897.68,897.68,0,0,0,.05,153.89A10.29,10.29,0,0,0,171.42,425.17Z"/><path class="cls-35" d="M175,425.54a685.09,685.09,0,0,0,151.42,0,10.64,10.64,0,0,0,9.31-10c3.93-57.12,5-111,.31-158.32a10.64,10.64,0,0,0-9.32-9.64c-49.47-5.35-100.07-5.11-151.66.07a10.55,10.55,0,0,0-9.28,9.72,923.11,923.11,0,0,0,0,158.34A10.58,10.58,0,0,0,175,425.54Z"/><rect class="cls-9" x="243.02" y="239.75" width="11.2" height="46.52" rx="3.82" transform="translate(511.63 14.39) rotate(90)"/><rect class="cls-36" x="245.2" y="238.78" width="11.2" height="46.52" rx="3.82" transform="translate(512.84 11.24) rotate(90)"/><path class="cls-7" d="M171.93,207.88H328a1,1,0,0,1,1,1v27.79a12,12,0,0,1-12,12H183a12,12,0,0,1-12-12V208.85a1,1,0,0,1,1-1Z" transform="translate(499.93 456.52) rotate(-180)"/><rect class="cls-9" x="174.16" y="209.58" width="151.62" height="39.12" rx="12" transform="translate(499.93 458.29) rotate(-180)"/><circle class="cls-37" cx="307.17" cy="228.37" r="7.75"/><circle class="cls-37" cx="271.4" cy="228.26" r="7.75"/><circle class="cls-37" cx="235.52" cy="228.26" r="7.75"/><circle class="cls-37" cx="200.13" cy="228.37" r="7.75"/><circle class="cls-38" cx="308.04" cy="228.26" r="7.75"/><circle class="cls-38" cx="272.42" cy="228.26" r="7.75"/><circle class="cls-38" cx="200.88" cy="228.26" r="7.75"/><circle class="cls-38" cx="236.57" cy="228.39" r="7.75"/><circle class="cls-39" cx="308.19" cy="222.81" r="1.61"/><circle class="cls-39" cx="272.42" cy="222.81" r="1.61"/><circle class="cls-39" cx="236.65" cy="222.81" r="1.61"/><circle class="cls-39" cx="200.88" cy="222.81" r="1.61"/><rect class="cls-11" x="187.11" y="290.51" width="130.36" height="73.24" rx="12" transform="translate(504.57 654.27) rotate(-180)"/><polygon class="cls-21" points="285.1 363.76 238.1 290.51 220.81 290.51 270.02 363.76 285.1 363.76"/><rect class="cls-40" x="188.99" y="291.82" width="126.63" height="70.29" rx="10.54" transform="translate(504.6 653.93) rotate(-180)"/><line class="cls-41" x1="328.97" y1="380.06" x2="170.96" y2="380.06"/><rect class="cls-9" x="242.19" y="372.92" width="11.2" height="46.52" rx="3.82" transform="translate(643.97 148.39) rotate(90)"/><rect class="cls-36" x="244.36" y="371.94" width="11.2" height="46.52" rx="3.82" transform="translate(645.17 145.24) rotate(90)"/><path class="cls-9" d="M175.63,242.7s5.3,6,11.77,6H312.61c6.48,0,11.78-6,11.78-6C307.32,247.73,192.26,248.06,175.63,242.7Z"/></g></svg>