<svg id="Layer_1" data-name="Layer 1" xmlns="http://www.w3.org/2000/svg" viewBox="0 0 353.62 564.54"><defs><style>.cls-1,.cls-4{fill:#fff;}.cls-2{fill:#9b9b9b;}.cls-3{fill:#009eff;}.cls-4{stroke:#000;stroke-miterlimit:10;}</style></defs><title>bullying</title><rect class="cls-1" x="39.33" y="19.28" width="274.96" height="526.17"/><path class="cls-2" d="M51.53,387.92l4.71-10.08a9,9,0,0,1-.35-2.44V362.64a9,9,0,0,1,9-9H222.55a9,9,0,0,1,9,9V375.4a9,9,0,0,1-9,9H64.89a8.9,8.9,0,0,1-3.89-.9Z"/><path class="cls-1" d="M68.31,373.59v-3.42l-2.55-4.66H67l1.14,2.23c.31.61.55,1.11.8,1.67h0c.23-.53.51-1.06.82-1.67l1.16-2.23h1.19l-2.71,4.64v3.44Z"/><path class="cls-1" d="M79.48,369.47c0,2.78-1.69,4.26-3.75,4.26s-3.63-1.66-3.63-4.1,1.59-4.25,3.75-4.25S79.48,367.07,79.48,369.47Zm-6.27.13c0,1.73.94,3.28,2.58,3.28s2.59-1.53,2.59-3.36c0-1.61-.84-3.29-2.58-3.29S73.21,367.83,73.21,369.6Z"/><path class="cls-1" d="M81.89,365.51v4.79c0,1.81.8,2.58,1.88,2.58s2-.8,2-2.58v-4.79h1.05v4.72c0,2.48-1.31,3.5-3.06,3.5s-2.9-1-2.9-3.46v-4.76Z"/><path class="cls-1" d="M91,372.32a3.68,3.68,0,0,0,1.87.53c1.07,0,1.69-.56,1.69-1.38s-.43-1.19-1.52-1.6c-1.32-.47-2.14-1.16-2.14-2.3s1-2.19,2.62-2.19a3.59,3.59,0,0,1,1.78.4l-.29.85a3.11,3.11,0,0,0-1.53-.39c-1.1,0-1.52.66-1.52,1.21,0,.76.49,1.13,1.6,1.56,1.37.53,2.07,1.19,2.07,2.38s-.93,2.32-2.83,2.32a4.21,4.21,0,0,1-2.07-.51Z"/><path class="cls-1" d="M98.11,365.51v4.79c0,1.81.8,2.58,1.88,2.58s2-.8,2-2.58v-4.79H103v4.72c0,2.48-1.31,3.5-3.06,3.5s-2.9-1-2.9-3.46v-4.76Z"/><path class="cls-1" d="M110.48,373.33a5.2,5.2,0,0,1-2.13.38,3.77,3.77,0,0,1-4-4.08,4,4,0,0,1,4.22-4.25,4.37,4.37,0,0,1,1.92.36l-.25.85a3.85,3.85,0,0,0-1.63-.33,3,3,0,0,0-3.16,3.33,2.94,2.94,0,0,0,3.11,3.25,4,4,0,0,0,1.7-.34Z"/><path class="cls-1" d="M111.79,365.51h1v3.9h0c.22-.31.43-.6.64-.86l2.47-3h1.29l-2.92,3.43,3.15,4.65h-1.24l-2.66-4-.77.88v3.08h-1Z"/><path class="cls-1" d="M118.06,373a.71.71,0,1,1,1.41,0,.71.71,0,1,1-1.41,0Zm.29-1.71-.16-5.76h1.15l-.17,5.76Z"/><path class="cls-1" d="M120.81,373a.7.7,0,0,1,.71-.74.69.69,0,0,1,.71.74.71.71,0,1,1-1.42,0Zm.3-1.71-.16-5.76h1.15l-.17,5.76Z"/><path class="cls-1" d="M123.57,373a.7.7,0,0,1,.71-.74.69.69,0,0,1,.71.74.71.71,0,1,1-1.42,0Zm.3-1.71-.16-5.76h1.15l-.17,5.76Z"/><path class="cls-1" d="M130.16,365.51v4.79c0,1.81.81,2.58,1.88,2.58s2-.8,2-2.58v-4.79h1.06v4.72c0,2.48-1.31,3.5-3.06,3.5s-2.9-1-2.9-3.46v-4.76Z"/><path class="cls-1" d="M136.88,365.62a10.77,10.77,0,0,1,2-.17,3.31,3.31,0,0,1,2.33.66,2,2,0,0,1,.64,1.54,2.13,2.13,0,0,1-1.52,2.06v0a2,2,0,0,1,1.18,1.63,13,13,0,0,0,.63,2.21h-1.08a10.51,10.51,0,0,1-.54-1.93c-.24-1.11-.67-1.53-1.62-1.57h-1v3.5h-1.05Zm1.05,3.68H139c1.12,0,1.83-.61,1.83-1.53s-.76-1.5-1.86-1.51a4.18,4.18,0,0,0-1,.09Z"/><path class="cls-1" d="M146.93,366.4h-2.46v-.89h6v.89H148v7.19h-1Z"/><path class="cls-1" d="M152.4,365.51v3.38h3.91v-3.38h1.05v8.08h-1.05v-3.78H152.4v3.78h-1.05v-8.08Z"/><path class="cls-1" d="M163.36,369.81h-3.14v2.91h3.5v.87h-4.54v-8.08h4.36v.88h-3.32v2.55h3.14Z"/><path class="cls-1" d="M168.51,373.59l-2-8.08h1.11l1,4.09c.24,1,.46,2,.6,2.8h0c.13-.81.38-1.77.66-2.81l1.08-4.08H172l1,4.1c.23,1,.45,1.92.57,2.77h0c.17-.88.4-1.78.65-2.79l1.07-4.08h1.06L174,373.59H173l-1-4.2a26.16,26.16,0,0,1-.53-2.64h0a24.73,24.73,0,0,1-.62,2.64l-1.16,4.2Z"/><path class="cls-1" d="M184.25,369.47c0,2.78-1.69,4.26-3.75,4.26s-3.63-1.66-3.63-4.1,1.59-4.25,3.75-4.25S184.25,367.07,184.25,369.47Zm-6.27.13c0,1.73.94,3.28,2.58,3.28s2.59-1.53,2.59-3.36c0-1.61-.84-3.29-2.58-3.29S178,367.83,178,369.6Z"/><path class="cls-1" d="M185.61,365.62a10.77,10.77,0,0,1,2-.17,3.36,3.36,0,0,1,2.34.66,2,2,0,0,1,.63,1.54,2.13,2.13,0,0,1-1.52,2.06v0a2,2,0,0,1,1.19,1.63,12.4,12.4,0,0,0,.62,2.21H189.8a10.51,10.51,0,0,1-.54-1.93c-.24-1.11-.67-1.53-1.62-1.57h-1v3.5h-1Zm1,3.68h1.07c1.11,0,1.82-.61,1.82-1.53s-.76-1.5-1.86-1.51a4.3,4.3,0,0,0-1,.09Z"/><path class="cls-1" d="M191.93,372.32a3.65,3.65,0,0,0,1.87.53c1.06,0,1.69-.56,1.69-1.38s-.43-1.19-1.53-1.6c-1.31-.47-2.13-1.16-2.13-2.3a2.32,2.32,0,0,1,2.61-2.19,3.6,3.6,0,0,1,1.79.4l-.29.85a3.11,3.11,0,0,0-1.53-.39c-1.11,0-1.53.66-1.53,1.21,0,.76.5,1.13,1.61,1.56,1.37.53,2.07,1.19,2.07,2.38s-.93,2.32-2.84,2.32a4.14,4.14,0,0,1-2.06-.51Z"/><path class="cls-1" d="M199.52,366.4h-2.46v-.89h6v.89h-2.47v7.19h-1.06Z"/><path class="cls-1" d="M210.92,373.59l-1-1.78c-.42-.69-.69-1.13-.94-1.6h0c-.23.47-.46.9-.88,1.61l-1,1.77h-1.2l2.47-4.08-2.37-4h1.21l1.07,1.9c.3.52.52.93.74,1.36h0a14.1,14.1,0,0,1,.73-1.36l1.1-1.9h1.2l-2.46,3.94,2.52,4.14Z"/><path class="cls-1" d="M213.35,365.62a14.3,14.3,0,0,1,2.21-.17,4.65,4.65,0,0,1,3.28,1,3.71,3.71,0,0,1,1.14,2.9,4.25,4.25,0,0,1-1.17,3.14,4.94,4.94,0,0,1-3.57,1.17,16.58,16.58,0,0,1-1.89-.1Zm1,7.15a6.32,6.32,0,0,0,1.05.06,3.11,3.11,0,0,0,3.45-3.43c0-1.91-1.07-3.12-3.28-3.12a5.82,5.82,0,0,0-1.22.11Z"/><path class="cls-2" d="M55,426.26l4.71-8.58a6.57,6.57,0,0,1-.34-2.08V404.75c0-4.22,4-7.65,9-7.65H226c5,0,9,3.43,9,7.65V415.6c0,4.23-4,7.66-9,7.66H68.34a10.34,10.34,0,0,1-3.9-.76Z"/><path class="cls-1" d="M126.24,406.86h1v7.21h3.45V415h-4.49Z"/><path class="cls-1" d="M138.34,410.82c0,2.78-1.69,4.26-3.75,4.26S131,413.42,131,411s1.6-4.25,3.76-4.25S138.34,408.42,138.34,410.82Zm-6.27.13c0,1.73.93,3.28,2.57,3.28s2.6-1.53,2.6-3.36c0-1.61-.84-3.29-2.58-3.29S132.07,409.18,132.07,411Z"/><path class="cls-1" d="M139.56,413.68a3.75,3.75,0,0,0,1.87.52c1.06,0,1.69-.56,1.69-1.38s-.43-1.18-1.53-1.6c-1.32-.47-2.13-1.15-2.13-2.29a2.33,2.33,0,0,1,2.61-2.2,3.6,3.6,0,0,1,1.79.4l-.29.85a3.12,3.12,0,0,0-1.53-.38c-1.11,0-1.53.65-1.53,1.21,0,.75.5,1.12,1.61,1.56,1.37.52,2.06,1.18,2.06,2.37s-.92,2.33-2.83,2.33a4.13,4.13,0,0,1-2.06-.52Z"/><path class="cls-1" d="M149.8,411.16h-3.14v2.91h3.5V415h-4.54v-8.09H150v.88h-3.32v2.55h3.14Z"/><path class="cls-1" d="M151.52,407a10.66,10.66,0,0,1,2-.17,3.32,3.32,0,0,1,2.34.66,2,2,0,0,1,.64,1.54,2.13,2.13,0,0,1-1.53,2.06v0a2,2,0,0,1,1.19,1.63,13.27,13.27,0,0,0,.62,2.22H155.7a11.07,11.07,0,0,1-.54-1.93c-.23-1.12-.67-1.54-1.61-1.57h-1V415h-1Zm1,3.68h1.07c1.12,0,1.82-.61,1.82-1.53s-.75-1.5-1.86-1.51a4.3,4.3,0,0,0-1,.09Z"/><path class="cls-1" d="M157.73,414.34a.71.71,0,0,1,.71-.75.75.75,0,0,1,0,1.49A.7.7,0,0,1,157.73,414.34Zm.31-1.72-.17-5.76H159l-.17,5.76Z"/><path class="cls-1" d="M160.49,414.34a.7.7,0,0,1,.71-.75.75.75,0,0,1,0,1.49A.7.7,0,0,1,160.49,414.34Zm.3-1.72-.16-5.76h1.15l-.17,5.76Z"/><path class="cls-1" d="M163.26,414.34a.7.7,0,0,1,.7-.75.75.75,0,1,1-.7.75Zm.3-1.72-.17-5.76h1.15l-.17,5.76Z"/><path class="cls-3" d="M302.09,476,297.38,466a8.88,8.88,0,0,0,.34-2.44V450.76a9,9,0,0,0-9-9H131.07a9,9,0,0,0-9,9v12.75a9,9,0,0,0,9,9H288.72a9.08,9.08,0,0,0,3.9-.89Z"/><path class="cls-1" d="M137.45,460.66l-2-8.09h1.11l1,4.09c.24,1,.46,2,.6,2.8h0c.13-.81.38-1.76.66-2.81l1.08-4.08h1.09l1,4.11c.23,1,.45,1.92.57,2.77h0c.17-.89.4-1.79.65-2.8l1.07-4.08h1.06L143,460.66h-1.09l-1-4.21a25.11,25.11,0,0,1-.53-2.64h0a24.73,24.73,0,0,1-.62,2.64l-1.16,4.21Z"/><path class="cls-1" d="M146.19,452.14h1.06v3.62h0A2,2,0,0,1,148,455a2.22,2.22,0,0,1,1.08-.3c.78,0,2,.48,2,2.48v3.46h-1v-3.34c0-.93-.35-1.72-1.35-1.72a1.51,1.51,0,0,0-1.41,1,1.31,1.31,0,0,0-.07.51v3.5h-1.06Z"/><path class="cls-1" d="M153.08,454.85l1.27,3.43c.13.39.27.84.37,1.19h0c.11-.35.23-.79.38-1.21l1.15-3.41h1.11L155.8,459c-.76,2-1.27,3-2,3.63a2.87,2.87,0,0,1-1.3.69l-.26-.89a2.65,2.65,0,0,0,.92-.52,3.09,3.09,0,0,0,.89-1.17.76.76,0,0,0,.09-.25.94.94,0,0,0-.08-.28l-2.14-5.35Z"/><path class="cls-1" d="M164.1,460.66l-.08-.73h0a2.16,2.16,0,0,1-1.77.86,1.66,1.66,0,0,1-1.78-1.67c0-1.4,1.25-2.17,3.49-2.16v-.12a1.19,1.19,0,0,0-1.32-1.34,2.93,2.93,0,0,0-1.51.43l-.24-.69a3.64,3.64,0,0,1,1.91-.52c1.78,0,2.21,1.21,2.21,2.38v2.17a8.47,8.47,0,0,0,.09,1.39Zm-.15-3c-1.15,0-2.46.18-2.46,1.3a.93.93,0,0,0,1,1,1.45,1.45,0,0,0,1.41-1,1.35,1.35,0,0,0,.06-.34Z"/><path class="cls-1" d="M166.67,456.66c0-.68,0-1.27,0-1.81h.93l0,1.14h0a1.75,1.75,0,0,1,1.61-1.27,1,1,0,0,1,.3,0v1a1.94,1.94,0,0,0-.36,0,1.49,1.49,0,0,0-1.42,1.35,3.6,3.6,0,0,0,0,.49v3.1h-1.05Z"/><path class="cls-1" d="M171.07,458a1.85,1.85,0,0,0,2,2,3.75,3.75,0,0,0,1.6-.3l.18.76a4.63,4.63,0,0,1-1.93.36,2.69,2.69,0,0,1-2.85-2.93c0-1.75,1-3.13,2.72-3.13a2.47,2.47,0,0,1,2.4,2.74,4.35,4.35,0,0,1,0,.49Zm3.09-.76a1.5,1.5,0,0,0-1.46-1.71,1.74,1.74,0,0,0-1.62,1.71Z"/><path class="cls-1" d="M179.42,454.85l1.27,3.43c.13.39.27.84.37,1.19h0c.11-.35.23-.79.38-1.21l1.15-3.41h1.11L182.14,459c-.76,2-1.27,3-2,3.63a2.87,2.87,0,0,1-1.3.69l-.26-.89a2.65,2.65,0,0,0,.92-.52,3.09,3.09,0,0,0,.89-1.17.69.69,0,0,0,.08-.25.85.85,0,0,0-.07-.28l-2.14-5.35Z"/><path class="cls-1" d="M189.82,457.71a2.84,2.84,0,0,1-2.89,3.08,2.76,2.76,0,0,1-2.78-3,2.83,2.83,0,0,1,2.87-3.08A2.75,2.75,0,0,1,189.82,457.71Zm-4.61.06c0,1.27.73,2.23,1.77,2.23s1.76-.95,1.76-2.26c0-1-.49-2.23-1.74-2.23S185.21,456.66,185.21,457.77Z"/><path class="cls-1" d="M196,459.07c0,.6,0,1.13.05,1.59h-.94l-.06-1h0a2.19,2.19,0,0,1-1.92,1.08c-.91,0-2-.5-2-2.54v-3.4h1v3.22c0,1.1.34,1.84,1.3,1.84a1.53,1.53,0,0,0,1.39-1,1.49,1.49,0,0,0,.1-.54v-3.56h1Z"/><path class="cls-1" d="M200.16,459.58a2.86,2.86,0,0,0,1.4.42c.76,0,1.12-.39,1.12-.87s-.3-.78-1.08-1.06c-1-.37-1.53-.95-1.53-1.65a1.79,1.79,0,0,1,2-1.7,2.94,2.94,0,0,1,1.43.36l-.27.77a2.15,2.15,0,0,0-1.18-.34c-.63,0-1,.36-1,.79s.34.7,1.1,1c1,.38,1.52.89,1.52,1.75,0,1-.79,1.74-2.17,1.74a3.33,3.33,0,0,1-1.63-.4Z"/><path class="cls-1" d="M210.31,457.71a2.84,2.84,0,0,1-2.89,3.08,2.76,2.76,0,0,1-2.78-3,2.83,2.83,0,0,1,2.88-3.08A2.74,2.74,0,0,1,210.31,457.71Zm-4.6.06c0,1.27.73,2.23,1.76,2.23s1.76-.95,1.76-2.26c0-1-.49-2.23-1.73-2.23S205.71,456.66,205.71,457.77Z"/><path class="cls-1" d="M214.19,456.42c0-.6,0-1.09-.05-1.57h.93l.05.94h0a2,2,0,0,1,1.83-1.07,1.71,1.71,0,0,1,1.64,1.16h0a2.42,2.42,0,0,1,.65-.75,2,2,0,0,1,1.28-.41c.77,0,1.91.51,1.91,2.52v3.42h-1v-3.29c0-1.11-.41-1.79-1.26-1.79a1.38,1.38,0,0,0-1.25,1,1.74,1.74,0,0,0-.08.53v3.59h-1v-3.48c0-.92-.41-1.6-1.21-1.6a1.45,1.45,0,0,0-1.31,1.06,1.5,1.5,0,0,0-.09.52v3.5h-1Z"/><path class="cls-1" d="M224.79,458a1.85,1.85,0,0,0,2,2,3.8,3.8,0,0,0,1.61-.3l.18.76a4.71,4.71,0,0,1-1.93.36,2.7,2.7,0,0,1-2.86-2.93c0-1.75,1-3.13,2.72-3.13a2.46,2.46,0,0,1,2.4,2.74,4.88,4.88,0,0,1,0,.49Zm3.09-.76a1.5,1.5,0,0,0-1.46-1.71,1.74,1.74,0,0,0-1.62,1.71Z"/><path class="cls-1" d="M233.43,460.66l-.09-.73h0a2.19,2.19,0,0,1-1.78.86,1.65,1.65,0,0,1-1.77-1.67c0-1.4,1.24-2.17,3.49-2.16v-.12a1.19,1.19,0,0,0-1.32-1.34,2.9,2.9,0,0,0-1.51.43l-.24-.69a3.6,3.6,0,0,1,1.9-.52c1.78,0,2.21,1.21,2.21,2.38v2.17a7.44,7.44,0,0,0,.1,1.39Zm-.16-3c-1.15,0-2.46.18-2.46,1.3a.94.94,0,0,0,1,1,1.45,1.45,0,0,0,1.4-1,1,1,0,0,0,.06-.34Z"/><path class="cls-1" d="M236,456.42c0-.6,0-1.09-.05-1.57h.93l.06,1h0a2.14,2.14,0,0,1,1.92-1.09c.8,0,2.05.48,2.05,2.47v3.47h-1.06v-3.35c0-.93-.35-1.71-1.34-1.71a1.5,1.5,0,0,0-1.42,1.08,1.75,1.75,0,0,0-.07.49v3.49H236Z"/><path class="cls-1" d="M246.47,453.19v1.66H248v.81h-1.51v3.13c0,.72.2,1.12.79,1.12a2.15,2.15,0,0,0,.61-.07l0,.79a2.42,2.42,0,0,1-.93.15,1.46,1.46,0,0,1-1.14-.45,2.13,2.13,0,0,1-.41-1.51v-3.16h-.9v-.81h.9v-1.39Z"/><path class="cls-1" d="M254.35,457.71a2.84,2.84,0,0,1-2.89,3.08,2.76,2.76,0,0,1-2.78-3,2.83,2.83,0,0,1,2.88-3.08A2.74,2.74,0,0,1,254.35,457.71Zm-4.6.06c0,1.27.73,2.23,1.76,2.23s1.76-.95,1.76-2.26c0-1-.49-2.23-1.73-2.23S249.75,456.66,249.75,457.77Z"/><path class="cls-1" d="M258.23,456.42c0-.6,0-1.09-.05-1.57h.93l.05.94h0a2,2,0,0,1,1.82-1.07,1.72,1.72,0,0,1,1.65,1.16h0a2.42,2.42,0,0,1,.65-.75,2,2,0,0,1,1.28-.41c.77,0,1.91.51,1.91,2.52v3.42h-1v-3.29c0-1.11-.41-1.79-1.26-1.79a1.38,1.38,0,0,0-1.25,1,1.74,1.74,0,0,0-.08.53v3.59h-1v-3.48c0-.92-.41-1.6-1.22-1.6a1.45,1.45,0,0,0-1.3,1.06,1.5,1.5,0,0,0-.09.52v3.5h-1Z"/><path class="cls-1" d="M268.83,458a1.85,1.85,0,0,0,2,2,3.83,3.83,0,0,0,1.61-.3l.18.76a4.72,4.72,0,0,1-1.94.36,2.7,2.7,0,0,1-2.85-2.93c0-1.75,1-3.13,2.72-3.13a2.46,2.46,0,0,1,2.4,2.74,4.88,4.88,0,0,1,0,.49Zm3.09-.76a1.5,1.5,0,0,0-1.46-1.71,1.74,1.74,0,0,0-1.62,1.71Z"/><path class="cls-1" d="M276.12,462.13a16.37,16.37,0,0,0,.72-2.86l1.17-.12a15.71,15.71,0,0,1-1.15,2.91Zm.52-6.32a.7.7,0,0,1,.71-.75.69.69,0,0,1,.7.75.7.7,0,0,1-.7.75A.71.71,0,0,1,276.64,455.81Z"/><path class="cls-1" d="M281.73,457v.78h-3V457Z"/><path class="cls-1" d="M282.29,462.13a16.37,16.37,0,0,0,.72-2.86l1.16-.12a14.42,14.42,0,0,1-1.15,2.91Zm.52-6.32a.7.7,0,0,1,.7-.75.69.69,0,0,1,.71.75.7.7,0,0,1-.71.75A.71.71,0,0,1,282.81,455.81Z"/><rect class="cls-4" x="43.63" y="497" width="266.37" height="25.94" rx="12.97"/><circle class="cls-3" cx="297.23" cy="509.97" r="10.31"/><rect class="cls-1" x="296.73" y="507.87" width="1" height="9.58"/><polygon class="cls-1" points="297.94 505.44 297.23 504.74 296.52 505.44 294.8 507.17 295.5 507.87 297.23 506.15 298.95 507.87 299.66 507.17 297.94 505.44"/><path d="M312.49,19.1H41.13a9,9,0,0,0-9,9V536.45a9,9,0,0,0,9,9H312.49a9,9,0,0,0,9-9V28.1A9,9,0,0,0,312.49,19.1Zm1.8,510.15a9,9,0,0,1-9,9h-257a9,9,0,0,1-9-9V35.3a9,9,0,0,1,9-9H121v4.29a18,18,0,0,0,18,18h75.63a18,18,0,0,0,18-18V26.3h72.67a9,9,0,0,1,9,9Z"/><rect class="cls-1" x="162.01" y="35.77" width="29.6" height="2.66" rx="1.33"/><path class="cls-2" d="M61.79,507.47H59.34v-.89h6v.89H62.85v7.19H61.79Z"/><path class="cls-2" d="M68.36,514.66v-3.43l-2.56-4.65H67l1.14,2.23c.31.61.55,1.11.8,1.67h0c.23-.53.5-1.06.81-1.67l1.17-2.23h1.18l-2.71,4.64v3.44Z"/><path class="cls-2" d="M73,506.68a11.33,11.33,0,0,1,2-.16,3.34,3.34,0,0,1,2.27.67,2.19,2.19,0,0,1,.7,1.69,2.36,2.36,0,0,1-.62,1.73,3.34,3.34,0,0,1-2.47.89,3.61,3.61,0,0,1-.84-.07v3.23H73Zm1,3.89a3.49,3.49,0,0,0,.86.09c1.26,0,2-.61,2-1.73s-.75-1.58-1.91-1.58a4.32,4.32,0,0,0-1,.08Z"/><path class="cls-2" d="M83.54,510.87H80.39v2.92H83.9v.87H79.35v-8.08h4.37v.88H80.39V510h3.15Z"/><path class="cls-2" d="M88.84,506.58V510h3.91v-3.38h1.06v8.08H92.75v-3.79H88.84v3.79h-1v-8.08Z"/><path class="cls-2" d="M99.81,510.87H96.67v2.92h3.5v.87H95.62v-8.08H100v.88H96.67V510h3.14Z"/><path class="cls-2" d="M101.53,506.69a10.58,10.58,0,0,1,2-.17,3.36,3.36,0,0,1,2.34.66,2,2,0,0,1,.63,1.54,2.13,2.13,0,0,1-1.52,2.06v0a2,2,0,0,1,1.19,1.64,12.4,12.4,0,0,0,.62,2.21h-1.08a10.51,10.51,0,0,1-.54-1.93c-.24-1.11-.67-1.53-1.62-1.57h-1v3.5h-1Zm1,3.68h1.07c1.11,0,1.82-.61,1.82-1.53s-.76-1.5-1.86-1.52a4.15,4.15,0,0,0-1,.1Z"/><path class="cls-2" d="M112.17,510.87H109v2.92h3.5v.87H108v-8.08h4.37v.88H109V510h3.14Z"/><path class="cls-2" d="M113.55,514a.71.71,0,0,1,.72-.75.7.7,0,0,1,.71.75.72.72,0,1,1-1.43,0Z"/><path class="cls-2" d="M116,514a.71.71,0,0,1,.72-.75.76.76,0,0,1,0,1.51A.71.71,0,0,1,116,514Z"/><path class="cls-2" d="M118.52,514a.71.71,0,0,1,.72-.75.7.7,0,0,1,.71.75.72.72,0,1,1-1.43,0Z"/></svg>