<svg xmlns="http://www.w3.org/2000/svg" viewBox="0 0 427.44 411.91"><defs><style>.cls-1{fill:#fff;}</style></defs><title>bullying</title><g id="Layer_2" data-name="Layer 2"><path d="M254.7,242.81,252.64,250l10.6,1.95.68,1a13.28,13.28,0,0,0-2.33,1.33A198.66,198.66,0,0,1,235.27,273c-33.71,20.57-67.21,41.46-100.76,62.28a86.44,86.44,0,0,0-8,5.77C99.6,362.12,69.26,368,36.1,361.4c-.46-.09-.9-.27-1.35-.4-5.55-1.6-8.46-6.1-7.19-11.1,1.34-5.31,5.95-8,11.73-6.67a90.58,90.58,0,0,0,27.31,2.16,85,85,0,0,0,49.59-19.69,56.87,56.87,0,0,1,6.24-4.59q56.34-34.89,112.79-69.62c6-3.65,12.55-6.3,18.84-9.41Z"/><path d="M270.43,246.55v-8.22l-11.12.71c6.57-9.33,12.84-18.23,19.09-27.14,21.41-30.51,43-60.89,67-89.48,3.76-4.49,8-8.61,12.16-12.75C376.18,91.15,384,69.33,377.93,43.24c-1.28-5.52,1.34-10.18,6.44-11.62,4.91-1.4,9.89,1.4,11.27,6.9,6.3,25,1.94,48.23-12.59,69.49a62.34,62.34,0,0,1-8.44,10.39c-18.31,17.17-32.82,37.48-47.65,57.49q-20,27.06-39,54.88C283.4,237.35,276.86,241,270.43,246.55Z"/><path d="M358.23,141.8c1.84,6.82,3.55,12.64,4.9,18.54.26,1.11-.87,2.53-1.7,4.72a77,77,0,0,0,5.08,8c.76.95,2.82,1.34,4.22,1.24A27,27,0,1,1,351,216.62c-.8-1.15-1.53-2.35-2.3-3.53-.91.89-1.67,1.77-2.55,2.49-2.65,2.14-4.83,1.66-6.13-1.4s-3.25-4.73-6.75-3.19c-.39.17-1.16.26-1.32.06-3.18-4.09-7.37-1.32-11.06-1.59-3-.21-6,.25-9.87.46C326.85,187.08,342.25,164.85,358.23,141.8Zm29.59,59.68a14.34,14.34,0,0,0-14.46-14.59,14.48,14.48,0,1,0,14.46,14.59Zm-33-32.81a54.75,54.75,0,0,1-5.47,4.19c-7,4-10.84,9.15-6.42,17.09l3.43,6.41c2-7.43,5.35-12.9,10.8-17.05a3.11,3.11,0,0,0,.75-2.74C357.17,174.05,356.05,171.64,354.86,168.67Z"/><path d="M212.12,291.87c-.55,5.87-1.09,11-1.48,16.06-.11,1.51-1,3.41,1.36,4.3.28.1.31,1.75,0,2.44-1.34,2.79.28,4.67,2.16,5.9,4.49,3,4.74,4.49.68,8l-1.23,1.07c7,4.17,11.64,9.94,13.54,17.78a27,27,0,0,1-40.88,28.94,26.68,26.68,0,0,1-11.87-27.72c.54-2.52.24-4.22-2.12-5.56s-4.49-2.91-7.14-4.66c-2.14,5.13-5.58,3.44-9.06,2.23-4.3-1.49-8.66-2.78-13.92-4.45ZM201,339.44A14.31,14.31,0,0,0,186.55,354a14.47,14.47,0,0,0,28.94,0A14.37,14.37,0,0,0,201,339.44Zm-30.8-6.74c2.57,1.13,4.73,2.27,7,3,1.07.34,2.88.35,3.51-.3,4.31-4.43,9.49-7.16,16.39-8.73L191,323.06l.46-1c-2.89-.45-5.77-1-8.68-1.29a4.23,4.23,0,0,0-3.09.88C176.51,325.06,173.58,328.69,170.19,332.7Z"/><path d="M387.82,201.48a14.41,14.41,0,0,1-14.37,14.36,14.48,14.48,0,1,1-.09-29A14.34,14.34,0,0,1,387.82,201.48Z"/><path class="cls-1" d="M354.86,168.67c1.19,3,2.31,5.38,3.09,7.9a3.11,3.11,0,0,1-.75,2.74c-5.45,4.15-8.83,9.62-10.8,17.05L343,190c-4.42-7.94-.55-13.12,6.42-17.09A54.75,54.75,0,0,0,354.86,168.67Z"/><path d="M201,339.44a14.37,14.37,0,0,1,14.5,14.5,14.47,14.47,0,0,1-28.94,0A14.31,14.31,0,0,1,201,339.44Z"/><path class="cls-1" d="M170.19,332.7c3.39-4,6.32-7.64,9.45-11.08a4.23,4.23,0,0,1,3.09-.88c2.91.28,5.79.84,8.68,1.29l-.46,1,6.15,3.61c-6.9,1.57-12.08,4.3-16.39,8.73-.63.65-2.44.64-3.51.3C174.92,335,172.76,333.83,170.19,332.7Z"/></g></svg>