<svg xmlns="http://www.w3.org/2000/svg" viewBox="0 0 320.69 303.16"><defs><style>.cls-1{fill:#f8d;}.cls-2{fill:red;}</style></defs><title>bullying</title><g id="Layer_2" data-name="Layer 2"><path class="cls-1" d="M301.26,87.58,238.13,36.75l-.58.72a12.4,12.4,0,0,0-4.07-.72H196.94C190.56,55.36,176.47,68.3,160.1,68.3s-30.46-12.94-36.85-31.55H86.71a12.25,12.25,0,0,0-3.67.59l-.47-.59-2.06,1.66a16.18,16.18,0,0,0-4,3.24l-57,45.93,30.79,38.25L70.65,109.4v157H249.54V109l20.92,16.83Z"/><path class="cls-2" d="M76.79,186.35l11,42.15a1.52,1.52,0,0,0,2.2.9,82.2,82.2,0,0,0,27.17-22.86c1.18-1.53-1.43-3-2.59-1.51a78.85,78.85,0,0,1-26.09,21.78l2.2.89-11-42.14a1.5,1.5,0,0,0-2.9.79Z"/><path class="cls-2" d="M129.73,177.89a13.17,13.17,0,0,1-8.74,5.74c-4.48.45-7.79-4.55-9.8-7.9-3.64-6.06-6.21-15.68-2.48-22.28,2.4-4.24,8.6-5.81,13.17-4.72,4,1,6.31,4.42,7.46,8.12,2.16,7,0,14.63,1,21.79.25,1.89,3.26,1.91,3,0-1.31-9.75,3-23.63-6.33-30.72-6.71-5.07-18.34-2.3-21.6,5.49-3.81,9.14.12,20.86,6.19,28.05,2.6,3.08,5.86,6.13,10.17,5.06,4.13-1,8.43-3.35,10.54-7.12a1.5,1.5,0,0,0-2.59-1.51Z"/><path class="cls-2" d="M146.22,112.38c-6-3.48-14.8-1.45-19.15,4-4.49,5.62-.79,12.35,5.66,14,10,2.54,24.24-4,31.21,6.84a22,22,0,0,1,2.5,15.6c-1.79,7.41-8.8,7.53-15.06,6.92-1.92-.19-1.9,2.81,0,3,6.5.63,13.9.39,17-6.37,2.88-6.21,1.59-15.75-2.3-21.26-4.51-6.39-12.69-7.71-20-7.57-5.53.1-14.38,2.27-17.28-3.84C125,115.61,139.54,112,144.7,115a1.5,1.5,0,0,0,1.52-2.59Z"/><path class="cls-2" d="M163.12,99.37q2.19,8.46,4.64,16.86c.91,3.1,1.83,6.21,2.82,9.29.4,1.26.68,2.93,1.7,3.89,2.29,2.17,7.93,1.44,10.72,1.19A43.77,43.77,0,0,0,196.75,127c1.77-.76.24-3.35-1.52-2.59a39.21,39.21,0,0,1-13.13,3.29,20.27,20.27,0,0,1-5.39,0c-3.44-.77-3.22-2.83-4.1-5.71Q169,110.33,166,98.57a1.5,1.5,0,0,0-2.89.8Z"/><path class="cls-2" d="M171.27,112q8.65-5.91,17.8-11c1.69-.94.18-3.53-1.51-2.59q-9.15,5.13-17.8,11c-1.59,1.08-.09,3.68,1.51,2.59Z"/><path class="cls-2" d="M165,99.67a35.24,35.24,0,0,1,12.65-16.26c1.56-1.11.07-3.71-1.52-2.59a38.89,38.89,0,0,0-14,18.05c-.69,1.8,2.21,2.59,2.9.8Z"/><path class="cls-2" d="M181.82,78.26a88.49,88.49,0,0,1,38.72,55.62c.41,1.89,3.3,1.09,2.89-.79a91.56,91.56,0,0,0-40.1-57.43c-1.63-1-3.14,1.56-1.51,2.6Z"/><path class="cls-2" d="M180,77c13.18-6.57,27.1-13.49,42.12-14,4.7-.16,10.18-.74,10.57,5.26.3,4.61-3.55,8.26-7,10.75-5.75,4.21-12.06,7.78-18.08,11.6a1.51,1.51,0,0,0,.76,2.79,113.62,113.62,0,0,0,25.77-1.88c1.89-.35,1.09-3.24-.8-2.89a110.61,110.61,0,0,1-25,1.77l.76,2.8c7.48-4.75,17.26-9.11,23-16,3.32-4,6.26-12.86.27-16.1-3.29-1.78-8.65-1.24-12.16-1a67.24,67.24,0,0,0-13.63,2.46c-9.84,2.79-19.09,7.33-28.21,11.88-1.73.87-.21,3.45,1.51,2.59Z"/><path class="cls-2" d="M150.34,187.41c4,0,5.6,5.6,10,5,2.18-.29,4.17-2.2,5.87-3.4l8.88-6.25L173,180.72c-3.15,5.4-9.21,9-13.36,13.69A78.31,78.31,0,0,0,150,208.08a1.5,1.5,0,0,0,2.59,1.52A75.48,75.48,0,0,1,164,194.12c3.87-4,8.77-7,11.6-11.89.72-1.22-.78-2.94-2-2-3.85,2.72-11.85,10.8-16.38,8-2.47-1.56-3.59-3.75-6.83-3.73a1.5,1.5,0,0,0,0,3Z"/><path class="cls-2" d="M188.7,191.17c-2.32-1.93-5.32-4-8.45-2.59-2.77,1.26-3.19,4.4-2.62,7.09.24,1.14.6,2.66,1.67,3.32,1.36.85,2.88.13,4.18-.45,2.54-1.15,5.11-2.9,5.67-5.82.37-1.89-2.52-2.7-2.89-.8a4.77,4.77,0,0,1-2.69,3.22,22,22,0,0,1-2,1c-.87.37-.8-.21-1-1-.3-1.29-.47-3.23,1-3.81,1.81-.71,3.7.95,5,2,1.47,1.23,3.6-.88,2.12-2.12Z"/><path class="cls-2" d="M198,189c-.29,3-1,6.87.27,9.71,1,2.32,3.17,2.57,5.48,2.45,2.53-.12,5-.7,6.63-2.77,2.06-2.58,2.08-5.9,1.94-9-.08-1.92-3.08-1.93-3,0,.2,4.41-.31,8.55-5.57,8.81-2.21.11-3-.56-3.06-2.7A45,45,0,0,1,201,189c.18-1.92-2.82-1.91-3,0Z"/><path class="cls-2" d="M157,220.74c-2.76-.17-8.4,3.46-5,6.38,1.16,1,7.66,2.68,4.31,4.8-1.11.7-3.08.85-4.33,1.2l-5,1.38a1.5,1.5,0,0,0,.8,2.89c3-.82,6.05-1.54,9-2.48,1.66-.53,3.17-1.33,3.49-3.21a5.05,5.05,0,0,0-1.88-4.58,10.82,10.82,0,0,0-2.74-1.53c-.27-.12-1.42-.44-1.46-.63-.21-.92,2.46-1.24,2.8-1.22,1.92.12,1.92-2.88,0-3Z"/><path class="cls-2" d="M167.62,222.55c4.73,4.33,2.55,17.38,12.3,13.82,3.12-1.14,4-4.49,4.84-7.38a55.42,55.42,0,0,0,2-15.74,1.5,1.5,0,0,0-3,0c0,2.84-1.14,24-7.57,20.26-1.85-1.09-2.46-5.56-3.21-7.71a12.11,12.11,0,0,0-3.24-5.38c-1.42-1.3-3.54.82-2.12,2.13Z"/><path class="cls-2" d="M194.89,214.88c-2.15,2-5.48,5.35-4.71,8.6a5.08,5.08,0,0,0,6.35,3.61c1.83-.58,1.05-3.47-.8-2.89-2,.63-3-1.31-2.23-3A15.24,15.24,0,0,1,197,217c1.43-1.31-.7-3.42-2.12-2.12Z"/><path class="cls-2" d="M210.11,211.42a131.85,131.85,0,0,0-8.37,18.05c-.68,1.81,2.22,2.59,2.89.8a128,128,0,0,1,8.07-17.33,1.5,1.5,0,0,0-2.59-1.52Z"/><path class="cls-2" d="M207.64,222.53l10.29-4.69c1.75-.8.23-3.39-1.51-2.59l-10.3,4.69c-1.75.8-.23,3.39,1.52,2.59Z"/><path class="cls-2" d="M207.83,220.71a67,67,0,0,0,5.25,7.29c1.23,1.49,3.34-.65,2.12-2.12a61.49,61.49,0,0,1-4.78-6.68c-1-1.64-3.61-.13-2.59,1.51Z"/><path class="cls-2" d="M224.63,205.85c.24,6.33-.89,12.48-2.13,18.66-.38,1.89,2.51,2.69,2.89.8,1.3-6.45,2.48-12.86,2.24-19.46-.07-1.92-3.07-1.93-3,0Z"/><path class="cls-2" d="M221.85,236a1.5,1.5,0,0,0,0-3,1.5,1.5,0,0,0,0,3Z"/></g></svg>