<svg xmlns="http://www.w3.org/2000/svg" viewBox="0 0 518.98 310.71"><defs><style>.cls-1{fill:#543312;}.cls-1,.cls-2,.cls-6,.cls-7,.cls-9{stroke:#000;stroke-miterlimit:10;}.cls-2,.cls-3{fill:#847535;}.cls-4{fill:#a7a1a2;}.cls-5{fill:#b1b1b1;}.cls-6{fill:#756d68;}.cls-6,.cls-7{stroke-width:3px;}.cls-7{fill:#2c221d;}.cls-8{fill:#fff;}.cls-9{fill:#423d39;stroke-width:0.5px;}</style></defs><title>cookieCrime</title><g id="Cookie_Jar" data-name="Cookie Jar"><path class="cls-1" d="M386.15,246.32c4.19,3.22,7.09,11.59,0,8.05s-9-4.83-4.51-6.44"/><path class="cls-1" d="M433.18,246.32c7.09,4.18,7.74,6.44,7.09,7.08s-12.56.33-12.24,0S433.18,246.32,433.18,246.32Z"/><path class="cls-1" d="M410.31,268.87c4.83,2.57-5.15,6.12-9.34,4.51s4.83-11.62,7.09-8.07Z"/><path class="cls-1" d="M496.65,229.24c6.44,2.58-1.29,6.89-3.55,5.54s-4.51-4.57-2.25-5.54S496.65,229.24,496.65,229.24Z"/><path class="cls-1" d="M417.72,235s-1.29,6.12-3.22,5.48l-1.93-.65s-3.86-4.51-1-4.83"/><path class="cls-2" d="M454.77,240.57s13.85,2.85,14.82,5.75,10,10.73,0,7.46-13.21-.33-14.82-3.73S454.77,240.57,454.77,240.57Z"/><path class="cls-2" d="M361.26,265.67s23.36,1.42,25,2.87,16.84,5.37,0,3.73-22.27-.16-25-1.86S361.26,265.67,361.26,265.67Z"/><path class="cls-3" d="M417.62,263.68s-7.86-.71-8.53-2.11-6.06-4.83-.34-3.71,7.38-.52,8.43,1.1S417.62,263.68,417.62,263.68Z"/><ellipse class="cls-4" cx="287.01" cy="53.9" rx="92.64" ry="14.83"/><path class="cls-5" d="M21.37,254c1.86-5.75,2.65-13.05-1.55-22.8l47.91-16.72A62.12,62.12,0,0,1,79,211.65c11.26-1.68,35.42-4.53,53.14-1.26a140,140,0,0,1,42.85,16s-2.6,16.92,2.16,21.29C169.88,252.56,59.78,270.16,21.37,254Z"/><path class="cls-6" d="M77.5,196.52c6.37-2.24,22.51-6.7,39-1.51a3.18,3.18,0,0,1,2.17,3.52c-1.38,8.94-2.06,13.27-2.38,15.36a3.15,3.15,0,0,1-2.2,2.54,65.28,65.28,0,0,1-31.53,1.17,3.16,3.16,0,0,1-2.38-2.17l-4.64-15A3.15,3.15,0,0,1,77.5,196.52Z"/><path class="cls-5" d="M194.21,51.1c-8.09,4-19.26,15.09-16.62,40.75,4,38.66,3,134.34,3,134.34s1.93,24.64,37.21,32.37S353.1,275.47,384,235.37c0,0,7.73-28.51,3.87-153.18.87-20.21-2.06-32.9-24.37-37.4C339,38,243.28,28.58,194.21,51.1Z"/><path class="cls-7" d="M224.08,134.86s-6.77-17.88,33.34-29,87.46-7.73,98.09,4.35,15,39.14-25.61,58-87.94-3.38-91.81-7.73S223.41,144.52,224.08,134.86Z"/><path class="cls-8" d="M240.56,150.76a7.08,7.08,0,0,1-1.54-5.5c.44-5.2.66-7.8,1.11-13,.24-2.8,1-4.87,2.26-6.19s3.09-1.89,5.51-1.72a7.58,7.58,0,0,1,5,2.06,6.26,6.26,0,0,1,1.67,5c-.11,2-.16,2.92-.26,4.87-2.34-.13-3.51-.2-5.85-.36.12-1.68.17-2.51.29-4.18a3.34,3.34,0,0,0-.19-1.7,1.2,1.2,0,0,0-1-.54,1.1,1.1,0,0,0-1.1.45,3.36,3.36,0,0,0-.4,1.52c-.42,5.67-.62,8.51-1,14.18a3,3,0,0,0,.24,1.66,1.21,1.21,0,0,0,1,.59c.93.06,1.44-.62,1.54-2,.13-2.05.2-3.07.33-5.11,2.39.17,3.59.25,6,.38-.11,2.13-.17,3.2-.28,5.34-.24,4.74-2.93,7-8.07,6.62A7.32,7.32,0,0,1,240.56,150.76Z"/><path class="cls-8" d="M258.86,151.8a8.45,8.45,0,0,1-1.65-6c.24-5.39.37-8.09.62-13.48a7.69,7.69,0,0,1,2.06-5.44,7.13,7.13,0,0,1,5.34-1.65,7.06,7.06,0,0,1,5.22,2,7.72,7.72,0,0,1,1.73,5.56c-.08,5.39-.12,8.09-.18,13.49a8.32,8.32,0,0,1-2,5.86,8.41,8.41,0,0,1-11.17-.37Zm6.78-3.53a5,5,0,0,0,.32-1.84c.14-5.54.21-8.31.37-13.85a3.83,3.83,0,0,0-.22-1.5,1,1,0,0,0-1-.61c-1,0-1.47.66-1.52,2.09l-.45,13.81a4.26,4.26,0,0,0,.26,1.86,1.19,1.19,0,0,0,1.14.67A1.09,1.09,0,0,0,265.64,148.27Z"/><path class="cls-8" d="M277.65,152.25a8.47,8.47,0,0,1-1.89-5.9c0-5.4,0-8.09.07-13.49a7.65,7.65,0,0,1,1.84-5.52,8.52,8.52,0,0,1,10.54-.09,7.7,7.7,0,0,1,1.94,5.49c.15,5.39.22,8.09.38,13.48a8.36,8.36,0,0,1-1.73,5.95,7.05,7.05,0,0,1-5.54,2.16A7.14,7.14,0,0,1,277.65,152.25Zm6.61-3.8a4.74,4.74,0,0,0,.25-1.85c-.08-5.54-.13-8.32-.2-13.86a3.85,3.85,0,0,0-.27-1.49,1,1,0,0,0-1-.57c-1,0-1.45.72-1.43,2.15,0,5.53.06,8.3.11,13.82a4.37,4.37,0,0,0,.33,1.85,1.21,1.21,0,0,0,1.17.62A1.07,1.07,0,0,0,284.26,148.45Z"/><path class="cls-8" d="M294.83,153.82q-.56-14.16-1-28.32c2.25-.07,3.38-.12,5.64-.23.21,4.54.32,6.8.54,11.34.87-4.59,1.29-6.88,2.11-11.47,2.29-.12,3.44-.19,5.73-.34-.93,5.26-1.41,7.88-2.4,13.14,2,6,3,9.06,5.07,15.08-2.51.17-3.77.24-6.28.38-1.66-5.41-2.47-8.11-4-13.53l.7,13.7C298.46,153.69,297.25,153.73,294.83,153.82Z"/><path class="cls-8" d="M312.84,152.85q-1.12-14.13-2.16-28.25c2.2-.16,3.3-.25,5.49-.44q1.21,14.11,2.52,28.22C316.35,152.58,315.18,152.68,312.84,152.85Z"/><path class="cls-8" d="M322.73,152q-1.43-14.08-2.76-28.2c4.54-.43,6.8-.67,11.33-1.23.26,2.18.4,3.27.67,5.44-2.26.27-3.38.4-5.64.65.24,2.19.37,3.28.61,5.47,2.19-.23,3.28-.36,5.47-.63.26,2.13.39,3.19.66,5.31-2.22.27-3.32.39-5.54.63.29,2.59.44,3.88.73,6.46,2.5-.27,3.74-.41,6.24-.72.28,2.18.41,3.28.7,5.46C330.22,151.27,327.73,151.54,322.73,152Z"/><path class="cls-8" d="M339.8,148.4q-2.07-1.65-2.63-5.88c-.15-1.09-.22-1.64-.37-2.74,2.31-.3,3.47-.46,5.78-.79.2,1.4.3,2.1.51,3.49s.78,2,1.72,1.89a1.26,1.26,0,0,0,1-.61,2.67,2.67,0,0,0,.08-1.53,6.47,6.47,0,0,0-.69-2.21,4.78,4.78,0,0,0-1.09-1.37c-.42-.35-1.14-.89-2.17-1.61s-1.72-1.23-2.85-2.06a8.24,8.24,0,0,1-3.72-5.7,8.16,8.16,0,0,1,.95-5.7A6.28,6.28,0,0,1,341,121c2.53-.37,4.45,0,5.78,1.17s2.23,3.16,2.7,6c-2.33.38-3.5.56-5.84.91-.13-.77-.19-1.15-.32-1.92a1.16,1.16,0,0,0-.45-.83,1.13,1.13,0,0,0-.92-.2,1.3,1.3,0,0,0-.95.5,1.43,1.43,0,0,0-.19,1,4.09,4.09,0,0,0,2,2.61c1.52,1,2.29,1.58,3.83,2.62a21,21,0,0,1,2.3,1.8,8.17,8.17,0,0,1,1.63,2.14,9.85,9.85,0,0,1,1,3.13c.46,2.75.28,4.93-.57,6.52s-2.51,2.59-5,3C343.25,149.86,341.18,149.5,339.8,148.4Z"/><path class="cls-9" d="M368.77,57c.17,7.61-38,10.68-85.37,11.78s-85.82-2.19-86-9.8,38-16.69,85.36-17.79S368.59,49.33,368.77,57Z"/></g></svg>