<svg xmlns="http://www.w3.org/2000/svg" viewBox="0 0 440.7 576"><defs><style>.cls-1,.cls-6{fill:#7c7c7c;}.cls-1,.cls-4,.cls-5,.cls-6{stroke:#7c7c7c;stroke-miterlimit:10;}.cls-1{stroke-width:2.1px;}.cls-2{fill:#4f3f2c;}.cls-3{fill:#352511;}.cls-4{fill:#757575;}.cls-4,.cls-5{stroke-width:3.28px;}.cls-5{fill:none;}.cls-6{stroke-width:2.05px;}.cls-7{fill:#2b2113;}</style></defs><title>cookieCrime</title><g id="Ladder"><rect class="cls-1" x="244.42" y="112.61" width="5.92" height="17.17" rx="1.19" transform="translate(444.66 313.48) rotate(-161.84)"/><polygon class="cls-2" points="252.35 108.88 221.29 205.69 192.93 318.29 197.32 331.53 257.8 125.53 252.35 108.88"/><path class="cls-3" d="M212,205.69s79.15,11.87,81.52,14.24-100.63,32.45-100.63,32.45l-75.87-15.83Z"/><polygon class="cls-2" points="293.25 233.23 192.93 264.25 117.06 252.38 117.06 236.55 192.93 252.38 293.56 219.93 293.25 233.23"/><path class="cls-3" d="M254.59,331.53s79.15,15.77,81.52,18.92-100.63,43.1-100.63,43.1l-75.85-18.49Z"/><polygon class="cls-2" points="199.56 397.14 52.95 461.34 61.24 443.06 176.59 393.55 199.56 397.14"/><polygon class="cls-2" points="335.8 363.75 235.5 402.77 159.63 390.89 159.63 375.06 235.5 390.89 336.11 350.45 335.8 363.75"/><path class="cls-2" d="M130,137.8l10.8,6.94S72,436,53,461.34l-9.5-4.75Z"/><line class="cls-4" x1="117.06" y1="252.38" x2="159.63" y2="383.77"/><line class="cls-5" x1="234.4" y1="251.43" x2="261.77" y2="332.98"/><rect class="cls-6" x="114.72" y="169.03" width="4.21" height="23.12" rx="1.19" transform="translate(171.53 388.61) rotate(-161.84)"/><path class="cls-7" d="M255.57,537.32c-16.62-95.77-95-315-135.34-426.61,0,0-14.25-40.37,14.24-53,34.83-4,62.53-9.5,62.53-9.5S230.24,45,242.91,80.63s91,286.52,132.18,375.17l17.41,7.12,4.75-5.54s-69.65-167-136.93-378.33c0,0-18.2-40.12-48.28-45.91l-83.9,14.25S83.82,63.22,103.6,117,206.5,421.76,206.5,421.76s26.12,89.44,26.12,112.39l15.26,8.71Z"/></g></svg>