<svg id="Foot_Prints" data-name="Foot Prints" xmlns="http://www.w3.org/2000/svg" viewBox="0 0 632.05 461.48"><defs><style>.cls-1{fill:#543312;stroke:#000;stroke-miterlimit:10;stroke-width:0.25px;}</style></defs><title>cookieCrime</title><g id="Left_Foot" data-name="Left Foot"><path class="cls-1" d="M80.49,82.51s13.29,4.41,18.94,3.16c7.27.77,20.11-9.11,5.81-21.62-7.1-4-18.95-4.6-21.14-3.29S80.49,82.51,80.49,82.51Z"/><path class="cls-1" d="M71.89,79.88,76.54,59S66.23,54.4,62.16,49.28c-3.78-6.05-13.89-10.12-22.61-11.72s-19.33-2.39-25.72,3.67S9.61,57,13.49,60.6C17.83,65.36,35.66,81.64,71.89,79.88Z"/></g><g id="Left_Foot-2" data-name="Left Foot"><path class="cls-1" d="M266.26,183.49s10.84,8.85,16.56,9.7c6.52,3.3,22-1.35,13.14-18.13-5.2-6.29-16.06-11.06-18.58-10.61S266.26,183.49,266.26,183.49Z"/><path class="cls-1" d="M259.16,178,271,160.11s-8-8-10-14.21c-1.37-7-9.37-14.4-17-19s-17.21-9.12-25.34-5.74-9.55,13.2-7.22,18C213.82,145.13,224.68,166.69,259.16,178Z"/></g><g id="Left_Foot-3" data-name="Left Foot"><path class="cls-1" d="M460.3,365.4s8.63,11,14,13.1c5.64,4.66,21.79,3.52,16.79-14.8-3.68-7.28-13.23-14.32-15.79-14.44S460.3,365.4,460.3,365.4Z"/><path class="cls-1" d="M454.58,358.45,470,343.62s-6.05-9.53-6.61-16.05c.19-7.13-6-16.11-12.37-22.27s-14.78-12.68-23.45-11.16-12.22,10.77-11,15.95C417.57,316.45,423.43,339.88,454.58,358.45Z"/></g><g id="Left_Foot-4" data-name="Left Foot"><path class="cls-1" d="M238,43.34s12.85,5.56,16.23,10.25c5.93,4.27,8.93,20.19-10.06,20-8-1.72-17.2-9.18-18-11.62S238,43.34,238,43.34Z"/><path class="cls-1" d="M229.79,39.57,219.35,58.26s-10.75-3.44-17.2-2.34c-6.84,2-17.1-1.69-24.67-6.32s-16-11.08-16.74-19.85,7.32-14.55,12.65-14.68C179.79,14.41,203.93,14.14,229.79,39.57Z"/></g><g id="Left_Foot-5" data-name="Left Foot"><path class="cls-1" d="M614.07,414.27s7.51,11.82,7.68,17.59c2.51,6.87-4,21.73-19.56,10.91-5.63-5.9-9.08-17.25-8.34-19.7S614.07,414.27,614.07,414.27Z"/><path class="cls-1" d="M609.43,406.57l-19.13,9.6s-7-8.88-12.93-11.59c-6.79-2.19-13.2-11-16.87-19.08s-7-18.16-2.71-25.83,14.23-7.93,18.71-5.05C582.17,357.67,602.3,371,609.43,406.57Z"/></g><g id="Left_Foot-6" data-name="Left Foot"><path class="cls-1" d="M429.42,187.43s10.31,9.48,12,15c4.2,6,1.8,22-16.07,15.58-7-4.24-13.23-14.32-13.15-16.88S429.42,187.43,429.42,187.43Z"/><path class="cls-1" d="M422.94,181.19l-16,14.22s-9-6.78-15.48-7.85c-7.12-.37-15.59-7.22-21.23-14.07s-11.48-15.73-9.29-24.26,11.7-11.34,16.77-9.71C384,141,406.87,148.67,422.94,181.19Z"/></g></svg>