<svg xmlns="http://www.w3.org/2000/svg" viewBox="0 0 310.47 297.67"><defs><style>.cls-1{fill:#473c18;}.cls-2{fill:#605121;}.cls-3{fill:#6b5f25;}.cls-4{fill:#332e12;}.cls-5{fill:#351212;}.cls-6{fill:#421919;}.cls-7{fill:#826526;}.cls-8{opacity:0.9;}.cls-9{fill:#8b4ba0;}.cls-10{fill:#bd82d8;}.cls-11{fill:#9b82d8;}.cls-12{fill:#d3a8e5;}.cls-13{fill:#a04b58;}.cls-14{fill:#d882ab;}.cls-15{fill:#e8bfcf;}.cls-16{fill:#e2a8be;}.cls-17{fill:#4b94a3;}.cls-18{fill:#82d2db;}.cls-19{fill:#bde4e9;}.cls-20{fill:#a6e3e6;}.cls-21{fill:#4ba04b;}.cls-22{fill:#82d88c;}.cls-23{fill:#bfe8c8;}.cls-24{fill:#a8e5aa;}.cls-25{fill:#997a3d;}</style></defs><title>IDFraud</title><g id="Bag_of_Diamonds" data-name="Bag of Diamonds"><path class="cls-1" d="M32,230.55s-1.07-10.79-.26-15.31c2.35-13.16,9.66-23.73,19.19-32.78,6.69-6.35,13.75-12.3,20.52-18.57a60.34,60.34,0,0,0,7.07-7.66c4.74-6.24,6.69-13.07,4.73-21.06-2.08-8.55-2.14-16-9.15-22.58,2.18.86,9.9-2,10-1.5l18.23-3.66-3.45-2.89c11.86-1.45,22.66-2.38,29.94-.4,4.53,1.24,7,2.84,11.12,5.8,2.3,1.67,9.83,3.82,7.09,5.23l13.28,11c.71-1.92,3.48.69,6.36,1.26,9.2,1.79,17.15-.26,23.57-7.26.7-.76,9.48-6.8,12-9.75,5.2-6.09,4.52-5.93,12.51-6.72,3.62-.36,6.13-2.38,9.73-3,.85-.15,6-2,6.49-1.62,0,0,8.33-2.32,13.05-8.43.43-.25.92-.41,1.68-.74-3.21,8.08-6.55,15.84-9.35,23.78-1.48,4.21-2.93,8.78-2.77,13.12a23.11,23.11,0,0,0,4,11.78c10.77,15.36,24,27.93,34.16,43.64,7,10.73,9.19,25.15,7,38.42-1.51,9.18-6,16.1-14.34,20.57-13.84,7.43-28.84,11.17-44.09,14a405.07,405.07,0,0,1-123.74,4C71.61,260,31.23,236.25,32,230.55Z"/><path class="cls-2" d="M234.82,97.23l-13.34,40.5c32.66,20.62,20.85,48.18,14.36,61.38s-50.73,48.41-106.78,46.1-54.9-48-47.72-57,24.79-48.41,12.28-64.17,2.32-13.89,2.32-13.89,11.58-8.11,32.19-6c0,0,14.57,3.47,31.49,22,26,5.46,41.92-18.74,44.71-19S206.25,103.75,234.82,97.23Z"/><path class="cls-3" d="M175.38,219.73s86.4-57-18.29-43.09c-21.78,3.25-32.9-9.49-41.47-7.87s-32,23.86-20.61,41S137.63,234.32,175.38,219.73Z"/><path class="cls-4" d="M33,210s-3.23,5.33-1.55,23.19c1.6,17,65.46,37.06,131.71,35s110.25-25,112.11-35c5.13-7.18,4.16-17.86,4.29-24.73.05-2.87-14.25-.05-15.41,9.44s-34.09,20.29-38,24.79c-4.63,5.34-86.47,21.07-109.37,13.66a42.54,42.54,0,0,0-4.15-1.16c-22-4.79-65.89-22.53-69.47-30.57C39.42,216.25,39,207.74,33,210Z"/><path class="cls-5" d="M83,140.51s-6.48-.69-6.48,5.33S79.72,153,79.72,153s50.5,12.51,57.91,13.66,33.82-2.08,38.91,19.69,16,39.61,13,44.94,15.09,5.54,15.29,0-7-6-7.64-8.57-10.66-37.06-11.58-38.45-6.05-29.54-41.45-26.5a26.19,26.19,0,0,1-9.84-1C98.8,146,83,140.51,83,140.51Z"/><path class="cls-6" d="M237.83,136.59s6.39-1.32,7,4.68-2.54,7.46-2.54,7.46S193.2,166,185.93,167.89s-33.86,1.17-36.84,23.33-12.11,41-8.6,46-14.49,7-15.22,1.47,6.34-6.66,6.79-9.26,7.05-37.91,7.84-39.39,3.18-30,38.71-30.35a26.19,26.19,0,0,0,9.69-2C222.6,143.57,237.83,136.59,237.83,136.59Z"/><path class="cls-7" d="M66.69,94a5,5,0,0,1,.76,3.22c-.24,1.82-8,13.2,6.62,15.36s85.55,13.56,85.55,13.56,18.88,10.38,30.63-6A340.64,340.64,0,0,0,220.09,103s19.67-4.63,25.62-13.11c7.6-4.49,12.61-12.95,2.53-20.15a20.24,20.24,0,0,0-6.82-3.08C223,61.94,112.71,33.9,107.61,35.18,102.05,36.57,78.21,47,72.18,62.49S66.69,94,66.69,94Z"/><g class="cls-8"><polygon class="cls-9" points="95.91 63.76 141.05 84.58 115.47 67.03 95.91 63.76"/><polygon class="cls-10" points="101.03 42.64 95.91 63.76 115.47 67.03 117.19 48.87 101.03 42.64"/><polygon class="cls-11" points="101.03 42.64 110.55 31.84 129.23 23.69 140.59 26.25 133.99 43.17 117.19 48.87 101.03 42.64"/><polygon class="cls-9" points="155.29 35.84 141.05 84.62 143.76 53.96 155.29 35.84"/><polygon class="cls-12" points="117.19 48.87 115.47 67.03 145.89 53.23 133.99 43.17 117.19 48.87"/><polygon class="cls-10" points="133.99 43.17 140.59 26.25 155.29 35.84 145.89 53.23 133.99 43.17"/><polygon class="cls-11" points="115.45 67.06 141.03 84.61 145.89 53.23 115.45 67.06"/></g><g class="cls-8"><polygon class="cls-13" points="130.58 49.99 159.34 101.12 147.03 66.65 130.58 49.99"/><polygon class="cls-14" points="150.08 33.34 130.58 49.99 147.03 66.65 161.23 50.48 150.08 33.34"/><polygon class="cls-15" points="150.08 33.34 166.66 29.61 190.15 34.73 199.25 45.04 181.23 56.65 161.23 50.48 150.08 33.34"/><polygon class="cls-13" points="206.66 64.38 159.31 101.16 183.11 73.72 206.66 64.38"/><polygon class="cls-16" points="161.23 50.48 147.03 66.65 185.64 74.5 181.23 56.65 161.23 50.48"/><polygon class="cls-14" points="181.23 56.65 199.25 45.04 206.66 64.38 185.64 74.5 181.23 56.65"/><polygon class="cls-15" points="146.99 66.67 159.3 101.13 185.64 74.5 146.99 66.67"/></g><g class="cls-8"><polygon class="cls-17" points="66.69 94.01 120.49 117.39 89.86 97.35 66.69 94.01"/><polygon class="cls-18" points="72.19 68.96 66.69 94.01 89.86 97.35 91.42 75.89 72.19 68.96"/><polygon class="cls-19" points="72.19 68.96 83.14 55.97 104.96 45.87 118.44 48.59 111.08 68.73 91.42 75.89 72.19 68.96"/><polygon class="cls-17" points="136.03 59.53 120.49 117.45 122.89 81.2 136.03 59.53"/><polygon class="cls-20" points="91.42 75.89 89.86 97.35 125.38 80.29 111.08 68.73 91.42 75.89"/><polygon class="cls-18" points="111.08 68.73 118.44 48.59 136.03 59.53 125.38 80.29 111.08 68.73"/><polygon class="cls-18" points="89.84 97.39 120.47 117.43 125.38 80.29 89.84 97.39"/></g><g class="cls-8"><path class="cls-21" d="M141.27,119.3l-6.5-10.78-20.84-14,20.69,24C136.35,119.35,139.29,119.08,141.27,119.3Z"/><polygon class="cls-22" points="130.91 72.83 113.93 94.5 134.77 108.52 146.27 88.49 130.91 72.83"/><polygon class="cls-23" points="130.91 72.83 147.55 65.38 173.35 65.78 185.11 74.69 168.62 90.73 146.27 88.49 130.91 72.83"/><path class="cls-21" d="M174.23,108.29l-8.92,15.76a5.27,5.27,0,0,1,.82.58,21.5,21.5,0,0,0,2.54.14,6.55,6.55,0,0,1,1.28.12L197,93.46Z"/><polygon class="cls-24" points="146.27 88.49 134.77 108.52 177.06 108.57 168.62 90.73 146.27 88.49"/><polygon class="cls-22" points="168.62 90.73 185.11 74.69 197.03 93.45 177.06 108.57 168.62 90.73"/><path class="cls-22" d="M134.73,108.55l6.48,10.75.42,0c2.81.46,5.59,1.09,8.39,1.59,2,.37,4,.9,6,1.46a5.79,5.79,0,0,1,2.2-.42,5.36,5.36,0,0,1,3.2,1,21.85,21.85,0,0,1,2.58.54,5.38,5.38,0,0,1,2.12,1.15l.37.05,10.56-16.11Z"/></g><g class="cls-8"><path class="cls-17" d="M189.91,115.44l.18-27.55-9.75-21.28L188.61,117A13.38,13.38,0,0,1,189.91,115.44Z"/><polygon class="cls-18" points="204.37 57.64 180.34 66.61 190.09 87.89 208.97 77.56 204.37 57.64"/><polygon class="cls-19" points="204.37 57.64 221.22 59.81 241.54 72.67 246.55 85.47 225.64 90.21 208.97 77.56 204.37 57.64"/><path class="cls-20" d="M218.54,102.1c2.05-.61,4.05-1.17,6-1.77l1.08-10.12L209,77.56,190.09,87.89l25,15.33C216.23,102.82,217.38,102.44,218.54,102.1Z"/><path class="cls-18" d="M245.49,89.08a4.48,4.48,0,0,1,1.11-.85l0-2.76-20.91,4.74-1.08,10.12a48.58,48.58,0,0,0,13.91-6.26c.6-.41,1.21-.78,1.82-1.13a3.9,3.9,0,0,1,.6-.62,4.33,4.33,0,0,1,1-.86,4.62,4.62,0,0,1,3-2A4.33,4.33,0,0,1,245.49,89.08Z"/><path class="cls-18" d="M197.67,110.46c5.76-2.47,11.48-5.17,17.41-7.24L190,87.89l-.18,27.6A23.64,23.64,0,0,1,197.67,110.46Z"/></g><g class="cls-8"><polygon class="cls-17" points="211.99 215.3 212.89 273.95 218.5 237.79 211.99 215.3"/><polygon class="cls-18" points="237.08 209.97 211.99 215.3 218.5 237.79 238.7 230.35 237.08 209.97"/><polygon class="cls-19" points="237.08 209.97 253.43 214.59 271.64 230.3 274.71 243.7 253.34 245.31 238.7 230.35 237.08 209.97"/><polygon class="cls-17" points="272.01 264.24 212.84 273.98 246.85 261.21 272.01 264.24"/><polygon class="cls-20" points="238.7 230.35 218.5 237.79 248.7 263.11 253.34 245.31 238.7 230.35"/><polygon class="cls-18" points="253.34 245.31 274.71 243.7 272.01 264.24 248.7 263.11 253.34 245.31"/><polygon class="cls-18" points="218.46 237.78 212.84 273.95 248.7 263.11 218.46 237.78"/></g><path class="cls-25" d="M73.62,98.35s-7.41-5.72-7.64-3.9-8,13.2,6.62,15.36,85.56,13.55,85.56,13.55,18.88,10.39,30.62-6c16.87-8.6,29.84-15.08,29.84-15.08s18-2.73,23.94-11.21C150.66,129.85,73.62,98.35,73.62,98.35Z"/></g></svg>