<svg id="Passports" xmlns="http://www.w3.org/2000/svg" viewBox="0 0 557.88 359.52"><defs><style>.cls-1{fill:#000621;}.cls-2,.cls-3{fill:#8e7300;}.cls-3{font-size:12px;font-family:TimesNewRomanPS-BoldMT, Times New Roman;font-weight:700;}.cls-4{letter-spacing:-0.04em;}.cls-5{fill:#5b0032;}</style></defs><title>IDFraud</title><path class="cls-1" d="M34.85,39.62H237.66a18,18,0,0,1,18,18V301a18,18,0,0,1-18,18H34.85a0,0,0,0,1,0,0V39.62A0,0,0,0,1,34.85,39.62Z"/><path class="cls-2" d="M81.64,78.33v5.13a5.86,5.86,0,0,0,.18,1.89,1.3,1.3,0,0,0,.66.62,4.23,4.23,0,0,0,1.72.23v.51H74.8V86.2A4.2,4.2,0,0,0,76.54,86a1.29,1.29,0,0,0,.64-.62,5.37,5.37,0,0,0,.19-1.88v-12a5.48,5.48,0,0,0-.19-1.89,1.38,1.38,0,0,0-.64-.62,4.5,4.5,0,0,0-1.74-.23v-.51h8.06c2.66,0,4.56.48,5.72,1.42a4.42,4.42,0,0,1,1.73,3.55,4.5,4.5,0,0,1-1.12,3.08A5.64,5.64,0,0,1,86.11,78,21,21,0,0,1,81.64,78.33Zm0-9v8l.68,0a3.28,3.28,0,0,0,2.56-1,4.44,4.44,0,0,0,.9-3.06,4.29,4.29,0,0,0-.9-3,3.53,3.53,0,0,0-2.68-1Z"/><path class="cls-2" d="M100.7,81.44H94.17l-.78,1.8A4.11,4.11,0,0,0,93,84.73a1.24,1.24,0,0,0,.63,1.15,5.37,5.37,0,0,0,1.81.32v.51H89.3V86.2a2.77,2.77,0,0,0,1.64-.82,11,11,0,0,0,1.58-2.79l6.61-14.76h.26L106.06,83a9.16,9.16,0,0,0,1.57,2.71,2.13,2.13,0,0,0,1.31.49v.51h-9V86.2h.37a2.82,2.82,0,0,0,1.52-.3.71.71,0,0,0,.3-.62,1.52,1.52,0,0,0-.09-.51,9,9,0,0,0-.41-1Zm-.46-1-2.76-6.36-2.83,6.36Z"/><path class="cls-2" d="M122.37,67.79l.15,6.17H122A6.28,6.28,0,0,0,120,70.23a4.86,4.86,0,0,0-3.35-1.42,3.12,3.12,0,0,0-2.2.75,2.25,2.25,0,0,0-.81,1.71,2.09,2.09,0,0,0,.29,1.09,4.56,4.56,0,0,0,1.26,1.27,29.15,29.15,0,0,0,3,1.59,13.08,13.08,0,0,1,4.38,3,5.06,5.06,0,0,1,1.12,3.24,5.22,5.22,0,0,1-1.81,4,6.45,6.45,0,0,1-4.59,1.67,8,8,0,0,1-1.65-.17,12.28,12.28,0,0,1-2-.67A2.92,2.92,0,0,0,112.6,86a1.38,1.38,0,0,0-.76.27,2,2,0,0,0-.64.83h-.5v-7h.5a8,8,0,0,0,2.32,4.49,5.42,5.42,0,0,0,3.69,1.55,3.49,3.49,0,0,0,2.43-.83,2.51,2.51,0,0,0,.56-3.21A4.05,4.05,0,0,0,119.14,81a15.62,15.62,0,0,0-2.51-1.44A21.52,21.52,0,0,1,113,77.43a6.42,6.42,0,0,1-1.69-2,4.77,4.77,0,0,1-.6-2.37,5,5,0,0,1,1.63-3.76,5.65,5.65,0,0,1,4.09-1.56,7.15,7.15,0,0,1,1.74.22,8.32,8.32,0,0,1,1.56.61,3.86,3.86,0,0,0,1.29.44.7.7,0,0,0,.56-.22,2.3,2.3,0,0,0,.38-1Z"/><path class="cls-2" d="M137.91,67.79l.15,6.17h-.56a6.28,6.28,0,0,0-1.94-3.73,4.88,4.88,0,0,0-3.35-1.42,3.11,3.11,0,0,0-2.2.75,2.22,2.22,0,0,0-.82,1.71,2.09,2.09,0,0,0,.29,1.09,4.61,4.61,0,0,0,1.27,1.27,27,27,0,0,0,3,1.59,13.29,13.29,0,0,1,4.38,3,5.11,5.11,0,0,1,1.11,3.24,5.25,5.25,0,0,1-1.8,4,6.49,6.49,0,0,1-4.59,1.67,8,8,0,0,1-1.65-.17,12.28,12.28,0,0,1-1.95-.67,3,3,0,0,0-1.08-.27,1.33,1.33,0,0,0-.75.27,1.9,1.9,0,0,0-.64.83h-.51v-7h.51a8,8,0,0,0,2.31,4.49,5.42,5.42,0,0,0,3.69,1.55,3.46,3.46,0,0,0,2.43-.83,2.51,2.51,0,0,0,.56-3.21,4,4,0,0,0-1-1.16,16.1,16.1,0,0,0-2.51-1.44,21.11,21.11,0,0,1-3.63-2.12,6.46,6.46,0,0,1-1.7-2,4.87,4.87,0,0,1-.59-2.37,5,5,0,0,1,1.62-3.76A5.67,5.67,0,0,1,132,67.79a7.3,7.3,0,0,1,1.75.22,8.59,8.59,0,0,1,1.56.61,3.72,3.72,0,0,0,1.29.44.73.73,0,0,0,.56-.22,2.57,2.57,0,0,0,.38-1Z"/><path class="cls-2" d="M147.86,78.33v5.13a5.48,5.48,0,0,0,.19,1.89,1.31,1.31,0,0,0,.65.62,4.31,4.31,0,0,0,1.73.23v.51H141V86.2a4.26,4.26,0,0,0,1.74-.24,1.33,1.33,0,0,0,.64-.62,5.74,5.74,0,0,0,.18-1.88v-12a5.86,5.86,0,0,0-.18-1.89,1.36,1.36,0,0,0-.65-.62,4.44,4.44,0,0,0-1.73-.23v-.51h8.06c2.66,0,4.56.48,5.71,1.42a4.41,4.41,0,0,1,1.74,3.55,4.54,4.54,0,0,1-1.12,3.08A5.67,5.67,0,0,1,152.34,78,21.19,21.19,0,0,1,147.86,78.33Zm0-9v8l.69,0a3.29,3.29,0,0,0,2.56-1,4.44,4.44,0,0,0,.9-3.06,4.29,4.29,0,0,0-.9-3,3.55,3.55,0,0,0-2.69-1Z"/><path class="cls-2" d="M168.17,68a9.16,9.16,0,0,1,9.94,9.43,9.8,9.8,0,0,1-2.06,6.19,9.13,9.13,0,0,1-7.7,3.55,9.36,9.36,0,0,1-7.72-3.38,9.78,9.78,0,0,1-2.16-6.34,9.22,9.22,0,0,1,2.81-6.87A8.9,8.9,0,0,1,168.17,68Zm.16.87a4.17,4.17,0,0,0-3.86,2.59,14,14,0,0,0-1.07,6.11c0,3.15.55,5.49,1.66,7a3.81,3.81,0,0,0,3.25,1.58,3.9,3.9,0,0,0,2.34-.68,5.64,5.64,0,0,0,1.87-2.79,15.41,15.41,0,0,0,.67-5,16.72,16.72,0,0,0-.68-5.49,5.43,5.43,0,0,0-1.74-2.57A4.13,4.13,0,0,0,168.33,68.83Z"/><path class="cls-2" d="M186.53,78.28v5.18a5.86,5.86,0,0,0,.18,1.89,1.31,1.31,0,0,0,.65.62,4.28,4.28,0,0,0,1.73.23v.51h-9.46V86.2a4.26,4.26,0,0,0,1.74-.24,1.38,1.38,0,0,0,.64-.62,5.74,5.74,0,0,0,.18-1.88v-12a5.86,5.86,0,0,0-.18-1.89,1.4,1.4,0,0,0-.65-.62,4.47,4.47,0,0,0-1.73-.23v-.51h8.59a18.66,18.66,0,0,1,4.91.47,5,5,0,0,1,2.54,1.71,4.62,4.62,0,0,1,1,2.93,4.35,4.35,0,0,1-1.48,3.38A6.16,6.16,0,0,1,192.54,78L197,84.23a9.47,9.47,0,0,0,1.24,1.51,2.25,2.25,0,0,0,1.29.46v.51H193.7l-6-8.43Zm0-9.07v8.1h.77a8.47,8.47,0,0,0,2.84-.35,2.82,2.82,0,0,0,1.48-1.25,4.59,4.59,0,0,0,.54-2.37A3.59,3.59,0,0,0,188,69.21Z"/><path class="cls-2" d="M215.92,68.21v5h-.49a8.1,8.1,0,0,0-1-2.49A3.8,3.8,0,0,0,213,69.52a4.8,4.8,0,0,0-1.82-.24h-1.37V83.54a6.14,6.14,0,0,0,.15,1.78,1.47,1.47,0,0,0,.62.62,2.45,2.45,0,0,0,1.25.26h.61v.51h-9.68V86.2h.61a2.58,2.58,0,0,0,1.3-.28,1.31,1.31,0,0,0,.55-.66,5.19,5.19,0,0,0,.16-1.72V69.28H204a3.89,3.89,0,0,0-2.72.79,5.26,5.26,0,0,0-1.5,3.15h-.51v-5Z"/><circle class="cls-2" cx="145.17" cy="179.96" r="6.19"/><path class="cls-2" d="M149.64,145.87a6.75,6.75,0,0,0,.42-2.35c0-3.42-2.49-6.19-5.55-6.19S139,140.1,139,143.52a6.82,6.82,0,0,0,.65,2.91l5.55,24.8Z"/><path class="cls-2" d="M130.5,148.86a6.79,6.79,0,0,0-.92-2.2c-1.85-2.88-5.44-3.87-8-2.21s-3.16,5.33-1.31,8.2a6.64,6.64,0,0,0,2.12,2.1l18.07,17.87Z"/><path class="cls-2" d="M116,161.72a6.76,6.76,0,0,0-2-1.35c-3.11-1.42-6.66-.31-7.93,2.47s.22,6.19,3.33,7.62a6.78,6.78,0,0,0,2.92.61l24.86,5.26Z"/><path class="cls-2" d="M110.78,180.38a6.74,6.74,0,0,0-2.38-.08c-3.38.49-5.77,3.34-5.34,6.37s3.54,5.09,6.92,4.6a6.81,6.81,0,0,0,2.79-1.05l23.76-9Z"/><path class="cls-2" d="M116.47,198.9a6.7,6.7,0,0,0-2,1.22c-2.59,2.24-3.06,5.93-1.06,8.25s5.73,2.37,8.32.13a6.9,6.9,0,0,0,1.77-2.4l15.11-20.43Z"/><path class="cls-2" d="M131.27,211.41a6.65,6.65,0,0,0-1.06,2.13c-1,3.28.63,6.64,3.57,7.5s6.1-1.1,7.06-4.38a6.72,6.72,0,0,0,.2-3l1.67-25.36Z"/><path class="cls-2" d="M150.47,213.93a6.63,6.63,0,0,0,.27,2.36c1,3.29,4.12,5.25,7.06,4.39s4.54-4.23,3.57-7.51a6.71,6.71,0,0,0-1.44-2.61l-12.31-22.23Z"/><path class="cls-2" d="M168,205.67a6.67,6.67,0,0,0,1.5,1.84c2.58,2.24,6.31,2.18,8.31-.13s1.53-6-1.05-8.24a6.84,6.84,0,0,0-2.63-1.42l-22.37-12.05Z"/><path class="cls-2" d="M178.27,189.24a7,7,0,0,0,2.26.74c3.39.49,6.49-1.57,6.92-4.6s-1.95-5.88-5.34-6.37a6.68,6.68,0,0,0-3,.23l-25.34,2Z"/><path class="cls-2" d="M178,169.87a6.94,6.94,0,0,0,2.3-.6c3.11-1.42,4.6-4.83,3.33-7.62s-4.82-3.89-7.93-2.46a6.64,6.64,0,0,0-2.38,1.8L153.1,176.33Z"/><path class="cls-2" d="M167.36,153.7A6.8,6.8,0,0,0,169,152c1.85-2.88,1.26-6.55-1.32-8.21s-6.16-.66-8,2.22a6.66,6.66,0,0,0-1,2.8l-8.75,23.86Z"/><text class="cls-3" transform="translate(69.07 288.62)">REPUBLIC O<tspan class="cls-4" x="74.34" y="0">F</tspan><tspan x="81.23" y="0" xml:space="preserve"> SHERLOCK</tspan></text><path class="cls-5" d="M302.22,40.56H505a18,18,0,0,1,18,18V301.9a18,18,0,0,1-18,18H302.22a0,0,0,0,1,0,0V40.56A0,0,0,0,1,302.22,40.56Z"/><path class="cls-2" d="M349,79.28v5.13a5.74,5.74,0,0,0,.18,1.88,1.44,1.44,0,0,0,.66.63,4.45,4.45,0,0,0,1.72.23v.5h-9.39v-.5a4.26,4.26,0,0,0,1.74-.24,1.48,1.48,0,0,0,.64-.62,5.78,5.78,0,0,0,.18-1.88v-12a5.86,5.86,0,0,0-.18-1.89,1.36,1.36,0,0,0-.65-.62,4.24,4.24,0,0,0-1.73-.24v-.5h8.06c2.65,0,4.56.47,5.71,1.42a4.38,4.38,0,0,1,1.73,3.54,4.58,4.58,0,0,1-1.11,3.09A5.75,5.75,0,0,1,353.47,79,20.85,20.85,0,0,1,349,79.28Zm0-9.06v8l.68,0a3.3,3.3,0,0,0,2.57-1,4.44,4.44,0,0,0,.9-3.06,4.26,4.26,0,0,0-.9-3,3.52,3.52,0,0,0-2.69-1Z"/><path class="cls-2" d="M368.07,82.39h-6.54l-.77,1.8a3.92,3.92,0,0,0-.39,1.48,1.23,1.23,0,0,0,.63,1.15,5.11,5.11,0,0,0,1.82.33v.5h-6.16v-.5a2.75,2.75,0,0,0,1.64-.83,10.67,10.67,0,0,0,1.58-2.79l6.62-14.75h.26l6.67,15.16A9.22,9.22,0,0,0,375,86.66a2.19,2.19,0,0,0,1.31.49v.5h-8.94v-.5h.36a2.82,2.82,0,0,0,1.52-.3.74.74,0,0,0,.3-.63,1.8,1.8,0,0,0-.08-.5c0-.09-.16-.43-.41-1Zm-.47-1L364.85,75,362,81.38Z"/><path class="cls-2" d="M389.74,68.74l.15,6.16h-.56a6.32,6.32,0,0,0-1.95-3.73A4.87,4.87,0,0,0,384,69.76a3.17,3.17,0,0,0-2.21.74,2.28,2.28,0,0,0-.81,1.71,2.06,2.06,0,0,0,.29,1.09,4.36,4.36,0,0,0,1.27,1.27,26.4,26.4,0,0,0,3,1.6,13.12,13.12,0,0,1,4.37,3A5.09,5.09,0,0,1,391,82.43a5.28,5.28,0,0,1-1.8,4,6.53,6.53,0,0,1-4.59,1.67,7.19,7.19,0,0,1-1.65-.18,12.28,12.28,0,0,1-1.95-.67A3,3,0,0,0,380,87a1.33,1.33,0,0,0-.75.27,1.81,1.81,0,0,0-.64.84h-.51v-7h.51a8,8,0,0,0,2.31,4.5,5.41,5.41,0,0,0,3.69,1.54A3.41,3.41,0,0,0,387,86.3a2.53,2.53,0,0,0,.91-1.93,2.56,2.56,0,0,0-.35-1.27,3.94,3.94,0,0,0-1.06-1.17A15.17,15.17,0,0,0,384,80.49a21.71,21.71,0,0,1-3.62-2.11,6.46,6.46,0,0,1-1.7-1.95,4.8,4.8,0,0,1-.59-2.38,5,5,0,0,1,1.62-3.76,5.66,5.66,0,0,1,4.09-1.55,7.29,7.29,0,0,1,1.75.21,9.76,9.76,0,0,1,1.56.61,3.51,3.51,0,0,0,1.29.44.76.76,0,0,0,.56-.21,2.71,2.71,0,0,0,.38-1.05Z"/><path class="cls-2" d="M405.27,68.74l.15,6.16h-.56a6.31,6.31,0,0,0-1.94-3.73,4.89,4.89,0,0,0-3.35-1.41,3.15,3.15,0,0,0-2.2.74,2.28,2.28,0,0,0-.81,1.71,2.06,2.06,0,0,0,.28,1.09,4.62,4.62,0,0,0,1.27,1.27,27.41,27.41,0,0,0,3,1.6,13.3,13.3,0,0,1,4.38,3,5.15,5.15,0,0,1,1.12,3.25,5.29,5.29,0,0,1-1.81,4,6.51,6.51,0,0,1-4.59,1.67,7.32,7.32,0,0,1-1.65-.18,12.28,12.28,0,0,1-1.95-.67,3,3,0,0,0-1.08-.27,1.38,1.38,0,0,0-.75.27,2,2,0,0,0-.64.84h-.5v-7h.5a8,8,0,0,0,2.31,4.5,5.41,5.41,0,0,0,3.69,1.54,3.46,3.46,0,0,0,2.44-.83,2.53,2.53,0,0,0,.56-3.2A4.23,4.23,0,0,0,402,81.93a15.62,15.62,0,0,0-2.51-1.44,22.34,22.34,0,0,1-3.63-2.11,6.46,6.46,0,0,1-1.7-1.95,4.91,4.91,0,0,1-.59-2.38,5,5,0,0,1,1.62-3.76,5.69,5.69,0,0,1,4.1-1.55,7.21,7.21,0,0,1,1.74.21,9.08,9.08,0,0,1,1.56.61,3.63,3.63,0,0,0,1.29.44.75.75,0,0,0,.56-.21,2.55,2.55,0,0,0,.38-1.05Z"/><path class="cls-2" d="M415.23,79.28v5.13a5.74,5.74,0,0,0,.18,1.88,1.35,1.35,0,0,0,.66.63,4.41,4.41,0,0,0,1.72.23v.5h-9.4v-.5a4.2,4.2,0,0,0,1.74-.24,1.38,1.38,0,0,0,.64-.62,5.41,5.41,0,0,0,.19-1.88v-12a5.48,5.48,0,0,0-.19-1.89,1.33,1.33,0,0,0-.64-.62,4.26,4.26,0,0,0-1.74-.24v-.5h8.06c2.66,0,4.56.47,5.72,1.42a4.41,4.41,0,0,1,1.73,3.54,4.54,4.54,0,0,1-1.12,3.09A5.69,5.69,0,0,1,419.7,79,20.85,20.85,0,0,1,415.23,79.28Zm0-9.06v8l.68,0a3.28,3.28,0,0,0,2.56-1,4.44,4.44,0,0,0,.9-3.06,4.26,4.26,0,0,0-.9-3,3.51,3.51,0,0,0-2.69-1Z"/><path class="cls-2" d="M435.53,68.9a9.19,9.19,0,0,1,10,9.44,9.88,9.88,0,0,1-2.06,6.19,9.18,9.18,0,0,1-7.71,3.55A9.34,9.34,0,0,1,428,84.69a9.81,9.81,0,0,1-2.15-6.34,9.24,9.24,0,0,1,2.8-6.87A8.93,8.93,0,0,1,435.53,68.9Zm.17.87a4.18,4.18,0,0,0-3.86,2.59,13.84,13.84,0,0,0-1.08,6.11c0,3.16.56,5.49,1.66,7a3.8,3.8,0,0,0,3.25,1.58,3.87,3.87,0,0,0,2.35-.68,5.54,5.54,0,0,0,1.86-2.79,15.37,15.37,0,0,0,.67-5,16.53,16.53,0,0,0-.68-5.49,5.29,5.29,0,0,0-1.74-2.57A4.07,4.07,0,0,0,435.7,69.77Z"/><path class="cls-2" d="M453.89,79.22v5.19a5.37,5.37,0,0,0,.19,1.88,1.35,1.35,0,0,0,.64.63,4.47,4.47,0,0,0,1.73.23v.5H447v-.5a4.26,4.26,0,0,0,1.74-.24,1.43,1.43,0,0,0,.64-.62,5.78,5.78,0,0,0,.18-1.88v-12a5.86,5.86,0,0,0-.18-1.89,1.31,1.31,0,0,0-.65-.62,4.21,4.21,0,0,0-1.73-.24v-.5h8.59a18.75,18.75,0,0,1,4.91.46A5,5,0,0,1,463,71.33a4.64,4.64,0,0,1,1,2.93,4.37,4.37,0,0,1-1.47,3.38,6,6,0,0,1-2.63,1.27l4.44,6.26a9.55,9.55,0,0,0,1.24,1.51,2.29,2.29,0,0,0,1.3.47v.5h-5.83l-6-8.43Zm0-9.07v8.11h.78a8.67,8.67,0,0,0,2.83-.35A2.8,2.8,0,0,0,459,76.65a4.56,4.56,0,0,0,.54-2.36,3.59,3.59,0,0,0-4.17-4.14Z"/><path class="cls-2" d="M483.28,69.16v5h-.49a7.85,7.85,0,0,0-1-2.49,3.71,3.71,0,0,0-1.46-1.2,4.51,4.51,0,0,0-1.81-.25h-1.38V84.49a5.58,5.58,0,0,0,.16,1.77,1.39,1.39,0,0,0,.61.62,2.47,2.47,0,0,0,1.25.27h.61v.5h-9.68v-.5h.61a2.58,2.58,0,0,0,1.3-.29,1.3,1.3,0,0,0,.56-.65,5.63,5.63,0,0,0,.15-1.72V70.22H471.4a3.92,3.92,0,0,0-2.71.79,5.26,5.26,0,0,0-1.5,3.15h-.52v-5Z"/><circle class="cls-2" cx="412.53" cy="180.9" r="6.19"/><path class="cls-2" d="M417,146.81a6.9,6.9,0,0,0,.41-2.35c0-3.42-2.48-6.19-5.54-6.19s-5.55,2.77-5.55,6.19a6.76,6.76,0,0,0,.65,2.91l5.55,24.81Z"/><path class="cls-2" d="M397.86,149.8a6.74,6.74,0,0,0-.92-2.19c-1.85-2.88-5.43-3.87-8-2.22s-3.16,5.33-1.31,8.21a6.7,6.7,0,0,0,2.12,2.09l18.07,17.87Z"/><path class="cls-2" d="M383.38,162.67a6.84,6.84,0,0,0-2-1.35c-3.12-1.42-6.67-.32-7.94,2.46s.22,6.2,3.33,7.62a6.83,6.83,0,0,0,2.92.62l24.86,5.26Z"/><path class="cls-2" d="M378.15,181.32a6.76,6.76,0,0,0-2.38-.07c-3.39.48-5.78,3.33-5.35,6.36s3.54,5.1,6.92,4.61a6.77,6.77,0,0,0,2.79-1.06l23.76-9Z"/><path class="cls-2" d="M383.83,199.84a6.86,6.86,0,0,0-2,1.23c-2.59,2.24-3.06,5.93-1.05,8.24s5.72,2.37,8.31.13a6.74,6.74,0,0,0,1.77-2.39l15.12-20.44Z"/><path class="cls-2" d="M398.63,212.35a6.75,6.75,0,0,0-1.06,2.13c-1,3.29.64,6.65,3.57,7.51s6.1-1.1,7.07-4.38a6.76,6.76,0,0,0,.19-3l1.67-25.36Z"/><path class="cls-2" d="M417.84,214.87a6.94,6.94,0,0,0,.26,2.37c1,3.28,4.13,5.24,7.06,4.38s4.54-4.22,3.58-7.5a6.66,6.66,0,0,0-1.45-2.61L415,189.27Z"/><path class="cls-2" d="M435.36,206.61a6.86,6.86,0,0,0,1.5,1.85c2.59,2.24,6.31,2.18,8.31-.13s1.54-6-1.05-8.25a6.65,6.65,0,0,0-2.62-1.41l-22.38-12.06Z"/><path class="cls-2" d="M445.64,190.18a6.69,6.69,0,0,0,2.26.75c3.38.48,6.48-1.58,6.92-4.61s-2-5.88-5.34-6.37a7,7,0,0,0-3,.23l-25.34,2Z"/><path class="cls-2" d="M445.4,170.81a6.64,6.64,0,0,0,2.3-.6c3.12-1.42,4.61-4.83,3.34-7.61s-4.83-3.89-7.94-2.47a6.76,6.76,0,0,0-2.38,1.8l-20.26,15.35Z"/><path class="cls-2" d="M434.73,154.64a6.78,6.78,0,0,0,1.61-1.75c1.85-2.88,1.26-6.55-1.31-8.2s-6.16-.67-8,2.21a6.78,6.78,0,0,0-1,2.8l-8.75,23.86Z"/><text class="cls-3" transform="translate(336.44 289.57)">REPUBLIC O<tspan class="cls-4" x="74.34" y="0">F</tspan><tspan x="81.23" y="0" xml:space="preserve"> SHERLOCK</tspan></text></svg>