<svg id="Layer_1" data-name="Layer 1" xmlns="http://www.w3.org/2000/svg" viewBox="0 0 385.85 357.1"><defs><style>.cls-1{fill:#673918;}</style></defs><title>Robbery</title><path d="M354.25,38.18c.48,9.9.94,19.07,1.36,28.24,1.09,23.51,2.22,47,3.18,70.54.38,9.25.35,18.52.52,27.78.09,4.89-1,7.34-5.57,8.68-9.55,2.77-18.31,7.87-27.8,10.32-33.05,8.51-64.41,21.66-96.11,33.89a5.38,5.38,0,0,1-3.5,0c-8-2.88-14.07.23-19.42,5.8-1.11,1.15-2.35,2.61-2.58,4.08-.42,2.7-2.24,3.74-4.2,4.89q-31.86,18.83-63.69,37.69C116,282.29,96.27,295.55,76.92,309.39A65.8,65.8,0,0,1,58.3,318.7c-1.54.49-2.46.2-2.83-1.21-.85-3.14-1.54-6.33-2.27-9.51-.88-3.9-1.37-7.94-2.66-11.7A348.05,348.05,0,0,1,36,236.14c-2.58-16.67-3.94-33.53-6.07-50.27a125.14,125.14,0,0,0-3.09-14.4,8,8,0,0,1,2.37-8.5c4.73-4.42,9.65-8.65,14.26-13.19,11.2-11.07,22-22.56,33.44-33.36a222.72,222.72,0,0,1,76.84-47.48c17.86-6.57,36.19-10.76,54.7-14.81,21.1-4.61,42.49-6,63.85-8.16,18.75-1.86,37.46-4.26,56.21-6.16C337,39,345.52,38.71,354.25,38.18ZM192.9,180.24c-1.71.86-3.48,1.85-5.34,2.65-25.4,11.06-49.94,23.89-74.69,36.32-18.65,9.36-37.6,18.17-56.45,27.14-4.41,2.1-9,3.87-13.9,6L59.14,316c3.9-2.22,8.27-4.45,12.36-7.1,12-7.76,23.72-15.83,35.73-23.5,17.33-11.08,34.78-21.95,52.22-32.85,11.19-7,22.4-13.94,34.6-19.1a30.29,30.29,0,0,0,3.64-2,6.18,6.18,0,0,0,3.2-7.26c-1.12-5.12-2.21-10.25-3.13-15.4C196.08,199.29,194.54,189.85,192.9,180.24Zm-9.26-73.48a14.68,14.68,0,0,0-2.34.53c-12.77,5.08-25.93,9.38-38.2,15.48-23.9,11.87-48.36,22.12-74,29.69a251.51,251.51,0,0,0-38.08,14.43c-1.28.61-2.08,1.1-1.79,2.88,1.71,10.59,3.25,21.2,4.82,31.8.51,3.44.91,6.89,1.38,10.49,1.29-.44,2.24-.7,3.14-1.08,16.54-6.9,33.19-13.56,49.59-20.79,25.17-11.11,50.12-22.7,75.25-33.9,8.26-3.67,16.79-6.74,25.3-10.13C187.21,133.07,188.08,119.66,183.64,106.76Zm45.54,108.15,9-3.49c18.71-7.21,37.32-14.73,56.18-21.52,14.46-5.2,29.29-9.38,43.89-14.22,6.26-2.08,12.35-4.71,17.95-6.87-.52-6.43-1.3-12.35-1.43-18.29-.3-14.51.13-29-.53-43.53-.95-21.21-2.42-42.4-1.91-63.65a11.93,11.93,0,0,0-.18-1.68c-2,.77-3.81,1.45-5.61,2.18-9,3.66-17.88,7.85-27.1,10.91C294.83,62.93,270,70.53,245.34,78.54c-10.8,3.5-21.07,8.18-30.2,15.09A3.94,3.94,0,0,0,213.48,98c1.22,8.34,2.19,16.72,3.2,25.1,1.29,10.81,2.36,21.64,3.82,32.43,1.7,12.57,3.74,25.1,5.59,37.66C227.14,200.27,228.12,207.4,229.18,214.91Zm-36-37.28c-1.37-9.48-2.74-18.84-4.14-28.52-5.71,2.33-11,4.41-16.27,6.65-8.51,3.64-17,7.28-25.46,11.1-16.49,7.47-32.88,15.16-49.38,22.61-19.64,8.86-39.53,17.11-60,23.77-1.43.47-2,1.06-1.73,2.62,1.19,6.77,2.23,13.58,3.44,20.35.78,4.32,1.77,8.61,2.72,13.18,1.21-.49,2-.79,2.85-1.15,27.05-12,53.69-24.75,79.8-38.69,15.38-8.22,31.15-15.72,46.89-23.23C178.67,183.05,185.9,180.55,193.14,177.63ZM344.92,42.38l-.13-1.16c-6.16.51-12.4.56-18.48,1.59-18.22,3.1-36.66,3.88-55,5.63-10.44,1-21,1.12-31.34,2.77-18.91,3-37.78,6.4-56.47,10.53C174,63.85,164.92,68,155.6,71.06,137.63,77,120.89,85.22,106,97,95.72,105,85,112.54,75.41,121.26c-11.16,10.12-21.37,21.28-32,32-2.89,2.92-5.74,5.89-8.6,8.84a26.91,26.91,0,0,0,6.83-4.31q19.8-17.34,39.49-34.8c10.95-9.77,21.89-19.51,34.26-27.55,16.84-10.94,34.23-20.71,53.67-26.22,9.45-2.68,19-5,28.55-7.27,6.27-1.5,12.6-2.79,18.94-3.93,8.54-1.54,17.11-2.87,25.67-4.24,5.66-.9,11.3-2.09,17-2.46,9.89-.66,19.84-.46,29.72-1.21a223.1,223.1,0,0,0,26-3.35c8.21-1.6,16.24-3.9,24.74-3.34C341.44,43.54,343.19,42.75,344.92,42.38Z"/><path class="cls-1" d="M192.9,180.24c1.64,9.61,3.18,19,4.86,28.47.92,5.15,2,10.28,3.13,15.4a6.18,6.18,0,0,1-3.2,7.26,30.29,30.29,0,0,1-3.64,2c-12.2,5.16-23.41,12.11-34.6,19.1-17.44,10.9-34.89,21.77-52.22,32.85-12,7.67-23.77,15.74-35.73,23.5-4.09,2.65-8.46,4.88-12.36,7.1L42.52,252.32c4.92-2.1,9.49-3.87,13.9-6,18.85-9,37.8-17.78,56.45-27.14,24.75-12.43,49.29-25.26,74.69-36.32C189.42,182.09,191.19,181.1,192.9,180.24Z"/><path class="cls-1" d="M183.64,106.76c4.44,12.9,3.57,26.31,5.11,39.4-8.51,3.39-17,6.46-25.3,10.13-25.13,11.2-50.08,22.79-75.25,33.9C71.8,197.42,55.15,204.08,38.61,211c-.9.38-1.85.64-3.14,1.08-.47-3.6-.87-7.05-1.38-10.49-1.57-10.6-3.11-21.21-4.82-31.8-.29-1.78.51-2.27,1.79-2.88a251.51,251.51,0,0,1,38.08-14.43c25.6-7.57,50.06-17.82,74-29.69,12.27-6.1,25.43-10.4,38.2-15.48A14.68,14.68,0,0,1,183.64,106.76Z"/><path class="cls-1" d="M229.18,214.91c-1.06-7.51-2-14.64-3.09-21.75-1.85-12.56-3.89-25.09-5.59-37.66-1.46-10.79-2.53-21.62-3.82-32.43-1-8.38-2-16.76-3.2-25.1a3.94,3.94,0,0,1,1.66-4.34c9.13-6.91,19.4-11.59,30.2-15.09,24.68-8,49.49-15.61,74.11-23.79,9.22-3.06,18.07-7.25,27.1-10.91,1.8-.73,3.62-1.41,5.61-2.18a11.93,11.93,0,0,1,.18,1.68c-.51,21.25,1,42.44,1.91,63.65.66,14.49.23,29,.53,43.53.13,5.94.91,11.86,1.43,18.29-5.6,2.16-11.69,4.79-17.95,6.87-14.6,4.84-29.43,9-43.89,14.22-18.86,6.79-37.47,14.31-56.18,21.52Zm-6.51-100.69c1.24,7.81,2.63,15.6,3.68,23.44,1.74,13,3.11,26,4.92,39,1.09,7.78,2.72,15.48,4.07,23.22.33,1.89,1.2,2.52,3,1.73,2.11-.89,4.27-1.67,6.38-2.55,6.4-2.69,12.66-5.76,19.21-8,9.42-3.27,19-6.09,28.57-8.89q16.6-4.87,33.3-9.34c5-1.35,10.3-1.91,15.28-3.43,3.48-1.06,6-3.62,6.09-7.76,0-1.47.48-3,.39-4.4-.46-7.76-.71-15.56-1.61-23.28-2.51-21.81-1.32-43.73-2.34-65.58a12.18,12.18,0,0,0-1-3.1,26,26,0,0,0-3,1.12c-2.74,1.4-5.33,3.15-8.17,4.29-4.61,1.85-9.59,2.87-14,5A252.25,252.25,0,0,1,277.14,91.2q-24,6.9-47.84,14C222.81,107.16,222.86,107.32,222.67,114.22Z"/><path class="cls-1" d="M193.14,177.63c-7.24,2.92-14.47,5.42-21.32,8.69-15.74,7.51-31.51,15-46.89,23.23-26.11,13.94-52.75,26.71-79.8,38.69-.81.36-1.64.66-2.85,1.15-1-4.57-1.94-8.86-2.72-13.18-1.21-6.77-2.25-13.58-3.44-20.35-.27-1.56.3-2.15,1.73-2.62,20.51-6.66,40.4-14.91,60-23.77,16.5-7.45,32.89-15.14,49.38-22.61,8.43-3.82,16.95-7.46,25.46-11.1,5.25-2.24,10.56-4.32,16.27-6.65C190.4,158.79,191.77,168.15,193.14,177.63Z"/><path class="cls-1" d="M344.92,42.38c-1.73.37-3.48,1.16-5.18,1-8.5-.56-16.53,1.74-24.74,3.34a223.1,223.1,0,0,1-26,3.35c-9.88.75-19.83.55-29.72,1.21-5.7.37-11.34,1.56-17,2.46-8.56,1.37-17.13,2.7-25.67,4.24-6.34,1.14-12.67,2.43-18.94,3.93-9.55,2.28-19.1,4.59-28.55,7.27-19.44,5.51-36.83,15.28-53.67,26.22C103,103.49,92.1,113.23,81.15,123q-19.64,17.52-39.49,34.8a26.91,26.91,0,0,1-6.83,4.31c2.86-3,5.71-5.92,8.6-8.84,10.61-10.73,20.82-21.89,32-32C85,112.54,95.72,105,106,97c14.93-11.73,31.67-20,49.64-25.89,9.32-3.06,18.38-7.21,27.9-9.32,18.69-4.13,37.56-7.52,56.47-10.53,10.33-1.65,20.9-1.78,31.34-2.77,18.34-1.75,36.78-2.53,55-5.63,6.08-1,12.32-1.08,18.48-1.59Z"/><path d="M222.67,114.22c.19-6.9.14-7.06,6.63-9q23.88-7.16,47.84-14a252.25,252.25,0,0,0,40.29-15.53c4.44-2.16,9.42-3.18,14-5,2.84-1.14,5.43-2.89,8.17-4.29a26,26,0,0,1,3-1.12,12.18,12.18,0,0,1,1,3.1c1,21.85-.17,43.77,2.34,65.58.9,7.72,1.15,15.52,1.61,23.28.09,1.45-.35,2.93-.39,4.4-.09,4.14-2.61,6.7-6.09,7.76-5,1.52-10.24,2.08-15.28,3.43q-16.69,4.47-33.3,9.34c-9.57,2.8-19.15,5.62-28.57,8.89-6.55,2.28-12.81,5.35-19.21,8-2.11.88-4.27,1.66-6.38,2.55-1.84.79-2.71.16-3-1.73-1.35-7.74-3-15.44-4.07-23.22-1.81-13-3.18-26-4.92-39C225.3,129.82,223.91,122,222.67,114.22ZM341.3,69.65c-4.22,1.74-8.09,3.38-12,4.93-3.05,1.2-6.26,2-9.19,3.46-15.26,7.38-31.28,12.59-47.53,17.24-15.2,4.36-30.29,9.06-45.44,13.56-1.41.42-2,1-1.71,2.6.94,6,1.76,12,2.61,18,2.26,16.07,4.56,32.13,6.76,48.21,1,7.2,1.79,14.42,2.71,21.88l1.66-.8c5.11-2.4,10.08-5.19,15.36-7.12,13.54-4.94,27.26-9.38,40.83-14.24a185.07,185.07,0,0,1,32.76-8.55c5.05-.82,9.9-2.77,14.85-4.2,1.48-.43,1.86-1.28,1.77-2.9-1.2-21-2.46-41.91-3.35-62.88C341,89,341.3,79.19,341.3,69.65Z"/></svg>