<svg xmlns="http://www.w3.org/2000/svg" viewBox="0 0 486.36 366.77"><defs><style>.cls-1{fill:#0082ca;}.cls-2{fill:#857550;}.cls-3{fill:#a09857;}</style></defs><title>Robbery</title><g id="Layer_3" data-name="Layer 3"><path class="cls-1" d="M426.11,162.17c-2.26,1.05-4.35,2.12-6.51,3A114.68,114.68,0,0,1,400.54,171c-5.9,1.31-11.82,2.55-17.76,3.65-4.9.91-9.85,1.64-14.8,2.32q-9.53,1.31-19.07,2.37c-5.11.58-10.23,1.13-15.35,1.47-15.43,1-30.85,2.2-46.3,2.85-14.68.61-29.39.8-44.09.88q-27.6.15-55.18-1.31c-10.88-.58-21.76-1.26-32.62-2.15-9.49-.78-19-1.73-28.41-3-9.68-1.26-19.33-2.87-29-4.49a174.15,174.15,0,0,1-24.76-6,68.31,68.31,0,0,1-12.4-5.16c-.22-.12-.45-.2-.83-.37,0,.49-.07.87-.07,1.25q0,61.6,0,123.22c0,3,2,4.7,4.15,6.19a42.47,42.47,0,0,0,10.42,4.8,177.89,177.89,0,0,0,24.31,6c10.83,2,21.71,3.64,32.67,4.7,13,1.24,25.95,2.38,38.95,3.34,18.39,1.35,36.82,2,55.25,2.09,17.71.08,35.42-.09,53.13-.41,11.07-.2,22.15-.74,33.21-1.4s22-1.51,33-2.57c9.33-.89,18.64-2.07,27.92-3.35a262.31,262.31,0,0,0,28.89-5.52c6.17-1.57,12.32-3.28,17.94-6.37a29.75,29.75,0,0,0,5-3.75,4.65,4.65,0,0,0,1.38-3.65q0-61.73,0-123.44C426.17,162.94,426.14,162.62,426.11,162.17Z"/><path class="cls-2" d="M197.75,170.5c5.09-.89,10.2-1.68,15.26-2.7,5.43-1.09,10.84-2.27,16.2-3.66s10.79-3,16.12-4.74a207.43,207.43,0,0,0,25.06-10A187.28,187.28,0,0,0,312,122.82c4.86-4.16,8.39-9.55,11.19-15.35a34.77,34.77,0,0,0,3.63-14.63c.14-8.46-2.94-15.77-8.14-22.27-5.57-7-12.65-12-20.48-16.15a85.46,85.46,0,0,0-19.68-7.62,98.81,98.81,0,0,0-32.56-2.4,53.93,53.93,0,0,0-16.61,4c-4.74,2.06-8.89,4.91-11.62,9.42-3.87,6.39-4,13-.86,19.72,2.33,5,5.9,9.17,9.65,13.16,4.09,4.35,8.29,8.59,12.28,13A26.32,26.32,0,0,1,245,114.29a16.25,16.25,0,0,1-.37,9.09c-1.71,5.9-5.06,10.85-9,15.46C229,146.56,221.33,153,213.24,159c-5,3.68-10.1,7.14-15.16,10.69a3.89,3.89,0,0,1-.69.3Z"/><path class="cls-3" d="M311,128.45l4.37.33c11,.84,22,1.58,33,2.56,7.9.71,15.77,1.64,23.63,2.68a258.1,258.1,0,0,1,30.09,5.55c5.37,1.37,10.72,2.83,15.59,5.57a16,16,0,0,1,3.83,3c1.72,1.82,1.58,3.66-.12,5.49a18.71,18.71,0,0,1-6.65,4.19,88.9,88.9,0,0,1-17.55,5.2c-6.67,1.33-13.36,2.57-20.07,3.68-4.61.76-9.25,1.31-13.89,1.83-7.59.85-15.19,1.7-22.8,2.37-7.79.68-15.59,1.26-23.4,1.68-11.54.61-23.08,1.21-34.63,1.5q-22.43.57-44.86.62c-18.51,0-37-.46-55.5-1.4-10.17-.52-20.33-1.11-30.47-1.9q-13.38-1-26.71-2.58c-7.94-.93-15.86-2.07-23.76-3.36a166.35,166.35,0,0,1-24-5.47,38.6,38.6,0,0,1-10.65-4.76,11.52,11.52,0,0,1-2-1.8c-1.52-1.69-1.69-3.56-.09-5.14a21.33,21.33,0,0,1,4.94-3.61A60.53,60.53,0,0,1,82.52,140a212,212,0,0,1,25.33-5q14.84-2.06,29.75-3.58c21.52-2.21,43.11-3.37,64.73-3.95,11.91-.32,23.83-.45,35.74-.62,1,0,1.57-.26,1.89-1.19.43-1.24.9-2.48,1.46-4-.91,0-1.54,0-2.17,0-16.62.42-33.25.65-49.85,1.33-12.34.49-24.66,1.42-37,2.43-10,.82-19.9,1.91-29.81,3.17-7.72,1-15.41,2.24-23,3.66-6.65,1.23-13.26,2.71-19.81,4.38-6.84,1.74-13.59,3.86-19.68,7.58a20.42,20.42,0,0,0-4.57,3.76c-2.36,2.65-2.1,5.69.33,8.28A25.44,25.44,0,0,0,64,161.64a115.19,115.19,0,0,0,21.23,6.89c10.66,2.59,21.47,4.42,32.33,6q19.68,2.82,39.51,4.29,16.36,1.2,32.75,2.09c23.95,1.27,47.93,1.58,71.9,1.08,17.05-.35,34.1-1.1,51.13-2,11.49-.63,23-1.77,34.42-2.87,7.42-.72,14.83-1.66,22.21-2.71,6.45-.92,12.88-2,19.26-3.26s12.67-2.71,18.92-4.37c6.69-1.77,13.29-3.89,19.14-7.73a18.76,18.76,0,0,0,4.26-3.94,5.14,5.14,0,0,0,0-6.55c-1.82-2.6-4.47-4.19-7.22-5.59-6.15-3.15-12.74-5.1-19.39-6.86a288.29,288.29,0,0,0-31.73-6.24q-12.57-1.83-25.22-3.11c-10.12-1-20.27-1.77-30.4-2.66a2.14,2.14,0,0,0-1.81.71C314,126,312.65,127.08,311,128.45Z"/><path class="cls-2" d="M56.29,285.93c-4.21,1.27-6.15,6.62-3.7,10,1.86,2.57,4.54,4.1,7.29,5.52a79.93,79.93,0,0,0,14.29,5.39,214,214,0,0,0,26.68,5.94c9.44,1.5,18.89,3,28.38,4q20.25,2.19,40.56,3.68c18.57,1.36,37.18,2,55.8,2.2,22,.27,44,.17,65.94-.88,13.53-.64,27.05-1.42,40.55-2.52,11.72-1,23.42-2.31,35.09-3.75,7.65-.95,15.26-2.23,22.85-3.58a189.34,189.34,0,0,0,25.91-6.33c4.89-1.6,9.75-3.35,14-6.36a18.51,18.51,0,0,0,4-4,4.49,4.49,0,0,0,0-5.5,33.84,33.84,0,0,0-3.39-3.6c-.13-.13-.39-.13-.63-.2a1.81,1.81,0,0,0-.11.47c.2,3.95-1.94,6.6-4.87,8.81-3.61,2.72-7.77,4.28-12,5.74a153.29,153.29,0,0,1-26.52,6.52c-9.8,1.52-19.62,3-29.45,4.22-16.85,2.16-33.78,3.54-50.76,4.27-13.35.58-26.7,1.11-40.06,1.32q-22.17.36-44.33.09c-16.3-.17-32.59-.64-48.85-1.8-9.93-.71-19.88-1.35-29.78-2.34s-19.78-2.3-29.65-3.61c-5.63-.75-11.24-1.67-16.83-2.68a140.36,140.36,0,0,1-29-8.1,24.76,24.76,0,0,1-8.54-5.46,8.82,8.82,0,0,1-2.77-6.83A4.21,4.21,0,0,0,56.29,285.93Z"/><path class="cls-3" d="M233.63,135.11c-.63,0-1.27,0-1.9,0-16.59.32-33.17.5-49.75,1-11.29.35-22.58,1-33.85,1.84-9.45.71-18.88,1.78-28.3,2.94a95.69,95.69,0,0,0-19.49,4.2A29.41,29.41,0,0,0,94.28,148c-2.73,1.72-2.59,3.87.1,5.7a26.81,26.81,0,0,0,7.75,3.3,131.84,131.84,0,0,0,19.57,3.89c15.23,2.08,30.55,3.11,45.88,3.85,9.44.46,18.89.77,28.34,1.18a3.77,3.77,0,0,0,2.52-.72c1.5-1.1,3-2.14,4.56-3.2l-.1-.28-1.13-.07c-11.91-.44-23.82-.69-35.72-1.37s-23.54-1.7-35.3-2.74c-6.38-.56-12.74-1.4-19.08-2.29-4.33-.6-8.69-1.21-12.77-2.91a8.23,8.23,0,0,1-1.9-1.58c.6-.52,1.12-1.32,1.81-1.52a69.36,69.36,0,0,1,9.33-2.38c8.63-1.26,17.28-2.44,26-3.32,8.46-.85,17-1.48,25.45-1.88,16.68-.78,33.36-1.39,50-2,6.51-.22,13-.17,19.55-.27a2.06,2.06,0,0,0,1.31-.33c1.16-1.13,2.23-2.34,3.33-3.52Z"/><path class="cls-3" d="M211.09,155.78c-2.13-.13-4.26-.23-6.39-.37-6.9-.48-13.82-.81-20.69-1.5-6-.61-12-1.61-18.07-2.48a9.48,9.48,0,0,1-2-.71l.05-.43a8.85,8.85,0,0,1,1.69-.57c5.16-.71,10.31-1.5,15.49-2.06,12.29-1.32,24.63-1.73,37-1.94,1.7,0,3.41-.08,5.11-.14a1.38,1.38,0,0,0,.83-.15c1.09-1,2.14-2,3.4-3.22a8.32,8.32,0,0,0-1.1-.12c-10.38.37-20.77.65-31.15,1.15-5.68.28-11.34.81-17,1.42S167.25,146,162,148a9.41,9.41,0,0,0-2.24,1.28,1.47,1.47,0,0,0,.06,2.61,16.15,16.15,0,0,0,4.4,2A104,104,0,0,0,177,156.38c9.61.94,19.27,1.51,28.9,2.27a3.78,3.78,0,0,0,3.07-1c.68-.61,1.46-1.12,2.2-1.67Z"/></g></svg>