<svg id="Layer_1" data-name="Layer 1" xmlns="http://www.w3.org/2000/svg" viewBox="0 0 317.72 194.26"><defs><style>.cls-1{fill:#d37f07;}.cls-2{fill:#ff9100;}.cls-3{fill:#aaa7a7;}.cls-4{fill:#ffce00;}.cls-5{fill:#ffe000;}.cls-6{fill:#ff9700;stroke:#020202;stroke-miterlimit:10;stroke-width:0.62px;}.cls-7{fill:#1e1e1d;opacity:0.36;}</style></defs><title>unfinHomework</title><polygon class="cls-1" points="61.13 156.71 54.68 160.65 53.38 155.76 46.43 158.19 48.36 152.97 39.79 152.79 41.68 147.47 34.27 148.68 37.04 142.73 32.71 139.39 35.83 134.65 29.87 135.34 29.82 129.79 23.02 126.12 26.45 121.26 19.99 118.89 24.18 113.17 17.57 110.78 22.5 103.78 15.85 100.82 21.04 96.23 15.24 94.23 20.02 88.79 14.59 84.91 22.19 76.24 16.18 75.07 22.8 69.72 17.56 65.6 25.09 63.19 20.23 58.5 26.86 56.72 20.74 51.08 29.36 49.19 27.93 42.46 31.75 43.11 30.48 38.41 33.84 38.34 61.13 156.71"/><path class="cls-2" d="M226.91,36.74c3.33,44.92,58,51,69.13,84.38C245,132.77,108.48,147.06,63.47,156.28l-.91-4c.9-36.73-9.06-74.2-25-112.35-.77-1.87-1-3.88-1.78-5.75C83.4,33.29,178.21,57.28,226.91,36.74Z"/><path class="cls-3" d="M63.47,156.28c-8.45,2.34-24.37-12.2-24.88-21a6.56,6.56,0,0,0-2.21-4.41C22,117.66,15.66,74.76,35.83,34.19,39.83,30.83,66.33,87,63.47,156.28Z"/><path class="cls-4" d="M296,121.12l7.09-4.31-9.95-2.18,1-4.53L287.81,107l1-4.74-7.27-1.59.93-4.26-8.35-1.83,1-4.53-7.09,0L267,84.41l-6.9-.08,1.14-5.18-7,.83,1.08-4.92-6.14.86.75-3.44-3.92.67V69.46l-2.81,1,.77-3.55-3.58.6.81-3.72-3.28.78,1.2-3-3.48,0,1.77-2-2.8-.61.59-2.24L232.27,56l1.21-2.66-2.35.31,2.25-2.71-3.68-.81,1.48-3-2.74-1L230,43.35l-2.42-1.21,1.64-2.41-2.07-.45,2.39-2-2.64-.58S215.89,60,296,121.12Z"/><path class="cls-5" d="M139.55,144.69s-15.22-65.88,3.87-100.81C128.83,42.63,59.7,33.32,35,33.82,51.08,52.73,71.49,155.93,66.62,156,82.65,152.86,122.27,147.34,139.55,144.69Z"/><path class="cls-6" d="M94.37,117.91c.81,2.24,1.21,3.36,2,5.59L93.5,125A5,5,0,0,0,92,126a1,1,0,0,0,0,1c.16.47.39.7.69.7a5.38,5.38,0,0,0,1.74-.69l7.84-4.15a5.48,5.48,0,0,0,1.53-1,.93.93,0,0,0,0-1c-.16-.39-.4-.59-.7-.58a5.92,5.92,0,0,0-1.82.72l-2.11,1.1c-.84-2.2-1.27-3.3-2.1-5.5l.63-.31a11.26,11.26,0,0,1,3.78-1.33,4.15,4.15,0,0,1,2.7,1,8.25,8.25,0,0,1,2.44,3.31,9.64,9.64,0,0,1,1,4.17,4.62,4.62,0,0,1-1.1,3.06,14.07,14.07,0,0,1-3.6,2.59L97.8,131.9a21.92,21.92,0,0,1-2.87,1.38,3.37,3.37,0,0,1-2.13,0,4.37,4.37,0,0,1-2.1-1.55,9.73,9.73,0,0,1-1.57-3.11,11.79,11.79,0,0,1-.61-4.66,5.43,5.43,0,0,1,1.11-3.1,10.21,10.21,0,0,1,3.19-2.19Z"/><path class="cls-6" d="M84.94,113.86l3.54-1.65A4.72,4.72,0,0,1,87.29,111a6.69,6.69,0,0,1-1.08-4.38,2.78,2.78,0,0,1,.77-1.75,10.53,10.53,0,0,1,2.35-1.27l8.58-3.7c.83,2,1.26,3,2.11,5.07l-9,4.11a4.93,4.93,0,0,0-1.38.81.81.81,0,0,0-.08.85c.11.33.29.5.55.52a3.73,3.73,0,0,0,1.38-.43l9.2-4.28c.85,2,1.28,3,2.15,5.06l-16.16,7.88C86,117.24,85.63,116.11,84.94,113.86Z"/><path class="cls-6" d="M87,88.62c1,2.76,1.45,4.14,2.42,6.89l2.6-1a2.21,2.21,0,0,0,1-.59.8.8,0,0,0,0-.73,1,1,0,0,0-.62-.67,2.67,2.67,0,0,0-1.27.27l-1.56.6c-.72-2-1.08-3-1.79-5l.85-.3a5.63,5.63,0,0,1,1.72-.4,3.52,3.52,0,0,1,1.58.49,5.18,5.18,0,0,1,1.71,1.46A10.84,10.84,0,0,1,95,92.24a12.09,12.09,0,0,1,.82,3,5.13,5.13,0,0,1-.16,2.31,3.56,3.56,0,0,1-.93,1.52,7,7,0,0,1-2,1.15l-3.6,1.53a4.77,4.77,0,0,1-2.76.44,3.68,3.68,0,0,1-2.09-1.52,10.35,10.35,0,0,1-1.53-3.18,12,12,0,0,1-.6-4.08A4.76,4.76,0,0,1,83,90.71a5.35,5.35,0,0,1,2.41-1.54Zm-.06,6.09-.87.34a3.39,3.39,0,0,0-1.14.61.71.71,0,0,0-.07.72c.12.38.27.58.45.61a3.47,3.47,0,0,0,1.29-.36l.87-.34Z"/><path class="cls-6" d="M82.27,74.77c.92,2.78,1.39,4.16,2.33,6.93L87,80.93a1.76,1.76,0,0,0,.9-.48.77.77,0,0,0,0-.71c-.15-.39-.34-.63-.58-.7a2.13,2.13,0,0,0-1.17.14l-1.44.45c-.7-2-1-3-1.72-5l.78-.22a4.87,4.87,0,0,1,1.58-.22,3.47,3.47,0,0,1,1.47.62,5.82,5.82,0,0,1,1.61,1.57A14.49,14.49,0,0,1,90.58,82a5.13,5.13,0,0,1-.11,2.23,3.07,3.07,0,0,1-.85,1.39,5.71,5.71,0,0,1-1.84,1l-3.33,1.17a3.37,3.37,0,0,1-4.51-1.47A11.63,11.63,0,0,1,78.5,83a12.33,12.33,0,0,1-.59-4,4.34,4.34,0,0,1,.75-2.53,4.07,4.07,0,0,1,2.21-1.27Zm0,5.92-.8.25a2.64,2.64,0,0,0-1,.5.72.72,0,0,0-.06.69c.12.38.26.59.43.64A3,3,0,0,0,82,82.54l.81-.26Z"/><path class="cls-6" d="M73.28,68.88l1.59-.36c-.17-.61-.25-.91-.42-1.51L76,66.66c.18.59.26.89.44,1.49l5.39-1.25c.67-.15,1-.3,1-.43a5.15,5.15,0,0,0-.4-1.48l1.61-.36c.3.84.46,1.25.77,2.08.43,1.18.72,2,.85,2.54a3.71,3.71,0,0,1,.08,1.43,1.35,1.35,0,0,1-.48.91,7.8,7.8,0,0,1-1.93.67L78.1,73.68l.35,1.19-1.67.45c-.13-.48-.2-.72-.34-1.2l-1.64.44C74.18,72.29,73.88,71.15,73.28,68.88Z"/><path class="cls-6" d="M73.68,52.73l2.22-.27a5.37,5.37,0,0,1,1.87,0,3.54,3.54,0,0,1,1.41.86,7.9,7.9,0,0,1,1.43,1.85,17.26,17.26,0,0,1,1.22,2.68,18,18,0,0,1,.84,2.94,4.71,4.71,0,0,1,0,2A2.16,2.16,0,0,1,82,64a4.62,4.62,0,0,1-1.79.7l-2.54.54a3.87,3.87,0,0,1-2.32-.09,4.15,4.15,0,0,1-1.79-1.73,13.18,13.18,0,0,1-1.45-3.61,16.81,16.81,0,0,1-.57-3.3,6.24,6.24,0,0,1,.18-2.18,2.32,2.32,0,0,1,.65-1.12A2.76,2.76,0,0,1,73.68,52.73Zm.89,5.58a1.64,1.64,0,0,0-.87.3c-.1.12-.1.35,0,.68a1,1,0,0,0,.38.63,1.86,1.86,0,0,0,1,0l4.31-.76a1.43,1.43,0,0,0,.82-.31c.1-.13.1-.34,0-.64a1,1,0,0,0-.4-.59,1.51,1.51,0,0,0-.85,0Z"/><path class="cls-6" d="M69.73,39.73l1.35,4.88-.46,0c-.4,0-.63.09-.71.19s-.07.34,0,.73a1.7,1.7,0,0,0,.34.69.61.61,0,0,0,.5.21,1,1,0,0,0,.55-.16,1.23,1.23,0,0,0,.21-.72,18.49,18.49,0,0,0,0-2.39A10.35,10.35,0,0,1,71.61,40a1.09,1.09,0,0,1,1.14-.74,2.59,2.59,0,0,1,1.68.55,6,6,0,0,1,1.39,1.8,19.25,19.25,0,0,1,1.34,3.05A17.67,17.67,0,0,1,78,48.11a3.32,3.32,0,0,1-.2,2,1.91,1.91,0,0,1-1.49.71l-.43,0c-.61-1.9-.9-2.84-1.49-4.74l.54,0a1.36,1.36,0,0,0,.85-.23q.15-.2,0-.72a2,2,0,0,0-.39-.77.81.81,0,0,0-.65-.19c-.41,0-.63.13-.67.32s0,1.26,0,3.19a6.58,6.58,0,0,1-.34,3,1.53,1.53,0,0,1-1.15.67A2.29,2.29,0,0,1,70.87,51a5.17,5.17,0,0,1-1.29-1.9,18.82,18.82,0,0,1-1.1-3.24,20.84,20.84,0,0,1-.56-3.14,6.48,6.48,0,0,1,0-2c.11-.47.25-.74.42-.84a1.83,1.83,0,0,1,.87-.15Z"/><path class="cls-2" d="M54.89,114.37s-6,2.32-4.45,7.25,8.48,1.93,8.5-1.91,5.67-2.3,4.87-4.57S59.35,107.12,54.89,114.37Z"/><path class="cls-2" d="M59.14,143.52s-6.39.67-6.2,5.83,7.68,4.08,8.71.38,6.07-.73,5.9-3.14S65.34,137.69,59.14,143.52Z"/><path class="cls-7" d="M35,33.82C24.49,60,22.19,76.24,23.36,95.85c3.06,18.72,37.77,4.59,37.77,4.59S36.46,29.29,35,33.82Z"/><path class="cls-4" d="M35,33.82,32.43,36l7.4,7L38,49.82l6.32,3L40.49,58l5.32,3.39-2.35,4.37,5.83,4.63-3.76,4.18,6.34,2.52-5.12,5.34,7.45,3.13L49,89.92l6.43,2.89-3.55,7.31,7.08,2.78-6,5.56,7.25,3.75-5.5,7.39,8.53,3.12-5.64,5.33,5.33,4.37-3.67,5.9,4.4,2.22L57.9,147.1l5,2.68L58.27,155S65.7,157,66.62,156C75.93,145.78,47.69,36.58,35,33.82Z"/><path class="cls-2" d="M42.49,121.28s-6.4-.41-7.09,4.7,6.89,5.32,8.53,1.84,6.1.3,6.34-2.1S49.58,116.57,42.49,121.28Z"/><path class="cls-2" d="M49.67,134.38s-4.23,4.83-.59,8.48,8.41-2.22,6.65-5.63,4-4.66,2.2-6.31S50.26,125.89,49.67,134.38Z"/></svg>