<svg id="Layer_1" data-name="Layer 1" xmlns="http://www.w3.org/2000/svg" viewBox="0 0 316.27 155.12"><defs><style>.cls-1{fill:#d7effb;}.cls-2{fill:#b4e3f7;}.cls-3{fill:#111;}.cls-4{fill:#c9e8f2;}</style></defs><title>unfinHomework</title><path class="cls-1" d="M247.05,38.4c2,9.47,51.26,2.52,57.29,15.58s-31.66,37.7-51.26,40.21-24.94,11.1-29.15,17.09c-4.78,6.78-88.45,16.58-108.55,5s-32.67-17.09-55.79-8S6.82,95.19,11.85,86.15,68.64,69.06,78.19,62s-38.7-3.51-32.67-15.58,66.84-7.53,77.39-7.53C136.48,34.56,245.18,29.48,247.05,38.4Z"/><path class="cls-2" d="M152.61,110.36c-23.62,0-30.46-3.24-31.58-3.89-13.38-7.69-25.66-14-40.52-14-7.76,0-16,1.73-25.05,5.28-2.29.9-7.79,1.36-7.88,1.36C39,99,18.15,87.92,26.42,85.64c2.35-.64,22-7.55,23.87-8,17.13-4.61,29-2.33,34.62-6.44,7-5.17,6-11.85,5.5-13.78a12.52,12.52,0,0,0-2.21-4.69c-.92-1.19-26.18.19-32.33-3.48-.79-.47-.15-1.11.33-1.89,1-1.66,14-4.5,19.28-4.39l18.79-.08c9.12.06,18.56,1.67,22.21,1.88a4.94,4.94,0,0,0,.86,0c1.93-.2,9.4-1,11.21-1.23.27,0,9.18-1.74,9.44-1.8,7-1.65,34.47-1.76,68.35-1.76,19.15,0,33.65-1.75,35.68,4.52,2.72,8.38,20.42,6.23,33.92,7.29,1.72.14,9.23,1.8,11.56,2,6.89.64-1.68,12.23-7.36,16.19-8.78,6.13-20.09,12-28.5,13-12.67,1.63-28.16,6.16-35.55,18.22a7.23,7.23,0,0,1-4.48,3.35C200.69,107.13,176.44,110.36,152.61,110.36Z"/><path class="cls-2" d="M38.16,96.74S11.29,88.67,34,83.13"/><path class="cls-3" d="M38.16,96.74a40.68,40.68,0,0,1-6.52-2.12,26.35,26.35,0,0,1-3.11-1.53A13.79,13.79,0,0,1,25.7,91a4.94,4.94,0,0,1-1-1.55,2.76,2.76,0,0,1,0-2A4.16,4.16,0,0,1,25.87,86c.24-.17.47-.37.73-.52l.77-.43a24.64,24.64,0,0,1,6.6-2c-1.08.38-2.17.71-3.22,1.14a20.73,20.73,0,0,0-3.07,1.39,5.26,5.26,0,0,0-2.27,2.12,2,2,0,0,0,0,1.38,4.26,4.26,0,0,0,.9,1.25A20.62,20.62,0,0,0,31.9,94C33.94,95,36,95.9,38.16,96.74Z"/><path class="cls-3" d="M216.09,101.16a8.71,8.71,0,0,1,1.56-3.47,20.49,20.49,0,0,1,2.51-2.91,15.74,15.74,0,0,1,1.43-1.28c.49-.41,1-.83,1.48-1.22,1.05-.73,2.09-1.49,3.17-2.17A76.16,76.16,0,0,1,240,83.55a126.13,126.13,0,0,1,14.53-4.34c2.46-.54,4.91-1.16,7.4-1.56s5-.83,7.47-1.14c-2.39.81-4.8,1.51-7.21,2.22-1.21.33-2.41.7-3.6,1.09l-3.6,1.1c-2.4.7-4.77,1.5-7.14,2.29s-4.71,1.63-7.06,2.46a108.81,108.81,0,0,0-13.63,6c-1.1.57-2.13,1.25-3.21,1.85-.52.33-1,.69-1.54,1a15.78,15.78,0,0,0-1.49,1.09c-.47.39-1,.74-1.43,1.17s-.91.83-1.32,1.29A10.82,10.82,0,0,0,217,99.52a4.51,4.51,0,0,0-.5.78A4.41,4.41,0,0,0,216.09,101.16Z"/><polygon class="cls-4" points="90.65 62.01 172.66 40.02 198.8 40.02 84.91 71.15 90.65 62.01"/><path class="cls-4" d="M265.64,51.32,121,106.47a58.2,58.2,0,0,0,20.83,4.08c10.75-.19,145.64-56.82,145.64-56.82A204.48,204.48,0,0,0,265.64,51.32Z"/><path class="cls-4" d="M231.09,39.79,84.91,90.67a58.2,58.2,0,0,0,20.83,4.08c10.76-.18,137-48.82,137-48.82S242.24,40.33,231.09,39.79Z"/><path class="cls-3" d="M50.88,98.07A58.41,58.41,0,0,1,64,92.71,62.9,62.9,0,0,1,78,90.37a55.23,55.23,0,0,1,7.16.17,43.32,43.32,0,0,1,7.06,1.25A36.75,36.75,0,0,1,99,94.28a33.57,33.57,0,0,1,6,3.79,54.17,54.17,0,0,0-6.43-2.77,47.22,47.22,0,0,0-6.67-1.78,58.47,58.47,0,0,0-13.73-.89,87.76,87.76,0,0,0-13.74,1.79A122.69,122.69,0,0,0,50.88,98.07Z"/><path class="cls-2" d="M134.89,109.58c5.07,1.21,32.27,4.37,62.84-2.53"/><path class="cls-3" d="M134.89,109.58c5.29.33,10.53.3,15.77.29s10.46-.18,15.68-.4,10.43-.59,15.65-1,10.43-1,15.74-1.43a92.87,92.87,0,0,1-15.4,4.06,120.29,120.29,0,0,1-15.84,1.75,122.85,122.85,0,0,1-15.94-.34A68.3,68.3,0,0,1,134.89,109.58Z"/></svg>