<svg id="Layer_1" data-name="Layer 1" xmlns="http://www.w3.org/2000/svg" viewBox="0 0 228.91 278.4"><defs><style>.cls-1{fill:#f7f2cd;stroke:#000;}.cls-1,.cls-10{stroke-miterlimit:10;stroke-width:0.82px;}.cls-2{font-size:11.39px;}.cls-2,.cls-4{font-family:MyriadPro-Regular, Myriad Pro;}.cls-3{letter-spacing:0.01em;}.cls-4{font-size:9.8px;fill:#fc0808;}.cls-5{letter-spacing:0em;}.cls-6{letter-spacing:-0.05em;}.cls-7{letter-spacing:-0.01em;}.cls-8{letter-spacing:-0.01em;}.cls-9{letter-spacing:-0.08em;}.cls-10{fill:none;stroke:#020202;}</style></defs><title>unfinHomework</title><path class="cls-1" d="M197,213.34c-40,21.69-83.1,37-129.08,46.23C63.26,189.63,50.7,118.72,31.91,47c48-16.11,92-25.16,132.68-28.22C183.59,72.71,193.06,139.34,197,213.34Z"/><text class="cls-2" transform="translate(76.55 69.9) rotate(-12.02)">HOM<tspan class="cls-3" x="24.43" y="0">E</tspan><tspan x="30.14" y="0">WORK</tspan></text><text class="cls-4" transform="translate(48.62 69.89) rotate(-27.08)"><tspan class="cls-5">D</tspan><tspan x="6.55" y="0">ue</tspan><tspan class="cls-6" x="16.86" y="0"> </tspan><tspan class="cls-7" x="18.49" y="0">Y</tspan><tspan x="23.72" y="0">ESTER</tspan><tspan class="cls-8" x="48.33" y="0">D</tspan><tspan class="cls-9" x="54.72" y="0">A</tspan><tspan x="59.94" y="0">Y!</tspan></text><polyline class="cls-10" points="62.81 139.2 67.01 132.59 78.42 139.2 86.82 128.99 99.43 134.09 110.23 125.04 118.04 132.12 126.44 119.99 136.65 129.59 143.86 117.58 157.66 125.04 160.67 114.07 164.87 125.04 168.47 114.07 173.27 121.79 176.28 110.38 180.48 118.78"/><polyline class="cls-10" points="71.53 209.74 75.73 203.14 87.14 209.74 95.55 199.53 108.15 204.64 118.96 195.59 126.76 202.66 135.17 190.53 145.38 200.13 152.58 188.13 166.39 195.59 169.39 184.62 173.59 195.59 177.19 184.62 182 192.33 185 180.92 189.2 189.33"/><polyline class="cls-10" points="58.32 104.08 71.53 110.38 81.14 93.87 100.95 104.68 106.35 87.27 124.96 98.82 133.97 83.06 152.58 93.87 160.99 78.86"/><polyline class="cls-10" points="76.57 172.52 89.78 178.82 99.39 162.31 119.2 173.12 124.6 155.71 143.22 167.26 152.22 151.5 170.83 162.31 179.24 147.3"/></svg>