<svg xmlns="http://www.w3.org/2000/svg" viewBox="0 0 432 1393.49"><defs><style>.cls-1{fill:#c6c6c6;opacity:0.5;}.cls-2{fill:#484848;}.cls-3{fill:#111;}.cls-3,.cls-53{opacity:0.35;}.cls-4{fill:#535353;}.cls-5{opacity:0.36;}.cls-6{opacity:0.37;}.cls-7{fill:#353535;}.cls-8{fill:#5d5d5d;}.cls-9{fill:#424242;}.cls-10{fill:#212121;}.cls-11{fill:#3e3e3e;}.cls-12{fill:#1c1c1c;}.cls-13{fill:#272727;}.cls-14{fill:#2c2c2c;}.cls-15{fill:#202020;}.cls-16{fill:#191919;}.cls-17{fill:#101010;}.cls-18{fill:#1a1a1a;}.cls-19{fill:#333;}.cls-20,.cls-24{fill:#393939;}.cls-20,.cls-22,.cls-23,.cls-27,.cls-28{stroke:#000;}.cls-20,.cls-22,.cls-23,.cls-24,.cls-26,.cls-27,.cls-28,.cls-29,.cls-32,.cls-34,.cls-36,.cls-37,.cls-38,.cls-39,.cls-40,.cls-41,.cls-42,.cls-43,.cls-44,.cls-45,.cls-46,.cls-47,.cls-48,.cls-49,.cls-50,.cls-51,.cls-52,.cls-54,.cls-55,.cls-67,.cls-68,.cls-69{stroke-miterlimit:10;}.cls-21{opacity:0.19;}.cls-23{stroke-width:0.96px;}.cls-24{stroke:#1f1f1f;}.cls-25{opacity:0.25;}.cls-26,.cls-27,.cls-28,.cls-29,.cls-54,.cls-55{fill:#a0a0a0;}.cls-26,.cls-29,.cls-34,.cls-37,.cls-38,.cls-54,.cls-55{stroke:#dadada;}.cls-26{stroke-width:3.04px;}.cls-27{stroke-width:4.81px;opacity:0.09;}.cls-28{stroke-width:4.54px;opacity:0.1;}.cls-29{stroke-width:4.05px;}.cls-30{opacity:0.2;}.cls-31{opacity:0.39;}.cls-32,.cls-38{fill:#262626;}.cls-32,.cls-39,.cls-40,.cls-41,.cls-42,.cls-43,.cls-44,.cls-45,.cls-46,.cls-47,.cls-48,.cls-49,.cls-50,.cls-51,.cls-52,.cls-67,.cls-68,.cls-69{stroke:#333;}.cls-32,.cls-55{stroke-width:2px;}.cls-33{opacity:0.38;}.cls-34{fill:#323232;stroke-width:0.66px;}.cls-35{opacity:0.44;}.cls-36,.cls-37{fill:none;stroke-width:3.7px;}.cls-36{stroke:#1a1a1a;}.cls-38{stroke-width:0.75px;}.cls-39,.cls-48,.cls-49,.cls-50,.cls-51,.cls-52{fill:#414141;}.cls-39,.cls-67,.cls-68,.cls-69{stroke-width:0.74px;}.cls-40,.cls-41,.cls-42,.cls-43,.cls-44,.cls-45,.cls-46{fill:#1e1e1e;}.cls-40{stroke-width:0.71px;}.cls-41{stroke-width:0.72px;}.cls-42{stroke-width:0.72px;}.cls-43{stroke-width:0.72px;}.cls-44{stroke-width:0.73px;}.cls-45{stroke-width:0.73px;}.cls-46{stroke-width:0.73px;}.cls-47{fill:#363636;stroke-width:0.29px;}.cls-48{stroke-width:0.76px;}.cls-49{stroke-width:0.78px;}.cls-50{stroke-width:0.79px;}.cls-51{stroke-width:0.81px;}.cls-52{stroke-width:0.83px;}.cls-53{fill:#050505;}.cls-54{stroke-width:3px;}.cls-56{fill:#131313;opacity:0.32;}.cls-57{fill:#383838;}.cls-58{fill:#6e6e6e;}.cls-59{fill:#636363;}.cls-60{fill:#4a4a4a;}.cls-61{fill:#5e5e5e;}.cls-62{fill:#949494;}.cls-63{opacity:0.3;}.cls-64{fill:#3c3c3c;}.cls-65{fill:#4e4e4e;}.cls-66{fill:#ccc;}.cls-67{fill:#444;}.cls-68{fill:#373737;}.cls-69{fill:#4f4f4f;}.cls-70{fill:#a4a4a4;}</style></defs><title>houseGrayScale</title><g id="Layer_1" data-name="Layer 1"><path class="cls-1" d="M193.18,691.79c1.58-5.94,5.14-13.48,5.44-20.65.48-11.2,1.29-29.89-26.68-23.59-2.09-5.68-13.13-3.2-22.9,3.44-6.26,4.26-11.14,11.15-15.64,15.66-16,.6-24.5,19.47-22.29,37.56-12.25,9.87-13.21,24.94-6.31,35-4.54,10.21-4.62,24.23,3.46,24.3,5.17,0,6.78-2.9,9.39.51,4.79,6.23,17.81-1.47,24.67-10.55,13.4-.11,26.87-9.06,28.9-23.94C189.37,721.39,202,704.55,193.18,691.79Z"/><path class="cls-1" d="M232.68,668.17c3.2-5.25,8.92-11.42,11.1-18.27,3.41-10.69,9.11-28.55-22-31.39-.74-6.17-13-7.29-25.06-4-7.7,2.12-14.65,7.24-20.56,10.17-17.07-4.54-30.91,11-33.27,29.26-15.49,5.64-20.41,19.94-15.74,31.88-7.44,8.44-11.16,22-2.65,24.65,5.43,1.69,7.9-.64,9.77,3.49,3.44,7.57,19.17,4.28,28.76-2.33,14.16,4.18,30.71-.19,36.71-13.95C221,695.63,238.66,683.34,232.68,668.17Z"/><path class="cls-2" d="M388.74,1370.44c-115,14.88-229.55,14.25-343.58,0-4.94-134.52-4.73-268.36,0-400.56H388.74C395.4,1091,394.84,1225.85,388.74,1370.44Z"/><polygon class="cls-3" points="392.79 1081.2 57.43 1080.64 41.09 1057.98 392.31 1062.17 392.79 1081.2"/><path class="cls-1" d="M181.26,726.65c1.26-7.11,4.41-16.3,4.35-24.73-.08-13.16-.21-35.15-27.52-25-2.34-6.45-13.12-2.46-22.44,6.29-6,5.6-10.46,14.16-14.68,19.89-15.8,2.28-23.24,25.22-20.16,46.2C89.19,762.07,89,779.82,96.3,790.91c-4,12.41-3.36,28.85,4.62,28.13,5.1-.46,6.55-4.07,9.3-.33,5,6.82,17.52-3.48,23.84-14.79,13.23-1.45,26.1-13.27,27.37-30.9C179,761.71,190.59,740.73,181.26,726.65Z"/><path class="cls-1" d="M249.25,669c4.92-5.3,12.61-11.28,17.07-18.44,7-11.17,18.63-29.82-10.8-36.75,1.38-6.78-10.23-9.53-23.11-7.43-8.25,1.35-16.77,6-23.54,8.48-15.12-7-33.94,8.12-42.46,27.6-17,4.2-26.73,19.09-26.24,32.62-10.14,8.22-18.4,22.46-11,26.39,4.73,2.51,7.93.28,8.35,5,.77,8.63,17.26,7,28.87,1,12.41,6.28,30,3.6,40.6-10.58C228.46,697.32,249.92,686.19,249.25,669Z"/><path class="cls-4" d="M133.22,910.16H86.82c-2.15-29.58-2.44-57.95,0-84.55h46.4A583.38,583.38,0,0,1,133.22,910.16Z"/><path class="cls-5" d="M133.35,829l-42.75.12c-2.66,0-4.83-3.25-4.83-6.48h0c0-3.23,2.15-5.85,4.81-5.85,13.86,1.17,27.08,1.38,39.27,0,2.66,0,4.81,2.62,4.81,5.85l-1.24.67Z"/><path class="cls-4" d="M133.51,826.38H85.77a5.85,5.85,0,0,1-5.85-5.85h0a5.85,5.85,0,0,1,5.85-5.85c16.85,1.18,32.92,1.38,47.74,0a5.85,5.85,0,0,1,5.85,5.85h0A5.85,5.85,0,0,1,133.51,826.38Z"/><g class="cls-6"><rect x="87.21" y="831.68" width="11.5" height="6.14" rx="3.07"/><rect x="97.69" y="840.63" width="11.5" height="6.14" rx="3.07"/><rect x="110.34" y="832.86" width="11.5" height="6.14" rx="3.07"/><path d="M133.06,844.94H127.7a3.08,3.08,0,0,1-3.07-3.07h0a3.07,3.07,0,0,1,3.07-3.06h5.36c1.69,0,1.41,1.12,1.41,2.81h0C134.47,843.3,134.75,844.94,133.06,844.94Z"/><rect x="105.45" y="851.08" width="11.5" height="6.14" rx="3.07"/><rect x="87.34" y="848.01" width="11.5" height="6.14" rx="3.07"/><rect x="121.27" y="849.35" width="11.5" height="6.14" rx="3.07"/><rect x="86.76" y="866.89" width="11.69" height="6.23" rx="3.12"/><rect x="123.29" y="868.52" width="11.5" height="6.14" rx="3.07"/><rect x="102.1" y="870.32" width="12.46" height="6.64" rx="3.32"/><path d="M133.45,893.16h-5.37a3.08,3.08,0,0,1-3.07-3.07h0a3.07,3.07,0,0,1,3.07-3.06h5.37c1.68,0,1.12,1.12,1.12,2.81h0C134.57,891.52,135.13,893.16,133.45,893.16Z"/><rect x="90.79" y="886.35" width="12.39" height="6.61" rx="3.3"/><rect x="85.99" y="898.15" width="11.5" height="6.14" rx="3.07"/><rect x="104.4" y="901.12" width="11.5" height="6.14" rx="3.07"/><rect x="111.78" y="891.34" width="11.5" height="6.14" rx="3.07"/><rect x="121.66" y="902.59" width="11.8" height="6.3" rx="3.15"/></g><rect class="cls-7" x="86.44" y="831.1" width="11.5" height="6.14" rx="3.07"/><rect class="cls-8" x="96.92" y="840.05" width="11.5" height="6.14" rx="3.07"/><rect class="cls-9" x="109.58" y="832.29" width="11.5" height="6.14" rx="3.07"/><rect class="cls-10" x="123.86" y="838.23" width="11.5" height="6.14" rx="3.07"/><rect class="cls-11" x="104.69" y="850.5" width="11.5" height="6.14" rx="3.07"/><rect class="cls-12" x="86.57" y="847.43" width="11.5" height="6.14" rx="3.07"/><rect class="cls-13" x="120.51" y="848.78" width="11.5" height="6.14" rx="3.07"/><rect class="cls-14" x="85.99" y="866.32" width="11.69" height="6.23" rx="3.12"/><rect class="cls-15" x="122.52" y="867.95" width="11.5" height="6.14" rx="3.07"/><rect class="cls-16" x="101.33" y="869.74" width="12.46" height="6.64" rx="3.32"/><rect class="cls-15" x="124.24" y="886.45" width="11.5" height="6.14" rx="3.07"/><rect class="cls-17" x="90.02" y="885.78" width="12.39" height="6.61" rx="3.3"/><rect class="cls-18" x="85.23" y="897.57" width="11.5" height="6.14" rx="3.07"/><rect class="cls-19" x="103.63" y="900.54" width="11.5" height="6.14" rx="3.07"/><rect class="cls-10" x="111.01" y="890.76" width="11.5" height="6.14" rx="3.07"/><rect class="cls-12" x="120.89" y="902.01" width="11.8" height="6.3" rx="3.15"/><path class="cls-20" d="M409.8,1063H22.2c5.29-60.14,15-121.14,36.44-182.94H374.91C391.33,937,402.53,998.3,409.8,1063Z"/><g class="cls-21"><path class="cls-22" d="M59.4,890.06s8.52,12.11,21.09,1.48"/><path class="cls-22" d="M80.86,890.06s8.51,12.11,21.09,1.48"/><path class="cls-22" d="M102.32,890.06s8.51,12.11,21.08,1.48"/><path class="cls-22" d="M123.77,890.06s8.52,12.11,21.09,1.48"/><path class="cls-22" d="M145.23,890.06s8.51,12.11,21.08,1.48"/><path class="cls-22" d="M166.68,890.06s8.52,12.11,21.09,1.48"/><path class="cls-22" d="M188.14,890.06s8.51,12.11,21.09,1.48"/><path class="cls-22" d="M209.59,890.06s8.52,12.11,21.09,1.48"/><path class="cls-22" d="M231.05,890.06s8.52,12.11,21.09,1.48"/><path class="cls-22" d="M252.51,890.06s8.51,12.11,21.08,1.48"/><path class="cls-22" d="M274,890.06s8.52,12.11,21.09,1.48"/><path class="cls-22" d="M295.42,890.06s8.51,12.11,21.08,1.48"/><path class="cls-22" d="M316.87,890.06s8.52,12.11,21.09,1.48"/><path class="cls-22" d="M338.33,890.06s8.51,12.11,21.09,1.48"/><path class="cls-22" d="M359.79,890.06s8.51,12.11,21.08,1.48"/><path class="cls-22" d="M381.05,1055.64s8.51,12.12,21.08,1.49"/><path class="cls-23" d="M388.46,1044.69s7.89,12.12,19.55,1.48"/><path class="cls-22" d="M384.59,1033.73s8.52,12.12,21.09,1.49"/><path class="cls-22" d="M382.66,1011.51s8.51,12.11,21.09,1.48"/><path class="cls-22" d="M57.47,901.33s8.51,12.12,21.09,1.49"/><path class="cls-22" d="M71.19,901s8.52,12.12,21.09,1.49"/><path class="cls-22" d="M92.65,901s8.51,12.12,21.09,1.49"/><path class="cls-22" d="M114.11,901s8.51,12.12,21.08,1.49"/><path class="cls-22" d="M135.56,901s8.52,12.12,21.09,1.49"/><path class="cls-22" d="M157,901s8.51,12.12,21.08,1.49"/><path class="cls-22" d="M178.47,901s8.52,12.12,21.09,1.49"/><path class="cls-22" d="M199.93,901s8.51,12.12,21.09,1.49"/><path class="cls-22" d="M221.39,901s8.51,12.12,21.08,1.49"/><path class="cls-22" d="M242.84,901s8.52,12.12,21.09,1.49"/><path class="cls-22" d="M264.3,901s8.51,12.12,21.08,1.49"/><path class="cls-22" d="M285.75,901s8.52,12.12,21.09,1.49"/><path class="cls-22" d="M307.21,901s8.51,12.12,21.09,1.49"/><path class="cls-22" d="M328.67,901s8.51,12.12,21.08,1.49"/><path class="cls-22" d="M350.12,901s8.52,12.12,21.09,1.49"/><path class="cls-22" d="M57.47,912.28S66,924.4,78.56,913.77"/><path class="cls-22" d="M78.93,912.28s8.51,12.12,21.08,1.49"/><path class="cls-22" d="M100.38,912.28s8.52,12.12,21.09,1.49"/><path class="cls-22" d="M121.84,912.28s8.51,12.12,21.08,1.49"/><path class="cls-22" d="M143.29,912.28s8.52,12.12,21.09,1.49"/><path class="cls-22" d="M164.75,912.28s8.51,12.12,21.09,1.49"/><path class="cls-22" d="M186.21,912.28s8.51,12.12,21.08,1.49"/><path class="cls-22" d="M207.66,912.28s8.52,12.12,21.09,1.49"/><path class="cls-22" d="M229.12,912.28s8.51,12.12,21.08,1.49"/><path class="cls-22" d="M250.57,912.28s8.52,12.12,21.09,1.49"/><path class="cls-22" d="M272,912.28s8.51,12.12,21.09,1.49"/><path class="cls-22" d="M293.49,912.28s8.51,12.12,21.08,1.49"/><path class="cls-22" d="M314.94,912.28s8.52,12.12,21.09,1.49"/><path class="cls-22" d="M336.4,912.28s8.51,12.12,21.08,1.49"/><path class="cls-22" d="M357.85,912.28s8.52,12.12,21.09,1.49"/><path class="cls-22" d="M49.11,922s8.51,12.12,21.08,1.49"/><path class="cls-22" d="M66.68,922.92S75.2,935,87.77,924.4"/><path class="cls-22" d="M88.14,922.92s8.51,12.11,21.09,1.48"/><path class="cls-22" d="M109.6,922.92s8.51,12.11,21.08,1.48"/><path class="cls-22" d="M378.47,989.12s8.52,12.11,21.09,1.48"/><path class="cls-22" d="M131.05,922.92s8.52,12.11,21.09,1.48"/><path class="cls-22" d="M152.51,922.92S161,935,173.59,924.4"/><path class="cls-22" d="M174,922.92s8.52,12.11,21.09,1.48"/><path class="cls-22" d="M195.42,922.92s8.51,12.11,21.09,1.48"/><path class="cls-22" d="M216.88,922.92S225.39,935,238,924.4"/><path class="cls-22" d="M238.33,922.92s8.52,12.11,21.09,1.48"/><path class="cls-22" d="M259.79,922.92s8.51,12.11,21.08,1.48"/><path class="cls-22" d="M281.24,922.92s8.52,12.11,21.09,1.48"/><path class="cls-22" d="M302.7,922.92s8.51,12.11,21.09,1.48"/><path class="cls-22" d="M324.16,922.92s8.51,12.11,21.08,1.48"/><path class="cls-22" d="M345.61,922.92s8.52,12.11,21.09,1.48"/><path class="cls-22" d="M365.91,922.92S374.42,935,387,924.4"/><path class="cls-22" d="M49.54,934.51s8.51,12.12,21.08,1.49"/><path class="cls-22" d="M77,934.51s8.52,12.12,21.09,1.49"/><path class="cls-22" d="M98.45,934.51S107,946.63,119.54,936"/><path class="cls-22" d="M119.91,934.51S128.42,946.63,141,936"/><path class="cls-22" d="M141.36,934.51s8.52,12.12,21.09,1.49"/><path class="cls-22" d="M162.82,934.51s8.51,12.12,21.08,1.49"/><path class="cls-22" d="M184.27,934.51s8.52,12.12,21.09,1.49"/><path class="cls-22" d="M205.73,934.51s8.51,12.12,21.09,1.49"/><path class="cls-22" d="M227.19,934.51s8.51,12.12,21.08,1.49"/><path class="cls-22" d="M248.64,934.51s8.52,12.12,21.09,1.49"/><path class="cls-22" d="M270.1,934.51s8.51,12.12,21.08,1.49"/><path class="cls-22" d="M291.55,934.51s8.52,12.12,21.09,1.49"/><path class="cls-22" d="M313,934.51s8.51,12.12,21.09,1.49"/><path class="cls-22" d="M334.46,934.51S343,946.63,355.55,936"/><path class="cls-22" d="M355.92,934.51S364.44,946.63,377,936"/><path class="cls-22" d="M44.71,943.86s8.51,12.11,21.08,1.48"/><path class="cls-22" d="M67.33,944.5s8.51,12.12,21.09,1.49"/><path class="cls-22" d="M88.79,944.5s8.51,12.12,21.08,1.49"/><path class="cls-22" d="M110.24,944.5s8.52,12.12,21.09,1.49"/><path class="cls-22" d="M131.7,944.5s8.51,12.12,21.08,1.49"/><path class="cls-22" d="M153.15,944.5s8.52,12.12,21.09,1.49"/><path class="cls-22" d="M174.61,944.5s8.51,12.12,21.08,1.49"/><path class="cls-22" d="M196.06,944.5s8.52,12.12,21.09,1.49"/><path class="cls-22" d="M217.52,944.5S226,956.62,238.61,946"/><path class="cls-22" d="M239,944.5s8.51,12.12,21.08,1.49"/><path class="cls-22" d="M260.43,944.5S269,956.62,281.52,946"/><path class="cls-22" d="M281.89,944.5S290.4,956.62,303,946"/><path class="cls-22" d="M303.34,944.5s8.52,12.12,21.09,1.49"/><path class="cls-22" d="M324.8,944.5s8.51,12.12,21.09,1.49"/><path class="cls-22" d="M346.26,944.5s8.51,12.12,21.08,1.49"/><path class="cls-22" d="M366.55,944.5s8.52,12.12,21.09,1.49"/><path class="cls-22" d="M50.6,954.49S59.12,966.6,71.69,956"/><path class="cls-22" d="M75.06,954.49S83.57,966.6,96.15,956"/><path class="cls-22" d="M96.52,954.49S105,966.6,117.6,956"/><path class="cls-22" d="M118,954.49s8.52,12.11,21.09,1.48"/><path class="cls-22" d="M139.43,954.49s8.51,12.11,21.08,1.48"/><path class="cls-22" d="M160.88,954.49S169.4,966.6,182,956"/><path class="cls-22" d="M182.34,954.49s8.51,12.11,21.09,1.48"/><path class="cls-22" d="M203.8,954.49s8.51,12.11,21.08,1.48"/><path class="cls-22" d="M225.25,954.49s8.52,12.11,21.09,1.48"/><path class="cls-22" d="M246.71,954.49s8.51,12.11,21.08,1.48"/><path class="cls-22" d="M268.16,954.49s8.52,12.11,21.09,1.48"/><path class="cls-22" d="M289.62,954.49s8.51,12.11,21.09,1.48"/><path class="cls-22" d="M311.08,954.49s8.51,12.11,21.08,1.48"/><path class="cls-22" d="M332.53,954.49s8.52,12.11,21.09,1.48"/><path class="cls-22" d="M354,954.49s8.51,12.11,21.08,1.48"/><path class="cls-22" d="M371.06,954.49s8.52,12.11,21.09,1.48"/><path class="cls-22" d="M42.16,965.12s8.52,12.11,21.09,1.48"/><path class="cls-22" d="M34,1022.46S42.47,1034.58,55,1024"/><path class="cls-22" d="M37.82,998.3s8.51,12.12,21.09,1.49"/><path class="cls-22" d="M63.79,964.79s8.51,12.12,21.08,1.49"/><path class="cls-22" d="M85.24,964.79s8.52,12.12,21.09,1.49"/><path class="cls-22" d="M106.7,964.79s8.51,12.12,21.08,1.49"/><path class="cls-22" d="M128.15,964.79s8.52,12.12,21.09,1.49"/><path class="cls-22" d="M149.61,964.79s8.51,12.12,21.09,1.49"/><path class="cls-22" d="M171.07,964.79s8.51,12.12,21.08,1.49"/><path class="cls-22" d="M192.52,964.79s8.52,12.12,21.09,1.49"/><path class="cls-22" d="M214,964.79s8.51,12.12,21.08,1.49"/><path class="cls-22" d="M235.43,964.79s8.52,12.12,21.09,1.49"/><path class="cls-22" d="M256.89,964.79s8.51,12.12,21.09,1.49"/><path class="cls-22" d="M278.35,964.79s8.51,12.12,21.08,1.49"/><path class="cls-22" d="M299.8,964.79s8.52,12.12,21.09,1.49"/><path class="cls-22" d="M321.26,964.79s8.51,12.12,21.08,1.49"/><path class="cls-22" d="M342.71,964.79s8.52,12.12,21.09,1.49"/><path class="cls-22" d="M363,964.79s8.51,12.12,21.08,1.49"/><path class="cls-22" d="M50.32,976.39s8.51,12.12,21.08,1.49"/><path class="cls-22" d="M73.77,976.39s8.52,12.12,21.09,1.49"/><path class="cls-22" d="M95.23,976.39s8.51,12.12,21.08,1.49"/><path class="cls-22" d="M116.68,976.39s8.52,12.12,21.09,1.49"/><path class="cls-22" d="M138.14,976.39s8.51,12.12,21.09,1.49"/><path class="cls-22" d="M159.6,976.39s8.51,12.12,21.08,1.49"/><path class="cls-22" d="M181.05,976.39s8.52,12.12,21.09,1.49"/><path class="cls-22" d="M202.51,976.39s8.51,12.12,21.08,1.49"/><path class="cls-22" d="M224,976.39s8.52,12.12,21.09,1.49"/><path class="cls-22" d="M245.42,976.39s8.51,12.12,21.09,1.49"/><path class="cls-22" d="M266.88,976.39s8.51,12.12,21.08,1.49"/><path class="cls-22" d="M288.33,976.39s8.52,12.12,21.09,1.49"/><path class="cls-22" d="M309.79,976.39s8.51,12.12,21.08,1.49"/><path class="cls-22" d="M331.24,976.39s8.52,12.12,21.09,1.49"/><path class="cls-22" d="M352.7,976.39s8.51,12.12,21.09,1.49"/><path class="cls-22" d="M373,976.39s8.52,12.12,21.09,1.49"/><path class="cls-22" d="M42,987.67s8.51,12.12,21.08,1.48"/><path class="cls-22" d="M63.46,987.67s8.52,12.12,21.09,1.48"/><path class="cls-22" d="M84.92,987.67s8.51,12.12,21.09,1.48"/><path class="cls-22" d="M106.38,987.67s8.51,12.12,21.08,1.48"/><path class="cls-22" d="M127.83,987.67s8.52,12.12,21.09,1.48"/><path class="cls-22" d="M149.29,987.67s8.51,12.12,21.08,1.48"/><path class="cls-22" d="M170.74,987.67s8.52,12.12,21.09,1.48"/><path class="cls-22" d="M192.2,987.67s8.51,12.12,21.09,1.48"/><path class="cls-22" d="M213.66,987.67s8.51,12.12,21.08,1.48"/><path class="cls-22" d="M235.11,987.67s8.52,12.12,21.09,1.48"/><path class="cls-22" d="M256.57,987.67s8.51,12.12,21.08,1.48"/><path class="cls-22" d="M278,987.67s8.52,12.12,21.09,1.48"/><path class="cls-22" d="M299.48,987.67s8.51,12.12,21.08,1.48"/><path class="cls-22" d="M320.93,987.67s8.52,12.12,21.09,1.48"/><path class="cls-22" d="M342.39,987.67s8.51,12.12,21.09,1.48"/><path class="cls-22" d="M362.69,987.67s8.51,12.12,21.08,1.48"/><path class="cls-22" d="M55.78,999.59s8.51,12.11,21.09,1.48"/><path class="cls-22" d="M76,1000.55s8.51,12.12,21.08,1.49"/><path class="cls-22" d="M97.48,1000.55s8.52,12.12,21.09,1.49"/><path class="cls-22" d="M118.94,1000.55s8.51,12.12,21.08,1.49"/><path class="cls-22" d="M140.39,1000.55s8.52,12.12,21.09,1.49"/><path class="cls-22" d="M161.85,1000.55s8.52,12.12,21.09,1.49"/><path class="cls-22" d="M183.31,1000.55s8.51,12.12,21.08,1.49"/><path class="cls-22" d="M204.76,1000.55s8.52,12.12,21.09,1.49"/><path class="cls-22" d="M226.22,1000.55s8.51,12.12,21.08,1.49"/><path class="cls-22" d="M247.67,1000.55s8.52,12.12,21.09,1.49"/><path class="cls-22" d="M269.13,1000.55s8.51,12.12,21.09,1.49"/><path class="cls-22" d="M290.59,1000.55s8.51,12.12,21.08,1.49"/><path class="cls-22" d="M312,1000.55s8.52,12.12,21.09,1.49"/><path class="cls-22" d="M333.5,1000.55s8.51,12.12,21.08,1.49"/><path class="cls-22" d="M355,1000.55s8.52,12.12,21.09,1.49"/><path class="cls-22" d="M375.25,1000.55s8.51,12.12,21.09,1.49"/><path class="cls-22" d="M41,1011.18s8.52,12.12,21.09,1.49"/><path class="cls-22" d="M62.5,1011.18s8.51,12.12,21.08,1.49"/><path class="cls-22" d="M84,1011.18s8.52,12.12,21.09,1.49"/><path class="cls-22" d="M105.41,1011.18s8.51,12.12,21.08,1.49"/><path class="cls-22" d="M126.86,1011.18s8.52,12.12,21.09,1.49"/><path class="cls-22" d="M148.32,1011.18s8.51,12.12,21.09,1.49"/><path class="cls-22" d="M169.78,1011.18s8.51,12.12,21.08,1.49"/><path class="cls-22" d="M191.23,1011.18s8.52,12.12,21.09,1.49"/><path class="cls-22" d="M212.69,1011.18s8.51,12.12,21.08,1.49"/><path class="cls-22" d="M234.14,1011.18s8.52,12.12,21.09,1.49"/><path class="cls-22" d="M255.6,1011.18s8.51,12.12,21.09,1.49"/><path class="cls-22" d="M277.06,1011.18s8.51,12.12,21.08,1.49"/><path class="cls-22" d="M298.51,1011.18s8.52,12.12,21.09,1.49"/><path class="cls-22" d="M320,1011.18s8.51,12.12,21.08,1.49"/><path class="cls-22" d="M341.42,1011.18s8.52,12.12,21.09,1.49"/><path class="cls-22" d="M361.72,1011.18s8.51,12.12,21.09,1.49"/><path class="cls-22" d="M51.35,1023.1s8.51,12.12,21.09,1.49"/><path class="cls-22" d="M72.81,1023.1s8.51,12.12,21.08,1.49"/><path class="cls-22" d="M94.26,1023.1s8.52,12.12,21.09,1.49"/><path class="cls-22" d="M115.72,1023.1s8.51,12.12,21.08,1.49"/><path class="cls-22" d="M137.17,1023.1s8.52,12.12,21.09,1.49"/><path class="cls-22" d="M158.63,1023.1s8.51,12.12,21.09,1.49"/><path class="cls-22" d="M180.09,1023.1s8.51,12.12,21.08,1.49"/><path class="cls-22" d="M201.54,1023.1s8.52,12.12,21.09,1.49"/><path class="cls-22" d="M223,1023.1s8.51,12.12,21.08,1.49"/><path class="cls-22" d="M244.45,1023.1s8.52,12.12,21.09,1.49"/><path class="cls-22" d="M265.91,1023.1s8.51,12.12,21.09,1.49"/><path class="cls-22" d="M287.37,1023.1s8.51,12.12,21.08,1.49"/><path class="cls-22" d="M308.82,1023.1s8.52,12.12,21.09,1.49"/><path class="cls-22" d="M330.28,1023.1s8.51,12.12,21.08,1.49"/><path class="cls-22" d="M351.73,1023.1s8.52,12.12,21.09,1.49"/><path class="cls-22" d="M372,1023.1s8.51,12.12,21.08,1.49"/><path class="cls-22" d="M40.07,1034.38s8.52,12.12,21.09,1.49"/><path class="cls-22" d="M61.53,1034.38s8.51,12.12,21.09,1.49"/><path class="cls-22" d="M83,1034.38s8.51,12.12,21.08,1.49"/><path class="cls-22" d="M104.44,1034.38s8.52,12.12,21.09,1.49"/><path class="cls-22" d="M125.9,1034.38s8.51,12.12,21.08,1.49"/><path class="cls-22" d="M147.35,1034.38s8.52,12.12,21.09,1.49"/><path class="cls-22" d="M168.81,1034.38s8.51,12.12,21.09,1.49"/><path class="cls-22" d="M190.27,1034.38s8.51,12.12,21.08,1.49"/><path class="cls-22" d="M211.72,1034.38s8.52,12.12,21.09,1.49"/><path class="cls-22" d="M233.18,1034.38s8.51,12.12,21.08,1.49"/><path class="cls-22" d="M254.63,1034.38s8.52,12.12,21.09,1.49"/><path class="cls-22" d="M276.09,1034.38s8.51,12.12,21.09,1.49"/><path class="cls-22" d="M297.55,1034.38s8.51,12.12,21.08,1.49"/><path class="cls-22" d="M319,1034.38s8.52,12.12,21.09,1.49"/><path class="cls-22" d="M340.46,1034.38s8.51,12.12,21.08,1.49"/><path class="cls-22" d="M360.75,1034.38s8.52,12.12,21.09,1.49"/><path class="cls-22" d="M48.77,1044.37s8.52,12.11,21.09,1.48"/><path class="cls-22" d="M29.2,1045.09s8.52,12.12,21.09,1.49"/><path class="cls-22" d="M70.23,1044.37s8.51,12.11,21.08,1.48"/><path class="cls-22" d="M91.68,1044.37s8.52,12.11,21.09,1.48"/><path class="cls-22" d="M113.14,1044.37s8.51,12.11,21.09,1.48"/><path class="cls-22" d="M134.6,1044.37s8.51,12.11,21.08,1.48"/><path class="cls-22" d="M156.05,1044.37s8.52,12.11,21.09,1.48"/><path class="cls-22" d="M177.51,1044.37s8.51,12.11,21.08,1.48"/><path class="cls-22" d="M199,1044.37s8.52,12.11,21.09,1.48"/><path class="cls-22" d="M220.42,1044.37s8.51,12.11,21.09,1.48"/><path class="cls-22" d="M241.88,1044.37s8.51,12.11,21.08,1.48"/><path class="cls-22" d="M263.33,1044.37s8.52,12.11,21.09,1.48"/><path class="cls-22" d="M284.79,1044.37s8.51,12.11,21.08,1.48"/><path class="cls-22" d="M306.24,1044.37s8.52,12.11,21.09,1.48"/><path class="cls-22" d="M327.7,1044.37s8.51,12.11,21.09,1.48"/><path class="cls-22" d="M349.16,1044.37s8.51,12.11,21.08,1.48"/><path class="cls-22" d="M369.45,1044.37s8.52,12.11,21.09,1.48"/><path class="cls-22" d="M36.85,1054.67s8.52,12.12,21.09,1.49"/><path class="cls-22" d="M58.31,1054.67s8.51,12.12,21.09,1.49"/><path class="cls-22" d="M79.76,1054.67s8.52,12.12,21.09,1.49"/><path class="cls-22" d="M101.22,1054.67s8.52,12.12,21.09,1.49"/><path class="cls-22" d="M122.68,1054.67s8.51,12.12,21.08,1.49"/><path class="cls-22" d="M144.13,1054.67s8.52,12.12,21.09,1.49"/><path class="cls-22" d="M165.59,1054.67s8.51,12.12,21.08,1.49"/><path class="cls-22" d="M187,1054.67s8.52,12.12,21.09,1.49"/><path class="cls-22" d="M208.5,1054.67s8.51,12.12,21.09,1.49"/><path class="cls-22" d="M230,1054.67s8.51,12.12,21.08,1.49"/><path class="cls-22" d="M251.41,1054.67s8.52,12.12,21.09,1.49"/><path class="cls-22" d="M272.87,1054.67s8.51,12.12,21.08,1.49"/><path class="cls-22" d="M294.32,1054.67s8.52,12.12,21.09,1.49"/><path class="cls-22" d="M315.78,1054.67s8.51,12.12,21.09,1.49"/><path class="cls-22" d="M337.24,1054.67s8.51,12.12,21.08,1.49"/><path class="cls-22" d="M357.53,1054.67s8.52,12.12,21.09,1.49"/></g><path class="cls-24" d="M56.18,888.69s8.51,12.12,21.09,1.49"/><path class="cls-24" d="M77.64,888.69s8.51,12.12,21.08,1.49"/><path class="cls-24" d="M99.09,888.69s8.52,12.12,21.09,1.49"/><path class="cls-24" d="M120.55,888.69s8.51,12.12,21.08,1.49"/><path class="cls-24" d="M142,888.69s8.52,12.12,21.09,1.49"/><path class="cls-24" d="M163.46,888.69s8.51,12.12,21.08,1.49"/><path class="cls-24" d="M184.91,888.69s8.52,12.12,21.09,1.49"/><path class="cls-24" d="M206.37,888.69s8.52,12.12,21.09,1.49"/><path class="cls-24" d="M227.83,888.69s8.51,12.12,21.08,1.49"/><path class="cls-24" d="M249.28,888.69s8.52,12.12,21.09,1.49"/><path class="cls-24" d="M270.74,888.69s8.51,12.12,21.08,1.49"/><path class="cls-24" d="M292.19,888.69s8.52,12.12,21.09,1.49"/><path class="cls-24" d="M313.65,888.69s8.51,12.12,21.09,1.49"/><path class="cls-24" d="M335.11,888.69s8.51,12.12,21.08,1.49"/><path class="cls-24" d="M356.56,888.69s8.52,12.12,21.09,1.49"/><path class="cls-24" d="M377.82,1054.28s8.52,12.12,21.09,1.48"/><path class="cls-24" d="M385.23,1043.32s8.52,12.12,21.09,1.49"/><path class="cls-24" d="M381.37,1032.37s8.51,12.12,21.08,1.49"/><path class="cls-24" d="M379.43,1010.14s8.52,12.12,21.09,1.49"/><path class="cls-24" d="M54.25,900s8.51,12.12,21.08,1.49"/><path class="cls-24" d="M68,899.65s8.51,12.12,21.09,1.48"/><path class="cls-24" d="M89.43,899.65s8.51,12.12,21.08,1.48"/><path class="cls-24" d="M110.88,899.65s8.52,12.12,21.09,1.48"/><path class="cls-24" d="M132.34,899.65s8.51,12.12,21.08,1.48"/><path class="cls-24" d="M153.79,899.65s8.52,12.12,21.09,1.48"/><path class="cls-24" d="M175.25,899.65s8.51,12.12,21.09,1.48"/><path class="cls-24" d="M196.71,899.65s8.51,12.12,21.08,1.48"/><path class="cls-24" d="M218.16,899.65s8.52,12.12,21.09,1.48"/><path class="cls-24" d="M239.62,899.65s8.51,12.12,21.08,1.48"/><path class="cls-24" d="M261.07,899.65s8.52,12.12,21.09,1.48"/><path class="cls-24" d="M282.53,899.65s8.51,12.12,21.09,1.48"/><path class="cls-24" d="M304,899.65s8.51,12.12,21.08,1.48"/><path class="cls-24" d="M325.44,899.65s8.52,12.12,21.09,1.48"/><path class="cls-24" d="M346.9,899.65s8.51,12.12,21.08,1.48"/><path class="cls-24" d="M54.25,910.92s8.51,12.12,21.08,1.49"/><path class="cls-24" d="M75.7,910.92s8.52,12.12,21.09,1.49"/><path class="cls-24" d="M97.16,910.92s8.51,12.12,21.08,1.49"/><path class="cls-24" d="M118.61,910.92s8.52,12.12,21.09,1.49"/><path class="cls-24" d="M140.07,910.92s8.51,12.12,21.09,1.49"/><path class="cls-24" d="M161.53,910.92S170,923,182.61,912.41"/><path class="cls-24" d="M183,910.92s8.52,12.12,21.09,1.49"/><path class="cls-24" d="M204.44,910.92S213,923,225.52,912.41"/><path class="cls-24" d="M225.89,910.92S234.41,923,247,912.41"/><path class="cls-24" d="M247.35,910.92s8.51,12.12,21.09,1.49"/><path class="cls-24" d="M268.81,910.92s8.51,12.12,21.08,1.49"/><path class="cls-24" d="M290.26,910.92s8.52,12.12,21.09,1.49"/><path class="cls-24" d="M311.72,910.92s8.51,12.12,21.08,1.49"/><path class="cls-24" d="M333.17,910.92s8.52,12.12,21.09,1.49"/><path class="cls-24" d="M354.63,910.92s8.51,12.12,21.09,1.49"/><path class="cls-24" d="M47.88,920.59S56.4,932.7,69,922.07"/><path class="cls-24" d="M63.46,921.55S72,933.67,84.55,923"/><path class="cls-24" d="M84.92,921.55S93.43,933.67,106,923"/><path class="cls-24" d="M106.37,921.55s8.52,12.12,21.09,1.49"/><path class="cls-24" d="M375.25,987.75s8.51,12.12,21.08,1.49"/><path class="cls-24" d="M127.83,921.55s8.51,12.12,21.08,1.49"/><path class="cls-24" d="M149.28,921.55s8.52,12.12,21.09,1.49"/><path class="cls-24" d="M170.74,921.55s8.51,12.12,21.09,1.49"/><path class="cls-24" d="M192.2,921.55s8.51,12.12,21.08,1.49"/><path class="cls-24" d="M213.65,921.55s8.52,12.12,21.09,1.49"/><path class="cls-24" d="M235.11,921.55s8.51,12.12,21.08,1.49"/><path class="cls-24" d="M256.56,921.55s8.52,12.12,21.09,1.49"/><path class="cls-24" d="M278,921.55s8.51,12.12,21.09,1.49"/><path class="cls-24" d="M299.48,921.55S308,933.67,320.56,923"/><path class="cls-24" d="M320.93,921.55S329.45,933.67,342,923"/><path class="cls-24" d="M342.39,921.55s8.51,12.12,21.08,1.49"/><path class="cls-24" d="M362.68,921.55s8.52,12.12,21.09,1.49"/><path class="cls-24" d="M48.31,933.15s8.52,12.12,21.09,1.49"/><path class="cls-24" d="M73.77,933.15s8.51,12.12,21.09,1.49"/><path class="cls-24" d="M95.23,933.15s8.51,12.12,21.08,1.49"/><path class="cls-24" d="M116.68,933.15s8.52,12.12,21.09,1.49"/><path class="cls-24" d="M138.14,933.15s8.51,12.12,21.08,1.49"/><path class="cls-24" d="M159.59,933.15s8.52,12.12,21.09,1.49"/><path class="cls-24" d="M181.05,933.15s8.51,12.12,21.09,1.49"/><path class="cls-24" d="M202.51,933.15s8.51,12.12,21.08,1.49"/><path class="cls-24" d="M224,933.15s8.52,12.12,21.09,1.49"/><path class="cls-24" d="M245.42,933.15s8.51,12.12,21.08,1.49"/><path class="cls-24" d="M266.87,933.15s8.52,12.12,21.09,1.49"/><path class="cls-24" d="M288.33,933.15s8.51,12.12,21.08,1.49"/><path class="cls-24" d="M309.78,933.15s8.52,12.12,21.09,1.49"/><path class="cls-24" d="M331.24,933.15s8.51,12.12,21.09,1.49"/><path class="cls-24" d="M352.7,933.15s8.51,12.12,21.08,1.49"/><path class="cls-24" d="M43.48,942.49S52,954.61,64.57,944"/><path class="cls-24" d="M64.1,943.14s8.52,12.12,21.09,1.48"/><path class="cls-24" d="M85.56,943.14s8.52,12.12,21.09,1.48"/><path class="cls-24" d="M107,943.14s8.51,12.12,21.08,1.48"/><path class="cls-24" d="M128.47,943.14s8.52,12.12,21.09,1.48"/><path class="cls-24" d="M149.93,943.14s8.51,12.12,21.08,1.48"/><path class="cls-24" d="M171.38,943.14s8.52,12.12,21.09,1.48"/><path class="cls-24" d="M192.84,943.14s8.51,12.12,21.09,1.48"/><path class="cls-24" d="M214.3,943.14s8.51,12.12,21.08,1.48"/><path class="cls-24" d="M235.75,943.14s8.52,12.12,21.09,1.48"/><path class="cls-24" d="M257.21,943.14s8.51,12.12,21.08,1.48"/><path class="cls-24" d="M278.66,943.14s8.52,12.12,21.09,1.48"/><path class="cls-24" d="M300.12,943.14s8.51,12.12,21.09,1.48"/><path class="cls-24" d="M321.58,943.14s8.51,12.12,21.08,1.48"/><path class="cls-24" d="M343,943.14s8.52,12.12,21.09,1.48"/><path class="cls-24" d="M363.33,943.14s8.51,12.12,21.08,1.48"/><path class="cls-24" d="M48.38,953.12s8.51,12.12,21.09,1.49"/><path class="cls-24" d="M71.84,953.12s8.51,12.12,21.08,1.49"/><path class="cls-24" d="M93.29,953.12s8.52,12.12,21.09,1.49"/><path class="cls-24" d="M114.75,953.12s8.51,12.12,21.08,1.49"/><path class="cls-24" d="M136.2,953.12s8.52,12.12,21.09,1.49"/><path class="cls-24" d="M157.66,953.12s8.51,12.12,21.09,1.49"/><path class="cls-24" d="M179.12,953.12s8.51,12.12,21.08,1.49"/><path class="cls-24" d="M200.57,953.12s8.52,12.12,21.09,1.49"/><path class="cls-24" d="M222,953.12s8.51,12.12,21.08,1.49"/><path class="cls-24" d="M243.48,953.12s8.52,12.12,21.09,1.49"/><path class="cls-24" d="M264.94,953.12s8.51,12.12,21.09,1.49"/><path class="cls-24" d="M286.4,953.12s8.51,12.12,21.08,1.49"/><path class="cls-24" d="M307.85,953.12s8.52,12.12,21.09,1.49"/><path class="cls-24" d="M329.31,953.12s8.51,12.12,21.08,1.49"/><path class="cls-24" d="M350.76,953.12s8.52,12.12,21.09,1.49"/><path class="cls-24" d="M367.84,953.12s8.51,12.12,21.08,1.49"/><path class="cls-24" d="M39.94,963.75s8.51,12.12,21.08,1.49"/><path class="cls-24" d="M30.73,1021.1s8.51,12.11,21.09,1.48"/><path class="cls-24" d="M34.6,996.94s8.51,12.11,21.08,1.48"/><path class="cls-24" d="M60.56,963.43s8.52,12.12,21.09,1.49"/><path class="cls-24" d="M82,963.43s8.51,12.12,21.08,1.49"/><path class="cls-24" d="M103.47,963.43s8.52,12.12,21.09,1.49"/><path class="cls-24" d="M124.93,963.43s8.51,12.12,21.09,1.49"/><path class="cls-24" d="M146.39,963.43s8.51,12.12,21.08,1.49"/><path class="cls-24" d="M167.84,963.43s8.52,12.12,21.09,1.49"/><path class="cls-24" d="M189.3,963.43s8.51,12.12,21.08,1.49"/><path class="cls-24" d="M210.75,963.43s8.52,12.12,21.09,1.49"/><path class="cls-24" d="M232.21,963.43s8.51,12.12,21.09,1.49"/><path class="cls-24" d="M253.66,963.43s8.52,12.12,21.09,1.49"/><path class="cls-24" d="M275.12,963.43s8.52,12.12,21.09,1.49"/><path class="cls-24" d="M296.58,963.43s8.51,12.12,21.08,1.49"/><path class="cls-24" d="M318,963.43s8.52,12.12,21.09,1.49"/><path class="cls-24" d="M339.49,963.43s8.51,12.12,21.08,1.49"/><path class="cls-24" d="M359.78,963.43s8.52,12.12,21.09,1.49"/><path class="cls-24" d="M49.09,975s8.52,12.12,21.09,1.49"/><path class="cls-24" d="M70.55,975s8.51,12.12,21.08,1.49"/><path class="cls-24" d="M92,975s8.52,12.12,21.09,1.49"/><path class="cls-24" d="M113.46,975s8.51,12.12,21.09,1.49"/><path class="cls-24" d="M134.92,975s8.51,12.12,21.08,1.49"/><path class="cls-24" d="M156.37,975s8.52,12.12,21.09,1.49"/><path class="cls-24" d="M177.83,975s8.51,12.12,21.08,1.49"/><path class="cls-24" d="M199.28,975s8.52,12.12,21.09,1.49"/><path class="cls-24" d="M220.74,975s8.51,12.12,21.09,1.49"/><path class="cls-24" d="M242.2,975s8.51,12.12,21.08,1.49"/><path class="cls-24" d="M263.65,975s8.52,12.12,21.09,1.49"/><path class="cls-24" d="M285.11,975s8.51,12.12,21.08,1.49"/><path class="cls-24" d="M306.56,975s8.52,12.12,21.09,1.49"/><path class="cls-24" d="M328,975s8.51,12.12,21.09,1.49"/><path class="cls-24" d="M349.48,975s8.51,12.12,21.08,1.49"/><path class="cls-24" d="M369.77,975s8.51,12.12,21.09,1.49"/><path class="cls-24" d="M38.78,986.3s8.52,12.12,21.09,1.49"/><path class="cls-24" d="M60.24,986.3s8.51,12.12,21.09,1.49"/><path class="cls-24" d="M81.7,986.3s8.51,12.12,21.08,1.49"/><path class="cls-24" d="M103.15,986.3s8.52,12.12,21.09,1.49"/><path class="cls-24" d="M124.61,986.3s8.51,12.12,21.08,1.49"/><path class="cls-24" d="M146.06,986.3s8.52,12.12,21.09,1.49"/><path class="cls-24" d="M167.52,986.3s8.51,12.12,21.08,1.49"/><path class="cls-24" d="M189,986.3s8.52,12.12,21.09,1.49"/><path class="cls-24" d="M210.43,986.3s8.52,12.12,21.09,1.49"/><path class="cls-24" d="M231.89,986.3s8.51,12.12,21.08,1.49"/><path class="cls-24" d="M253.34,986.3s8.52,12.12,21.09,1.49"/><path class="cls-24" d="M274.8,986.3s8.51,12.12,21.08,1.49"/><path class="cls-24" d="M296.25,986.3s8.52,12.12,21.09,1.49"/><path class="cls-24" d="M317.71,986.3s8.51,12.12,21.09,1.49"/><path class="cls-24" d="M339.17,986.3s8.51,12.12,21.08,1.49"/><path class="cls-24" d="M359.46,986.3s8.52,12.12,21.09,1.49"/><path class="cls-24" d="M52.56,998.22s8.51,12.12,21.08,1.49"/><path class="cls-24" d="M72.8,999.19s8.52,12.12,21.09,1.49"/><path class="cls-24" d="M94.26,999.19s8.51,12.12,21.08,1.49"/><path class="cls-24" d="M115.71,999.19s8.52,12.12,21.09,1.49"/><path class="cls-24" d="M137.17,999.19s8.51,12.12,21.09,1.49"/><path class="cls-24" d="M158.63,999.19s8.51,12.12,21.08,1.49"/><path class="cls-24" d="M180.08,999.19s8.52,12.12,21.09,1.49"/><path class="cls-24" d="M201.54,999.19s8.51,12.12,21.08,1.49"/><path class="cls-24" d="M223,999.19s8.52,12.12,21.09,1.49"/><path class="cls-24" d="M244.45,999.19s8.51,12.12,21.09,1.49"/><path class="cls-24" d="M265.91,999.19s8.51,12.12,21.08,1.49"/><path class="cls-24" d="M287.36,999.19s8.52,12.12,21.09,1.49"/><path class="cls-24" d="M308.82,999.19s8.51,12.12,21.08,1.49"/><path class="cls-24" d="M330.27,999.19s8.52,12.12,21.09,1.49"/><path class="cls-24" d="M351.73,999.19s8.51,12.12,21.09,1.49"/><path class="cls-24" d="M372,999.19s8.51,12.12,21.08,1.49"/><path class="cls-24" d="M37.82,1009.82s8.51,12.12,21.08,1.49"/><path class="cls-24" d="M59.27,1009.82s8.52,12.12,21.09,1.49"/><path class="cls-24" d="M80.73,1009.82s8.51,12.12,21.08,1.49"/><path class="cls-24" d="M102.18,1009.82s8.52,12.12,21.09,1.49"/><path class="cls-24" d="M123.64,1009.82s8.51,12.12,21.09,1.49"/><path class="cls-24" d="M145.1,1009.82s8.51,12.12,21.08,1.49"/><path class="cls-24" d="M166.55,1009.82s8.52,12.12,21.09,1.49"/><path class="cls-24" d="M188,1009.82s8.51,12.12,21.08,1.49"/><path class="cls-24" d="M209.46,1009.82s8.52,12.12,21.09,1.49"/><path class="cls-24" d="M230.92,1009.82s8.51,12.12,21.09,1.49"/><path class="cls-24" d="M252.38,1009.82s8.51,12.12,21.08,1.49"/><path class="cls-24" d="M273.83,1009.82s8.52,12.12,21.09,1.49"/><path class="cls-24" d="M295.29,1009.82s8.51,12.12,21.08,1.49"/><path class="cls-24" d="M316.74,1009.82s8.52,12.12,21.09,1.49"/><path class="cls-24" d="M338.2,1009.82s8.51,12.12,21.09,1.49"/><path class="cls-24" d="M358.5,1009.82s8.51,12.12,21.08,1.49"/><path class="cls-24" d="M48.13,1021.74s8.51,12.12,21.08,1.49"/><path class="cls-24" d="M69.58,1021.74s8.52,12.12,21.09,1.49"/><path class="cls-24" d="M91,1021.74s8.51,12.12,21.08,1.49"/><path class="cls-24" d="M112.49,1021.74s8.52,12.12,21.09,1.49"/><path class="cls-24" d="M134,1021.74s8.51,12.12,21.09,1.49"/><path class="cls-24" d="M155.41,1021.74s8.51,12.12,21.08,1.49"/><path class="cls-24" d="M176.86,1021.74s8.52,12.12,21.09,1.49"/><path class="cls-24" d="M198.32,1021.74s8.51,12.12,21.08,1.49"/><path class="cls-24" d="M219.77,1021.74s8.52,12.12,21.09,1.49"/><path class="cls-24" d="M241.23,1021.74s8.51,12.12,21.09,1.49"/><path class="cls-24" d="M262.69,1021.74s8.51,12.12,21.08,1.49"/><path class="cls-24" d="M284.14,1021.74s8.52,12.12,21.09,1.49"/><path class="cls-24" d="M305.6,1021.74s8.51,12.12,21.08,1.49"/><path class="cls-24" d="M327.05,1021.74s8.52,12.12,21.09,1.49"/><path class="cls-24" d="M348.51,1021.74s8.51,12.12,21.08,1.49"/><path class="cls-24" d="M368.8,1021.74s8.52,12.12,21.09,1.49"/><path class="cls-24" d="M36.85,1033s8.51,12.11,21.09,1.48"/><path class="cls-24" d="M58.31,1033s8.51,12.11,21.08,1.48"/><path class="cls-24" d="M79.76,1033s8.52,12.11,21.09,1.48"/><path class="cls-24" d="M101.22,1033s8.51,12.11,21.08,1.48"/><path class="cls-24" d="M122.67,1033s8.52,12.11,21.09,1.48"/><path class="cls-24" d="M144.13,1033s8.51,12.11,21.09,1.48"/><path class="cls-24" d="M165.59,1033s8.51,12.11,21.08,1.48"/><path class="cls-24" d="M187,1033s8.52,12.11,21.09,1.48"/><path class="cls-24" d="M208.5,1033s8.51,12.11,21.08,1.48"/><path class="cls-24" d="M230,1033s8.52,12.11,21.09,1.48"/><path class="cls-24" d="M251.41,1033s8.51,12.11,21.09,1.48"/><path class="cls-24" d="M272.87,1033s8.51,12.11,21.08,1.48"/><path class="cls-24" d="M294.32,1033s8.52,12.11,21.09,1.48"/><path class="cls-24" d="M315.78,1033s8.51,12.11,21.08,1.48"/><path class="cls-24" d="M337.23,1033s8.52,12.11,21.09,1.48"/><path class="cls-24" d="M357.53,1033s8.51,12.11,21.09,1.48"/><path class="cls-24" d="M45.55,1043s8.51,12.12,21.08,1.49"/><path class="cls-24" d="M26,1043.73s8.51,12.12,21.08,1.48"/><path class="cls-24" d="M67,1043s8.52,12.12,21.09,1.49"/><path class="cls-24" d="M88.46,1043s8.51,12.12,21.09,1.49"/><path class="cls-24" d="M109.92,1043s8.51,12.12,21.08,1.49"/><path class="cls-24" d="M131.37,1043s8.52,12.12,21.09,1.49"/><path class="cls-24" d="M152.83,1043s8.51,12.12,21.08,1.49"/><path class="cls-24" d="M174.28,1043s8.52,12.12,21.09,1.49"/><path class="cls-24" d="M195.74,1043s8.51,12.12,21.09,1.49"/><path class="cls-24" d="M217.2,1043s8.51,12.12,21.08,1.49"/><path class="cls-24" d="M238.65,1043s8.52,12.12,21.09,1.49"/><path class="cls-24" d="M260.11,1043s8.51,12.12,21.08,1.49"/><path class="cls-24" d="M281.56,1043s8.52,12.12,21.09,1.49"/><path class="cls-24" d="M303,1043s8.51,12.12,21.09,1.49"/><path class="cls-24" d="M324.48,1043s8.51,12.12,21.08,1.49"/><path class="cls-24" d="M345.93,1043s8.52,12.12,21.09,1.49"/><path class="cls-24" d="M366.23,1043s8.51,12.12,21.08,1.49"/><path class="cls-24" d="M33.63,1053.31s8.51,12.12,21.08,1.49"/><path class="cls-24" d="M55.08,1053.31s8.52,12.12,21.09,1.49"/><path class="cls-24" d="M76.54,1053.31s8.51,12.12,21.09,1.49"/><path class="cls-24" d="M98,1053.31s8.51,12.12,21.08,1.49"/><path class="cls-24" d="M119.45,1053.31s8.52,12.12,21.09,1.49"/><path class="cls-24" d="M140.91,1053.31s8.51,12.12,21.08,1.49"/><path class="cls-24" d="M162.36,1053.31s8.52,12.12,21.09,1.49"/><path class="cls-24" d="M183.82,1053.31s8.51,12.12,21.09,1.49"/><path class="cls-24" d="M205.28,1053.31s8.51,12.12,21.08,1.49"/><path class="cls-24" d="M226.73,1053.31s8.52,12.12,21.09,1.49"/><path class="cls-24" d="M248.19,1053.31s8.51,12.12,21.08,1.49"/><path class="cls-24" d="M269.64,1053.31s8.52,12.12,21.09,1.49"/><path class="cls-24" d="M291.1,1053.31s8.51,12.12,21.09,1.49"/><path class="cls-24" d="M312.56,1053.31s8.51,12.12,21.08,1.49"/><path class="cls-24" d="M334,1053.31s8.52,12.12,21.09,1.49"/><path class="cls-24" d="M354.31,1053.31s8.51,12.12,21.08,1.49"/><path class="cls-25" d="M350.76,1219.56c-18.17,4.58-36,4.81-53.28,0-3.12-32.55-3.24-68.28,0-107.54a177.52,177.52,0,0,1,53.28,0A609.17,609.17,0,0,1,350.76,1219.56Z"/><path class="cls-26" d="M345.75,1216.08c-18.17,4.32-35.95,4.53-53.28,0-3.11-30.74-3.23-64.47,0-101.54a187.93,187.93,0,0,1,53.28,0A543.22,543.22,0,0,1,345.75,1216.08Z"/><line class="cls-27" x1="319.42" y1="1114.64" x2="319.42" y2="1217.96"/><line class="cls-28" x1="292.51" y1="1165.29" x2="345.72" y2="1165.29"/><line class="cls-29" x1="318.48" y1="1112.25" x2="318.48" y2="1220.09"/><line class="cls-29" x1="289.14" y1="1163.15" x2="348.61" y2="1163.15"/><path class="cls-30" d="M145.87,1219.56c-18.17,4.58-35.95,4.81-53.28,0-3.11-32.55-3.23-68.28,0-107.54a177.52,177.52,0,0,1,53.28,0A608.22,608.22,0,0,1,145.87,1219.56Z"/><path class="cls-26" d="M140.87,1216.08c-18.18,4.32-36,4.53-53.29,0-3.11-30.74-3.23-64.47,0-101.54a188,188,0,0,1,53.29,0A543.22,543.22,0,0,1,140.87,1216.08Z"/><line class="cls-27" x1="114.54" y1="1114.64" x2="114.54" y2="1217.96"/><line class="cls-28" x1="87.63" y1="1165.29" x2="140.84" y2="1165.29"/><line class="cls-29" x1="113.6" y1="1112.25" x2="113.6" y2="1220.09"/><line class="cls-29" x1="84.25" y1="1163.15" x2="143.72" y2="1163.15"/><path class="cls-31" d="M202.06,1202.2h36.11A12.87,12.87,0,0,1,251,1215.07v108.73a0,0,0,0,1,0,0H189.19a0,0,0,0,1,0,0V1215.07A12.87,12.87,0,0,1,202.06,1202.2Z"/><path class="cls-32" d="M198.84,1200.42H235a12.87,12.87,0,0,1,12.87,12.87V1322a0,0,0,0,1,0,0H186a0,0,0,0,1,0,0V1213.29A12.87,12.87,0,0,1,198.84,1200.42Z"/><circle class="cls-33" cx="236.49" cy="1267.05" r="3.86"/><circle class="cls-34" cx="235.61" cy="1266.08" r="3.86"/><g class="cls-35"><rect class="cls-36" x="258.77" y="1262.66" width="129.99" height="57.5"/><line class="cls-36" x1="266.02" y1="1262.66" x2="266.02" y2="1319.68"/><line class="cls-36" x1="274.23" y1="1262.66" x2="274.23" y2="1319.68"/><line class="cls-36" x1="282.45" y1="1262.66" x2="282.45" y2="1319.68"/><line class="cls-36" x1="290.66" y1="1262.66" x2="290.66" y2="1319.68"/><line class="cls-36" x1="298.88" y1="1262.66" x2="298.88" y2="1319.68"/><line class="cls-36" x1="307.09" y1="1262.66" x2="307.09" y2="1319.68"/><line class="cls-36" x1="315.31" y1="1262.66" x2="315.31" y2="1319.68"/><line class="cls-36" x1="323.52" y1="1262.66" x2="323.52" y2="1319.68"/><line class="cls-36" x1="331.74" y1="1262.66" x2="331.74" y2="1319.68"/><line class="cls-36" x1="339.95" y1="1262.66" x2="339.95" y2="1319.68"/><line class="cls-36" x1="348.17" y1="1262.66" x2="348.17" y2="1319.68"/><line class="cls-36" x1="356.38" y1="1262.66" x2="356.38" y2="1319.68"/><line class="cls-36" x1="364.59" y1="1262.66" x2="364.59" y2="1319.68"/><line class="cls-36" x1="372.81" y1="1262.66" x2="372.81" y2="1319.68"/><line class="cls-36" x1="381.02" y1="1262.66" x2="381.02" y2="1319.68"/></g><rect class="cls-37" x="256.28" y="1261.62" width="129.99" height="57.5"/><line class="cls-37" x1="263.53" y1="1261.62" x2="263.53" y2="1318.64"/><line class="cls-37" x1="271.74" y1="1261.62" x2="271.74" y2="1318.64"/><line class="cls-37" x1="279.96" y1="1261.62" x2="279.96" y2="1318.64"/><line class="cls-37" x1="288.17" y1="1261.62" x2="288.17" y2="1318.64"/><line class="cls-37" x1="296.39" y1="1261.62" x2="296.39" y2="1318.64"/><line class="cls-37" x1="304.6" y1="1261.62" x2="304.6" y2="1318.64"/><line class="cls-37" x1="312.82" y1="1261.62" x2="312.82" y2="1318.64"/><line class="cls-37" x1="321.03" y1="1261.62" x2="321.03" y2="1318.64"/><line class="cls-37" x1="329.25" y1="1261.62" x2="329.25" y2="1318.64"/><line class="cls-37" x1="337.46" y1="1261.62" x2="337.46" y2="1318.64"/><line class="cls-37" x1="345.68" y1="1261.62" x2="345.68" y2="1318.64"/><line class="cls-37" x1="353.89" y1="1261.62" x2="353.89" y2="1318.64"/><line class="cls-37" x1="362.1" y1="1261.62" x2="362.1" y2="1318.64"/><line class="cls-37" x1="370.32" y1="1261.62" x2="370.32" y2="1318.64"/><line class="cls-37" x1="378.53" y1="1261.62" x2="378.53" y2="1318.64"/><g class="cls-35"><rect class="cls-36" x="47.76" y="1262.99" width="129.99" height="57.5"/><line class="cls-36" x1="55.01" y1="1262.99" x2="55.01" y2="1320.01"/><line class="cls-36" x1="63.23" y1="1262.99" x2="63.23" y2="1320.01"/><line class="cls-36" x1="71.44" y1="1262.99" x2="71.44" y2="1320.01"/><line class="cls-36" x1="79.66" y1="1262.99" x2="79.66" y2="1320.01"/><line class="cls-36" x1="87.87" y1="1262.99" x2="87.87" y2="1320.01"/><line class="cls-36" x1="96.09" y1="1262.99" x2="96.09" y2="1320.01"/><line class="cls-36" x1="104.3" y1="1262.99" x2="104.3" y2="1320.01"/><line class="cls-36" x1="112.51" y1="1262.99" x2="112.51" y2="1320.01"/><line class="cls-36" x1="120.73" y1="1262.99" x2="120.73" y2="1320.01"/><line class="cls-36" x1="128.94" y1="1262.99" x2="128.94" y2="1320.01"/><line class="cls-36" x1="137.16" y1="1262.99" x2="137.16" y2="1320.01"/><line class="cls-36" x1="145.37" y1="1262.99" x2="145.37" y2="1320.01"/><line class="cls-36" x1="153.59" y1="1262.99" x2="153.59" y2="1320.01"/><line class="cls-36" x1="161.8" y1="1262.99" x2="161.8" y2="1320.01"/><line class="cls-36" x1="170.02" y1="1262.99" x2="170.02" y2="1320.01"/></g><rect class="cls-37" x="45.27" y="1261.94" width="129.99" height="57.5"/><line class="cls-37" x1="52.52" y1="1261.94" x2="52.52" y2="1318.96"/><line class="cls-37" x1="60.74" y1="1261.94" x2="60.74" y2="1318.96"/><line class="cls-37" x1="68.95" y1="1261.94" x2="68.95" y2="1318.96"/><line class="cls-37" x1="77.17" y1="1261.94" x2="77.17" y2="1318.96"/><line class="cls-37" x1="85.38" y1="1261.94" x2="85.38" y2="1318.96"/><line class="cls-37" x1="93.6" y1="1261.94" x2="93.6" y2="1318.96"/><line class="cls-37" x1="101.81" y1="1261.94" x2="101.81" y2="1318.96"/><line class="cls-37" x1="110.02" y1="1261.94" x2="110.02" y2="1318.96"/><line class="cls-37" x1="118.24" y1="1261.94" x2="118.24" y2="1318.96"/><line class="cls-37" x1="126.45" y1="1261.94" x2="126.45" y2="1318.96"/><line class="cls-37" x1="134.67" y1="1261.94" x2="134.67" y2="1318.96"/><line class="cls-37" x1="142.88" y1="1261.94" x2="142.88" y2="1318.96"/><line class="cls-37" x1="151.1" y1="1261.94" x2="151.1" y2="1318.96"/><line class="cls-37" x1="159.31" y1="1261.94" x2="159.31" y2="1318.96"/><line class="cls-37" x1="167.53" y1="1261.94" x2="167.53" y2="1318.96"/><path class="cls-38" d="M390.61,1384.51a2546.73,2546.73,0,0,1-347.35,0,6.71,6.71,0,0,1-6.15-5.51,155.79,155.79,0,0,1,0-54.06,6.69,6.69,0,0,1,6.6-5.54h346.7a6.73,6.73,0,0,1,6.57,5.41c3.65,17.63,3.41,35.74-.18,54.27A6.71,6.71,0,0,1,390.61,1384.51Z"/><rect class="cls-39" x="180.54" y="1320.25" width="73.79" height="11.92"/><rect class="cls-40" x="254.05" y="1326.78" width="18.12" height="62.21" rx="3.87"/><rect class="cls-40" x="270.72" y="1326.53" width="18.12" height="62.21" rx="3.87"/><rect class="cls-40" x="288.36" y="1326.05" width="18.12" height="62.21" rx="3.87"/><rect class="cls-40" x="305.99" y="1326.05" width="18.12" height="62.21" rx="3.87"/><rect class="cls-40" x="324.11" y="1325.08" width="18.12" height="62.21" rx="3.87"/><rect class="cls-40" x="342.24" y="1324.36" width="18.12" height="62.21" rx="3.87"/><rect class="cls-40" x="359.15" y="1324.81" width="18.12" height="62.21" rx="3.87"/><rect class="cls-40" x="39.2" y="1325.68" width="18.12" height="62.21" rx="3.87"/><rect class="cls-40" x="55.88" y="1325.44" width="18.12" height="62.21" rx="3.87"/><rect class="cls-41" x="73.51" y="1324.96" width="18.12" height="63.52" rx="3.87"/><rect class="cls-42" x="91.15" y="1324.96" width="18.12" height="63.73" rx="3.87"/><rect class="cls-43" x="109.27" y="1323.99" width="18.12" height="64.62" rx="3.87"/><rect class="cls-44" x="127.39" y="1323.27" width="18.12" height="65.92" rx="3.87"/><rect class="cls-45" x="144.3" y="1323.72" width="18.12" height="66.11" rx="3.87"/><rect class="cls-46" x="162.49" y="1323.51" width="18.12" height="65.84" rx="3.87"/><rect class="cls-47" x="38.88" y="1318.27" width="18.39" height="10.35" rx="3.87"/><rect class="cls-47" x="56.54" y="1318.27" width="18.39" height="10.35" rx="3.87"/><rect class="cls-47" x="74.19" y="1318.27" width="18.39" height="10.35" rx="3.87"/><rect class="cls-47" x="91.84" y="1318.27" width="18.39" height="10.35" rx="3.87"/><rect class="cls-47" x="109.5" y="1318.27" width="18.39" height="10.35" rx="3.87"/><rect class="cls-47" x="127.15" y="1318.27" width="18.39" height="10.35" rx="3.87"/><rect class="cls-47" x="144.8" y="1318.27" width="18.39" height="10.35" rx="3.87"/><rect class="cls-47" x="162.46" y="1318.27" width="18.39" height="10.35" rx="3.87"/><rect class="cls-40" x="377.34" y="1324.6" width="18.12" height="62.21" rx="3.87"/><rect class="cls-48" x="178.4" y="1332.49" width="78.17" height="11.92"/><rect class="cls-49" x="177.21" y="1344.38" width="81.47" height="11.92"/><rect class="cls-50" x="175.47" y="1356.29" width="84.6" height="11.92"/><path class="cls-51" d="M262.29,1380.46a407.59,407.59,0,0,1-88.54,0v-11.92h88.54Z"/><path class="cls-52" d="M265.06,1392.05a449.49,449.49,0,0,1-93.07,0v-11.92a612.61,612.61,0,0,0,93.07,0Z"/><path class="cls-53" d="M220,1221.34h0a11.92,11.92,0,0,1,11.92,11.92v11.92a0,0,0,0,1,0,0H208.07a0,0,0,0,1,0,0v-11.92A11.92,11.92,0,0,1,220,1221.34Z"/><path class="cls-54" d="M216.74,1218.45h0a11.92,11.92,0,0,1,11.92,11.92v11.92a0,0,0,0,1,0,0H204.82a0,0,0,0,1,0,0v-11.92A11.92,11.92,0,0,1,216.74,1218.45Z"/><line class="cls-55" x1="216.72" y1="1218.77" x2="216.72" y2="1242.69"/><line class="cls-55" x1="204.98" y1="1230.61" x2="228.66" y2="1230.61"/><rect class="cls-47" x="253.73" y="1319.37" width="18.39" height="10.35" rx="3.87"/><rect class="cls-47" x="271.38" y="1319.37" width="18.39" height="10.35" rx="3.87"/><rect class="cls-47" x="289.03" y="1319.37" width="18.39" height="10.35" rx="3.87"/><rect class="cls-47" x="306.69" y="1319.37" width="18.39" height="10.35" rx="3.87"/><rect class="cls-47" x="324.34" y="1319.37" width="18.39" height="10.35" rx="3.87"/><rect class="cls-47" x="341.99" y="1319.37" width="18.39" height="10.35" rx="3.87"/><rect class="cls-47" x="359.65" y="1319.37" width="18.39" height="10.35" rx="3.87"/><rect class="cls-47" x="377.3" y="1319.37" width="18.39" height="10.35" rx="3.87"/><path class="cls-56" d="M283.29,1366.68c-2.58-14,3.55-21.44,13.11-26.22,6.31-13.46,16.4-15.13,28.84-9.44,14.5-3.1,26.83-1.39,34.08,11.54,13.3,3.09,18.46,11.65,17.83,24.12,4.72,10,1.57,20.45-11.53,24.12H309C285.91,1394.47,277.52,1373,283.29,1366.68Z"/><path class="cls-57" d="M278.57,1368.25c-2.58-14,3.55-21.44,13.11-26.22,6.31-13.45,16.4-15.13,28.84-9.44,14.5-3.1,26.83-1.39,34.08,11.54,13.3,3.09,18.46,11.66,17.83,24.12,4.72,10,1.58,20.45-11.53,24.12H304.27C281.2,1396,272.81,1374.54,278.57,1368.25Z"/><path class="cls-56" d="M60.53,1366.68c-2.59-14,3.54-21.44,13.11-26.22C80,1327,90,1325.33,102.48,1331c14.5-3.1,26.82-1.39,34.08,11.54,13.3,3.09,18.45,11.65,17.83,24.12,4.72,10,1.57,20.45-11.54,24.12H86.22C63.15,1394.47,54.76,1373,60.53,1366.68Z"/><path class="cls-57" d="M55.81,1368.25c-2.59-14,3.54-21.44,13.11-26.22,6.31-13.45,16.39-15.13,28.84-9.44,14.5-3.1,26.82-1.39,34.08,11.54,13.3,3.09,18.45,11.66,17.83,24.12,4.72,10,1.57,20.45-11.54,24.12H81.5C58.43,1396,50,1374.54,55.81,1368.25Z"/><path class="cls-9" d="M265,1306.61a4.48,4.48,0,0,0-5.57,1.17C257.61,1312,262.91,1306.1,265,1306.61Z"/><path class="cls-9" d="M258.69,1300.29a2.58,2.58,0,0,0-1.57,2.86C258.36,1305.36,257.68,1301,258.69,1300.29Z"/><path class="cls-9" d="M254.57,1296.12s2.13-.24,2.7,1.56C257.05,1299.93,255.83,1296.26,254.57,1296.12Z"/><path class="cls-9" d="M252.88,1304.66s4.91-.69,6.36,3.53C259.05,1313,256.14,1303.91,252.88,1304.66Z"/><path class="cls-58" d="M259,1313.61a7.66,7.66,0,0,0,.13-4.89,18.21,18.21,0,0,0-2-4.54l-.66-1.07a4,4,0,0,1-.59-1.36,4.11,4.11,0,0,1,.55-2.84,10.37,10.37,0,0,1,1.67-2.07l.92-.9a2.32,2.32,0,0,0,.38-.46c.05-.09.08-.17,0-.24a.47.47,0,0,0-.25-.17.58.58,0,0,1,.33.1.39.39,0,0,1,.07.37,2.4,2.4,0,0,1-.27.63c-.23.38-.48.73-.72,1.08a13.07,13.07,0,0,0-1.26,2.13,3.33,3.33,0,0,0-.31,2.11,3.06,3.06,0,0,0,.46,1l.67,1.12a14.62,14.62,0,0,1,1.8,5A6.63,6.63,0,0,1,259,1313.61Z"/><path class="cls-59" d="M258.3,1319.06h4.82a1.45,1.45,0,0,0,1.46-1.44l2-8a1.46,1.46,0,0,0-1.46-1.44h-9.19a1.45,1.45,0,0,0-1.46,1.44l2.36,8A1.45,1.45,0,0,0,258.3,1319.06Z"/><rect class="cls-4" x="253.41" y="1308.05" width="14.17" height="1.44" rx="0.72" transform="translate(521 2617.55) rotate(-180)"/><polygon class="cls-60" points="259.42 1292 258.33 1294 256.06 1293.6 257.65 1295.24 256.56 1297.24 258.64 1296.25 260.23 1297.89 259.92 1295.64 262 1294.66 259.73 1294.25 259.42 1292"/><polygon class="cls-61" points="258.2 1298 259.3 1296.19 261.39 1296.66 259.98 1295.07 261.09 1293.25 259.11 1294.08 257.71 1292.48 257.89 1294.59 255.92 1295.42 258.01 1295.89 258.2 1298"/><ellipse class="cls-62" cx="258.84" cy="1295.18" rx="0.69" ry="0.68"/><g class="cls-63"><rect x="231.6" y="1117.74" width="32.62" height="13.05" rx="6.52"/><rect x="162.02" y="1144.32" width="32.62" height="13.05" rx="6.52"/><rect x="48.94" y="1175.73" width="32.62" height="13.05" rx="6.52"/><rect x="60.54" y="1225.5" width="32.62" height="13.05" rx="6.52"/><rect x="42.66" y="1246.28" width="32.62" height="13.05" rx="6.52"/><path d="M388.65,1103.24H369.08a6.54,6.54,0,0,1-6.53-6.52h0a6.54,6.54,0,0,1,6.53-6.52h19.57c3.59,0,3.3,3.34,3.3,6.92h0C392,1100.71,392.24,1103.24,388.65,1103.24Z"/><rect x="323.9" y="1240.96" width="32.62" height="13.05" rx="6.52"/><path d="M392,1223.08H372.46a6.53,6.53,0,0,1-6.52-6.52h0a6.53,6.53,0,0,1,6.52-6.52H392c3.59,0,.24,1.56.24,5.15l-.08,1C392.19,1219.83,392.27,1216.56,392,1223.08Z"/><rect x="254.8" y="1194.57" width="32.62" height="13.05" rx="6.52"/></g><path class="cls-64" d="M167.74,1306.13a4.47,4.47,0,0,1,5.51,1.14C175,1311.34,169.77,1305.63,167.74,1306.13Z"/><path class="cls-64" d="M174.06,1298.47a2.5,2.5,0,0,1,2.1-2.39C178.59,1296.54,174.4,1297.28,174.06,1298.47Z"/><path class="cls-64" d="M178.89,1293.94s-2.11-.24-2.67,1.52C176.44,1297.66,177.64,1294.08,178.89,1293.94Z"/><path class="cls-64" d="M179.5,1304.22s-4.87-.67-6.3,3.45C173.39,1312.4,176.27,1303.49,179.5,1304.22Z"/><path class="cls-65" d="M175,1313a7.5,7.5,0,0,1-2.27-5.61,5.85,5.85,0,0,1,1.1-3,8.85,8.85,0,0,1,2.3-2.19l1.27-.79a7,7,0,0,0,1.06-.87,1.91,1.91,0,0,0,.71-2.12,5,5,0,0,0-1.84-2,18.53,18.53,0,0,0-2.57-1.49,11.27,11.27,0,0,1,2.88,1,5.11,5.11,0,0,1,2.39,2.12,2.41,2.41,0,0,1,.16,1.81,3.88,3.88,0,0,1-.9,1.48,12.5,12.5,0,0,1-2.49,1.86,6.56,6.56,0,0,0-3.16,4.33A8.55,8.55,0,0,0,175,1313Z"/><path class="cls-59" d="M175.69,1318.28h-4.78a1.43,1.43,0,0,1-1.44-1.4l-2-7.83a1.43,1.43,0,0,1,1.44-1.41H178a1.43,1.43,0,0,1,1.45,1.41l-2.34,7.83A1.43,1.43,0,0,1,175.69,1318.28Z"/><rect class="cls-4" x="166.49" y="1307.54" width="14.03" height="1.41" rx="0.58"/><polygon class="cls-62" points="174.58 1291.87 175.66 1293.82 177.9 1293.43 176.32 1295.03 177.41 1296.98 175.35 1296.02 173.77 1297.62 174.08 1295.42 172.03 1294.46 174.27 1294.06 174.58 1291.87"/><polygon class="cls-66" points="175.79 1297.72 174.69 1295.95 172.62 1296.42 174.02 1294.86 172.92 1293.09 174.88 1293.9 176.27 1292.34 176.09 1294.39 178.04 1295.2 175.97 1295.67 175.79 1297.72"/><ellipse class="cls-62" cx="175.15" cy="1294.97" rx="0.68" ry="0.66"/><rect class="cls-67" x="230.19" y="1115.81" width="32.62" height="13.05" rx="6.52"/><rect class="cls-39" x="160.6" y="1142.39" width="32.62" height="13.05" rx="6.52"/><rect class="cls-68" x="47.53" y="1173.79" width="32.62" height="13.05" rx="6.52"/><rect class="cls-39" x="59.13" y="1223.57" width="32.62" height="13.05" rx="6.52"/><rect class="cls-39" x="41.25" y="1244.34" width="32.62" height="13.05" rx="6.52"/><rect class="cls-68" x="361.14" y="1088.26" width="32.62" height="13.05" rx="6.52"/><rect class="cls-69" x="322.48" y="1239.03" width="32.62" height="13.05" rx="6.52"/><rect class="cls-39" x="364.52" y="1208.1" width="32.62" height="13.05" rx="6.52"/><rect class="cls-39" x="253.38" y="1192.64" width="32.62" height="13.05" rx="6.52"/></g><g id="Layer_3" data-name="Layer 3"><polygon class="cls-70" points="359.09 321.82 359.12 321.78 359.07 321.78 216 73.98 72.93 321.78 72.88 321.78 72.91 321.82 72.88 321.87 72.93 321.87 216 569.67 359.07 321.87 359.12 321.87 359.09 321.82"/><path d="M358.69,321.82a.68.68,0,0,1,.08-.24l.35.6h-.28l-.12-.2L214.27,75h3.46l-142,248.4L74.79,325H72.88l2.77-4.8,0,0,.92,1.59-.92,1.61,0,.05-2.77-4.8h1.89l.94,1.61,143.75,247.4h-6.92l146.18-246,.12-.2h.28l-.35.6A.73.73,0,0,1,358.69,321.82Zm.8,0a.25.25,0,0,0,0-.15l-.35.6h-.05l.34-.2-140,249.6L216,577.78l-3.5-6.11L70.16,323.47l2.77,1.6h-.05l-5.55,0,2.78-4.78,0,0v3.2l0,0-2.76-4.83,5.53,0h.05l-2.77,1.6L214.27,73,216,70l1.71,3,141.68,248.6-.34-.2h.05l.35.6A.3.3,0,0,0,359.49,321.82Z"/></g></svg>