<svg xmlns="http://www.w3.org/2000/svg" viewBox="0 0 432 1392.89"><defs><style>.cls-1{fill:#a4a4a4;}.cls-2{fill:#111;}.cls-2,.cls-55{opacity:0.35;}.cls-3{fill:#acacac;}.cls-4{opacity:0.36;}.cls-5{opacity:0.37;}.cls-6{fill:#fff;}.cls-7,.cls-72{fill:#353535;}.cls-8{fill:#5d5d5d;}.cls-9{fill:#373737;}.cls-10{fill:#4b4b4b;}.cls-11{fill:#505050;}.cls-12{fill:#1c1c1c;}.cls-13{fill:#272727;}.cls-14{fill:#2c2c2c;}.cls-15{fill:#202020;}.cls-16{fill:#303030;}.cls-17{fill:#101010;}.cls-18{fill:#1a1a1a;}.cls-19{fill:#333;}.cls-20{fill:#212121;}.cls-21,.cls-61{fill:#535353;}.cls-21,.cls-23,.cls-24,.cls-27,.cls-28,.cls-31,.cls-32,.cls-69,.cls-70,.cls-71,.cls-72,.cls-73{stroke:#000;}.cls-21,.cls-23,.cls-24,.cls-26,.cls-27,.cls-28,.cls-29,.cls-30,.cls-31,.cls-32,.cls-33,.cls-35,.cls-37,.cls-39,.cls-40,.cls-41,.cls-42,.cls-43,.cls-44,.cls-45,.cls-46,.cls-47,.cls-48,.cls-49,.cls-50,.cls-51,.cls-52,.cls-53,.cls-54,.cls-56,.cls-57,.cls-69,.cls-70,.cls-71,.cls-72,.cls-73{stroke-miterlimit:10;}.cls-22{opacity:0.19;}.cls-24{stroke-width:0.96px;}.cls-25{opacity:0.2;}.cls-26,.cls-27,.cls-28,.cls-29,.cls-30,.cls-31,.cls-32,.cls-33,.cls-56,.cls-57{fill:#a0a0a0;}.cls-26,.cls-29,.cls-30,.cls-33,.cls-37,.cls-56,.cls-57{stroke:#dadada;}.cls-26{stroke-width:3.15px;}.cls-27{stroke-width:4.95px;}.cls-27,.cls-31{opacity:0.09;}.cls-28{stroke-width:4.26px;}.cls-28,.cls-32{opacity:0.1;}.cls-29{stroke-width:4.2px;}.cls-30{stroke-width:4.17px;}.cls-31{stroke-width:4.91px;}.cls-32{stroke-width:3.85px;}.cls-33{stroke-width:4.17px;}.cls-34{opacity:0.39;}.cls-35{fill:#262626;stroke-width:2px;}.cls-35,.cls-41,.cls-42,.cls-43,.cls-44,.cls-45,.cls-46,.cls-47,.cls-48,.cls-49,.cls-50,.cls-51,.cls-52,.cls-53,.cls-54{stroke:#333;}.cls-36{opacity:0.38;}.cls-37{fill:#323232;stroke-width:0.66px;}.cls-38{opacity:0.44;}.cls-39,.cls-40{fill:none;}.cls-39{stroke:#1a1a1a;stroke-width:3.7px;}.cls-40{stroke:#464646;stroke-width:4px;}.cls-41,.cls-50,.cls-51,.cls-52,.cls-53,.cls-54{fill:#414141;}.cls-41{stroke-width:0.74px;}.cls-42,.cls-43,.cls-44,.cls-45,.cls-46,.cls-47,.cls-48{fill:#1e1e1e;}.cls-42{stroke-width:0.71px;}.cls-43{stroke-width:0.72px;}.cls-44{stroke-width:0.72px;}.cls-45{stroke-width:0.72px;}.cls-46{stroke-width:0.73px;}.cls-47{stroke-width:0.73px;}.cls-48{stroke-width:0.73px;}.cls-49{fill:#363636;stroke-width:0.29px;}.cls-50{stroke-width:0.76px;}.cls-51{stroke-width:0.78px;}.cls-52{stroke-width:0.79px;}.cls-53{stroke-width:0.81px;}.cls-54{stroke-width:0.83px;}.cls-55{fill:#050505;}.cls-56{stroke-width:3.43px;}.cls-57{stroke-width:2.29px;}.cls-58,.cls-71{fill:#424242;}.cls-59{fill:#6e6e6e;}.cls-60{fill:#636363;}.cls-62{fill:#4a4a4a;}.cls-63{fill:#5e5e5e;}.cls-64{fill:#949494;}.cls-65{opacity:0.3;}.cls-66,.cls-70{fill:#3c3c3c;}.cls-67{fill:#4e4e4e;}.cls-68{fill:#ccc;}.cls-69{fill:#404040;}.cls-73{fill:#4c4c4c;}</style></defs><title>houseGrayScale</title><g id="Layer_5" data-name="Layer 5"><path class="cls-1" d="M388.74,1366.74c-115,14.88-229.55,14.25-343.58,0-4.94-134.52-4.73-268.36,0-400.56H388.74C395.4,1087.34,394.84,1222.15,388.74,1366.74Z"/><polygon class="cls-2" points="392.79 1071.51 57.43 1070.94 41.09 1048.28 392.31 1052.47 392.79 1071.51"/><path class="cls-3" d="M133.22,906.46H86.82c-2.15-29.58-2.44-57.94,0-84.55h46.4A583.38,583.38,0,0,1,133.22,906.46Z"/><path class="cls-4" d="M133.35,825.3l-42.75.13c-2.66,0-4.83-3.26-4.83-6.49h0c0-3.23,2.15-5.85,4.81-5.85,13.86,1.18,27.08,1.38,39.27,0,2.66,0,4.81,2.62,4.81,5.85l-1.24.67Z"/><path class="cls-3" d="M133.51,822.68H85.77a5.85,5.85,0,0,1-5.85-5.85h0A5.85,5.85,0,0,1,85.77,811c16.85,1.18,32.92,1.38,47.74,0a5.85,5.85,0,0,1,5.85,5.85h0A5.85,5.85,0,0,1,133.51,822.68Z"/><g class="cls-5"><rect class="cls-6" x="87.21" y="827.98" width="11.5" height="6.14" rx="3.07"/><rect class="cls-6" x="97.69" y="836.93" width="11.5" height="6.14" rx="3.07"/><rect class="cls-6" x="110.34" y="829.16" width="11.5" height="6.14" rx="3.07"/><path class="cls-6" d="M133.06,841.24H127.7a3.07,3.07,0,0,1-3.07-3.06h0a3.08,3.08,0,0,1,3.07-3.07h5.36c1.69,0,1.41,1.12,1.41,2.81h0C134.47,839.61,134.75,841.24,133.06,841.24Z"/><rect class="cls-6" x="105.45" y="847.38" width="11.5" height="6.14" rx="3.07"/><rect class="cls-6" x="87.34" y="844.31" width="11.5" height="6.14" rx="3.07"/><rect class="cls-6" x="121.27" y="845.65" width="11.5" height="6.14" rx="3.07"/><rect class="cls-6" x="86.76" y="863.2" width="11.69" height="6.23" rx="3.12"/><rect class="cls-6" x="123.29" y="864.83" width="11.5" height="6.14" rx="3.07"/><rect class="cls-6" x="102.1" y="866.62" width="12.46" height="6.64" rx="3.32"/><path class="cls-6" d="M133.45,889.46h-5.37A3.07,3.07,0,0,1,125,886.4h0a3.08,3.08,0,0,1,3.07-3.07h5.37c1.68,0,1.12,1.12,1.12,2.81h0C134.57,887.83,135.13,889.46,133.45,889.46Z"/><rect class="cls-6" x="90.79" y="882.66" width="12.39" height="6.61" rx="3.3"/><rect class="cls-6" x="85.99" y="894.45" width="11.5" height="6.14" rx="3.07"/><rect class="cls-6" x="104.4" y="897.42" width="11.5" height="6.14" rx="3.07"/><rect class="cls-6" x="111.78" y="887.64" width="11.5" height="6.14" rx="3.07"/><rect class="cls-6" x="121.66" y="898.89" width="11.8" height="6.3" rx="3.15"/></g><rect class="cls-7" x="86.44" y="827.41" width="11.5" height="6.14" rx="3.07"/><rect class="cls-8" x="96.92" y="836.35" width="11.5" height="6.14" rx="3.07"/><rect class="cls-9" x="109.58" y="828.59" width="11.5" height="6.14" rx="3.07"/><rect class="cls-10" x="123.86" y="834.53" width="11.5" height="6.14" rx="3.07"/><rect class="cls-11" x="104.69" y="846.8" width="11.5" height="6.14" rx="3.07"/><rect class="cls-12" x="86.57" y="843.74" width="11.5" height="6.14" rx="3.07"/><rect class="cls-13" x="120.51" y="845.08" width="11.5" height="6.14" rx="3.07"/><rect class="cls-14" x="85.99" y="862.62" width="11.69" height="6.23" rx="3.12"/><rect class="cls-15" x="122.52" y="864.25" width="11.5" height="6.14" rx="3.07"/><rect class="cls-16" x="101.33" y="866.04" width="12.46" height="6.64" rx="3.32"/><rect class="cls-15" x="124.24" y="882.75" width="11.5" height="6.14" rx="3.07"/><rect class="cls-17" x="90.02" y="882.08" width="12.39" height="6.61" rx="3.3"/><rect class="cls-18" x="85.23" y="893.87" width="11.5" height="6.14" rx="3.07"/><rect class="cls-19" x="103.63" y="896.84" width="11.5" height="6.14" rx="3.07"/><rect class="cls-20" x="111.01" y="887.07" width="11.5" height="6.14" rx="3.07"/><rect class="cls-12" x="120.89" y="898.31" width="11.8" height="6.3" rx="3.15"/><path class="cls-21" d="M409.8,1059.28H22.2c5.29-60.13,15-121.13,36.44-182.94H374.91C391.33,933.25,402.53,994.6,409.8,1059.28Z"/><g class="cls-22"><path class="cls-23" d="M55.81,885s8.52,12.12,21.09,1.49"/><path class="cls-23" d="M77.27,885s8.51,12.12,21.08,1.49"/><path class="cls-23" d="M98.72,885s8.52,12.12,21.09,1.49"/><path class="cls-23" d="M120.18,885s8.51,12.12,21.09,1.49"/><path class="cls-23" d="M141.63,885s8.52,12.12,21.09,1.49"/><path class="cls-23" d="M163.09,885s8.52,12.12,21.09,1.49"/><path class="cls-23" d="M184.55,885s8.51,12.12,21.08,1.49"/><path class="cls-23" d="M206,885s8.52,12.12,21.09,1.49"/><path class="cls-23" d="M227.46,885s8.51,12.12,21.08,1.49"/><path class="cls-23" d="M248.91,885s8.52,12.12,21.09,1.49"/><path class="cls-23" d="M270.37,885s8.51,12.12,21.09,1.49"/><path class="cls-23" d="M291.83,885s8.51,12.12,21.08,1.49"/><path class="cls-23" d="M313.28,885s8.52,12.12,21.09,1.49"/><path class="cls-23" d="M334.74,885s8.51,12.12,21.08,1.49"/><path class="cls-23" d="M356.19,885s8.52,12.12,21.09,1.49"/><path class="cls-23" d="M377.46,1050.55s8.51,12.12,21.08,1.49"/><path class="cls-24" d="M384.87,1039.6s7.89,12.11,19.55,1.48"/><path class="cls-23" d="M381,1028.64s8.51,12.12,21.09,1.49"/><path class="cls-23" d="M379.07,1006.41s8.51,12.12,21.08,1.49"/><path class="cls-23" d="M53.88,896.24s8.51,12.12,21.08,1.49"/><path class="cls-23" d="M67.6,895.92S76.12,908,88.69,897.4"/><path class="cls-23" d="M89.06,895.92s8.51,12.12,21.08,1.48"/><path class="cls-23" d="M110.51,895.92S119,908,131.6,897.4"/><path class="cls-23" d="M132,895.92s8.51,12.12,21.09,1.48"/><path class="cls-23" d="M153.43,895.92s8.51,12.12,21.08,1.48"/><path class="cls-23" d="M174.88,895.92S183.4,908,196,897.4"/><path class="cls-23" d="M196.34,895.92s8.51,12.12,21.08,1.48"/><path class="cls-23" d="M217.79,895.92s8.52,12.12,21.09,1.48"/><path class="cls-23" d="M239.25,895.92s8.51,12.12,21.09,1.48"/><path class="cls-23" d="M260.71,895.92s8.51,12.12,21.08,1.48"/><path class="cls-23" d="M282.16,895.92s8.52,12.12,21.09,1.48"/><path class="cls-23" d="M303.62,895.92s8.51,12.12,21.08,1.48"/><path class="cls-23" d="M325.07,895.92s8.52,12.12,21.09,1.48"/><path class="cls-23" d="M346.53,895.92S355,908,367.62,897.4"/><path class="cls-23" d="M53.88,907.19s8.51,12.12,21.08,1.49"/><path class="cls-23" d="M75.33,907.19s8.52,12.12,21.09,1.49"/><path class="cls-23" d="M96.79,907.19s8.51,12.12,21.09,1.49"/><path class="cls-23" d="M118.25,907.19s8.51,12.12,21.08,1.49"/><path class="cls-23" d="M139.7,907.19s8.52,12.12,21.09,1.49"/><path class="cls-23" d="M161.16,907.19s8.51,12.12,21.08,1.49"/><path class="cls-23" d="M182.61,907.19s8.52,12.12,21.09,1.49"/><path class="cls-23" d="M204.07,907.19s8.51,12.12,21.09,1.49"/><path class="cls-23" d="M225.53,907.19s8.51,12.12,21.08,1.49"/><path class="cls-23" d="M247,907.19s8.52,12.12,21.09,1.49"/><path class="cls-23" d="M268.44,907.19s8.51,12.12,21.08,1.49"/><path class="cls-23" d="M289.89,907.19s8.52,12.12,21.09,1.49"/><path class="cls-23" d="M311.35,907.19s8.51,12.12,21.09,1.49"/><path class="cls-23" d="M332.81,907.19s8.51,12.12,21.08,1.49"/><path class="cls-23" d="M354.26,907.19s8.52,12.12,21.09,1.49"/><path class="cls-23" d="M45.51,916.86S54,929,66.6,918.34"/><path class="cls-23" d="M63.09,917.82s8.52,12.12,21.09,1.49"/><path class="cls-23" d="M84.55,917.82s8.51,12.12,21.08,1.49"/><path class="cls-23" d="M106,917.82s8.52,12.12,21.09,1.49"/><path class="cls-23" d="M374.88,984s8.51,12.12,21.09,1.49"/><path class="cls-23" d="M127.46,917.82s8.51,12.12,21.09,1.49"/><path class="cls-23" d="M148.92,917.82s8.51,12.12,21.08,1.49"/><path class="cls-23" d="M170.37,917.82s8.52,12.12,21.09,1.49"/><path class="cls-23" d="M191.83,917.82s8.51,12.12,21.08,1.49"/><path class="cls-23" d="M213.28,917.82s8.52,12.12,21.09,1.49"/><path class="cls-23" d="M234.74,917.82s8.51,12.12,21.09,1.49"/><path class="cls-23" d="M256.2,917.82s8.51,12.12,21.08,1.49"/><path class="cls-23" d="M277.65,917.82s8.52,12.12,21.09,1.49"/><path class="cls-23" d="M299.11,917.82s8.51,12.12,21.08,1.49"/><path class="cls-23" d="M320.56,917.82s8.52,12.12,21.09,1.49"/><path class="cls-23" d="M342,917.82s8.51,12.12,21.09,1.49"/><path class="cls-23" d="M362.32,917.82s8.51,12.12,21.08,1.49"/><path class="cls-23" d="M46,929.42s8.51,12.12,21.08,1.49"/><path class="cls-23" d="M73.4,929.42s8.52,12.12,21.09,1.49"/><path class="cls-23" d="M94.86,929.42s8.51,12.12,21.08,1.49"/><path class="cls-23" d="M116.31,929.42s8.52,12.12,21.09,1.49"/><path class="cls-23" d="M137.77,929.42s8.51,12.12,21.09,1.49"/><path class="cls-23" d="M159.23,929.42s8.51,12.12,21.08,1.49"/><path class="cls-23" d="M180.68,929.42s8.52,12.12,21.09,1.49"/><path class="cls-23" d="M202.14,929.42s8.51,12.12,21.08,1.49"/><path class="cls-23" d="M223.59,929.42s8.52,12.12,21.09,1.49"/><path class="cls-23" d="M245.05,929.42s8.51,12.12,21.08,1.49"/><path class="cls-23" d="M266.5,929.42s8.52,12.12,21.09,1.49"/><path class="cls-23" d="M288,929.42s8.52,12.12,21.09,1.49"/><path class="cls-23" d="M309.42,929.42s8.51,12.12,21.08,1.49"/><path class="cls-23" d="M330.87,929.42s8.52,12.12,21.09,1.49"/><path class="cls-23" d="M352.33,929.42s8.51,12.12,21.08,1.49"/><path class="cls-23" d="M41.11,938.76s8.52,12.12,21.09,1.49"/><path class="cls-23" d="M63.74,939.41s8.51,12.12,21.08,1.48"/><path class="cls-23" d="M85.19,939.41s8.52,12.12,21.09,1.48"/><path class="cls-23" d="M106.65,939.41s8.51,12.12,21.08,1.48"/><path class="cls-23" d="M128.1,939.41s8.52,12.12,21.09,1.48"/><path class="cls-23" d="M149.56,939.41s8.51,12.12,21.09,1.48"/><path class="cls-23" d="M171,939.41s8.51,12.12,21.08,1.48"/><path class="cls-23" d="M192.47,939.41s8.52,12.12,21.09,1.48"/><path class="cls-23" d="M213.93,939.41s8.51,12.12,21.08,1.48"/><path class="cls-23" d="M235.38,939.41s8.52,12.12,21.09,1.48"/><path class="cls-23" d="M256.84,939.41s8.51,12.12,21.09,1.48"/><path class="cls-23" d="M278.3,939.41s8.51,12.12,21.08,1.48"/><path class="cls-23" d="M299.75,939.41s8.52,12.12,21.09,1.48"/><path class="cls-23" d="M321.21,939.41s8.51,12.12,21.08,1.48"/><path class="cls-23" d="M342.66,939.41s8.52,12.12,21.09,1.48"/><path class="cls-23" d="M363,939.41s8.51,12.12,21.09,1.48"/><path class="cls-23" d="M47,949.39s8.52,12.12,21.09,1.49"/><path class="cls-23" d="M71.47,949.39s8.51,12.12,21.08,1.49"/><path class="cls-23" d="M92.92,949.39s8.52,12.12,21.09,1.49"/><path class="cls-23" d="M114.38,949.39s8.51,12.12,21.09,1.49"/><path class="cls-23" d="M135.84,949.39s8.51,12.12,21.08,1.49"/><path class="cls-23" d="M157.29,949.39s8.52,12.12,21.09,1.49"/><path class="cls-23" d="M178.75,949.39s8.51,12.12,21.08,1.49"/><path class="cls-23" d="M200.2,949.39s8.52,12.12,21.09,1.49"/><path class="cls-23" d="M221.66,949.39s8.51,12.12,21.09,1.49"/><path class="cls-23" d="M243.12,949.39s8.51,12.12,21.08,1.49"/><path class="cls-23" d="M264.57,949.39s8.52,12.12,21.09,1.49"/><path class="cls-23" d="M286,949.39s8.51,12.12,21.08,1.49"/><path class="cls-23" d="M307.48,949.39s8.52,12.12,21.09,1.49"/><path class="cls-23" d="M328.94,949.39s8.51,12.12,21.09,1.49"/><path class="cls-23" d="M350.4,949.39s8.51,12.12,21.08,1.49"/><path class="cls-23" d="M367.47,949.39s8.51,12.12,21.09,1.49"/><path class="cls-23" d="M38.57,960s8.51,12.11,21.09,1.48"/><path class="cls-23" d="M30.36,1017.37s8.52,12.12,21.09,1.48"/><path class="cls-23" d="M34.23,993.21s8.51,12.11,21.08,1.48"/><path class="cls-23" d="M60.19,959.7s8.52,12.12,21.09,1.49"/><path class="cls-23" d="M81.65,959.7s8.51,12.12,21.09,1.49"/><path class="cls-23" d="M103.11,959.7s8.51,12.12,21.08,1.49"/><path class="cls-23" d="M124.56,959.7s8.52,12.12,21.09,1.49"/><path class="cls-23" d="M146,959.7s8.51,12.12,21.08,1.49"/><path class="cls-23" d="M167.47,959.7s8.52,12.12,21.09,1.49"/><path class="cls-23" d="M188.93,959.7s8.51,12.12,21.09,1.49"/><path class="cls-23" d="M210.38,959.7s8.52,12.12,21.09,1.49"/><path class="cls-23" d="M231.84,959.7s8.52,12.12,21.09,1.49"/><path class="cls-23" d="M253.3,959.7s8.51,12.12,21.08,1.49"/><path class="cls-23" d="M274.75,959.7s8.52,12.12,21.09,1.49"/><path class="cls-23" d="M296.21,959.7s8.51,12.12,21.08,1.49"/><path class="cls-23" d="M317.66,959.7s8.52,12.12,21.09,1.49"/><path class="cls-23" d="M339.12,959.7s8.51,12.12,21.09,1.49"/><path class="cls-23" d="M359.42,959.7s8.51,12.12,21.08,1.49"/><path class="cls-23" d="M46.72,971.3s8.52,12.12,21.09,1.49"/><path class="cls-23" d="M70.18,971.3s8.51,12.12,21.09,1.49"/><path class="cls-23" d="M91.64,971.3s8.51,12.12,21.08,1.49"/><path class="cls-23" d="M113.09,971.3s8.52,12.12,21.09,1.49"/><path class="cls-23" d="M134.55,971.3s8.51,12.12,21.08,1.49"/><path class="cls-23" d="M156,971.3s8.52,12.12,21.09,1.49"/><path class="cls-23" d="M177.46,971.3s8.51,12.12,21.09,1.49"/><path class="cls-23" d="M198.92,971.3s8.51,12.12,21.08,1.49"/><path class="cls-23" d="M220.37,971.3s8.52,12.12,21.09,1.49"/><path class="cls-23" d="M241.83,971.3s8.51,12.12,21.08,1.49"/><path class="cls-23" d="M263.28,971.3s8.52,12.12,21.09,1.49"/><path class="cls-23" d="M284.74,971.3s8.51,12.12,21.09,1.49"/><path class="cls-23" d="M306.2,971.3s8.51,12.12,21.08,1.49"/><path class="cls-23" d="M327.65,971.3s8.52,12.12,21.09,1.49"/><path class="cls-23" d="M349.11,971.3s8.51,12.12,21.08,1.49"/><path class="cls-23" d="M369.4,971.3s8.52,12.12,21.09,1.49"/><path class="cls-23" d="M38.42,982.58s8.51,12.11,21.08,1.48"/><path class="cls-23" d="M59.87,982.58s8.52,12.11,21.09,1.48"/><path class="cls-23" d="M81.33,982.58s8.51,12.11,21.08,1.48"/><path class="cls-23" d="M102.78,982.58s8.52,12.11,21.09,1.48"/><path class="cls-23" d="M124.24,982.58s8.51,12.11,21.09,1.48"/><path class="cls-23" d="M145.69,982.58s8.52,12.11,21.09,1.48"/><path class="cls-23" d="M167.15,982.58s8.52,12.11,21.09,1.48"/><path class="cls-23" d="M188.61,982.58s8.51,12.11,21.08,1.48"/><path class="cls-23" d="M210.06,982.58s8.52,12.11,21.09,1.48"/><path class="cls-23" d="M231.52,982.58s8.51,12.11,21.08,1.48"/><path class="cls-23" d="M253,982.58s8.52,12.11,21.09,1.48"/><path class="cls-23" d="M274.43,982.58s8.51,12.11,21.09,1.48"/><path class="cls-23" d="M295.89,982.58s8.51,12.11,21.08,1.48"/><path class="cls-23" d="M317.34,982.58s8.52,12.11,21.09,1.48"/><path class="cls-23" d="M338.8,982.58s8.51,12.11,21.08,1.48"/><path class="cls-23" d="M359.09,982.58s8.52,12.11,21.09,1.48"/><path class="cls-23" d="M52.19,994.49s8.51,12.12,21.08,1.49"/><path class="cls-23" d="M72.43,995.46S81,1007.58,93.52,997"/><path class="cls-23" d="M93.89,995.46S102.4,1007.58,115,997"/><path class="cls-23" d="M115.35,995.46s8.51,12.12,21.08,1.49"/><path class="cls-23" d="M136.8,995.46s8.52,12.12,21.09,1.49"/><path class="cls-23" d="M158.26,995.46s8.51,12.12,21.08,1.49"/><path class="cls-23" d="M179.71,995.46s8.52,12.12,21.09,1.49"/><path class="cls-23" d="M201.17,995.46s8.51,12.12,21.09,1.49"/><path class="cls-23" d="M222.63,995.46s8.51,12.12,21.08,1.49"/><path class="cls-23" d="M244.08,995.46s8.52,12.12,21.09,1.49"/><path class="cls-23" d="M265.54,995.46s8.51,12.12,21.08,1.49"/><path class="cls-23" d="M287,995.46s8.52,12.12,21.09,1.49"/><path class="cls-23" d="M308.45,995.46s8.51,12.12,21.09,1.49"/><path class="cls-23" d="M329.91,995.46s8.51,12.12,21.08,1.49"/><path class="cls-23" d="M351.36,995.46s8.52,12.12,21.09,1.49"/><path class="cls-23" d="M371.66,995.46s8.51,12.12,21.08,1.49"/><path class="cls-23" d="M37.45,1006.09s8.51,12.12,21.08,1.49"/><path class="cls-23" d="M58.9,1006.09s8.52,12.12,21.09,1.49"/><path class="cls-23" d="M80.36,1006.09s8.51,12.12,21.09,1.49"/><path class="cls-23" d="M101.82,1006.09s8.51,12.12,21.08,1.49"/><path class="cls-23" d="M123.27,1006.09s8.52,12.12,21.09,1.49"/><path class="cls-23" d="M144.73,1006.09s8.51,12.12,21.08,1.49"/><path class="cls-23" d="M166.18,1006.09s8.52,12.12,21.09,1.49"/><path class="cls-23" d="M187.64,1006.09s8.51,12.12,21.09,1.49"/><path class="cls-23" d="M209.1,1006.09s8.51,12.12,21.08,1.49"/><path class="cls-23" d="M230.55,1006.09s8.52,12.12,21.09,1.49"/><path class="cls-23" d="M252,1006.09s8.51,12.12,21.08,1.49"/><path class="cls-23" d="M273.46,1006.09s8.52,12.12,21.09,1.49"/><path class="cls-23" d="M294.92,1006.09s8.51,12.12,21.09,1.49"/><path class="cls-23" d="M316.38,1006.09s8.51,12.12,21.08,1.49"/><path class="cls-23" d="M337.83,1006.09s8.52,12.12,21.09,1.49"/><path class="cls-23" d="M358.13,1006.09s8.51,12.12,21.08,1.49"/><path class="cls-23" d="M47.76,1018s8.51,12.12,21.08,1.49"/><path class="cls-23" d="M69.21,1018s8.52,12.12,21.09,1.49"/><path class="cls-23" d="M90.67,1018s8.51,12.12,21.09,1.49"/><path class="cls-23" d="M112.13,1018s8.51,12.12,21.08,1.49"/><path class="cls-23" d="M133.58,1018s8.52,12.12,21.09,1.49"/><path class="cls-23" d="M155,1018s8.51,12.12,21.08,1.49"/><path class="cls-23" d="M176.49,1018s8.52,12.12,21.09,1.49"/><path class="cls-23" d="M198,1018s8.51,12.12,21.09,1.49"/><path class="cls-23" d="M219.41,1018s8.51,12.12,21.08,1.49"/><path class="cls-23" d="M240.86,1018s8.52,12.12,21.09,1.49"/><path class="cls-23" d="M262.32,1018s8.51,12.12,21.08,1.49"/><path class="cls-23" d="M283.77,1018s8.52,12.12,21.09,1.49"/><path class="cls-23" d="M305.23,1018s8.51,12.12,21.08,1.49"/><path class="cls-23" d="M326.68,1018s8.52,12.12,21.09,1.49"/><path class="cls-23" d="M348.14,1018s8.51,12.12,21.09,1.49"/><path class="cls-23" d="M368.44,1018s8.51,12.12,21.08,1.49"/><path class="cls-23" d="M36.48,1029.29s8.52,12.11,21.09,1.48"/><path class="cls-23" d="M57.94,1029.29s8.51,12.11,21.08,1.48"/><path class="cls-23" d="M79.39,1029.29s8.52,12.11,21.09,1.48"/><path class="cls-23" d="M100.85,1029.29s8.51,12.11,21.09,1.48"/><path class="cls-23" d="M122.31,1029.29s8.51,12.11,21.08,1.48"/><path class="cls-23" d="M143.76,1029.29s8.52,12.11,21.09,1.48"/><path class="cls-23" d="M165.22,1029.29s8.51,12.11,21.08,1.48"/><path class="cls-23" d="M186.67,1029.29s8.52,12.11,21.09,1.48"/><path class="cls-23" d="M208.13,1029.29s8.51,12.11,21.09,1.48"/><path class="cls-23" d="M229.59,1029.29s8.51,12.11,21.08,1.48"/><path class="cls-23" d="M251,1029.29s8.52,12.11,21.09,1.48"/><path class="cls-23" d="M272.5,1029.29s8.51,12.11,21.08,1.48"/><path class="cls-23" d="M294,1029.29s8.52,12.11,21.09,1.48"/><path class="cls-23" d="M315.41,1029.29s8.51,12.11,21.09,1.48"/><path class="cls-23" d="M336.87,1029.29s8.51,12.11,21.08,1.48"/><path class="cls-23" d="M357.16,1029.29s8.52,12.11,21.09,1.48"/><path class="cls-23" d="M45.18,1039.27s8.51,12.12,21.09,1.49"/><path class="cls-23" d="M25.61,1040s8.51,12.12,21.09,1.49"/><path class="cls-23" d="M66.64,1039.27s8.51,12.12,21.08,1.49"/><path class="cls-23" d="M88.09,1039.27s8.52,12.12,21.09,1.49"/><path class="cls-23" d="M109.55,1039.27s8.51,12.12,21.08,1.49"/><path class="cls-23" d="M131,1039.27s8.52,12.12,21.09,1.49"/><path class="cls-23" d="M152.46,1039.27s8.51,12.12,21.09,1.49"/><path class="cls-23" d="M173.92,1039.27s8.51,12.12,21.08,1.49"/><path class="cls-23" d="M195.37,1039.27s8.52,12.12,21.09,1.49"/><path class="cls-23" d="M216.83,1039.27s8.51,12.12,21.08,1.49"/><path class="cls-23" d="M238.28,1039.27s8.52,12.12,21.09,1.49"/><path class="cls-23" d="M259.74,1039.27s8.51,12.12,21.09,1.49"/><path class="cls-23" d="M281.2,1039.27s8.51,12.12,21.08,1.49"/><path class="cls-23" d="M302.65,1039.27s8.52,12.12,21.09,1.49"/><path class="cls-23" d="M324.11,1039.27s8.51,12.12,21.08,1.49"/><path class="cls-23" d="M345.56,1039.27s8.52,12.12,21.09,1.49"/><path class="cls-23" d="M365.86,1039.27s8.51,12.12,21.08,1.49"/><path class="cls-23" d="M33.26,1049.58s8.51,12.12,21.09,1.49"/><path class="cls-23" d="M54.72,1049.58s8.51,12.12,21.08,1.49"/><path class="cls-23" d="M76.17,1049.58s8.52,12.12,21.09,1.49"/><path class="cls-23" d="M97.63,1049.58s8.51,12.12,21.08,1.49"/><path class="cls-23" d="M119.08,1049.58s8.52,12.12,21.09,1.49"/><path class="cls-23" d="M140.54,1049.58s8.51,12.12,21.09,1.49"/><path class="cls-23" d="M162,1049.58s8.51,12.12,21.08,1.49"/><path class="cls-23" d="M183.45,1049.58s8.52,12.12,21.09,1.49"/><path class="cls-23" d="M204.91,1049.58s8.51,12.12,21.08,1.49"/><path class="cls-23" d="M226.36,1049.58s8.52,12.12,21.09,1.49"/><path class="cls-23" d="M247.82,1049.58s8.51,12.12,21.09,1.49"/><path class="cls-23" d="M269.28,1049.58s8.51,12.12,21.08,1.49"/><path class="cls-23" d="M290.73,1049.58s8.52,12.12,21.09,1.49"/><path class="cls-23" d="M312.19,1049.58s8.51,12.12,21.08,1.49"/><path class="cls-23" d="M333.64,1049.58s8.52,12.12,21.09,1.49"/><path class="cls-23" d="M353.94,1049.58s8.51,12.12,21.09,1.49"/></g><path class="cls-21" d="M54.81,883s8.52,12.12,21.09,1.49"/><path class="cls-21" d="M76.27,883s8.51,12.12,21.08,1.49"/><path class="cls-21" d="M97.72,883s8.52,12.12,21.09,1.49"/><path class="cls-21" d="M119.18,883s8.51,12.12,21.08,1.49"/><path class="cls-21" d="M140.63,883s8.52,12.12,21.09,1.49"/><path class="cls-21" d="M162.09,883s8.52,12.12,21.09,1.49"/><path class="cls-21" d="M183.55,883s8.51,12.12,21.08,1.49"/><path class="cls-21" d="M205,883s8.52,12.12,21.09,1.49"/><path class="cls-21" d="M226.46,883s8.51,12.12,21.08,1.49"/><path class="cls-21" d="M247.91,883s8.52,12.12,21.09,1.49"/><path class="cls-21" d="M269.37,883s8.51,12.12,21.09,1.49"/><path class="cls-21" d="M290.83,883s8.51,12.12,21.08,1.49"/><path class="cls-21" d="M312.28,883s8.52,12.12,21.09,1.49"/><path class="cls-21" d="M333.74,883s8.51,12.12,21.08,1.49"/><path class="cls-21" d="M355.19,883s8.52,12.12,21.09,1.49"/><path class="cls-21" d="M376.46,1048.55s8.51,12.12,21.08,1.49"/><path class="cls-21" d="M383.87,1037.6s8.51,12.11,21.08,1.48"/><path class="cls-21" d="M380,1026.64s8.51,12.12,21.09,1.49"/><path class="cls-21" d="M378.07,1004.41s8.51,12.12,21.08,1.49"/><path class="cls-21" d="M52.88,894.24s8.51,12.12,21.08,1.49"/><path class="cls-21" d="M66.6,893.92S75.12,906,87.69,895.4"/><path class="cls-21" d="M88.06,893.92s8.51,12.12,21.08,1.48"/><path class="cls-21" d="M109.51,893.92S118,906,130.6,895.4"/><path class="cls-21" d="M131,893.92s8.51,12.12,21.09,1.48"/><path class="cls-21" d="M152.43,893.92s8.51,12.12,21.08,1.48"/><path class="cls-21" d="M173.88,893.92S182.4,906,195,895.4"/><path class="cls-21" d="M195.34,893.92s8.51,12.12,21.08,1.48"/><path class="cls-21" d="M216.79,893.92s8.52,12.12,21.09,1.48"/><path class="cls-21" d="M238.25,893.92s8.51,12.12,21.09,1.48"/><path class="cls-21" d="M259.71,893.92s8.51,12.12,21.08,1.48"/><path class="cls-21" d="M281.16,893.92s8.52,12.12,21.09,1.48"/><path class="cls-21" d="M302.62,893.92s8.51,12.12,21.08,1.48"/><path class="cls-21" d="M324.07,893.92s8.52,12.12,21.09,1.48"/><path class="cls-21" d="M345.53,893.92S354,906,366.62,895.4"/><path class="cls-21" d="M52.88,905.19s8.51,12.12,21.08,1.49"/><path class="cls-21" d="M74.33,905.19s8.52,12.12,21.09,1.49"/><path class="cls-21" d="M95.79,905.19s8.51,12.12,21.09,1.49"/><path class="cls-21" d="M117.25,905.19s8.51,12.12,21.08,1.49"/><path class="cls-21" d="M138.7,905.19s8.52,12.12,21.09,1.49"/><path class="cls-21" d="M160.16,905.19s8.51,12.12,21.08,1.49"/><path class="cls-21" d="M181.61,905.19s8.52,12.12,21.09,1.49"/><path class="cls-21" d="M203.07,905.19s8.51,12.12,21.09,1.49"/><path class="cls-21" d="M224.53,905.19s8.51,12.12,21.08,1.49"/><path class="cls-21" d="M246,905.19s8.52,12.12,21.09,1.49"/><path class="cls-21" d="M267.44,905.19s8.51,12.12,21.08,1.49"/><path class="cls-21" d="M288.89,905.19s8.52,12.12,21.09,1.49"/><path class="cls-21" d="M310.35,905.19s8.51,12.12,21.09,1.49"/><path class="cls-21" d="M331.81,905.19s8.51,12.12,21.08,1.49"/><path class="cls-21" d="M353.26,905.19s8.52,12.12,21.09,1.49"/><path class="cls-21" d="M46.51,914.86S55,927,67.6,916.34"/><path class="cls-21" d="M62.09,915.82s8.52,12.12,21.09,1.49"/><path class="cls-21" d="M83.55,915.82s8.51,12.12,21.08,1.49"/><path class="cls-21" d="M105,915.82s8.52,12.12,21.09,1.49"/><path class="cls-21" d="M373.88,982s8.51,12.12,21.09,1.49"/><path class="cls-21" d="M126.46,915.82s8.51,12.12,21.09,1.49"/><path class="cls-21" d="M147.92,915.82s8.51,12.12,21.08,1.49"/><path class="cls-21" d="M169.37,915.82s8.52,12.12,21.09,1.49"/><path class="cls-21" d="M190.83,915.82s8.51,12.12,21.08,1.49"/><path class="cls-21" d="M212.28,915.82s8.52,12.12,21.09,1.49"/><path class="cls-21" d="M233.74,915.82s8.51,12.12,21.09,1.49"/><path class="cls-21" d="M255.2,915.82s8.51,12.12,21.08,1.49"/><path class="cls-21" d="M276.65,915.82s8.52,12.12,21.09,1.49"/><path class="cls-21" d="M298.11,915.82s8.51,12.12,21.08,1.49"/><path class="cls-21" d="M319.56,915.82s8.52,12.12,21.09,1.49"/><path class="cls-21" d="M341,915.82s8.51,12.12,21.09,1.49"/><path class="cls-21" d="M361.32,915.82s8.51,12.12,21.08,1.49"/><path class="cls-21" d="M47,927.42s8.51,12.12,21.08,1.49"/><path class="cls-21" d="M72.4,927.42s8.52,12.12,21.09,1.49"/><path class="cls-21" d="M93.86,927.42s8.51,12.12,21.08,1.49"/><path class="cls-21" d="M115.31,927.42s8.52,12.12,21.09,1.49"/><path class="cls-21" d="M136.77,927.42s8.51,12.12,21.09,1.49"/><path class="cls-21" d="M158.23,927.42s8.51,12.12,21.08,1.49"/><path class="cls-21" d="M179.68,927.42s8.52,12.12,21.09,1.49"/><path class="cls-21" d="M201.14,927.42s8.51,12.12,21.08,1.49"/><path class="cls-21" d="M222.59,927.42s8.52,12.12,21.09,1.49"/><path class="cls-21" d="M244.05,927.42s8.51,12.12,21.08,1.49"/><path class="cls-21" d="M265.5,927.42s8.52,12.12,21.09,1.49"/><path class="cls-21" d="M287,927.42s8.52,12.12,21.09,1.49"/><path class="cls-21" d="M308.42,927.42s8.51,12.12,21.08,1.49"/><path class="cls-21" d="M329.87,927.42s8.52,12.12,21.09,1.49"/><path class="cls-21" d="M351.33,927.42s8.51,12.12,21.08,1.49"/><path class="cls-21" d="M42.11,936.76s8.52,12.12,21.09,1.49"/><path class="cls-21" d="M62.74,937.41s8.51,12.12,21.08,1.48"/><path class="cls-21" d="M84.19,937.41s8.52,12.12,21.09,1.48"/><path class="cls-21" d="M105.65,937.41s8.51,12.12,21.08,1.48"/><path class="cls-21" d="M127.1,937.41s8.52,12.12,21.09,1.48"/><path class="cls-21" d="M148.56,937.41s8.51,12.12,21.09,1.48"/><path class="cls-21" d="M170,937.41s8.51,12.12,21.08,1.48"/><path class="cls-21" d="M191.47,937.41s8.52,12.12,21.09,1.48"/><path class="cls-21" d="M212.93,937.41s8.51,12.12,21.08,1.48"/><path class="cls-21" d="M234.38,937.41s8.52,12.12,21.09,1.48"/><path class="cls-21" d="M255.84,937.41s8.51,12.12,21.09,1.48"/><path class="cls-21" d="M277.3,937.41s8.51,12.12,21.08,1.48"/><path class="cls-21" d="M298.75,937.41s8.52,12.12,21.09,1.48"/><path class="cls-21" d="M320.21,937.41s8.51,12.12,21.08,1.48"/><path class="cls-21" d="M341.66,937.41s8.52,12.12,21.09,1.48"/><path class="cls-21" d="M362,937.41s8.51,12.12,21.09,1.48"/><path class="cls-21" d="M47,947.39s8.52,12.12,21.09,1.49"/><path class="cls-21" d="M70.47,947.39s8.51,12.12,21.08,1.49"/><path class="cls-21" d="M91.92,947.39s8.52,12.12,21.09,1.49"/><path class="cls-21" d="M113.38,947.39s8.51,12.12,21.09,1.49"/><path class="cls-21" d="M134.84,947.39s8.51,12.12,21.08,1.49"/><path class="cls-21" d="M156.29,947.39s8.52,12.12,21.09,1.49"/><path class="cls-21" d="M177.75,947.39s8.51,12.12,21.08,1.49"/><path class="cls-21" d="M199.2,947.39s8.52,12.12,21.09,1.49"/><path class="cls-21" d="M220.66,947.39s8.51,12.12,21.09,1.49"/><path class="cls-21" d="M242.12,947.39s8.51,12.12,21.08,1.49"/><path class="cls-21" d="M263.57,947.39s8.52,12.12,21.09,1.49"/><path class="cls-21" d="M285,947.39s8.51,12.12,21.08,1.49"/><path class="cls-21" d="M306.48,947.39s8.52,12.12,21.09,1.49"/><path class="cls-21" d="M327.94,947.39s8.51,12.12,21.09,1.49"/><path class="cls-21" d="M349.4,947.39s8.51,12.12,21.08,1.49"/><path class="cls-21" d="M366.47,947.39s8.51,12.12,21.09,1.49"/><path class="cls-21" d="M38.57,958s8.51,12.11,21.09,1.48"/><path class="cls-21" d="M29.36,1015.37s8.52,12.12,21.09,1.48"/><path class="cls-21" d="M33.23,991.21s8.51,12.11,21.08,1.48"/><path class="cls-21" d="M59.19,957.7s8.52,12.12,21.09,1.49"/><path class="cls-21" d="M80.65,957.7s8.51,12.12,21.09,1.49"/><path class="cls-21" d="M102.11,957.7s8.51,12.12,21.08,1.49"/><path class="cls-21" d="M123.56,957.7s8.52,12.12,21.09,1.49"/><path class="cls-21" d="M145,957.7s8.51,12.12,21.08,1.49"/><path class="cls-21" d="M166.47,957.7s8.52,12.12,21.09,1.49"/><path class="cls-21" d="M187.93,957.7s8.51,12.12,21.09,1.49"/><path class="cls-21" d="M209.38,957.7s8.52,12.12,21.09,1.49"/><path class="cls-21" d="M230.84,957.7s8.52,12.12,21.09,1.49"/><path class="cls-21" d="M252.3,957.7s8.51,12.12,21.08,1.49"/><path class="cls-21" d="M273.75,957.7s8.52,12.12,21.09,1.49"/><path class="cls-21" d="M295.21,957.7s8.51,12.12,21.08,1.49"/><path class="cls-21" d="M316.66,957.7s8.52,12.12,21.09,1.49"/><path class="cls-21" d="M338.12,957.7s8.51,12.12,21.09,1.49"/><path class="cls-21" d="M358.42,957.7s8.51,12.12,21.08,1.49"/><path class="cls-21" d="M47.72,969.3s8.52,12.12,21.09,1.49"/><path class="cls-21" d="M69.18,969.3s8.51,12.12,21.09,1.49"/><path class="cls-21" d="M90.64,969.3s8.51,12.12,21.08,1.49"/><path class="cls-21" d="M112.09,969.3s8.52,12.12,21.09,1.49"/><path class="cls-21" d="M133.55,969.3s8.51,12.12,21.08,1.49"/><path class="cls-21" d="M155,969.3s8.52,12.12,21.09,1.49"/><path class="cls-21" d="M176.46,969.3s8.51,12.12,21.09,1.49"/><path class="cls-21" d="M197.92,969.3s8.51,12.12,21.08,1.49"/><path class="cls-21" d="M219.37,969.3s8.52,12.12,21.09,1.49"/><path class="cls-21" d="M240.83,969.3s8.51,12.12,21.08,1.49"/><path class="cls-21" d="M262.28,969.3s8.52,12.12,21.09,1.49"/><path class="cls-21" d="M283.74,969.3s8.51,12.12,21.09,1.49"/><path class="cls-21" d="M305.2,969.3s8.51,12.12,21.08,1.49"/><path class="cls-21" d="M326.65,969.3s8.52,12.12,21.09,1.49"/><path class="cls-21" d="M348.11,969.3s8.51,12.12,21.08,1.49"/><path class="cls-21" d="M368.4,969.3s8.52,12.12,21.09,1.49"/><path class="cls-21" d="M37.42,980.58s8.51,12.11,21.08,1.48"/><path class="cls-21" d="M58.87,980.58s8.52,12.11,21.09,1.48"/><path class="cls-21" d="M80.33,980.58s8.51,12.11,21.08,1.48"/><path class="cls-21" d="M101.78,980.58s8.52,12.11,21.09,1.48"/><path class="cls-21" d="M123.24,980.58s8.51,12.11,21.09,1.48"/><path class="cls-21" d="M144.69,980.58s8.52,12.11,21.09,1.48"/><path class="cls-21" d="M166.15,980.58s8.52,12.11,21.09,1.48"/><path class="cls-21" d="M187.61,980.58s8.51,12.11,21.08,1.48"/><path class="cls-21" d="M209.06,980.58s8.52,12.11,21.09,1.48"/><path class="cls-21" d="M230.52,980.58s8.51,12.11,21.08,1.48"/><path class="cls-21" d="M252,980.58s8.52,12.11,21.09,1.48"/><path class="cls-21" d="M273.43,980.58s8.51,12.11,21.09,1.48"/><path class="cls-21" d="M294.89,980.58s8.51,12.11,21.08,1.48"/><path class="cls-21" d="M316.34,980.58s8.52,12.11,21.09,1.48"/><path class="cls-21" d="M337.8,980.58s8.51,12.11,21.08,1.48"/><path class="cls-21" d="M358.09,980.58s8.52,12.11,21.09,1.48"/><path class="cls-21" d="M51.19,992.49s8.51,12.12,21.08,1.49"/><path class="cls-21" d="M71.43,993.46S80,1005.58,92.52,995"/><path class="cls-21" d="M92.89,993.46S101.4,1005.58,114,995"/><path class="cls-21" d="M114.35,993.46s8.51,12.12,21.08,1.49"/><path class="cls-21" d="M135.8,993.46s8.52,12.12,21.09,1.49"/><path class="cls-21" d="M157.26,993.46s8.51,12.12,21.08,1.49"/><path class="cls-21" d="M178.71,993.46s8.52,12.12,21.09,1.49"/><path class="cls-21" d="M200.17,993.46s8.51,12.12,21.09,1.49"/><path class="cls-21" d="M221.63,993.46s8.51,12.12,21.08,1.49"/><path class="cls-21" d="M243.08,993.46s8.52,12.12,21.09,1.49"/><path class="cls-21" d="M264.54,993.46s8.51,12.12,21.08,1.49"/><path class="cls-21" d="M286,993.46s8.52,12.12,21.09,1.49"/><path class="cls-21" d="M307.45,993.46s8.51,12.12,21.09,1.49"/><path class="cls-21" d="M328.91,993.46s8.51,12.12,21.08,1.49"/><path class="cls-21" d="M350.36,993.46s8.52,12.12,21.09,1.49"/><path class="cls-21" d="M370.66,993.46s8.51,12.12,21.08,1.49"/><path class="cls-21" d="M36.45,1004.09s8.51,12.12,21.08,1.49"/><path class="cls-21" d="M57.9,1004.09s8.52,12.12,21.09,1.49"/><path class="cls-21" d="M79.36,1004.09s8.51,12.12,21.09,1.49"/><path class="cls-21" d="M100.82,1004.09s8.51,12.12,21.08,1.49"/><path class="cls-21" d="M122.27,1004.09s8.52,12.12,21.09,1.49"/><path class="cls-21" d="M143.73,1004.09s8.51,12.12,21.08,1.49"/><path class="cls-21" d="M165.18,1004.09s8.52,12.12,21.09,1.49"/><path class="cls-21" d="M186.64,1004.09s8.51,12.12,21.09,1.49"/><path class="cls-21" d="M208.1,1004.09s8.51,12.12,21.08,1.49"/><path class="cls-21" d="M229.55,1004.09s8.52,12.12,21.09,1.49"/><path class="cls-21" d="M251,1004.09s8.51,12.12,21.08,1.49"/><path class="cls-21" d="M272.46,1004.09s8.52,12.12,21.09,1.49"/><path class="cls-21" d="M293.92,1004.09s8.51,12.12,21.09,1.49"/><path class="cls-21" d="M315.38,1004.09s8.51,12.12,21.08,1.49"/><path class="cls-21" d="M336.83,1004.09s8.52,12.12,21.09,1.49"/><path class="cls-21" d="M357.13,1004.09s8.51,12.12,21.08,1.49"/><path class="cls-21" d="M46.76,1016s8.51,12.12,21.08,1.49"/><path class="cls-21" d="M68.21,1016s8.52,12.12,21.09,1.49"/><path class="cls-21" d="M89.67,1016s8.51,12.12,21.09,1.49"/><path class="cls-21" d="M111.13,1016s8.51,12.12,21.08,1.49"/><path class="cls-21" d="M132.58,1016s8.52,12.12,21.09,1.49"/><path class="cls-21" d="M154,1016s8.51,12.12,21.08,1.49"/><path class="cls-21" d="M175.49,1016s8.52,12.12,21.09,1.49"/><path class="cls-21" d="M197,1016s8.51,12.12,21.09,1.49"/><path class="cls-21" d="M218.41,1016s8.51,12.12,21.08,1.49"/><path class="cls-21" d="M239.86,1016s8.52,12.12,21.09,1.49"/><path class="cls-21" d="M261.32,1016s8.51,12.12,21.08,1.49"/><path class="cls-21" d="M282.77,1016s8.52,12.12,21.09,1.49"/><path class="cls-21" d="M304.23,1016s8.51,12.12,21.08,1.49"/><path class="cls-21" d="M325.68,1016s8.52,12.12,21.09,1.49"/><path class="cls-21" d="M347.14,1016s8.51,12.12,21.09,1.49"/><path class="cls-21" d="M367.44,1016s8.51,12.12,21.08,1.49"/><path class="cls-21" d="M35.48,1027.29s8.52,12.11,21.09,1.48"/><path class="cls-21" d="M56.94,1027.29s8.51,12.11,21.08,1.48"/><path class="cls-21" d="M78.39,1027.29s8.52,12.11,21.09,1.48"/><path class="cls-21" d="M99.85,1027.29s8.51,12.11,21.09,1.48"/><path class="cls-21" d="M121.31,1027.29s8.51,12.11,21.08,1.48"/><path class="cls-21" d="M142.76,1027.29s8.52,12.11,21.09,1.48"/><path class="cls-21" d="M164.22,1027.29s8.51,12.11,21.08,1.48"/><path class="cls-21" d="M185.67,1027.29s8.52,12.11,21.09,1.48"/><path class="cls-21" d="M207.13,1027.29s8.51,12.11,21.09,1.48"/><path class="cls-21" d="M228.59,1027.29s8.51,12.11,21.08,1.48"/><path class="cls-21" d="M250,1027.29s8.52,12.11,21.09,1.48"/><path class="cls-21" d="M271.5,1027.29s8.51,12.11,21.08,1.48"/><path class="cls-21" d="M293,1027.29s8.52,12.11,21.09,1.48"/><path class="cls-21" d="M314.41,1027.29s8.51,12.11,21.09,1.48"/><path class="cls-21" d="M335.87,1027.29s8.51,12.11,21.08,1.48"/><path class="cls-21" d="M356.16,1027.29s8.52,12.11,21.09,1.48"/><path class="cls-21" d="M44.18,1037.27s8.51,12.12,21.09,1.49"/><path class="cls-21" d="M24.61,1038s8.51,12.12,21.09,1.49"/><path class="cls-21" d="M65.64,1037.27s8.51,12.12,21.08,1.49"/><path class="cls-21" d="M87.09,1037.27s8.52,12.12,21.09,1.49"/><path class="cls-21" d="M108.55,1037.27s8.51,12.12,21.08,1.49"/><path class="cls-21" d="M130,1037.27s8.52,12.12,21.09,1.49"/><path class="cls-21" d="M151.46,1037.27s8.51,12.12,21.09,1.49"/><path class="cls-21" d="M172.92,1037.27s8.51,12.12,21.08,1.49"/><path class="cls-21" d="M194.37,1037.27s8.52,12.12,21.09,1.49"/><path class="cls-21" d="M215.83,1037.27s8.51,12.12,21.08,1.49"/><path class="cls-21" d="M237.28,1037.27s8.52,12.12,21.09,1.49"/><path class="cls-21" d="M258.74,1037.27s8.51,12.12,21.09,1.49"/><path class="cls-21" d="M280.2,1037.27s8.51,12.12,21.08,1.49"/><path class="cls-21" d="M301.65,1037.27s8.52,12.12,21.09,1.49"/><path class="cls-21" d="M323.11,1037.27s8.51,12.12,21.08,1.49"/><path class="cls-21" d="M344.56,1037.27s8.52,12.12,21.09,1.49"/><path class="cls-21" d="M364.86,1037.27s8.51,12.12,21.08,1.49"/><path class="cls-21" d="M32.26,1047.58s8.51,12.12,21.09,1.49"/><path class="cls-21" d="M53.72,1047.58s8.51,12.12,21.08,1.49"/><path class="cls-21" d="M75.17,1047.58s8.52,12.12,21.09,1.49"/><path class="cls-21" d="M96.63,1047.58s8.51,12.12,21.08,1.49"/><path class="cls-21" d="M118.08,1047.58s8.52,12.12,21.09,1.49"/><path class="cls-21" d="M139.54,1047.58s8.51,12.12,21.09,1.49"/><path class="cls-21" d="M161,1047.58s8.51,12.12,21.08,1.49"/><path class="cls-21" d="M182.45,1047.58s8.52,12.12,21.09,1.49"/><path class="cls-21" d="M203.91,1047.58s8.51,12.12,21.08,1.49"/><path class="cls-21" d="M225.36,1047.58s8.52,12.12,21.09,1.49"/><path class="cls-21" d="M246.82,1047.58s8.51,12.12,21.09,1.49"/><path class="cls-21" d="M268.28,1047.58s8.51,12.12,21.08,1.49"/><path class="cls-21" d="M289.73,1047.58s8.52,12.12,21.09,1.49"/><path class="cls-21" d="M311.19,1047.58s8.51,12.12,21.08,1.49"/><path class="cls-21" d="M332.64,1047.58s8.52,12.12,21.09,1.49"/><path class="cls-21" d="M352.94,1047.58s8.51,12.12,21.09,1.49"/><path class="cls-25" d="M166.94,1256.45a766.38,766.38,0,0,1-107.16,0c-6.26-17.39-6.5-36.47,0-57.44q52.32-2.12,107.16,0A88.64,88.64,0,0,1,166.94,1256.45Z"/><path class="cls-26" d="M161.87,1254.58a810,810,0,0,1-107.16,0c-6.26-16.41-6.5-34.43,0-54.22q52.32-2,107.16,0A79.18,79.18,0,0,1,161.87,1254.58Z"/><line class="cls-27" x1="108.92" y1="1201.2" x2="108.92" y2="1255.59"/><line class="cls-28" x1="51.69" y1="1227.46" x2="164.76" y2="1227.46"/><line class="cls-29" x1="107.02" y1="1199.14" x2="107.02" y2="1256.73"/><line class="cls-30" x1="49.88" y1="1226.32" x2="167.61" y2="1226.32"/><path class="cls-25" d="M166.94,1155a766.38,766.38,0,0,1-107.16,0c-6.26-17.39-6.5-36.47,0-57.44q52.32-2.12,107.16,0A88.64,88.64,0,0,1,166.94,1155Z"/><path class="cls-26" d="M161.87,1153.11a810,810,0,0,1-107.16,0c-6.26-16.42-6.5-34.43,0-54.23q52.32-2,107.16,0A79.21,79.21,0,0,1,161.87,1153.11Z"/><line class="cls-27" x1="108.92" y1="1099.72" x2="108.92" y2="1154.11"/><line class="cls-28" x1="51.69" y1="1125.98" x2="164.76" y2="1125.98"/><line class="cls-29" x1="107.02" y1="1097.66" x2="107.02" y2="1155.25"/><line class="cls-30" x1="49.88" y1="1124.84" x2="167.61" y2="1124.84"/><path class="cls-25" d="M382.21,1256.45a766.38,766.38,0,0,1-107.16,0c-6.26-17.39-6.49-36.47,0-57.44q52.32-2.12,107.16,0A88.58,88.58,0,0,1,382.21,1256.45Z"/><path class="cls-26" d="M377.14,1254.58a810,810,0,0,1-107.16,0c-6.26-16.41-6.49-34.43,0-54.22q52.32-2,107.16,0A79.18,79.18,0,0,1,377.14,1254.58Z"/><line class="cls-31" x1="324.19" y1="1200.96" x2="324.19" y2="1254.35"/><line class="cls-32" x1="266.72" y1="1227.46" x2="380.04" y2="1227.46"/><line class="cls-29" x1="322.3" y1="1199.14" x2="322.3" y2="1256.73"/><line class="cls-33" x1="264.3" y1="1226.32" x2="382.88" y2="1226.32"/><path class="cls-25" d="M382.21,1153.52a766.38,766.38,0,0,1-107.16,0c-6.26-17.39-6.49-36.47,0-57.44q52.32-2.11,107.16,0A88.58,88.58,0,0,1,382.21,1153.52Z"/><path class="cls-26" d="M377.14,1151.66a810,810,0,0,1-107.16,0c-6.26-16.42-6.49-34.43,0-54.23q52.32-2,107.16,0A79.21,79.21,0,0,1,377.14,1151.66Z"/><line class="cls-31" x1="324.19" y1="1098.03" x2="324.19" y2="1151.43"/><line class="cls-32" x1="266.72" y1="1124.53" x2="380.04" y2="1124.53"/><line class="cls-29" x1="322.3" y1="1096.21" x2="322.3" y2="1153.8"/><line class="cls-33" x1="264.3" y1="1123.39" x2="382.88" y2="1123.39"/><path class="cls-34" d="M202.06,1197.5h36.11A12.87,12.87,0,0,1,251,1210.37v108.73a0,0,0,0,1,0,0H189.19a0,0,0,0,1,0,0V1210.37A12.87,12.87,0,0,1,202.06,1197.5Z"/><path class="cls-35" d="M198.84,1195.73H235a12.87,12.87,0,0,1,12.87,12.87v108.73a0,0,0,0,1,0,0H186a0,0,0,0,1,0,0V1208.6A12.87,12.87,0,0,1,198.84,1195.73Z"/><circle class="cls-36" cx="236.49" cy="1257.35" r="3.86"/><circle class="cls-37" cx="235.61" cy="1256.38" r="3.86"/><g class="cls-38"><rect class="cls-39" x="258.77" y="1257.97" width="129.99" height="57.5"/><line class="cls-39" x1="266.02" y1="1257.97" x2="266.02" y2="1314.99"/><line class="cls-39" x1="274.23" y1="1257.97" x2="274.23" y2="1314.99"/><line class="cls-39" x1="282.45" y1="1257.97" x2="282.45" y2="1314.99"/><line class="cls-39" x1="290.66" y1="1257.97" x2="290.66" y2="1314.99"/><line class="cls-39" x1="298.88" y1="1257.97" x2="298.88" y2="1314.99"/><line class="cls-39" x1="307.09" y1="1257.97" x2="307.09" y2="1314.99"/><line class="cls-39" x1="315.31" y1="1257.97" x2="315.31" y2="1314.99"/><line class="cls-39" x1="323.52" y1="1257.97" x2="323.52" y2="1314.99"/><line class="cls-39" x1="331.74" y1="1257.97" x2="331.74" y2="1314.99"/><line class="cls-39" x1="339.95" y1="1257.97" x2="339.95" y2="1314.99"/><line class="cls-39" x1="348.17" y1="1257.97" x2="348.17" y2="1314.99"/><line class="cls-39" x1="356.38" y1="1257.97" x2="356.38" y2="1314.99"/><line class="cls-39" x1="364.59" y1="1257.97" x2="364.59" y2="1314.99"/><line class="cls-39" x1="372.81" y1="1257.97" x2="372.81" y2="1314.99"/><line class="cls-39" x1="381.02" y1="1257.97" x2="381.02" y2="1314.99"/></g><rect class="cls-40" x="256.28" y="1256.92" width="129.99" height="57.5"/><line class="cls-40" x1="263.53" y1="1256.92" x2="263.53" y2="1313.94"/><line class="cls-40" x1="271.74" y1="1256.92" x2="271.74" y2="1313.94"/><line class="cls-40" x1="279.96" y1="1256.92" x2="279.96" y2="1313.94"/><line class="cls-40" x1="288.17" y1="1256.92" x2="288.17" y2="1313.94"/><line class="cls-40" x1="296.39" y1="1256.92" x2="296.39" y2="1313.94"/><line class="cls-40" x1="304.6" y1="1256.92" x2="304.6" y2="1313.94"/><line class="cls-40" x1="312.82" y1="1256.92" x2="312.82" y2="1313.94"/><line class="cls-40" x1="321.03" y1="1256.92" x2="321.03" y2="1313.94"/><line class="cls-40" x1="329.25" y1="1256.92" x2="329.25" y2="1313.94"/><line class="cls-40" x1="337.46" y1="1256.92" x2="337.46" y2="1313.94"/><line class="cls-40" x1="345.68" y1="1256.92" x2="345.68" y2="1313.94"/><line class="cls-40" x1="353.89" y1="1256.92" x2="353.89" y2="1313.94"/><line class="cls-40" x1="362.1" y1="1256.92" x2="362.1" y2="1313.94"/><line class="cls-40" x1="370.32" y1="1256.92" x2="370.32" y2="1313.94"/><line class="cls-40" x1="378.53" y1="1256.92" x2="378.53" y2="1313.94"/><g class="cls-38"><rect class="cls-39" x="47.76" y="1258.29" width="129.99" height="57.5"/><line class="cls-39" x1="55.01" y1="1258.29" x2="55.01" y2="1315.31"/><line class="cls-39" x1="63.23" y1="1258.29" x2="63.23" y2="1315.31"/><line class="cls-39" x1="71.44" y1="1258.29" x2="71.44" y2="1315.31"/><line class="cls-39" x1="79.66" y1="1258.29" x2="79.66" y2="1315.31"/><line class="cls-39" x1="87.87" y1="1258.29" x2="87.87" y2="1315.31"/><line class="cls-39" x1="96.09" y1="1258.29" x2="96.09" y2="1315.31"/><line class="cls-39" x1="104.3" y1="1258.29" x2="104.3" y2="1315.31"/><line class="cls-39" x1="112.51" y1="1258.29" x2="112.51" y2="1315.31"/><line class="cls-39" x1="120.73" y1="1258.29" x2="120.73" y2="1315.31"/><line class="cls-39" x1="128.94" y1="1258.29" x2="128.94" y2="1315.31"/><line class="cls-39" x1="137.16" y1="1258.29" x2="137.16" y2="1315.31"/><line class="cls-39" x1="145.37" y1="1258.29" x2="145.37" y2="1315.31"/><line class="cls-39" x1="153.59" y1="1258.29" x2="153.59" y2="1315.31"/><line class="cls-39" x1="161.8" y1="1258.29" x2="161.8" y2="1315.31"/><line class="cls-39" x1="170.02" y1="1258.29" x2="170.02" y2="1315.31"/></g><rect class="cls-40" x="45.27" y="1257.24" width="129.99" height="57.5"/><line class="cls-40" x1="52.52" y1="1257.24" x2="52.52" y2="1314.26"/><line class="cls-40" x1="60.74" y1="1257.24" x2="60.74" y2="1314.26"/><line class="cls-40" x1="68.95" y1="1257.24" x2="68.95" y2="1314.26"/><line class="cls-40" x1="77.17" y1="1257.24" x2="77.17" y2="1314.26"/><line class="cls-40" x1="85.38" y1="1257.24" x2="85.38" y2="1314.26"/><line class="cls-40" x1="93.6" y1="1257.24" x2="93.6" y2="1314.26"/><line class="cls-40" x1="101.81" y1="1257.24" x2="101.81" y2="1314.26"/><line class="cls-40" x1="110.02" y1="1257.24" x2="110.02" y2="1314.26"/><line class="cls-40" x1="118.24" y1="1257.24" x2="118.24" y2="1314.26"/><line class="cls-40" x1="126.45" y1="1257.24" x2="126.45" y2="1314.26"/><line class="cls-40" x1="134.67" y1="1257.24" x2="134.67" y2="1314.26"/><line class="cls-40" x1="142.88" y1="1257.24" x2="142.88" y2="1314.26"/><line class="cls-40" x1="151.1" y1="1257.24" x2="151.1" y2="1314.26"/><line class="cls-40" x1="159.31" y1="1257.24" x2="159.31" y2="1314.26"/><line class="cls-40" x1="167.53" y1="1257.24" x2="167.53" y2="1314.26"/><rect class="cls-41" x="180.54" y="1315.55" width="73.79" height="11.92"/><rect class="cls-42" x="254.05" y="1322.08" width="18.12" height="62.21" rx="3.87"/><rect class="cls-42" x="270.72" y="1321.84" width="18.12" height="62.21" rx="3.87"/><rect class="cls-42" x="288.36" y="1321.35" width="18.12" height="62.21" rx="3.87"/><rect class="cls-42" x="305.99" y="1321.35" width="18.12" height="62.21" rx="3.87"/><rect class="cls-42" x="324.11" y="1320.39" width="18.12" height="62.21" rx="3.87"/><rect class="cls-42" x="342.24" y="1319.66" width="18.12" height="62.21" rx="3.87"/><rect class="cls-42" x="359.15" y="1320.11" width="18.12" height="62.21" rx="3.87"/><path class="cls-42" d="M53.46,1383.2H43.07a3.88,3.88,0,0,1-3.87-3.87c-1.29-17.37-1.8-35.51,0-54.48a3.87,3.87,0,0,1,3.87-3.86H53.46a3.87,3.87,0,0,1,3.87,3.86v54.48A3.88,3.88,0,0,1,53.46,1383.2Z"/><rect class="cls-42" x="55.88" y="1320.74" width="18.12" height="62.21" rx="3.87"/><rect class="cls-43" x="73.51" y="1320.26" width="18.12" height="63.52" rx="3.87"/><rect class="cls-44" x="91.15" y="1320.26" width="18.12" height="63.73" rx="3.87"/><rect class="cls-45" x="109.27" y="1319.29" width="18.12" height="64.62" rx="3.87"/><rect class="cls-46" x="127.39" y="1318.57" width="18.12" height="65.92" rx="3.87"/><rect class="cls-47" x="144.3" y="1319.02" width="18.12" height="66.11" rx="3.87"/><rect class="cls-48" x="162.49" y="1318.81" width="18.12" height="65.84" rx="3.87"/><rect class="cls-49" x="38.88" y="1313.58" width="18.39" height="10.35" rx="3.87"/><rect class="cls-49" x="56.54" y="1313.58" width="18.39" height="10.35" rx="3.87"/><rect class="cls-49" x="74.19" y="1313.58" width="18.39" height="10.35" rx="3.87"/><rect class="cls-49" x="91.84" y="1313.58" width="18.39" height="10.35" rx="3.87"/><rect class="cls-49" x="109.5" y="1313.58" width="18.39" height="10.35" rx="3.87"/><rect class="cls-49" x="127.15" y="1313.58" width="18.39" height="10.35" rx="3.87"/><rect class="cls-49" x="144.8" y="1313.58" width="18.39" height="10.35" rx="3.87"/><rect class="cls-49" x="162.46" y="1313.58" width="18.39" height="10.35" rx="3.87"/><path class="cls-42" d="M391.59,1382.12H381.2a3.88,3.88,0,0,1-3.86-3.87v-54.48a3.88,3.88,0,0,1,3.86-3.87h10.39a3.88,3.88,0,0,1,3.87,3.87c.06,18.61.39,36.69,0,54.48A3.88,3.88,0,0,1,391.59,1382.12Z"/><rect class="cls-50" x="178.4" y="1327.79" width="78.17" height="11.92"/><rect class="cls-51" x="177.21" y="1339.68" width="81.47" height="11.92"/><rect class="cls-52" x="175.47" y="1351.6" width="84.6" height="11.92"/><path class="cls-53" d="M262.29,1375.76a407.59,407.59,0,0,1-88.54,0v-11.92h88.54Z"/><path class="cls-54" d="M265.06,1387.35a449.49,449.49,0,0,1-93.07,0v-11.91a615.21,615.21,0,0,0,93.07,0Z"/><rect class="cls-55" x="206.2" y="1208.54" width="28.83" height="30.32"/><rect class="cls-56" x="204.01" y="1208.27" width="27.29" height="27.29"/><line class="cls-57" x1="217.64" y1="1208.64" x2="217.64" y2="1236.02"/><line class="cls-57" x1="204.2" y1="1222.19" x2="231.3" y2="1222.19"/><rect class="cls-49" x="253.73" y="1314.67" width="18.39" height="10.35" rx="3.87"/><rect class="cls-49" x="271.38" y="1314.67" width="18.39" height="10.35" rx="3.87"/><rect class="cls-49" x="289.03" y="1314.67" width="18.39" height="10.35" rx="3.87"/><rect class="cls-49" x="306.69" y="1314.67" width="18.39" height="10.35" rx="3.87"/><rect class="cls-49" x="324.34" y="1314.67" width="18.39" height="10.35" rx="3.87"/><rect class="cls-49" x="341.99" y="1314.67" width="18.39" height="10.35" rx="3.87"/><rect class="cls-49" x="359.65" y="1314.67" width="18.39" height="10.35" rx="3.87"/><rect class="cls-49" x="377.3" y="1314.67" width="18.39" height="10.35" rx="3.87"/><path class="cls-58" d="M63.86,1140.73a3.63,3.63,0,0,0-4.51.94C57.91,1145,62.19,1140.32,63.86,1140.73Z"/><path class="cls-58" d="M58.79,1135.62a2.07,2.07,0,0,0-1.27,2.31C58.52,1139.72,58,1136.21,58.79,1135.62Z"/><path class="cls-58" d="M55.46,1132.24a2,2,0,0,1,2.17,1.27C57.46,1135.33,56.48,1132.36,55.46,1132.24Z"/><path class="cls-58" d="M54.09,1139.15s4-.55,5.14,2.85C59.08,1145.93,56.72,1138.55,54.09,1139.15Z"/><path class="cls-59" d="M59,1146.39a6.18,6.18,0,0,0,.11-4,15.25,15.25,0,0,0-1.58-3.67l-.53-.86a3,3,0,0,1,0-3.39,7.72,7.72,0,0,1,1.35-1.68l.74-.72a1.79,1.79,0,0,0,.31-.38c.1-.13,0-.28-.17-.33a.38.38,0,0,1,.26.08.28.28,0,0,1,.06.3,1.91,1.91,0,0,1-.23.5c-.18.31-.37.6-.57.88a10.22,10.22,0,0,0-1,1.72,2.69,2.69,0,0,0-.25,1.71,2.51,2.51,0,0,0,.37.78l.55.91a11.84,11.84,0,0,1,1.45,4A5.4,5.4,0,0,1,59,1146.39Z"/><path class="cls-60" d="M58.47,1150.8h3.9a1.18,1.18,0,0,0,1.18-1.17l1.62-6.48A1.18,1.18,0,0,0,64,1142H56.56a1.18,1.18,0,0,0-1.18,1.17l1.91,6.48A1.18,1.18,0,0,0,58.47,1150.8Z"/><rect class="cls-61" x="54.52" y="1141.9" width="11.46" height="1.16" rx="0.55" transform="translate(120.5 2284.96) rotate(-180)"/><polygon class="cls-62" points="59.37 1128.92 58.49 1130.54 56.66 1130.21 57.95 1131.54 57.07 1133.15 58.74 1132.36 60.03 1133.68 59.78 1131.86 61.46 1131.06 59.63 1130.74 59.37 1128.92"/><polygon class="cls-63" points="58.39 1133.77 59.28 1132.3 60.97 1132.69 59.83 1131.4 60.73 1129.93 59.13 1130.6 57.99 1129.31 58.14 1131.01 56.55 1131.68 58.24 1132.07 58.39 1133.77"/><ellipse class="cls-64" cx="58.9" cy="1131.48" rx="0.56" ry="0.55"/><path class="cls-58" d="M83.2,1141.41a3.62,3.62,0,0,0-4.5.94C77.26,1145.72,81.54,1141,83.2,1141.41Z"/><path class="cls-58" d="M78.13,1136.3a2.08,2.08,0,0,0-1.27,2.31C77.87,1140.4,77.31,1136.89,78.13,1136.3Z"/><path class="cls-58" d="M74.8,1132.92a2.06,2.06,0,0,1,2.18,1.27C76.8,1136,75.82,1133,74.8,1132.92Z"/><path class="cls-58" d="M73.43,1139.83s4-.56,5.15,2.85C78.42,1146.61,76.07,1139.23,73.43,1139.83Z"/><path class="cls-59" d="M78.36,1147.07a6.18,6.18,0,0,0,.1-4,14.49,14.49,0,0,0-1.58-3.67l-.53-.86a3.21,3.21,0,0,1-.47-1.1,3.27,3.27,0,0,1,.44-2.3,8.23,8.23,0,0,1,1.35-1.67l.75-.72a2.08,2.08,0,0,0,.3-.38c.1-.13,0-.28-.17-.33a.41.41,0,0,1,.27.08.33.33,0,0,1,.06.3,1.91,1.91,0,0,1-.23.5c-.19.31-.38.6-.58.88a10.87,10.87,0,0,0-1,1.72,2.63,2.63,0,0,0-.25,1.71,2.31,2.31,0,0,0,.37.78l.54.91a11.63,11.63,0,0,1,1.45,4A5.44,5.44,0,0,1,78.36,1147.07Z"/><path class="cls-60" d="M77.81,1151.48h3.9a1.18,1.18,0,0,0,1.18-1.17l1.63-6.48a1.18,1.18,0,0,0-1.18-1.17H75.9a1.18,1.18,0,0,0-1.18,1.17l1.91,6.48A1.18,1.18,0,0,0,77.81,1151.48Z"/><rect class="cls-61" x="73.86" y="1142.57" width="11.46" height="1.16" rx="0.55" transform="translate(159.19 2286.31) rotate(-180)"/><polygon class="cls-62" points="78.72 1129.6 77.84 1131.21 76 1130.89 77.29 1132.21 76.41 1133.83 78.09 1133.03 79.38 1134.36 79.13 1132.54 80.8 1131.74 78.97 1131.41 78.72 1129.6"/><polygon class="cls-63" points="77.73 1134.45 78.63 1132.98 80.31 1133.36 79.18 1132.07 80.07 1130.61 78.47 1131.28 77.33 1129.98 77.49 1131.69 75.89 1132.36 77.58 1132.74 77.73 1134.45"/><ellipse class="cls-64" cx="78.25" cy="1132.16" rx="0.56" ry="0.55"/><path class="cls-58" d="M276.81,1140.7a3.62,3.62,0,0,0-4.5.94C270.87,1145,275.15,1140.28,276.81,1140.7Z"/><path class="cls-58" d="M271.74,1135.59a2.08,2.08,0,0,0-1.27,2.31C271.48,1139.69,270.92,1136.18,271.74,1135.59Z"/><path class="cls-58" d="M268.41,1132.21a2.06,2.06,0,0,1,2.18,1.27C270.41,1135.3,269.43,1132.33,268.41,1132.21Z"/><path class="cls-58" d="M267,1139.12s4-.55,5.15,2.85C272,1145.9,269.68,1138.52,267,1139.12Z"/><path class="cls-59" d="M272,1146.36a6.18,6.18,0,0,0,.1-4,14.49,14.49,0,0,0-1.58-3.67l-.53-.86a3,3,0,0,1,0-3.39,8.36,8.36,0,0,1,1.35-1.68l.75-.72a2.08,2.08,0,0,0,.3-.38c.1-.13,0-.28-.17-.33a.41.41,0,0,1,.27.08.33.33,0,0,1,.06.3,1.91,1.91,0,0,1-.23.5c-.19.31-.38.6-.58.88a10.87,10.87,0,0,0-1,1.72,2.63,2.63,0,0,0-.25,1.71,2.31,2.31,0,0,0,.37.78l.54.91a11.63,11.63,0,0,1,1.45,4A5.44,5.44,0,0,1,272,1146.36Z"/><path class="cls-60" d="M271.42,1150.77h3.9a1.18,1.18,0,0,0,1.18-1.17l1.63-6.48A1.18,1.18,0,0,0,277,1142h-7.44a1.19,1.19,0,0,0-1.18,1.17l1.91,6.48A1.18,1.18,0,0,0,271.42,1150.77Z"/><rect class="cls-61" x="267.47" y="1141.87" width="11.46" height="1.16" rx="0.55" transform="translate(546.41 2284.89) rotate(-180)"/><polygon class="cls-62" points="272.33 1128.89 271.45 1130.51 269.61 1130.18 270.9 1131.51 270.02 1133.12 271.7 1132.33 272.99 1133.65 272.74 1131.83 274.41 1131.03 272.58 1130.71 272.33 1128.89"/><polygon class="cls-63" points="271.34 1133.74 272.24 1132.27 273.93 1132.66 272.79 1131.37 273.68 1129.9 272.08 1130.57 270.94 1129.28 271.1 1130.98 269.5 1131.65 271.19 1132.03 271.34 1133.74"/><ellipse class="cls-64" cx="271.86" cy="1131.45" rx="0.56" ry="0.55"/><g class="cls-65"><rect x="232.83" y="1062.84" width="32.62" height="13.05" rx="6.52"/><rect x="163.25" y="1089.41" width="32.62" height="13.05" rx="6.52"/><rect x="53.08" y="1187.02" width="32.62" height="13.05" rx="6.52"/><rect x="325.13" y="1186.06" width="32.62" height="13.05" rx="6.52"/><rect x="263.85" y="1157.87" width="123.85" height="13.05" rx="6.52"/><rect x="48.82" y="1157.87" width="123.85" height="13.05" rx="6.52"/><rect x="325.16" y="1072.53" width="32.62" height="13.05" rx="6.52"/></g><path class="cls-66" d="M149,1140.61a3.82,3.82,0,0,1,4.7,1C155.15,1145,150.68,1140.18,149,1140.61Z"/><path class="cls-66" d="M154.33,1134.09a2.14,2.14,0,0,1,1.79-2C158.19,1132.45,154.62,1133.08,154.33,1134.09Z"/><path class="cls-66" d="M158.44,1130.23s-1.79-.2-2.27,1.3C156.36,1133.39,157.38,1130.35,158.44,1130.23Z"/><path class="cls-66" d="M159,1139s-4.15-.58-5.37,2.93C153.76,1146,156.21,1138.36,159,1139Z"/><path class="cls-67" d="M155.15,1146.43a6.41,6.41,0,0,1-1.93-4.78,5,5,0,0,1,.93-2.58,7.61,7.61,0,0,1,2-1.87l1.07-.67a6.11,6.11,0,0,0,.91-.74,1.62,1.62,0,0,0,.6-1.81,4.19,4.19,0,0,0-1.57-1.69A13.8,13.8,0,0,0,155,1131a10.57,10.57,0,0,1,2.45.83,4.53,4.53,0,0,1,2,1.81,2.1,2.1,0,0,1,.13,1.54,3.22,3.22,0,0,1-.77,1.26,10.48,10.48,0,0,1-2.12,1.59,5.61,5.61,0,0,0-2.69,3.68A7.29,7.29,0,0,0,155.15,1146.43Z"/><path class="cls-60" d="M155.72,1151h-4.07a1.22,1.22,0,0,1-1.23-1.2l-1.69-6.67a1.21,1.21,0,0,1,1.23-1.19h7.75a1.21,1.21,0,0,1,1.23,1.19l-2,6.67A1.22,1.22,0,0,1,155.72,1151Z"/><rect class="cls-61" x="147.89" y="1141.81" width="11.95" height="1.2" rx="0.58"/><polygon class="cls-64" points="154.77 1128.46 155.69 1130.13 157.6 1129.79 156.26 1131.16 157.18 1132.82 155.43 1132 154.09 1133.36 154.35 1131.49 152.6 1130.67 154.51 1130.34 154.77 1128.46"/><polygon class="cls-68" points="155.8 1133.45 154.87 1131.94 153.11 1132.34 154.3 1131.01 153.37 1129.51 155.03 1130.19 156.22 1128.87 156.06 1130.62 157.72 1131.31 155.96 1131.7 155.8 1133.45"/><ellipse class="cls-64" cx="155.26" cy="1131.1" rx="0.58" ry="0.56"/><path class="cls-66" d="M368.16,1140.61a3.82,3.82,0,0,1,4.7,1C374.36,1145,369.89,1140.18,368.16,1140.61Z"/><path class="cls-66" d="M373.54,1134.09a2.14,2.14,0,0,1,1.79-2C377.4,1132.45,373.83,1133.08,373.54,1134.09Z"/><path class="cls-66" d="M377.65,1130.23s-1.79-.2-2.27,1.3C375.57,1133.39,376.59,1130.35,377.65,1130.23Z"/><path class="cls-66" d="M378.17,1139s-4.14-.58-5.36,2.93C373,1146,375.42,1138.36,378.17,1139Z"/><path class="cls-67" d="M374.36,1146.43a6.41,6.41,0,0,1-1.93-4.78,4.93,4.93,0,0,1,.93-2.58,7.61,7.61,0,0,1,2-1.87l1.07-.67a6.67,6.67,0,0,0,.91-.74,1.62,1.62,0,0,0,.6-1.81,4.26,4.26,0,0,0-1.57-1.69,14.27,14.27,0,0,0-2.18-1.27,10.34,10.34,0,0,1,2.44.83,4.43,4.43,0,0,1,2,1.81,2.05,2.05,0,0,1,.14,1.54,3.22,3.22,0,0,1-.77,1.26,10.77,10.77,0,0,1-2.12,1.59,5.61,5.61,0,0,0-2.69,3.68A7.29,7.29,0,0,0,374.36,1146.43Z"/><path class="cls-60" d="M374.93,1151h-4.07a1.22,1.22,0,0,1-1.23-1.2l-1.69-6.67a1.21,1.21,0,0,1,1.23-1.19h7.75a1.21,1.21,0,0,1,1.23,1.19l-2,6.67A1.22,1.22,0,0,1,374.93,1151Z"/><rect class="cls-61" x="367.1" y="1141.81" width="11.95" height="1.2" rx="0.58"/><polygon class="cls-64" points="373.98 1128.46 374.9 1130.13 376.81 1129.79 375.47 1131.16 376.39 1132.82 374.64 1132 373.3 1133.36 373.56 1131.49 371.81 1130.67 373.72 1130.34 373.98 1128.46"/><polygon class="cls-68" points="375.01 1133.45 374.08 1131.94 372.32 1132.34 373.5 1131.01 372.57 1129.51 374.24 1130.19 375.43 1128.87 375.27 1130.62 376.93 1131.31 375.17 1131.7 375.01 1133.45"/><ellipse class="cls-64" cx="374.47" cy="1131.1" rx="0.58" ry="0.56"/><rect class="cls-69" x="229.83" y="1060.84" width="32.62" height="13.05" rx="6.52"/><rect class="cls-70" x="160.25" y="1087.41" width="32.62" height="13.05" rx="6.52"/><rect class="cls-71" x="50.24" y="1186.06" width="32.62" height="13.05" rx="6.52"/><rect class="cls-72" x="322.13" y="1184.06" width="32.62" height="13.05" rx="6.52"/><rect class="cls-21" x="262.55" y="1156.51" width="123.77" height="13.05" rx="6.52"/><rect class="cls-21" x="46.55" y="1156.51" width="123.77" height="13.05" rx="6.52"/><rect class="cls-73" x="322.31" y="1070.47" width="32.62" height="13.05" rx="6.52"/></g><g id="Layer_3" data-name="Layer 3"><polygon class="cls-1" points="359.09 321.22 359.12 321.17 359.07 321.17 216 73.37 72.93 321.17 72.88 321.17 72.91 321.22 72.88 321.27 72.93 321.27 216 569.06 359.07 321.27 359.12 321.27 359.09 321.22"/><path d="M358.69,321.22a.81.81,0,0,1,.08-.25l.35.6h-.28l-.12-.2-144.45-247h3.46l-142,248.4-.91,1.59H72.88l2.77-4.8,0,.05.92,1.59-.92,1.61,0,0-2.77-4.79h1.89l.94,1.61L219.46,567.06h-6.92l146.18-246,.12-.21h.28l-.35.6A.81.81,0,0,1,358.69,321.22Zm.8,0a.25.25,0,0,0,0-.15l-.35.6h-.05l.34-.2-140,249.59L216,577.17l-3.5-6.11L70.16,322.87l2.77,1.6h-.05l-5.55,0,2.78-4.78,0-.05v3.2l0-.05L67.35,318l5.53,0h.05l-2.77,1.6L214.27,72.37l1.75-3,1.71,3L359.41,321l-.34-.2h.05l.35.6A.25.25,0,0,0,359.49,321.22Z"/></g></svg>