<svg xmlns="http://www.w3.org/2000/svg" viewBox="0 0 432 1393.49"><defs><style>.cls-1,.cls-33{fill:#323232;}.cls-2{fill:#111;opacity:0.35;}.cls-3{fill:#c6c6c6;opacity:0.5;}.cls-4{fill:#a3a3a3;}.cls-5{opacity:0.36;}.cls-6{opacity:0.37;}.cls-7{fill:#353535;}.cls-8{fill:#5d5d5d;}.cls-9{fill:#424242;}.cls-10{fill:#212121;}.cls-11{fill:#3e3e3e;}.cls-12{fill:#1c1c1c;}.cls-13{fill:#272727;}.cls-14{fill:#2c2c2c;}.cls-15{fill:#202020;}.cls-16{fill:#191919;}.cls-17{fill:#101010;}.cls-18{fill:#1a1a1a;}.cls-19{fill:#333;}.cls-20{fill:#555;}.cls-20,.cls-22,.cls-23,.cls-26,.cls-27{stroke:#000;}.cls-20,.cls-22,.cls-23,.cls-25,.cls-26,.cls-27,.cls-28,.cls-29,.cls-31,.cls-33,.cls-35,.cls-36,.cls-37,.cls-38,.cls-39,.cls-40,.cls-41,.cls-42,.cls-43,.cls-44,.cls-45,.cls-46,.cls-47,.cls-48,.cls-49,.cls-50,.cls-51,.cls-53,.cls-54,.cls-58,.cls-61,.cls-64,.cls-66{stroke-miterlimit:10;}.cls-21{opacity:0.19;}.cls-23{stroke-width:0.96px;}.cls-24{opacity:0.2;}.cls-25,.cls-26,.cls-27,.cls-28,.cls-29,.cls-53,.cls-54{fill:#a0a0a0;}.cls-25,.cls-28,.cls-29,.cls-33,.cls-36,.cls-37{stroke:#dadada;}.cls-25{stroke-width:3.07px;}.cls-26{stroke-width:4.79px;opacity:0.09;}.cls-27{stroke-width:3.76px;opacity:0.1;}.cls-28{stroke-width:4.1px;}.cls-29{stroke-width:4.07px;}.cls-30{opacity:0.39;}.cls-31{fill:#dadada;stroke:#424242;}.cls-32{opacity:0.38;}.cls-33{stroke-width:0.66px;}.cls-34{opacity:0.44;}.cls-35,.cls-36,.cls-64{fill:none;}.cls-35{stroke:#1a1a1a;}.cls-35,.cls-36{stroke-width:3.7px;}.cls-37{fill:#262626;stroke-width:0.75px;}.cls-38,.cls-47,.cls-48,.cls-49,.cls-50,.cls-51{fill:#414141;}.cls-38,.cls-39,.cls-40,.cls-41,.cls-42,.cls-43,.cls-44,.cls-45,.cls-46,.cls-47,.cls-48,.cls-49,.cls-50,.cls-51,.cls-58{stroke:#333;}.cls-38,.cls-58{stroke-width:0.74px;}.cls-39,.cls-40,.cls-41,.cls-42,.cls-43,.cls-44,.cls-45{fill:#1e1e1e;}.cls-39{stroke-width:0.71px;}.cls-40{stroke-width:0.72px;}.cls-41{stroke-width:0.72px;}.cls-42{stroke-width:0.72px;}.cls-43{stroke-width:0.73px;}.cls-44{stroke-width:0.73px;}.cls-45{stroke-width:0.73px;}.cls-46{fill:#363636;stroke-width:0.29px;}.cls-47{stroke-width:0.76px;}.cls-48{stroke-width:0.78px;}.cls-49{stroke-width:0.79px;}.cls-50{stroke-width:0.81px;}.cls-51{stroke-width:0.83px;}.cls-52,.cls-65,.cls-66{fill:#050505;}.cls-52{opacity:0.14;}.cls-53{stroke:#d5d5d5;stroke-width:3.43px;}.cls-54{stroke:#d2d2d2;stroke-width:2.29px;}.cls-55{fill:#131313;opacity:0.32;}.cls-56{fill:#383838;}.cls-57{opacity:0.3;}.cls-58{fill:#4f4f4f;}.cls-59{opacity:0.27;}.cls-60,.cls-61{fill:#020202;}.cls-61,.cls-64,.cls-66{stroke:#5b5b5b;}.cls-62{fill:#5b5b5b;}.cls-63{fill:#aaa;}.cls-67{fill:#a4a4a4;}</style></defs><title>houseGrayScale</title><g id="Layer_4" data-name="Layer 4"><path class="cls-1" d="M388.74,1360.59c-115,12.31-229.55,11.79-343.58,0-4.94-111.28-4.73-222,0-331.36H388.74C395.4,1129.46,394.84,1241,388.74,1360.59Z"/><polygon class="cls-2" points="392.79 1069.46 57.43 1068.9 41.09 1046.24 392.31 1050.43 392.79 1069.46"/><path class="cls-3" d="M174.28,710.46c1.57-5.94,5.13-13.48,5.44-20.65.48-11.19,1.28-29.89-26.68-23.59-2.1-5.68-13.13-3.2-22.9,3.45-6.26,4.25-11.15,11.14-15.65,15.65-16,.6-24.5,19.47-22.28,37.56C80,732.75,79,747.82,85.9,757.87c-4.55,10.21-4.62,24.23,3.46,24.3,5.16,0,6.77-2.9,9.39.51,4.79,6.23,17.81-1.47,24.66-10.55,13.4-.11,26.88-9.06,28.91-23.94C170.47,740.07,183.09,723.22,174.28,710.46Z"/><path class="cls-3" d="M213.78,686.84c3.2-5.25,8.91-11.42,11.1-18.27,3.41-10.69,9.11-28.55-22-31.39-.73-6.17-13-7.29-25-4-7.71,2.12-14.66,7.24-20.57,10.17-17.06-4.54-30.91,11-33.26,29.26-15.49,5.64-20.42,19.94-15.74,31.88-7.44,8.44-11.16,22-2.66,24.65,5.44,1.69,7.9-.64,9.78,3.49,3.43,7.57,19.17,4.28,28.75-2.33,14.17,4.18,30.71-.19,36.71-14C202.07,714.3,219.76,702,213.78,686.84Z"/><path class="cls-3" d="M162.36,745.33c1.25-7.12,4.4-16.31,4.35-24.74-.08-13.16-.21-35.15-27.52-25-2.35-6.45-13.12-2.46-22.45,6.29-6,5.6-10.46,14.16-14.68,19.89C86.26,724.05,78.82,747,81.9,768c-11.61,12.77-11.82,30.52-4.5,41.61C73.41,822,74,838.43,82,837.71c5.1-.46,6.54-4.07,9.3-.33,5,6.82,17.51-3.48,23.83-14.79,13.24-1.45,26.11-13.27,27.38-30.9C160.05,780.38,171.69,759.4,162.36,745.33Z"/><path class="cls-3" d="M230.35,687.67c4.91-5.3,12.6-11.28,17.07-18.44,7-11.17,18.63-29.82-10.81-36.75,1.39-6.78-10.22-9.53-23.1-7.43-8.25,1.35-16.78,6-23.55,8.48-15.11-7-33.94,8.12-42.45,27.6-17,4.2-26.74,19.09-26.24,32.62-10.14,8.22-18.4,22.46-11,26.39,4.73,2.51,7.93.28,8.35,5,.78,8.63,17.26,7,28.87,1,12.42,6.28,30.06,3.6,40.61-10.58C209.56,716,231,704.86,230.35,687.67Z"/><path class="cls-4" d="M114.32,928.83H67.92c-2.16-29.58-2.44-58,0-84.55h46.4A583.38,583.38,0,0,1,114.32,928.83Z"/><path class="cls-5" d="M114.45,847.67l-42.76.12c-2.66,0-4.82-3.25-4.82-6.48h0c0-3.23,2.15-5.85,4.81-5.85,13.85,1.17,27.08,1.38,39.27,0,2.65,0,4.81,2.62,4.81,5.85l-1.25.67Z"/><path class="cls-4" d="M114.61,845.05H66.87A5.85,5.85,0,0,1,61,839.2h0a5.85,5.85,0,0,1,5.85-5.85c16.84,1.18,32.92,1.38,47.74,0a5.84,5.84,0,0,1,5.84,5.85h0A5.84,5.84,0,0,1,114.61,845.05Z"/><g class="cls-6"><rect x="68.3" y="850.35" width="11.5" height="6.14" rx="3.07"/><rect x="78.78" y="859.3" width="11.5" height="6.14" rx="3.07"/><rect x="91.44" y="851.53" width="11.5" height="6.14" rx="3.07"/><path d="M114.16,863.61h-5.37a3.08,3.08,0,0,1-3.07-3.07h0a3.07,3.07,0,0,1,3.07-3.06h5.37c1.69,0,1.4,1.12,1.4,2.81h0C115.56,862,115.85,863.61,114.16,863.61Z"/><rect x="86.55" y="869.75" width="11.5" height="6.14" rx="3.07"/><rect x="68.43" y="866.68" width="11.5" height="6.14" rx="3.07"/><rect x="102.37" y="868.02" width="11.5" height="6.14" rx="3.07"/><rect x="67.86" y="885.56" width="11.69" height="6.23" rx="3.12"/><rect x="104.38" y="887.19" width="11.5" height="6.14" rx="3.07"/><rect x="83.19" y="888.99" width="12.46" height="6.64" rx="3.32"/><path d="M114.54,911.83h-5.37a3.07,3.07,0,0,1-3.06-3.07h0a3.07,3.07,0,0,1,3.06-3.06h5.37c1.69,0,1.12,1.12,1.12,2.81h0C115.66,910.2,116.23,911.83,114.54,911.83Z"/><rect x="71.88" y="905.03" width="12.39" height="6.61" rx="3.3"/><rect x="67.09" y="916.82" width="11.5" height="6.14" rx="3.07"/><rect x="85.49" y="919.79" width="11.5" height="6.14" rx="3.07"/><rect x="92.88" y="910.01" width="11.5" height="6.14" rx="3.07"/><rect x="102.75" y="921.26" width="11.8" height="6.3" rx="3.15"/></g><rect class="cls-7" x="67.54" y="849.78" width="11.5" height="6.14" rx="3.07"/><rect class="cls-8" x="78.02" y="858.72" width="11.5" height="6.14" rx="3.07"/><rect class="cls-9" x="90.67" y="850.96" width="11.5" height="6.14" rx="3.07"/><rect class="cls-10" x="104.96" y="856.9" width="11.5" height="6.14" rx="3.07"/><rect class="cls-11" x="85.78" y="869.17" width="11.5" height="6.14" rx="3.07"/><rect class="cls-12" x="67.66" y="866.1" width="11.5" height="6.14" rx="3.07"/><rect class="cls-13" x="101.6" y="867.45" width="11.5" height="6.14" rx="3.07"/><rect class="cls-14" x="67.09" y="884.99" width="11.69" height="6.23" rx="3.12"/><rect class="cls-15" x="103.61" y="886.62" width="11.5" height="6.14" rx="3.07"/><rect class="cls-16" x="82.43" y="888.41" width="12.46" height="6.64" rx="3.32"/><rect class="cls-15" x="105.34" y="905.12" width="11.5" height="6.14" rx="3.07"/><rect class="cls-17" x="71.12" y="904.45" width="12.39" height="6.61" rx="3.3"/><rect class="cls-18" x="66.32" y="916.24" width="11.5" height="6.14" rx="3.07"/><rect class="cls-19" x="84.73" y="919.21" width="11.5" height="6.14" rx="3.07"/><rect class="cls-10" x="92.11" y="909.43" width="11.5" height="6.14" rx="3.07"/><rect class="cls-12" x="101.98" y="920.68" width="11.8" height="6.3" rx="3.15"/><path class="cls-20" d="M409.8,1088.36H22.2c5.29-60.14,15-121.14,36.44-182.95H374.91C391.33,962.32,402.53,1023.67,409.8,1088.36Z"/><g class="cls-21"><path class="cls-22" d="M54.81,914.84S63.33,927,75.9,916.32"/><path class="cls-22" d="M76.27,914.84s8.51,12.11,21.08,1.48"/><path class="cls-22" d="M97.72,914.84s8.52,12.11,21.09,1.48"/><path class="cls-22" d="M119.18,914.84s8.51,12.11,21.08,1.48"/><path class="cls-22" d="M140.63,914.84s8.52,12.11,21.09,1.48"/><path class="cls-22" d="M162.09,914.84s8.52,12.11,21.09,1.48"/><path class="cls-22" d="M183.55,914.84s8.51,12.11,21.08,1.48"/><path class="cls-22" d="M205,914.84s8.52,12.11,21.09,1.48"/><path class="cls-22" d="M226.46,914.84S235,927,247.54,916.32"/><path class="cls-22" d="M247.91,914.84S256.43,927,269,916.32"/><path class="cls-22" d="M269.37,914.84s8.51,12.11,21.09,1.48"/><path class="cls-22" d="M290.83,914.84s8.51,12.11,21.08,1.48"/><path class="cls-22" d="M312.28,914.84s8.52,12.11,21.09,1.48"/><path class="cls-22" d="M333.74,914.84s8.51,12.11,21.08,1.48"/><path class="cls-22" d="M355.19,914.84s8.52,12.11,21.09,1.48"/><path class="cls-22" d="M376.46,1080.42s8.51,12.12,21.08,1.49"/><path class="cls-23" d="M383.87,1069.47s7.89,12.11,19.55,1.48"/><path class="cls-22" d="M380,1058.51s8.51,12.12,21.09,1.49"/><path class="cls-22" d="M378.07,1036.28s8.51,12.12,21.08,1.49"/><path class="cls-22" d="M52.88,926.11S61.39,938.23,74,927.6"/><path class="cls-22" d="M66.6,925.79s8.52,12.12,21.09,1.49"/><path class="cls-22" d="M88.06,925.79s8.51,12.12,21.08,1.49"/><path class="cls-22" d="M109.51,925.79s8.52,12.12,21.09,1.49"/><path class="cls-22" d="M131,925.79s8.51,12.12,21.09,1.49"/><path class="cls-22" d="M152.43,925.79s8.51,12.12,21.08,1.49"/><path class="cls-22" d="M173.88,925.79s8.52,12.12,21.09,1.49"/><path class="cls-22" d="M195.34,925.79s8.51,12.12,21.08,1.49"/><path class="cls-22" d="M216.79,925.79s8.52,12.12,21.09,1.49"/><path class="cls-22" d="M238.25,925.79s8.51,12.12,21.09,1.49"/><path class="cls-22" d="M259.71,925.79s8.51,12.12,21.08,1.49"/><path class="cls-22" d="M281.16,925.79s8.52,12.12,21.09,1.49"/><path class="cls-22" d="M302.62,925.79s8.51,12.12,21.08,1.49"/><path class="cls-22" d="M324.07,925.79s8.52,12.12,21.09,1.49"/><path class="cls-22" d="M345.53,925.79s8.51,12.12,21.09,1.49"/><path class="cls-22" d="M52.88,937.06s8.51,12.12,21.08,1.49"/><path class="cls-22" d="M74.33,937.06s8.52,12.12,21.09,1.49"/><path class="cls-22" d="M95.79,937.06s8.51,12.12,21.09,1.49"/><path class="cls-22" d="M117.25,937.06s8.51,12.12,21.08,1.49"/><path class="cls-22" d="M138.7,937.06s8.52,12.12,21.09,1.49"/><path class="cls-22" d="M160.16,937.06s8.51,12.12,21.08,1.49"/><path class="cls-22" d="M181.61,937.06s8.52,12.12,21.09,1.49"/><path class="cls-22" d="M203.07,937.06s8.51,12.12,21.09,1.49"/><path class="cls-22" d="M224.53,937.06s8.51,12.12,21.08,1.49"/><path class="cls-22" d="M246,937.06s8.52,12.12,21.09,1.49"/><path class="cls-22" d="M267.44,937.06s8.51,12.12,21.08,1.49"/><path class="cls-22" d="M288.89,937.06s8.52,12.12,21.09,1.49"/><path class="cls-22" d="M310.35,937.06s8.51,12.12,21.09,1.49"/><path class="cls-22" d="M331.81,937.06s8.51,12.12,21.08,1.49"/><path class="cls-22" d="M353.26,937.06s8.52,12.12,21.09,1.49"/><path class="cls-22" d="M44.51,946.73S53,958.85,65.6,948.21"/><path class="cls-22" d="M62.09,947.69s8.52,12.12,21.09,1.49"/><path class="cls-22" d="M83.55,947.69s8.51,12.12,21.08,1.49"/><path class="cls-22" d="M105,947.69s8.52,12.12,21.09,1.49"/><path class="cls-22" d="M373.88,1013.9s8.51,12.11,21.09,1.48"/><path class="cls-22" d="M126.46,947.69s8.51,12.12,21.09,1.49"/><path class="cls-22" d="M147.92,947.69s8.51,12.12,21.08,1.49"/><path class="cls-22" d="M169.37,947.69s8.52,12.12,21.09,1.49"/><path class="cls-22" d="M190.83,947.69s8.51,12.12,21.08,1.49"/><path class="cls-22" d="M212.28,947.69s8.52,12.12,21.09,1.49"/><path class="cls-22" d="M233.74,947.69s8.51,12.12,21.09,1.49"/><path class="cls-22" d="M255.2,947.69s8.51,12.12,21.08,1.49"/><path class="cls-22" d="M276.65,947.69s8.52,12.12,21.09,1.49"/><path class="cls-22" d="M298.11,947.69s8.51,12.12,21.08,1.49"/><path class="cls-22" d="M319.56,947.69s8.52,12.12,21.09,1.49"/><path class="cls-22" d="M341,947.69s8.51,12.12,21.09,1.49"/><path class="cls-22" d="M361.32,947.69s8.51,12.12,21.08,1.49"/><path class="cls-22" d="M45,959.29s8.51,12.12,21.08,1.49"/><path class="cls-22" d="M72.4,959.29s8.52,12.12,21.09,1.49"/><path class="cls-22" d="M93.86,959.29s8.51,12.12,21.08,1.49"/><path class="cls-22" d="M115.31,959.29s8.52,12.12,21.09,1.49"/><path class="cls-22" d="M136.77,959.29s8.51,12.12,21.09,1.49"/><path class="cls-22" d="M158.23,959.29s8.51,12.12,21.08,1.49"/><path class="cls-22" d="M179.68,959.29s8.52,12.12,21.09,1.49"/><path class="cls-22" d="M201.14,959.29s8.51,12.12,21.08,1.49"/><path class="cls-22" d="M222.59,959.29s8.52,12.12,21.09,1.49"/><path class="cls-22" d="M244.05,959.29s8.51,12.12,21.08,1.49"/><path class="cls-22" d="M265.5,959.29s8.52,12.12,21.09,1.49"/><path class="cls-22" d="M287,959.29s8.52,12.12,21.09,1.49"/><path class="cls-22" d="M308.42,959.29s8.51,12.12,21.08,1.49"/><path class="cls-22" d="M329.87,959.29s8.52,12.12,21.09,1.49"/><path class="cls-22" d="M351.33,959.29s8.51,12.12,21.08,1.49"/><path class="cls-22" d="M40.11,968.63s8.52,12.12,21.09,1.49"/><path class="cls-22" d="M62.74,969.28s8.51,12.12,21.08,1.49"/><path class="cls-22" d="M84.19,969.28s8.52,12.12,21.09,1.49"/><path class="cls-22" d="M105.65,969.28s8.51,12.12,21.08,1.49"/><path class="cls-22" d="M127.1,969.28s8.52,12.12,21.09,1.49"/><path class="cls-22" d="M148.56,969.28s8.51,12.12,21.09,1.49"/><path class="cls-22" d="M170,969.28s8.51,12.12,21.08,1.49"/><path class="cls-22" d="M191.47,969.28s8.52,12.12,21.09,1.49"/><path class="cls-22" d="M212.93,969.28s8.51,12.12,21.08,1.49"/><path class="cls-22" d="M234.38,969.28s8.52,12.12,21.09,1.49"/><path class="cls-22" d="M255.84,969.28s8.51,12.12,21.09,1.49"/><path class="cls-22" d="M277.3,969.28s8.51,12.12,21.08,1.49"/><path class="cls-22" d="M298.75,969.28s8.52,12.12,21.09,1.49"/><path class="cls-22" d="M320.21,969.28s8.51,12.12,21.08,1.49"/><path class="cls-22" d="M341.66,969.28s8.52,12.12,21.09,1.49"/><path class="cls-22" d="M362,969.28s8.51,12.12,21.09,1.49"/><path class="cls-22" d="M46,979.26s8.52,12.12,21.09,1.49"/><path class="cls-22" d="M70.47,979.26s8.51,12.12,21.08,1.49"/><path class="cls-22" d="M91.92,979.26s8.52,12.12,21.09,1.49"/><path class="cls-22" d="M113.38,979.26s8.51,12.12,21.09,1.49"/><path class="cls-22" d="M134.84,979.26s8.51,12.12,21.08,1.49"/><path class="cls-22" d="M156.29,979.26s8.52,12.12,21.09,1.49"/><path class="cls-22" d="M177.75,979.26s8.51,12.12,21.08,1.49"/><path class="cls-22" d="M199.2,979.26s8.52,12.12,21.09,1.49"/><path class="cls-22" d="M220.66,979.26s8.51,12.12,21.09,1.49"/><path class="cls-22" d="M242.12,979.26s8.51,12.12,21.08,1.49"/><path class="cls-22" d="M263.57,979.26s8.52,12.12,21.09,1.49"/><path class="cls-22" d="M285,979.26s8.51,12.12,21.08,1.49"/><path class="cls-22" d="M306.48,979.26s8.52,12.12,21.09,1.49"/><path class="cls-22" d="M327.94,979.26s8.51,12.12,21.09,1.49"/><path class="cls-22" d="M349.4,979.26s8.51,12.12,21.08,1.49"/><path class="cls-22" d="M366.47,979.26s8.51,12.12,21.09,1.49"/><path class="cls-22" d="M37.57,989.9s8.51,12.11,21.09,1.48"/><path class="cls-22" d="M29.36,1047.24s8.52,12.12,21.09,1.48"/><path class="cls-22" d="M33.23,1023.08s8.51,12.11,21.08,1.48"/><path class="cls-22" d="M59.19,989.57s8.52,12.12,21.09,1.49"/><path class="cls-22" d="M80.65,989.57s8.51,12.12,21.09,1.49"/><path class="cls-22" d="M102.11,989.57s8.51,12.12,21.08,1.49"/><path class="cls-22" d="M123.56,989.57s8.52,12.12,21.09,1.49"/><path class="cls-22" d="M145,989.57s8.51,12.12,21.08,1.49"/><path class="cls-22" d="M166.47,989.57s8.52,12.12,21.09,1.49"/><path class="cls-22" d="M187.93,989.57s8.51,12.12,21.09,1.49"/><path class="cls-22" d="M209.38,989.57s8.52,12.12,21.09,1.49"/><path class="cls-22" d="M230.84,989.57s8.52,12.12,21.09,1.49"/><path class="cls-22" d="M252.3,989.57s8.51,12.12,21.08,1.49"/><path class="cls-22" d="M273.75,989.57s8.52,12.12,21.09,1.49"/><path class="cls-22" d="M295.21,989.57s8.51,12.12,21.08,1.49"/><path class="cls-22" d="M316.66,989.57s8.52,12.12,21.09,1.49"/><path class="cls-22" d="M338.12,989.57s8.51,12.12,21.09,1.49"/><path class="cls-22" d="M358.42,989.57s8.51,12.12,21.08,1.49"/><path class="cls-22" d="M45.72,1001.17s8.52,12.12,21.09,1.49"/><path class="cls-22" d="M69.18,1001.17s8.51,12.12,21.09,1.49"/><path class="cls-22" d="M90.64,1001.17s8.51,12.12,21.08,1.49"/><path class="cls-22" d="M112.09,1001.17s8.52,12.12,21.09,1.49"/><path class="cls-22" d="M133.55,1001.17s8.51,12.12,21.08,1.49"/><path class="cls-22" d="M155,1001.17s8.52,12.12,21.09,1.49"/><path class="cls-22" d="M176.46,1001.17s8.51,12.12,21.09,1.49"/><path class="cls-22" d="M197.92,1001.17s8.51,12.12,21.08,1.49"/><path class="cls-22" d="M219.37,1001.17s8.52,12.12,21.09,1.49"/><path class="cls-22" d="M240.83,1001.17s8.51,12.12,21.08,1.49"/><path class="cls-22" d="M262.28,1001.17s8.52,12.12,21.09,1.49"/><path class="cls-22" d="M283.74,1001.17s8.51,12.12,21.09,1.49"/><path class="cls-22" d="M305.2,1001.17s8.51,12.12,21.08,1.49"/><path class="cls-22" d="M326.65,1001.17s8.52,12.12,21.09,1.49"/><path class="cls-22" d="M348.11,1001.17s8.51,12.12,21.08,1.49"/><path class="cls-22" d="M368.4,1001.17s8.52,12.12,21.09,1.49"/><path class="cls-22" d="M37.42,1012.45s8.51,12.11,21.08,1.48"/><path class="cls-22" d="M58.87,1012.45s8.52,12.11,21.09,1.48"/><path class="cls-22" d="M80.33,1012.45s8.51,12.11,21.08,1.48"/><path class="cls-22" d="M101.78,1012.45s8.52,12.11,21.09,1.48"/><path class="cls-22" d="M123.24,1012.45s8.51,12.11,21.09,1.48"/><path class="cls-22" d="M144.69,1012.45s8.52,12.11,21.09,1.48"/><path class="cls-22" d="M166.15,1012.45s8.52,12.11,21.09,1.48"/><path class="cls-22" d="M187.61,1012.45s8.51,12.11,21.08,1.48"/><path class="cls-22" d="M209.06,1012.45s8.52,12.11,21.09,1.48"/><path class="cls-22" d="M230.52,1012.45s8.51,12.11,21.08,1.48"/><path class="cls-22" d="M252,1012.45s8.52,12.11,21.09,1.48"/><path class="cls-22" d="M273.43,1012.45s8.51,12.11,21.09,1.48"/><path class="cls-22" d="M294.89,1012.45s8.51,12.11,21.08,1.48"/><path class="cls-22" d="M316.34,1012.45s8.52,12.11,21.09,1.48"/><path class="cls-22" d="M337.8,1012.45s8.51,12.11,21.08,1.48"/><path class="cls-22" d="M358.09,1012.45s8.52,12.11,21.09,1.48"/><path class="cls-22" d="M51.19,1024.37s8.51,12.11,21.08,1.48"/><path class="cls-22" d="M71.43,1025.33s8.52,12.12,21.09,1.49"/><path class="cls-22" d="M92.89,1025.33s8.51,12.12,21.09,1.49"/><path class="cls-22" d="M114.35,1025.33s8.51,12.12,21.08,1.49"/><path class="cls-22" d="M135.8,1025.33s8.52,12.12,21.09,1.49"/><path class="cls-22" d="M157.26,1025.33s8.51,12.12,21.08,1.49"/><path class="cls-22" d="M178.71,1025.33s8.52,12.12,21.09,1.49"/><path class="cls-22" d="M200.17,1025.33s8.51,12.12,21.09,1.49"/><path class="cls-22" d="M221.63,1025.33s8.51,12.12,21.08,1.49"/><path class="cls-22" d="M243.08,1025.33s8.52,12.12,21.09,1.49"/><path class="cls-22" d="M264.54,1025.33s8.51,12.12,21.08,1.49"/><path class="cls-22" d="M286,1025.33s8.52,12.12,21.09,1.49"/><path class="cls-22" d="M307.45,1025.33s8.51,12.12,21.09,1.49"/><path class="cls-22" d="M328.91,1025.33s8.51,12.12,21.08,1.49"/><path class="cls-22" d="M350.36,1025.33s8.52,12.12,21.09,1.49"/><path class="cls-22" d="M370.66,1025.33s8.51,12.12,21.08,1.49"/><path class="cls-22" d="M36.45,1036s8.51,12.12,21.08,1.49"/><path class="cls-22" d="M57.9,1036s8.52,12.12,21.09,1.49"/><path class="cls-22" d="M79.36,1036s8.51,12.12,21.09,1.49"/><path class="cls-22" d="M100.82,1036s8.51,12.12,21.08,1.49"/><path class="cls-22" d="M122.27,1036s8.52,12.12,21.09,1.49"/><path class="cls-22" d="M143.73,1036s8.51,12.12,21.08,1.49"/><path class="cls-22" d="M165.18,1036s8.52,12.12,21.09,1.49"/><path class="cls-22" d="M186.64,1036s8.51,12.12,21.09,1.49"/><path class="cls-22" d="M208.1,1036s8.51,12.12,21.08,1.49"/><path class="cls-22" d="M229.55,1036s8.52,12.12,21.09,1.49"/><path class="cls-22" d="M251,1036s8.51,12.12,21.08,1.49"/><path class="cls-22" d="M272.46,1036s8.52,12.12,21.09,1.49"/><path class="cls-22" d="M293.92,1036s8.51,12.12,21.09,1.49"/><path class="cls-22" d="M315.38,1036s8.51,12.12,21.08,1.49"/><path class="cls-22" d="M336.83,1036s8.52,12.12,21.09,1.49"/><path class="cls-22" d="M357.13,1036s8.51,12.12,21.08,1.49"/><path class="cls-22" d="M46.76,1047.88s8.51,12.12,21.08,1.49"/><path class="cls-22" d="M68.21,1047.88s8.52,12.12,21.09,1.49"/><path class="cls-22" d="M89.67,1047.88s8.51,12.12,21.09,1.49"/><path class="cls-22" d="M111.13,1047.88s8.51,12.12,21.08,1.49"/><path class="cls-22" d="M132.58,1047.88s8.52,12.12,21.09,1.49"/><path class="cls-22" d="M154,1047.88s8.51,12.12,21.08,1.49"/><path class="cls-22" d="M175.49,1047.88s8.52,12.12,21.09,1.49"/><path class="cls-22" d="M197,1047.88s8.51,12.12,21.09,1.49"/><path class="cls-22" d="M218.41,1047.88s8.51,12.12,21.08,1.49"/><path class="cls-22" d="M239.86,1047.88s8.52,12.12,21.09,1.49"/><path class="cls-22" d="M261.32,1047.88s8.51,12.12,21.08,1.49"/><path class="cls-22" d="M282.77,1047.88s8.52,12.12,21.09,1.49"/><path class="cls-22" d="M304.23,1047.88s8.51,12.12,21.08,1.49"/><path class="cls-22" d="M325.68,1047.88s8.52,12.12,21.09,1.49"/><path class="cls-22" d="M347.14,1047.88s8.51,12.12,21.09,1.49"/><path class="cls-22" d="M367.44,1047.88s8.51,12.12,21.08,1.49"/><path class="cls-22" d="M35.48,1059.16s8.52,12.12,21.09,1.48"/><path class="cls-22" d="M56.94,1059.16s8.51,12.12,21.08,1.48"/><path class="cls-22" d="M78.39,1059.16s8.52,12.12,21.09,1.48"/><path class="cls-22" d="M99.85,1059.16s8.51,12.12,21.09,1.48"/><path class="cls-22" d="M121.31,1059.16s8.51,12.12,21.08,1.48"/><path class="cls-22" d="M142.76,1059.16s8.52,12.12,21.09,1.48"/><path class="cls-22" d="M164.22,1059.16s8.51,12.12,21.08,1.48"/><path class="cls-22" d="M185.67,1059.16s8.52,12.12,21.09,1.48"/><path class="cls-22" d="M207.13,1059.16s8.51,12.12,21.09,1.48"/><path class="cls-22" d="M228.59,1059.16s8.51,12.12,21.08,1.48"/><path class="cls-22" d="M250,1059.16s8.52,12.12,21.09,1.48"/><path class="cls-22" d="M271.5,1059.16s8.51,12.12,21.08,1.48"/><path class="cls-22" d="M293,1059.16s8.52,12.12,21.09,1.48"/><path class="cls-22" d="M314.41,1059.16s8.51,12.12,21.09,1.48"/><path class="cls-22" d="M335.87,1059.16s8.51,12.12,21.08,1.48"/><path class="cls-22" d="M356.16,1059.16s8.52,12.12,21.09,1.48"/><path class="cls-22" d="M44.18,1069.14s8.51,12.12,21.09,1.49"/><path class="cls-22" d="M24.61,1069.87s8.51,12.12,21.09,1.49"/><path class="cls-22" d="M65.64,1069.14s8.51,12.12,21.08,1.49"/><path class="cls-22" d="M87.09,1069.14s8.52,12.12,21.09,1.49"/><path class="cls-22" d="M108.55,1069.14s8.51,12.12,21.08,1.49"/><path class="cls-22" d="M130,1069.14s8.52,12.12,21.09,1.49"/><path class="cls-22" d="M151.46,1069.14s8.51,12.12,21.09,1.49"/><path class="cls-22" d="M172.92,1069.14s8.51,12.12,21.08,1.49"/><path class="cls-22" d="M194.37,1069.14s8.52,12.12,21.09,1.49"/><path class="cls-22" d="M215.83,1069.14s8.51,12.12,21.08,1.49"/><path class="cls-22" d="M237.28,1069.14s8.52,12.12,21.09,1.49"/><path class="cls-22" d="M258.74,1069.14s8.51,12.12,21.09,1.49"/><path class="cls-22" d="M280.2,1069.14s8.51,12.12,21.08,1.49"/><path class="cls-22" d="M301.65,1069.14s8.52,12.12,21.09,1.49"/><path class="cls-22" d="M323.11,1069.14s8.51,12.12,21.08,1.49"/><path class="cls-22" d="M344.56,1069.14s8.52,12.12,21.09,1.49"/><path class="cls-22" d="M364.86,1069.14s8.51,12.12,21.08,1.49"/><path class="cls-22" d="M32.26,1079.45s8.51,12.12,21.09,1.49"/><path class="cls-22" d="M53.72,1079.45s8.51,12.12,21.08,1.49"/><path class="cls-22" d="M75.17,1079.45s8.52,12.12,21.09,1.49"/><path class="cls-22" d="M96.63,1079.45s8.51,12.12,21.08,1.49"/><path class="cls-22" d="M118.08,1079.45s8.52,12.12,21.09,1.49"/><path class="cls-22" d="M139.54,1079.45s8.51,12.12,21.09,1.49"/><path class="cls-22" d="M161,1079.45s8.51,12.12,21.08,1.49"/><path class="cls-22" d="M182.45,1079.45s8.52,12.12,21.09,1.49"/><path class="cls-22" d="M203.91,1079.45s8.51,12.12,21.08,1.49"/><path class="cls-22" d="M225.36,1079.45s8.52,12.12,21.09,1.49"/><path class="cls-22" d="M246.82,1079.45s8.51,12.12,21.09,1.49"/><path class="cls-22" d="M268.28,1079.45s8.51,12.12,21.08,1.49"/><path class="cls-22" d="M289.73,1079.45s8.52,12.12,21.09,1.49"/><path class="cls-22" d="M311.19,1079.45s8.51,12.12,21.08,1.49"/><path class="cls-22" d="M332.64,1079.45s8.52,12.12,21.09,1.49"/><path class="cls-22" d="M352.94,1079.45s8.51,12.12,21.09,1.49"/></g><path class="cls-20" d="M54.81,912s8.52,12.11,21.09,1.48"/><path class="cls-20" d="M76.27,912s8.51,12.11,21.08,1.48"/><path class="cls-20" d="M97.72,912s8.52,12.11,21.09,1.48"/><path class="cls-20" d="M119.18,912s8.51,12.11,21.08,1.48"/><path class="cls-20" d="M140.63,912s8.52,12.11,21.09,1.48"/><path class="cls-20" d="M162.09,912s8.52,12.11,21.09,1.48"/><path class="cls-20" d="M183.55,912s8.51,12.11,21.08,1.48"/><path class="cls-20" d="M205,912s8.52,12.11,21.09,1.48"/><path class="cls-20" d="M226.46,912s8.51,12.11,21.08,1.48"/><path class="cls-20" d="M247.91,912s8.52,12.11,21.09,1.48"/><path class="cls-20" d="M269.37,912s8.51,12.11,21.09,1.48"/><path class="cls-20" d="M290.83,912s8.51,12.11,21.08,1.48"/><path class="cls-20" d="M312.28,912s8.52,12.11,21.09,1.48"/><path class="cls-20" d="M333.74,912s8.51,12.11,21.08,1.48"/><path class="cls-20" d="M355.19,912s8.52,12.11,21.09,1.48"/><path class="cls-20" d="M376.46,1077.62s8.51,12.12,21.08,1.49"/><path class="cls-20" d="M383.87,1066.67s8.51,12.12,21.08,1.48"/><path class="cls-20" d="M380,1055.71s8.51,12.12,21.09,1.49"/><path class="cls-20" d="M378.07,1033.49s8.51,12.11,21.08,1.48"/><path class="cls-20" d="M52.88,923.31S61.39,935.43,74,924.8"/><path class="cls-20" d="M66.6,923s8.52,12.12,21.09,1.49"/><path class="cls-20" d="M88.06,923s8.51,12.12,21.08,1.49"/><path class="cls-20" d="M109.51,923s8.52,12.12,21.09,1.49"/><path class="cls-20" d="M131,923s8.51,12.12,21.09,1.49"/><path class="cls-20" d="M152.43,923s8.51,12.12,21.08,1.49"/><path class="cls-20" d="M173.88,923s8.52,12.12,21.09,1.49"/><path class="cls-20" d="M195.34,923s8.51,12.12,21.08,1.49"/><path class="cls-20" d="M216.79,923s8.52,12.12,21.09,1.49"/><path class="cls-20" d="M238.25,923s8.51,12.12,21.09,1.49"/><path class="cls-20" d="M259.71,923s8.51,12.12,21.08,1.49"/><path class="cls-20" d="M281.16,923s8.52,12.12,21.09,1.49"/><path class="cls-20" d="M302.62,923s8.51,12.12,21.08,1.49"/><path class="cls-20" d="M324.07,923s8.52,12.12,21.09,1.49"/><path class="cls-20" d="M345.53,923s8.51,12.12,21.09,1.49"/><path class="cls-20" d="M52.88,934.26s8.51,12.12,21.08,1.49"/><path class="cls-20" d="M74.33,934.26s8.52,12.12,21.09,1.49"/><path class="cls-20" d="M95.79,934.26s8.51,12.12,21.09,1.49"/><path class="cls-20" d="M117.25,934.26s8.51,12.12,21.08,1.49"/><path class="cls-20" d="M138.7,934.26s8.52,12.12,21.09,1.49"/><path class="cls-20" d="M160.16,934.26s8.51,12.12,21.08,1.49"/><path class="cls-20" d="M181.61,934.26s8.52,12.12,21.09,1.49"/><path class="cls-20" d="M203.07,934.26s8.51,12.12,21.09,1.49"/><path class="cls-20" d="M224.53,934.26s8.51,12.12,21.08,1.49"/><path class="cls-20" d="M246,934.26s8.52,12.12,21.09,1.49"/><path class="cls-20" d="M267.44,934.26s8.51,12.12,21.08,1.49"/><path class="cls-20" d="M288.89,934.26s8.52,12.12,21.09,1.49"/><path class="cls-20" d="M310.35,934.26s8.51,12.12,21.09,1.49"/><path class="cls-20" d="M331.81,934.26s8.51,12.12,21.08,1.49"/><path class="cls-20" d="M353.26,934.26s8.52,12.12,21.09,1.49"/><path class="cls-20" d="M46.51,943.93S55,956.05,67.6,945.42"/><path class="cls-20" d="M62.09,944.9s8.52,12.11,21.09,1.48"/><path class="cls-20" d="M83.55,944.9s8.51,12.11,21.08,1.48"/><path class="cls-20" d="M105,944.9s8.52,12.11,21.09,1.48"/><path class="cls-20" d="M373.88,1011.1s8.51,12.11,21.09,1.48"/><path class="cls-20" d="M126.46,944.9S135,957,147.55,946.38"/><path class="cls-20" d="M147.92,944.9S156.43,957,169,946.38"/><path class="cls-20" d="M169.37,944.9s8.52,12.11,21.09,1.48"/><path class="cls-20" d="M190.83,944.9s8.51,12.11,21.08,1.48"/><path class="cls-20" d="M212.28,944.9s8.52,12.11,21.09,1.48"/><path class="cls-20" d="M233.74,944.9s8.51,12.11,21.09,1.48"/><path class="cls-20" d="M255.2,944.9s8.51,12.11,21.08,1.48"/><path class="cls-20" d="M276.65,944.9s8.52,12.11,21.09,1.48"/><path class="cls-20" d="M298.11,944.9s8.51,12.11,21.08,1.48"/><path class="cls-20" d="M319.56,944.9s8.52,12.11,21.09,1.48"/><path class="cls-20" d="M341,944.9s8.51,12.11,21.09,1.48"/><path class="cls-20" d="M361.32,944.9s8.51,12.11,21.08,1.48"/><path class="cls-20" d="M47,956.49S55.46,968.61,68,958"/><path class="cls-20" d="M72.4,956.49s8.52,12.12,21.09,1.49"/><path class="cls-20" d="M93.86,956.49s8.51,12.12,21.08,1.49"/><path class="cls-20" d="M115.31,956.49s8.52,12.12,21.09,1.49"/><path class="cls-20" d="M136.77,956.49s8.51,12.12,21.09,1.49"/><path class="cls-20" d="M158.23,956.49s8.51,12.12,21.08,1.49"/><path class="cls-20" d="M179.68,956.49s8.52,12.12,21.09,1.49"/><path class="cls-20" d="M201.14,956.49s8.51,12.12,21.08,1.49"/><path class="cls-20" d="M222.59,956.49s8.52,12.12,21.09,1.49"/><path class="cls-20" d="M244.05,956.49s8.51,12.12,21.08,1.49"/><path class="cls-20" d="M265.5,956.49S274,968.61,286.59,958"/><path class="cls-20" d="M287,956.49s8.52,12.12,21.09,1.49"/><path class="cls-20" d="M308.42,956.49s8.51,12.12,21.08,1.49"/><path class="cls-20" d="M329.87,956.49S338.39,968.61,351,958"/><path class="cls-20" d="M351.33,956.49s8.51,12.12,21.08,1.49"/><path class="cls-20" d="M42.11,965.84S50.63,978,63.2,967.32"/><path class="cls-20" d="M62.74,966.48S71.25,978.6,83.82,968"/><path class="cls-20" d="M84.19,966.48s8.52,12.12,21.09,1.49"/><path class="cls-20" d="M105.65,966.48s8.51,12.12,21.08,1.49"/><path class="cls-20" d="M127.1,966.48s8.52,12.12,21.09,1.49"/><path class="cls-20" d="M148.56,966.48s8.51,12.12,21.09,1.49"/><path class="cls-20" d="M170,966.48s8.51,12.12,21.08,1.49"/><path class="cls-20" d="M191.47,966.48S200,978.6,212.56,968"/><path class="cls-20" d="M212.93,966.48S221.44,978.6,234,968"/><path class="cls-20" d="M234.38,966.48s8.52,12.12,21.09,1.49"/><path class="cls-20" d="M255.84,966.48s8.51,12.12,21.09,1.49"/><path class="cls-20" d="M277.3,966.48s8.51,12.12,21.08,1.49"/><path class="cls-20" d="M298.75,966.48s8.52,12.12,21.09,1.49"/><path class="cls-20" d="M320.21,966.48s8.51,12.12,21.08,1.49"/><path class="cls-20" d="M341.66,966.48s8.52,12.12,21.09,1.49"/><path class="cls-20" d="M362,966.48s8.51,12.12,21.09,1.49"/><path class="cls-20" d="M47,976.47S55.53,988.58,68.1,978"/><path class="cls-20" d="M70.47,976.47S79,988.58,91.55,978"/><path class="cls-20" d="M91.92,976.47S100.44,988.58,113,978"/><path class="cls-20" d="M113.38,976.47s8.51,12.11,21.09,1.48"/><path class="cls-20" d="M134.84,976.47s8.51,12.11,21.08,1.48"/><path class="cls-20" d="M156.29,976.47s8.52,12.11,21.09,1.48"/><path class="cls-20" d="M177.75,976.47s8.51,12.11,21.08,1.48"/><path class="cls-20" d="M199.2,976.47s8.52,12.11,21.09,1.48"/><path class="cls-20" d="M220.66,976.47s8.51,12.11,21.09,1.48"/><path class="cls-20" d="M242.12,976.47s8.51,12.11,21.08,1.48"/><path class="cls-20" d="M263.57,976.47s8.52,12.11,21.09,1.48"/><path class="cls-20" d="M285,976.47s8.51,12.11,21.08,1.48"/><path class="cls-20" d="M306.48,976.47S315,988.58,327.57,978"/><path class="cls-20" d="M327.94,976.47S336.45,988.58,349,978"/><path class="cls-20" d="M349.4,976.47s8.51,12.11,21.08,1.48"/><path class="cls-20" d="M366.47,976.47S375,988.58,387.56,978"/><path class="cls-20" d="M38.57,987.1s8.51,12.11,21.09,1.48"/><path class="cls-20" d="M29.36,1044.44s8.52,12.12,21.09,1.49"/><path class="cls-20" d="M33.23,1020.28s8.51,12.12,21.08,1.49"/><path class="cls-20" d="M59.19,986.77s8.52,12.12,21.09,1.49"/><path class="cls-20" d="M80.65,986.77s8.51,12.12,21.09,1.49"/><path class="cls-20" d="M102.11,986.77s8.51,12.12,21.08,1.49"/><path class="cls-20" d="M123.56,986.77s8.52,12.12,21.09,1.49"/><path class="cls-20" d="M145,986.77s8.51,12.12,21.08,1.49"/><path class="cls-20" d="M166.47,986.77s8.52,12.12,21.09,1.49"/><path class="cls-20" d="M187.93,986.77s8.51,12.12,21.09,1.49"/><path class="cls-20" d="M209.38,986.77s8.52,12.12,21.09,1.49"/><path class="cls-20" d="M230.84,986.77s8.52,12.12,21.09,1.49"/><path class="cls-20" d="M252.3,986.77s8.51,12.12,21.08,1.49"/><path class="cls-20" d="M273.75,986.77s8.52,12.12,21.09,1.49"/><path class="cls-20" d="M295.21,986.77s8.51,12.12,21.08,1.49"/><path class="cls-20" d="M316.66,986.77s8.52,12.12,21.09,1.49"/><path class="cls-20" d="M338.12,986.77s8.51,12.12,21.09,1.49"/><path class="cls-20" d="M358.42,986.77s8.51,12.12,21.08,1.49"/><path class="cls-20" d="M47.72,998.37s8.52,12.12,21.09,1.49"/><path class="cls-20" d="M69.18,998.37s8.51,12.12,21.09,1.49"/><path class="cls-20" d="M90.64,998.37s8.51,12.12,21.08,1.49"/><path class="cls-20" d="M112.09,998.37s8.52,12.12,21.09,1.49"/><path class="cls-20" d="M133.55,998.37s8.51,12.12,21.08,1.49"/><path class="cls-20" d="M155,998.37s8.52,12.12,21.09,1.49"/><path class="cls-20" d="M176.46,998.37s8.51,12.12,21.09,1.49"/><path class="cls-20" d="M197.92,998.37s8.51,12.12,21.08,1.49"/><path class="cls-20" d="M219.37,998.37s8.52,12.12,21.09,1.49"/><path class="cls-20" d="M240.83,998.37s8.51,12.12,21.08,1.49"/><path class="cls-20" d="M262.28,998.37s8.52,12.12,21.09,1.49"/><path class="cls-20" d="M283.74,998.37s8.51,12.12,21.09,1.49"/><path class="cls-20" d="M305.2,998.37s8.51,12.12,21.08,1.49"/><path class="cls-20" d="M326.65,998.37s8.52,12.12,21.09,1.49"/><path class="cls-20" d="M348.11,998.37s8.51,12.12,21.08,1.49"/><path class="cls-20" d="M368.4,998.37s8.52,12.12,21.09,1.49"/><path class="cls-20" d="M37.42,1009.65s8.51,12.12,21.08,1.48"/><path class="cls-20" d="M58.87,1009.65s8.52,12.12,21.09,1.48"/><path class="cls-20" d="M80.33,1009.65s8.51,12.12,21.08,1.48"/><path class="cls-20" d="M101.78,1009.65s8.52,12.12,21.09,1.48"/><path class="cls-20" d="M123.24,1009.65s8.51,12.12,21.09,1.48"/><path class="cls-20" d="M144.69,1009.65s8.52,12.12,21.09,1.48"/><path class="cls-20" d="M166.15,1009.65s8.52,12.12,21.09,1.48"/><path class="cls-20" d="M187.61,1009.65s8.51,12.12,21.08,1.48"/><path class="cls-20" d="M209.06,1009.65s8.52,12.12,21.09,1.48"/><path class="cls-20" d="M230.52,1009.65s8.51,12.12,21.08,1.48"/><path class="cls-20" d="M252,1009.65s8.52,12.12,21.09,1.48"/><path class="cls-20" d="M273.43,1009.65s8.51,12.12,21.09,1.48"/><path class="cls-20" d="M294.89,1009.65s8.51,12.12,21.08,1.48"/><path class="cls-20" d="M316.34,1009.65s8.52,12.12,21.09,1.48"/><path class="cls-20" d="M337.8,1009.65s8.51,12.12,21.08,1.48"/><path class="cls-20" d="M358.09,1009.65s8.52,12.12,21.09,1.48"/><path class="cls-20" d="M51.19,1021.57s8.51,12.11,21.08,1.48"/><path class="cls-20" d="M71.43,1022.53S80,1034.65,92.52,1024"/><path class="cls-20" d="M92.89,1022.53s8.51,12.12,21.09,1.49"/><path class="cls-20" d="M114.35,1022.53s8.51,12.12,21.08,1.49"/><path class="cls-20" d="M135.8,1022.53s8.52,12.12,21.09,1.49"/><path class="cls-20" d="M157.26,1022.53s8.51,12.12,21.08,1.49"/><path class="cls-20" d="M178.71,1022.53s8.52,12.12,21.09,1.49"/><path class="cls-20" d="M200.17,1022.53s8.51,12.12,21.09,1.49"/><path class="cls-20" d="M221.63,1022.53s8.51,12.12,21.08,1.49"/><path class="cls-20" d="M243.08,1022.53s8.52,12.12,21.09,1.49"/><path class="cls-20" d="M264.54,1022.53s8.51,12.12,21.08,1.49"/><path class="cls-20" d="M286,1022.53s8.52,12.12,21.09,1.49"/><path class="cls-20" d="M307.45,1022.53s8.51,12.12,21.09,1.49"/><path class="cls-20" d="M328.91,1022.53s8.51,12.12,21.08,1.49"/><path class="cls-20" d="M350.36,1022.53s8.52,12.12,21.09,1.49"/><path class="cls-20" d="M370.66,1022.53s8.51,12.12,21.08,1.49"/><path class="cls-20" d="M36.45,1033.16s8.51,12.12,21.08,1.49"/><path class="cls-20" d="M57.9,1033.16s8.52,12.12,21.09,1.49"/><path class="cls-20" d="M79.36,1033.16s8.51,12.12,21.09,1.49"/><path class="cls-20" d="M100.82,1033.16s8.51,12.12,21.08,1.49"/><path class="cls-20" d="M122.27,1033.16s8.52,12.12,21.09,1.49"/><path class="cls-20" d="M143.73,1033.16s8.51,12.12,21.08,1.49"/><path class="cls-20" d="M165.18,1033.16s8.52,12.12,21.09,1.49"/><path class="cls-20" d="M186.64,1033.16s8.51,12.12,21.09,1.49"/><path class="cls-20" d="M208.1,1033.16s8.51,12.12,21.08,1.49"/><path class="cls-20" d="M229.55,1033.16s8.52,12.12,21.09,1.49"/><path class="cls-20" d="M251,1033.16s8.51,12.12,21.08,1.49"/><path class="cls-20" d="M272.46,1033.16s8.52,12.12,21.09,1.49"/><path class="cls-20" d="M293.92,1033.16s8.51,12.12,21.09,1.49"/><path class="cls-20" d="M315.38,1033.16s8.51,12.12,21.08,1.49"/><path class="cls-20" d="M336.83,1033.16s8.52,12.12,21.09,1.49"/><path class="cls-20" d="M357.13,1033.16s8.51,12.12,21.08,1.49"/><path class="cls-20" d="M46.76,1045.08s8.51,12.12,21.08,1.49"/><path class="cls-20" d="M68.21,1045.08s8.52,12.12,21.09,1.49"/><path class="cls-20" d="M89.67,1045.08s8.51,12.12,21.09,1.49"/><path class="cls-20" d="M111.13,1045.08s8.51,12.12,21.08,1.49"/><path class="cls-20" d="M132.58,1045.08s8.52,12.12,21.09,1.49"/><path class="cls-20" d="M154,1045.08s8.51,12.12,21.08,1.49"/><path class="cls-20" d="M175.49,1045.08s8.52,12.12,21.09,1.49"/><path class="cls-20" d="M197,1045.08s8.51,12.12,21.09,1.49"/><path class="cls-20" d="M218.41,1045.08s8.51,12.12,21.08,1.49"/><path class="cls-20" d="M239.86,1045.08s8.52,12.12,21.09,1.49"/><path class="cls-20" d="M261.32,1045.08s8.51,12.12,21.08,1.49"/><path class="cls-20" d="M282.77,1045.08s8.52,12.12,21.09,1.49"/><path class="cls-20" d="M304.23,1045.08s8.51,12.12,21.08,1.49"/><path class="cls-20" d="M325.68,1045.08s8.52,12.12,21.09,1.49"/><path class="cls-20" d="M347.14,1045.08s8.51,12.12,21.09,1.49"/><path class="cls-20" d="M367.44,1045.08s8.51,12.12,21.08,1.49"/><path class="cls-20" d="M35.48,1056.36s8.52,12.12,21.09,1.49"/><path class="cls-20" d="M56.94,1056.36s8.51,12.12,21.08,1.49"/><path class="cls-20" d="M78.39,1056.36s8.52,12.12,21.09,1.49"/><path class="cls-20" d="M99.85,1056.36s8.51,12.12,21.09,1.49"/><path class="cls-20" d="M121.31,1056.36s8.51,12.12,21.08,1.49"/><path class="cls-20" d="M142.76,1056.36s8.52,12.12,21.09,1.49"/><path class="cls-20" d="M164.22,1056.36s8.51,12.12,21.08,1.49"/><path class="cls-20" d="M185.67,1056.36s8.52,12.12,21.09,1.49"/><path class="cls-20" d="M207.13,1056.36s8.51,12.12,21.09,1.49"/><path class="cls-20" d="M228.59,1056.36s8.51,12.12,21.08,1.49"/><path class="cls-20" d="M250,1056.36s8.52,12.12,21.09,1.49"/><path class="cls-20" d="M271.5,1056.36s8.51,12.12,21.08,1.49"/><path class="cls-20" d="M293,1056.36s8.52,12.12,21.09,1.49"/><path class="cls-20" d="M314.41,1056.36s8.51,12.12,21.09,1.49"/><path class="cls-20" d="M335.87,1056.36s8.51,12.12,21.08,1.49"/><path class="cls-20" d="M356.16,1056.36s8.52,12.12,21.09,1.49"/><path class="cls-20" d="M44.18,1066.35s8.51,12.11,21.09,1.48"/><path class="cls-20" d="M24.61,1067.07s8.51,12.12,21.09,1.49"/><path class="cls-20" d="M65.64,1066.35s8.51,12.11,21.08,1.48"/><path class="cls-20" d="M87.09,1066.35s8.52,12.11,21.09,1.48"/><path class="cls-20" d="M108.55,1066.35s8.51,12.11,21.08,1.48"/><path class="cls-20" d="M130,1066.35s8.52,12.11,21.09,1.48"/><path class="cls-20" d="M151.46,1066.35s8.51,12.11,21.09,1.48"/><path class="cls-20" d="M172.92,1066.35s8.51,12.11,21.08,1.48"/><path class="cls-20" d="M194.37,1066.35s8.52,12.11,21.09,1.48"/><path class="cls-20" d="M215.83,1066.35s8.51,12.11,21.08,1.48"/><path class="cls-20" d="M237.28,1066.35s8.52,12.11,21.09,1.48"/><path class="cls-20" d="M258.74,1066.35s8.51,12.11,21.09,1.48"/><path class="cls-20" d="M280.2,1066.35s8.51,12.11,21.08,1.48"/><path class="cls-20" d="M301.65,1066.35s8.52,12.11,21.09,1.48"/><path class="cls-20" d="M323.11,1066.35s8.51,12.11,21.08,1.48"/><path class="cls-20" d="M344.56,1066.35s8.52,12.11,21.09,1.48"/><path class="cls-20" d="M364.86,1066.35s8.51,12.11,21.08,1.48"/><path class="cls-20" d="M32.26,1076.65s8.51,12.12,21.09,1.49"/><path class="cls-20" d="M53.72,1076.65s8.51,12.12,21.08,1.49"/><path class="cls-20" d="M75.17,1076.65s8.52,12.12,21.09,1.49"/><path class="cls-20" d="M96.63,1076.65s8.51,12.12,21.08,1.49"/><path class="cls-20" d="M118.08,1076.65s8.52,12.12,21.09,1.49"/><path class="cls-20" d="M139.54,1076.65s8.51,12.12,21.09,1.49"/><path class="cls-20" d="M161,1076.65s8.51,12.12,21.08,1.49"/><path class="cls-20" d="M182.45,1076.65s8.52,12.12,21.09,1.49"/><path class="cls-20" d="M203.91,1076.65s8.51,12.12,21.08,1.49"/><path class="cls-20" d="M225.36,1076.65s8.52,12.12,21.09,1.49"/><path class="cls-20" d="M246.82,1076.65s8.51,12.12,21.09,1.49"/><path class="cls-20" d="M268.28,1076.65s8.51,12.12,21.08,1.49"/><path class="cls-20" d="M289.73,1076.65s8.52,12.12,21.09,1.49"/><path class="cls-20" d="M311.19,1076.65s8.51,12.12,21.08,1.49"/><path class="cls-20" d="M332.64,1076.65s8.52,12.12,21.09,1.49"/><path class="cls-20" d="M352.94,1076.65s8.51,12.12,21.09,1.49"/><path class="cls-24" d="M358.86,1196.4c-21.67,3.93-42.87,4.12-63.53,0-3.71-27.94-3.85-58.59,0-92.28a292.66,292.66,0,0,1,63.53,0A376.85,376.85,0,0,1,358.86,1196.4Z"/><path class="cls-25" d="M355.85,1193.41c-21.66,3.71-42.86,3.89-63.52,0-3.71-26.38-3.85-55.32,0-87.13a310,310,0,0,1,63.52,0A335.68,335.68,0,0,1,355.85,1193.41Z"/><line class="cls-26" x1="324.47" y1="1107.24" x2="324.47" y2="1193.04"/><line class="cls-27" x1="290.39" y1="1149.83" x2="357.57" y2="1149.83"/><line class="cls-28" x1="323.34" y1="1104.32" x2="323.34" y2="1196.85"/><line class="cls-29" x1="288.96" y1="1147.99" x2="359.26" y2="1147.99"/><path class="cls-24" d="M143.31,1196.4c-21.67,3.93-42.87,4.12-63.53,0-3.71-27.94-3.85-58.59,0-92.28a292.66,292.66,0,0,1,63.53,0A376.85,376.85,0,0,1,143.31,1196.4Z"/><path class="cls-25" d="M140.3,1193.41c-21.66,3.71-42.86,3.89-63.52,0-3.71-26.38-3.85-55.32,0-87.13a310,310,0,0,1,63.52,0A335.24,335.24,0,0,1,140.3,1193.41Z"/><line class="cls-26" x1="108.92" y1="1107.24" x2="108.92" y2="1193.04"/><line class="cls-27" x1="74.84" y1="1149.83" x2="142.02" y2="1149.83"/><line class="cls-28" x1="107.79" y1="1104.32" x2="107.79" y2="1196.85"/><line class="cls-29" x1="73.41" y1="1147.99" x2="143.71" y2="1147.99"/><path class="cls-30" d="M202.06,1190.45h36.11A12.87,12.87,0,0,1,251,1203.32v108.73a0,0,0,0,1,0,0H189.19a0,0,0,0,1,0,0V1203.32A12.87,12.87,0,0,1,202.06,1190.45Z"/><path class="cls-31" d="M198.84,1188.68H235a12.87,12.87,0,0,1,12.87,12.87v108.73a0,0,0,0,1,0,0H186a0,0,0,0,1,0,0V1201.55A12.87,12.87,0,0,1,198.84,1188.68Z"/><circle class="cls-32" cx="236.49" cy="1255.31" r="3.86"/><circle class="cls-33" cx="235.61" cy="1254.34" r="3.86"/><g class="cls-34"><rect class="cls-35" x="258.77" y="1250.92" width="129.99" height="57.5"/><line class="cls-35" x1="266.02" y1="1250.92" x2="266.02" y2="1307.94"/><line class="cls-35" x1="274.23" y1="1250.92" x2="274.23" y2="1307.94"/><line class="cls-35" x1="282.45" y1="1250.92" x2="282.45" y2="1307.94"/><line class="cls-35" x1="290.66" y1="1250.92" x2="290.66" y2="1307.94"/><line class="cls-35" x1="298.88" y1="1250.92" x2="298.88" y2="1307.94"/><line class="cls-35" x1="307.09" y1="1250.92" x2="307.09" y2="1307.94"/><line class="cls-35" x1="315.31" y1="1250.92" x2="315.31" y2="1307.94"/><line class="cls-35" x1="323.52" y1="1250.92" x2="323.52" y2="1307.94"/><line class="cls-35" x1="331.74" y1="1250.92" x2="331.74" y2="1307.94"/><line class="cls-35" x1="339.95" y1="1250.92" x2="339.95" y2="1307.94"/><line class="cls-35" x1="348.17" y1="1250.92" x2="348.17" y2="1307.94"/><line class="cls-35" x1="356.38" y1="1250.92" x2="356.38" y2="1307.94"/><line class="cls-35" x1="364.59" y1="1250.92" x2="364.59" y2="1307.94"/><line class="cls-35" x1="372.81" y1="1250.92" x2="372.81" y2="1307.94"/><line class="cls-35" x1="381.02" y1="1250.92" x2="381.02" y2="1307.94"/></g><rect class="cls-36" x="256.28" y="1249.88" width="129.99" height="57.5"/><line class="cls-36" x1="263.53" y1="1249.88" x2="263.53" y2="1306.9"/><line class="cls-36" x1="271.74" y1="1249.88" x2="271.74" y2="1306.9"/><line class="cls-36" x1="279.96" y1="1249.88" x2="279.96" y2="1306.9"/><line class="cls-36" x1="288.17" y1="1249.88" x2="288.17" y2="1306.9"/><line class="cls-36" x1="296.39" y1="1249.88" x2="296.39" y2="1306.9"/><line class="cls-36" x1="304.6" y1="1249.88" x2="304.6" y2="1306.9"/><line class="cls-36" x1="312.82" y1="1249.88" x2="312.82" y2="1306.9"/><line class="cls-36" x1="321.03" y1="1249.88" x2="321.03" y2="1306.9"/><line class="cls-36" x1="329.25" y1="1249.88" x2="329.25" y2="1306.9"/><line class="cls-36" x1="337.46" y1="1249.88" x2="337.46" y2="1306.9"/><line class="cls-36" x1="345.68" y1="1249.88" x2="345.68" y2="1306.9"/><line class="cls-36" x1="353.89" y1="1249.88" x2="353.89" y2="1306.9"/><line class="cls-36" x1="362.1" y1="1249.88" x2="362.1" y2="1306.9"/><line class="cls-36" x1="370.32" y1="1249.88" x2="370.32" y2="1306.9"/><line class="cls-36" x1="378.53" y1="1249.88" x2="378.53" y2="1306.9"/><g class="cls-34"><rect class="cls-35" x="47.76" y="1251.25" width="129.99" height="57.5"/><line class="cls-35" x1="55.01" y1="1251.25" x2="55.01" y2="1308.27"/><line class="cls-35" x1="63.23" y1="1251.25" x2="63.23" y2="1308.27"/><line class="cls-35" x1="71.44" y1="1251.25" x2="71.44" y2="1308.27"/><line class="cls-35" x1="79.66" y1="1251.25" x2="79.66" y2="1308.27"/><line class="cls-35" x1="87.87" y1="1251.25" x2="87.87" y2="1308.27"/><line class="cls-35" x1="96.09" y1="1251.25" x2="96.09" y2="1308.27"/><line class="cls-35" x1="104.3" y1="1251.25" x2="104.3" y2="1308.27"/><line class="cls-35" x1="112.51" y1="1251.25" x2="112.51" y2="1308.27"/><line class="cls-35" x1="120.73" y1="1251.25" x2="120.73" y2="1308.27"/><line class="cls-35" x1="128.94" y1="1251.25" x2="128.94" y2="1308.27"/><line class="cls-35" x1="137.16" y1="1251.25" x2="137.16" y2="1308.27"/><line class="cls-35" x1="145.37" y1="1251.25" x2="145.37" y2="1308.27"/><line class="cls-35" x1="153.59" y1="1251.25" x2="153.59" y2="1308.27"/><line class="cls-35" x1="161.8" y1="1251.25" x2="161.8" y2="1308.27"/><line class="cls-35" x1="170.02" y1="1251.25" x2="170.02" y2="1308.27"/></g><rect class="cls-36" x="45.27" y="1250.2" width="129.99" height="57.5"/><line class="cls-36" x1="52.52" y1="1250.2" x2="52.52" y2="1307.22"/><line class="cls-36" x1="60.74" y1="1250.2" x2="60.74" y2="1307.22"/><line class="cls-36" x1="68.95" y1="1250.2" x2="68.95" y2="1307.22"/><line class="cls-36" x1="77.17" y1="1250.2" x2="77.17" y2="1307.22"/><line class="cls-36" x1="85.38" y1="1250.2" x2="85.38" y2="1307.22"/><line class="cls-36" x1="93.6" y1="1250.2" x2="93.6" y2="1307.22"/><line class="cls-36" x1="101.81" y1="1250.2" x2="101.81" y2="1307.22"/><line class="cls-36" x1="110.02" y1="1250.2" x2="110.02" y2="1307.22"/><line class="cls-36" x1="118.24" y1="1250.2" x2="118.24" y2="1307.22"/><line class="cls-36" x1="126.45" y1="1250.2" x2="126.45" y2="1307.22"/><line class="cls-36" x1="134.67" y1="1250.2" x2="134.67" y2="1307.22"/><line class="cls-36" x1="142.88" y1="1250.2" x2="142.88" y2="1307.22"/><line class="cls-36" x1="151.1" y1="1250.2" x2="151.1" y2="1307.22"/><line class="cls-36" x1="159.31" y1="1250.2" x2="159.31" y2="1307.22"/><line class="cls-36" x1="167.53" y1="1250.2" x2="167.53" y2="1307.22"/><path class="cls-37" d="M390.61,1372.77a2546.73,2546.73,0,0,1-347.35,0,6.71,6.71,0,0,1-6.15-5.51,155.79,155.79,0,0,1,0-54.06,6.69,6.69,0,0,1,6.6-5.54h346.7a6.73,6.73,0,0,1,6.57,5.41c3.65,17.63,3.41,35.74-.18,54.27A6.72,6.72,0,0,1,390.61,1372.77Z"/><rect class="cls-38" x="180.54" y="1308.51" width="73.79" height="11.92"/><rect class="cls-39" x="254.05" y="1315.03" width="18.12" height="62.21" rx="3.87"/><rect class="cls-39" x="270.72" y="1314.79" width="18.12" height="62.21" rx="3.87"/><rect class="cls-39" x="288.36" y="1314.31" width="18.12" height="62.21" rx="3.87"/><rect class="cls-39" x="305.99" y="1314.31" width="18.12" height="62.21" rx="3.87"/><rect class="cls-39" x="324.11" y="1313.34" width="18.12" height="62.21" rx="3.87"/><rect class="cls-39" x="342.24" y="1312.62" width="18.12" height="62.21" rx="3.87"/><rect class="cls-39" x="359.15" y="1313.07" width="18.12" height="62.21" rx="3.87"/><rect class="cls-39" x="39.2" y="1313.94" width="18.12" height="62.21" rx="3.87"/><rect class="cls-39" x="55.88" y="1313.7" width="18.12" height="62.21" rx="3.87"/><rect class="cls-40" x="73.51" y="1313.22" width="18.12" height="63.52" rx="3.87"/><rect class="cls-41" x="91.15" y="1313.22" width="18.12" height="63.73" rx="3.87"/><rect class="cls-42" x="109.27" y="1312.25" width="18.12" height="64.62" rx="3.87"/><rect class="cls-43" x="127.39" y="1311.53" width="18.12" height="65.92" rx="3.87"/><rect class="cls-44" x="144.3" y="1311.98" width="18.12" height="66.11" rx="3.87"/><rect class="cls-45" x="162.49" y="1311.77" width="18.12" height="65.84" rx="3.87"/><rect class="cls-46" x="38.88" y="1306.53" width="18.39" height="10.35" rx="3.87"/><rect class="cls-46" x="56.54" y="1306.53" width="18.39" height="10.35" rx="3.87"/><rect class="cls-46" x="74.19" y="1306.53" width="18.39" height="10.35" rx="3.87"/><rect class="cls-46" x="91.84" y="1306.53" width="18.39" height="10.35" rx="3.87"/><rect class="cls-46" x="109.5" y="1306.53" width="18.39" height="10.35" rx="3.87"/><rect class="cls-46" x="127.15" y="1306.53" width="18.39" height="10.35" rx="3.87"/><rect class="cls-46" x="144.8" y="1306.53" width="18.39" height="10.35" rx="3.87"/><rect class="cls-46" x="162.46" y="1306.53" width="18.39" height="10.35" rx="3.87"/><rect class="cls-39" x="377.34" y="1312.86" width="18.12" height="62.21" rx="3.87"/><rect class="cls-47" x="178.4" y="1320.75" width="78.17" height="11.92"/><rect class="cls-48" x="177.21" y="1332.63" width="81.47" height="11.92"/><rect class="cls-49" x="175.47" y="1344.55" width="84.6" height="11.92"/><path class="cls-50" d="M262.29,1368.72a408.22,408.22,0,0,1-88.54,0V1356.8h88.54Z"/><path class="cls-51" d="M265.06,1380.31a449.49,449.49,0,0,1-93.07,0v-11.92a612.61,612.61,0,0,0,93.07,0Z"/><path class="cls-52" d="M220.61,1206.5h0A14.42,14.42,0,0,1,235,1220.91v15.91a0,0,0,0,1,0,0H206.2a0,0,0,0,1,0,0v-15.91A14.42,14.42,0,0,1,220.61,1206.5Z"/><path class="cls-53" d="M217.66,1206.23h0a13.65,13.65,0,0,1,13.65,13.65v13.65a0,0,0,0,1,0,0H204a0,0,0,0,1,0,0v-13.65a13.65,13.65,0,0,1,13.65-13.65Z"/><line class="cls-54" x1="217.64" y1="1206.59" x2="217.64" y2="1233.98"/><line class="cls-54" x1="204.2" y1="1220.15" x2="231.3" y2="1220.15"/><rect class="cls-46" x="253.73" y="1307.63" width="18.39" height="10.35" rx="3.87"/><rect class="cls-46" x="271.38" y="1307.63" width="18.39" height="10.35" rx="3.87"/><rect class="cls-46" x="289.03" y="1307.63" width="18.39" height="10.35" rx="3.87"/><rect class="cls-46" x="306.69" y="1307.63" width="18.39" height="10.35" rx="3.87"/><rect class="cls-46" x="324.34" y="1307.63" width="18.39" height="10.35" rx="3.87"/><rect class="cls-46" x="341.99" y="1307.63" width="18.39" height="10.35" rx="3.87"/><rect class="cls-46" x="359.65" y="1307.63" width="18.39" height="10.35" rx="3.87"/><rect class="cls-46" x="377.3" y="1307.63" width="18.39" height="10.35" rx="3.87"/><path class="cls-55" d="M283.29,1354.94c-2.58-14,3.55-21.45,13.11-26.22,6.31-13.46,16.4-15.13,28.84-9.44,14.5-3.1,26.83-1.39,34.08,11.54,13.3,3.08,18.46,11.65,17.83,24.12,4.72,10,1.57,20.45-11.53,24.12H309C285.91,1382.73,277.52,1361.23,283.29,1354.94Z"/><path class="cls-56" d="M278.57,1356.51c-2.58-14,3.55-21.44,13.11-26.22,6.31-13.45,16.4-15.13,28.84-9.44,14.5-3.1,26.83-1.39,34.08,11.54,13.3,3.09,18.46,11.66,17.83,24.12,4.72,10,1.58,20.45-11.53,24.12H304.27C281.2,1384.3,272.81,1362.8,278.57,1356.51Z"/><path class="cls-55" d="M60.53,1354.94c-2.59-14,3.54-21.45,13.11-26.22,6.31-13.46,16.39-15.13,28.84-9.44,14.5-3.1,26.82-1.39,34.08,11.54,13.3,3.08,18.45,11.65,17.83,24.12,4.72,10,1.57,20.45-11.54,24.12H86.22C63.15,1382.73,54.76,1361.23,60.53,1354.94Z"/><path class="cls-56" d="M55.81,1356.51c-2.59-14,3.54-21.44,13.11-26.22,6.31-13.45,16.39-15.13,28.84-9.44,14.5-3.1,26.82-1.39,34.08,11.54,13.3,3.09,18.45,11.66,17.83,24.12,4.72,10,1.57,20.45-11.54,24.12H81.5C58.43,1384.3,50,1362.8,55.81,1356.51Z"/><g class="cls-57"><rect x="133.77" y="1226.89" width="32.62" height="13.05" rx="6.52"/><rect x="344.94" y="1213.84" width="32.62" height="13.05" rx="6.52"/></g><g class="cls-57"><rect x="156.46" y="1111.26" width="32.62" height="13.05" rx="6.52"/><path d="M391.72,1111.26H372.15a6.53,6.53,0,0,1-6.52-6.52h0a6.53,6.53,0,0,1,6.52-6.52h19.57c3.59,0,1.21,2.69,1.21,6.28h0C392.93,1108.09,392.44,1107.16,391.72,1111.26Z"/></g><rect class="cls-38" x="131.42" y="1224.92" width="32.62" height="13.05" rx="6.52"/><rect class="cls-58" x="342.91" y="1212.29" width="32.62" height="13.05" rx="6.52"/><rect class="cls-38" x="154.13" y="1108.95" width="32.62" height="13.05" rx="6.52"/><rect class="cls-58" x="365.62" y="1096.32" width="32.62" height="13.05" rx="6.52"/><g class="cls-59"><path class="cls-60" d="M177.2,1151.76h0a9.42,9.42,0,0,1,9.42,9.42v17.24a.88.88,0,0,1-.88.88H168.66a.88.88,0,0,1-.88-.88v-17.24A9.42,9.42,0,0,1,177.2,1151.76Z"/><path class="cls-60" d="M177.17,1156.39h0a7,7,0,0,1,7,7v13.38a0,0,0,0,1,0,0H170.22a0,0,0,0,1,0,0v-13.38A7,7,0,0,1,177.17,1156.39Z"/><line class="cls-61" x1="177.12" y1="1154.1" x2="177.12" y2="1177.94"/><line class="cls-61" x1="168.99" y1="1171.65" x2="185.34" y2="1171.65"/><line class="cls-61" x1="169.39" y1="1164.6" x2="184.94" y2="1164.6"/><path class="cls-60" d="M175.31,1146.83c1.06-2.11,2.22-2,3.47-.12a1.46,1.46,0,0,1,.18,1.2l-1.51,5a.38.38,0,0,1-.73,0l-1.48-5.11A1.35,1.35,0,0,1,175.31,1146.83Z"/></g><path class="cls-62" d="M176,1150.55h0a9.42,9.42,0,0,1,9.42,9.42v17.24a.88.88,0,0,1-.88.88H167.45a.88.88,0,0,1-.88-.88V1160A9.42,9.42,0,0,1,176,1150.55Z"/><path class="cls-63" d="M176,1155.18h0a7,7,0,0,1,7,7v13.38a0,0,0,0,1,0,0H169a0,0,0,0,1,0,0v-13.38a7,7,0,0,1,7-7Z"/><line class="cls-64" x1="175.92" y1="1152.89" x2="175.92" y2="1176.73"/><line class="cls-64" x1="167.78" y1="1170.45" x2="184.13" y2="1170.45"/><line class="cls-64" x1="168.18" y1="1163.39" x2="183.73" y2="1163.39"/><path class="cls-19" d="M174.11,1145.62c1-2.11,2.21-2,3.46-.12a1.46,1.46,0,0,1,.18,1.2l-1.5,5a.39.39,0,0,1-.74,0l-1.48-5.11A1.31,1.31,0,0,1,174.11,1145.62Z"/><g class="cls-57"><path class="cls-65" d="M254.58,1151.82h0a9.42,9.42,0,0,1,9.42,9.42v17.24a.88.88,0,0,1-.88.88H246a.88.88,0,0,1-.88-.88v-17.24a9.42,9.42,0,0,1,9.42-9.42Z"/><path class="cls-65" d="M254.55,1156.45h0a7,7,0,0,1,7,7v13.38a0,0,0,0,1,0,0H247.59a0,0,0,0,1,0,0v-13.38A7,7,0,0,1,254.55,1156.45Z"/><line class="cls-66" x1="254.5" y1="1154.16" x2="254.5" y2="1178"/><line class="cls-66" x1="246.36" y1="1171.71" x2="262.71" y2="1171.71"/><line class="cls-66" x1="246.77" y1="1164.66" x2="262.31" y2="1164.66"/><path class="cls-65" d="M252.69,1146.89c1.06-2.11,2.22-2,3.46-.12a1.46,1.46,0,0,1,.18,1.2l-1.5,5a.38.38,0,0,1-.73,0l-1.49-5.11A1.41,1.41,0,0,1,252.69,1146.89Z"/></g><path class="cls-62" d="M253.31,1150.55h0a9.42,9.42,0,0,1,9.42,9.42v17.24a.88.88,0,0,1-.88.88H244.77a.88.88,0,0,1-.88-.88V1160a9.42,9.42,0,0,1,9.42-9.42Z"/><path class="cls-63" d="M253.28,1155.18h0a7,7,0,0,1,7,7v13.38a0,0,0,0,1,0,0H246.32a0,0,0,0,1,0,0v-13.38A7,7,0,0,1,253.28,1155.18Z"/><line class="cls-64" x1="253.23" y1="1152.89" x2="253.23" y2="1176.73"/><line class="cls-64" x1="245.1" y1="1170.45" x2="261.45" y2="1170.45"/><line class="cls-64" x1="245.5" y1="1163.39" x2="261.04" y2="1163.39"/><path class="cls-19" d="M251.42,1145.62c1.06-2.11,2.22-2,3.47-.12a1.42,1.42,0,0,1,.17,1.2l-1.5,5a.38.38,0,0,1-.73,0l-1.48-5.11A1.36,1.36,0,0,1,251.42,1145.62Z"/></g><g id="Layer_3" data-name="Layer 3"><polygon class="cls-67" points="359.09 321.82 359.12 321.78 359.07 321.78 216 73.98 72.93 321.78 72.88 321.78 72.91 321.82 72.88 321.87 72.93 321.87 216 569.67 359.07 321.87 359.12 321.87 359.09 321.82"/><path d="M358.69,321.82a.68.68,0,0,1,.08-.24l.35.6h-.28l-.12-.2L214.27,75h3.46l-142,248.4L74.79,325H72.88l2.77-4.8,0,0,.92,1.59-.92,1.61,0,.05-2.77-4.8h1.89l.94,1.61,143.75,247.4h-6.92l146.18-246,.12-.2h.28l-.35.6A.73.73,0,0,1,358.69,321.82Zm.8,0a.25.25,0,0,0,0-.15l-.35.6h-.05l.34-.2-140,249.6L216,577.78l-3.5-6.11L70.16,323.47l2.77,1.6h-.05l-5.55,0,2.78-4.78,0,0v3.2l0,0-2.76-4.83,5.53,0h.05l-2.77,1.6L214.27,73,216,70l1.71,3,141.68,248.6-.34-.2h.05l.35.6A.3.3,0,0,0,359.49,321.82Z"/></g></svg>