<svg xmlns="http://www.w3.org/2000/svg" viewBox="0 0 432 1394.09"><defs><style>.cls-1{fill:#c6c6c6;opacity:0.5;}.cls-2{fill:#a5a3a2;}.cls-3{opacity:0.36;}.cls-4{opacity:0.37;}.cls-5{fill:#3f312c;}.cls-6{fill:#70574c;}.cls-7{fill:#44413f;}.cls-8{fill:#281e1b;}.cls-9{fill:#423d3c;}.cls-10{fill:#231915;}.cls-11{fill:#2b2624;}.cls-12{fill:#472315;}.cls-13{fill:#281d18;}.cls-14{fill:#2b130c;}.cls-15{fill:#281d19;}.cls-16{fill:#1c0c01;}.cls-17{fill:#2b1507;}.cls-18{fill:#3a312c;}.cls-19{fill:#261f1b;}.cls-20{fill:#1e1c1b;}.cls-21{fill:#5a32b2;}.cls-22{fill:#111;opacity:0.35;}.cls-23{fill:#544848;}.cls-23,.cls-25,.cls-26,.cls-29,.cls-30,.cls-33,.cls-34{stroke:#000;}.cls-23,.cls-25,.cls-26,.cls-28,.cls-29,.cls-30,.cls-32,.cls-33,.cls-34,.cls-36,.cls-38,.cls-40,.cls-41,.cls-42,.cls-43,.cls-44,.cls-56{stroke-miterlimit:10;}.cls-24{opacity:0.19;}.cls-26{stroke-width:0.96px;}.cls-27{opacity:0.2;}.cls-28,.cls-29,.cls-30,.cls-32,.cls-33,.cls-34{fill:#7aa3f4;}.cls-28,.cls-32,.cls-41{stroke:#d1d36c;}.cls-28,.cls-41{stroke-width:3.15px;}.cls-29{stroke-width:4.95px;}.cls-29,.cls-33{opacity:0.09;}.cls-30{stroke-width:4.26px;}.cls-30,.cls-34{opacity:0.1;}.cls-31{opacity:0.25;}.cls-32{stroke-width:4.28px;}.cls-33{stroke-width:4.6px;}.cls-34{stroke-width:4.34px;}.cls-35{opacity:0.39;}.cls-36{fill:#3f1f09;stroke-width:2px;}.cls-36,.cls-42,.cls-43,.cls-44,.cls-56{stroke:#333;}.cls-37{opacity:0.38;}.cls-38{fill:#3f2e23;stroke:#e0d7d7;stroke-width:0.66px;}.cls-39{opacity:0.44;}.cls-40,.cls-41{fill:none;}.cls-40{stroke:#1a1a1a;stroke-width:3.7px;}.cls-42,.cls-44{fill:#424140;}.cls-42,.cls-56{stroke-width:0.74px;}.cls-43{fill:#492f25;stroke-width:0.29px;}.cls-44{stroke-width:0.76px;}.cls-45{fill:#364f1c;}.cls-46{fill:#4c9307;}.cls-47{fill:#a34f1f;}.cls-48{fill:#89421f;}.cls-49{fill:#a31a58;}.cls-50{fill:#ba353b;}.cls-51{fill:#d18f09;}.cls-52{opacity:0.3;}.cls-53{fill:#2b4f09;}.cls-54{fill:#36660c;}.cls-55{fill:#ede103;}.cls-56{fill:#594b47;}.cls-57{fill:#031e05;opacity:0.32;}.cls-58{fill:#07590f;}.cls-59{fill:#4cc90a;}</style></defs><title>House</title><g id="Layer_3" data-name="Layer 3"><path class="cls-1" d="M204.21,810.77c1.57-5.94,5.14-13.48,5.44-20.65.48-11.2,1.28-29.9-26.68-23.59-2.09-5.68-13.13-3.2-22.9,3.44-6.26,4.26-11.15,11.15-15.64,15.66-16,.6-24.51,19.47-22.29,37.56-12.25,9.87-13.22,24.94-6.31,35-4.54,10.2-4.62,24.23,3.46,24.3,5.17,0,6.78-2.9,9.39.51,4.79,6.23,17.81-1.47,24.66-10.55,13.41-.11,26.88-9.06,28.91-23.94C200.4,840.37,213,823.53,204.21,810.77Z"/><path class="cls-1" d="M243.71,787.15c3.2-5.26,8.92-11.42,11.1-18.27,3.41-10.7,9.11-28.55-22-31.39-.73-6.17-13-7.29-25.05-4-7.71,2.12-14.65,7.24-20.56,10.17-17.07-4.54-30.91,11-33.27,29.26-15.49,5.64-20.42,19.93-15.74,31.88-7.44,8.43-11.16,22-2.65,24.65,5.43,1.69,7.89-.65,9.77,3.49,3.43,7.57,19.17,4.28,28.76-2.33,14.16,4.17,30.71-.19,36.71-14C232,814.61,249.69,802.32,243.71,787.15Z"/><path class="cls-1" d="M192.29,845.63c1.26-7.11,4.41-16.3,4.35-24.73-.08-13.16-.21-35.15-27.52-25-2.34-6.44-13.12-2.45-22.45,6.3-6,5.6-10.45,14.16-14.67,19.89-15.8,2.28-23.25,25.22-20.16,46.2-11.62,12.77-11.83,30.52-4.51,41.61-4,12.41-3.36,28.85,4.62,28.13,5.1-.46,6.55-4.07,9.3-.33,5,6.82,17.52-3.48,23.84-14.79,13.23-1.46,26.1-13.27,27.37-30.9C190,880.69,201.62,859.71,192.29,845.63Z"/><path class="cls-1" d="M260.28,788c4.92-5.29,12.6-11.27,17.07-18.43,7-11.17,18.63-29.82-10.8-36.75,1.38-6.78-10.23-9.53-23.11-7.43-8.25,1.35-16.77,6-23.55,8.48-15.11-7-33.93,8.12-42.45,27.6-17.05,4.2-26.73,19.08-26.24,32.61-10.14,8.23-18.4,22.47-11,26.4,4.73,2.51,7.93.28,8.35,5,.77,8.63,17.26,7,28.87,1,12.41,6.28,30,3.6,40.6-10.57C239.49,816.3,261,805.17,260.28,788Z"/><path class="cls-2" d="M144.25,1029.14H97.85c-2.15-29.58-2.44-58,0-84.55h46.4A583.37,583.37,0,0,1,144.25,1029.14Z"/><path class="cls-3" d="M144.38,948l-42.76.13c-2.65,0-4.82-3.26-4.82-6.48h0c0-3.23,2.15-5.85,4.81-5.85,13.86,1.17,27.08,1.38,39.27,0,2.66,0,4.81,2.62,4.81,5.85l-1.25.67Z"/><path class="cls-2" d="M144.54,945.35H96.8A5.84,5.84,0,0,1,91,939.51h0a5.85,5.85,0,0,1,5.85-5.85c16.85,1.17,32.92,1.38,47.74,0a5.85,5.85,0,0,1,5.85,5.85h0A5.84,5.84,0,0,1,144.54,945.35Z"/><g class="cls-4"><rect x="98.24" y="950.66" width="11.5" height="6.14" rx="3.07"/><rect x="108.72" y="959.61" width="11.5" height="6.14" rx="3.07"/><rect x="121.37" y="951.84" width="11.5" height="6.14" rx="3.07"/><path d="M144.09,963.92h-5.37a3.07,3.07,0,0,1-3.06-3.07h0a3.07,3.07,0,0,1,3.06-3.07h5.37c1.69,0,1.41,1.13,1.41,2.82h0C145.5,962.28,145.78,963.92,144.09,963.92Z"/><rect x="116.48" y="970.05" width="11.5" height="6.14" rx="3.07"/><rect x="98.37" y="966.99" width="11.5" height="6.14" rx="3.07"/><rect x="132.3" y="968.33" width="11.5" height="6.14" rx="3.07"/><rect x="97.79" y="985.87" width="11.69" height="6.23" rx="3.12"/><rect x="134.31" y="987.5" width="11.5" height="6.14" rx="3.07"/><rect x="113.13" y="989.29" width="12.46" height="6.64" rx="3.32"/><path d="M144.48,1012.14h-5.37a3.08,3.08,0,0,1-3.07-3.07h0a3.08,3.08,0,0,1,3.07-3.07h5.37c1.68,0,1.11,1.13,1.11,2.82h0C145.59,1010.5,146.16,1012.14,144.48,1012.14Z"/><rect x="101.82" y="1005.33" width="12.39" height="6.61" rx="3.3"/><rect x="97.02" y="1017.12" width="11.5" height="6.14" rx="3.07"/><rect x="115.43" y="1020.1" width="11.5" height="6.14" rx="3.07"/><rect x="122.81" y="1010.32" width="11.5" height="6.14" rx="3.07"/><rect x="132.68" y="1021.57" width="11.8" height="6.3" rx="3.15"/></g><rect class="cls-5" x="97.47" y="950.08" width="11.5" height="6.14" rx="3.07"/><rect class="cls-6" x="107.95" y="959.03" width="11.5" height="6.14" rx="3.07"/><rect class="cls-7" x="120.61" y="951.27" width="11.5" height="6.14" rx="3.07"/><rect class="cls-8" x="134.89" y="957.21" width="11.5" height="6.14" rx="3.07"/><rect class="cls-9" x="115.72" y="969.48" width="11.5" height="6.14" rx="3.07"/><rect class="cls-10" x="97.6" y="966.41" width="11.5" height="6.14" rx="3.07"/><rect class="cls-11" x="131.53" y="967.75" width="11.5" height="6.14" rx="3.07"/><rect class="cls-12" x="97.02" y="985.3" width="11.69" height="6.23" rx="3.12"/><rect class="cls-13" x="133.55" y="986.93" width="11.5" height="6.14" rx="3.07"/><rect class="cls-14" x="112.36" y="988.72" width="12.46" height="6.64" rx="3.32"/><rect class="cls-15" x="135.27" y="1005.43" width="11.5" height="6.14" rx="3.07"/><rect class="cls-16" x="101.05" y="1004.76" width="12.39" height="6.61" rx="3.3"/><rect class="cls-17" x="96.26" y="1016.55" width="11.5" height="6.14" rx="3.07"/><rect class="cls-18" x="114.66" y="1019.52" width="11.5" height="6.14" rx="3.07"/><rect class="cls-19" x="122.04" y="1009.74" width="11.5" height="6.14" rx="3.07"/><rect class="cls-20" x="131.92" y="1020.99" width="11.8" height="6.3" rx="3.15"/><path class="cls-21" d="M395.37,1366.26c-115,11.11-229.55,10.64-343.58,0-4.94-100.49-4.73-200.47,0-299.23H395.37C402,1157.54,401.47,1258.25,395.37,1366.26Z"/><polygon class="cls-22" points="399.42 1127.62 64.06 1127.05 47.72 1104.4 398.94 1108.58 399.42 1127.62"/><path class="cls-23" d="M416.43,1178.92H28.83c5.29-60.14,15-121.14,36.44-182.94H381.54C398,1052.89,409.16,1114.24,416.43,1178.92Z"/><g class="cls-24"><path class="cls-25" d="M62.44,1004.6s8.51,12.12,21.09,1.49"/><path class="cls-25" d="M83.9,1004.6s8.51,12.12,21.08,1.49"/><path class="cls-25" d="M105.35,1004.6s8.52,12.12,21.09,1.49"/><path class="cls-25" d="M126.81,1004.6s8.51,12.12,21.08,1.49"/><path class="cls-25" d="M148.26,1004.6s8.52,12.12,21.09,1.49"/><path class="cls-25" d="M169.72,1004.6s8.51,12.12,21.09,1.49"/><path class="cls-25" d="M191.18,1004.6s8.51,12.12,21.08,1.49"/><path class="cls-25" d="M212.63,1004.6s8.52,12.12,21.09,1.49"/><path class="cls-25" d="M234.09,1004.6s8.51,12.12,21.08,1.49"/><path class="cls-25" d="M255.54,1004.6s8.52,12.12,21.09,1.49"/><path class="cls-25" d="M277,1004.6s8.51,12.12,21.09,1.49"/><path class="cls-25" d="M298.46,1004.6s8.51,12.12,21.08,1.49"/><path class="cls-25" d="M319.91,1004.6s8.52,12.12,21.09,1.49"/><path class="cls-25" d="M341.37,1004.6s8.51,12.12,21.08,1.49"/><path class="cls-25" d="M362.82,1004.6s8.52,12.12,21.09,1.49"/><path class="cls-25" d="M384.09,1170.19s8.51,12.12,21.08,1.48"/><path class="cls-26" d="M391.5,1159.23s7.89,12.12,19.55,1.49"/><path class="cls-25" d="M387.63,1148.28s8.51,12.12,21.09,1.49"/><path class="cls-25" d="M385.7,1126.05s8.51,12.12,21.08,1.49"/><path class="cls-25" d="M60.51,1015.88S69,1028,81.59,1017.37"/><path class="cls-25" d="M74.23,1015.56s8.52,12.11,21.09,1.48"/><path class="cls-25" d="M95.69,1015.56s8.51,12.11,21.08,1.48"/><path class="cls-25" d="M117.14,1015.56s8.52,12.11,21.09,1.48"/><path class="cls-25" d="M138.6,1015.56s8.51,12.11,21.09,1.48"/><path class="cls-25" d="M160.06,1015.56s8.51,12.11,21.08,1.48"/><path class="cls-25" d="M181.51,1015.56s8.52,12.11,21.09,1.48"/><path class="cls-25" d="M203,1015.56s8.51,12.11,21.08,1.48"/><path class="cls-25" d="M224.42,1015.56s8.52,12.11,21.09,1.48"/><path class="cls-25" d="M245.88,1015.56s8.51,12.11,21.09,1.48"/><path class="cls-25" d="M267.34,1015.56s8.51,12.11,21.08,1.48"/><path class="cls-25" d="M288.79,1015.56s8.52,12.11,21.09,1.48"/><path class="cls-25" d="M310.25,1015.56s8.51,12.11,21.08,1.48"/><path class="cls-25" d="M331.7,1015.56s8.52,12.11,21.09,1.48"/><path class="cls-25" d="M353.16,1015.56s8.51,12.11,21.09,1.48"/><path class="cls-25" d="M60.51,1026.83S69,1039,81.59,1028.32"/><path class="cls-25" d="M82,1026.83s8.52,12.12,21.09,1.49"/><path class="cls-25" d="M103.42,1026.83s8.51,12.12,21.09,1.49"/><path class="cls-25" d="M124.88,1026.83s8.51,12.12,21.08,1.49"/><path class="cls-25" d="M146.33,1026.83s8.52,12.12,21.09,1.49"/><path class="cls-25" d="M167.79,1026.83s8.51,12.12,21.08,1.49"/><path class="cls-25" d="M189.24,1026.83s8.52,12.12,21.09,1.49"/><path class="cls-25" d="M210.7,1026.83s8.51,12.12,21.09,1.49"/><path class="cls-25" d="M232.16,1026.83s8.51,12.12,21.08,1.49"/><path class="cls-25" d="M253.61,1026.83s8.52,12.12,21.09,1.49"/><path class="cls-25" d="M275.07,1026.83s8.51,12.12,21.08,1.49"/><path class="cls-25" d="M296.52,1026.83s8.52,12.12,21.09,1.49"/><path class="cls-25" d="M318,1026.83s8.51,12.12,21.09,1.49"/><path class="cls-25" d="M339.44,1026.83s8.51,12.12,21.08,1.49"/><path class="cls-25" d="M360.89,1026.83s8.52,12.12,21.09,1.49"/><path class="cls-25" d="M52.14,1036.5s8.52,12.11,21.09,1.48"/><path class="cls-25" d="M69.72,1037.46s8.52,12.12,21.09,1.49"/><path class="cls-25" d="M91.18,1037.46s8.51,12.12,21.08,1.49"/><path class="cls-25" d="M112.63,1037.46s8.52,12.12,21.09,1.49"/><path class="cls-25" d="M381.51,1103.66s8.51,12.12,21.08,1.49"/><path class="cls-25" d="M134.09,1037.46s8.51,12.12,21.09,1.49"/><path class="cls-25" d="M155.55,1037.46s8.51,12.12,21.08,1.49"/><path class="cls-25" d="M177,1037.46s8.52,12.12,21.09,1.49"/><path class="cls-25" d="M198.46,1037.46s8.51,12.12,21.08,1.49"/><path class="cls-25" d="M219.91,1037.46s8.52,12.12,21.09,1.49"/><path class="cls-25" d="M241.37,1037.46s8.51,12.12,21.09,1.49"/><path class="cls-25" d="M262.83,1037.46s8.51,12.12,21.08,1.49"/><path class="cls-25" d="M284.28,1037.46s8.52,12.12,21.09,1.49"/><path class="cls-25" d="M305.74,1037.46s8.51,12.12,21.08,1.49"/><path class="cls-25" d="M327.19,1037.46s8.52,12.12,21.09,1.49"/><path class="cls-25" d="M348.65,1037.46s8.51,12.12,21.09,1.49"/><path class="cls-25" d="M368.94,1037.46s8.52,12.12,21.09,1.49"/><path class="cls-25" d="M52.57,1049.06s8.52,12.12,21.09,1.49"/><path class="cls-25" d="M80,1049.06s8.51,12.12,21.09,1.49"/><path class="cls-25" d="M101.49,1049.06s8.51,12.12,21.08,1.49"/><path class="cls-25" d="M122.94,1049.06s8.52,12.12,21.09,1.49"/><path class="cls-25" d="M144.4,1049.06s8.51,12.12,21.08,1.49"/><path class="cls-25" d="M165.85,1049.06s8.52,12.12,21.09,1.49"/><path class="cls-25" d="M187.31,1049.06s8.51,12.12,21.09,1.49"/><path class="cls-25" d="M208.77,1049.06s8.51,12.12,21.08,1.49"/><path class="cls-25" d="M230.22,1049.06s8.52,12.12,21.09,1.49"/><path class="cls-25" d="M251.68,1049.06s8.51,12.12,21.08,1.49"/><path class="cls-25" d="M273.13,1049.06s8.52,12.12,21.09,1.49"/><path class="cls-25" d="M294.59,1049.06s8.51,12.12,21.09,1.49"/><path class="cls-25" d="M316.05,1049.06s8.51,12.12,21.08,1.49"/><path class="cls-25" d="M337.5,1049.06s8.52,12.12,21.09,1.49"/><path class="cls-25" d="M359,1049.06s8.51,12.12,21.08,1.49"/><path class="cls-25" d="M47.74,1058.4s8.52,12.12,21.09,1.49"/><path class="cls-25" d="M70.37,1059.05s8.51,12.11,21.08,1.48"/><path class="cls-25" d="M91.82,1059.05s8.52,12.11,21.09,1.48"/><path class="cls-25" d="M113.28,1059.05s8.51,12.11,21.08,1.48"/><path class="cls-25" d="M134.73,1059.05s8.52,12.11,21.09,1.48"/><path class="cls-25" d="M156.19,1059.05s8.51,12.11,21.09,1.48"/><path class="cls-25" d="M177.65,1059.05s8.51,12.11,21.08,1.48"/><path class="cls-25" d="M199.1,1059.05s8.52,12.11,21.09,1.48"/><path class="cls-25" d="M220.56,1059.05s8.51,12.11,21.08,1.48"/><path class="cls-25" d="M242,1059.05s8.52,12.11,21.09,1.48"/><path class="cls-25" d="M263.47,1059.05s8.51,12.11,21.09,1.48"/><path class="cls-25" d="M284.93,1059.05s8.51,12.11,21.08,1.48"/><path class="cls-25" d="M306.38,1059.05s8.52,12.11,21.09,1.48"/><path class="cls-25" d="M327.84,1059.05s8.51,12.11,21.08,1.48"/><path class="cls-25" d="M349.29,1059.05s8.52,12.11,21.09,1.48"/><path class="cls-25" d="M369.59,1059.05s8.51,12.11,21.09,1.48"/><path class="cls-25" d="M53.64,1069s8.52,12.12,21.09,1.49"/><path class="cls-25" d="M78.1,1069s8.51,12.12,21.08,1.49"/><path class="cls-25" d="M99.55,1069s8.52,12.12,21.09,1.49"/><path class="cls-25" d="M121,1069s8.51,12.12,21.09,1.49"/><path class="cls-25" d="M142.47,1069s8.51,12.12,21.08,1.49"/><path class="cls-25" d="M163.92,1069s8.52,12.12,21.09,1.49"/><path class="cls-25" d="M185.38,1069s8.51,12.12,21.08,1.49"/><path class="cls-25" d="M206.83,1069s8.52,12.12,21.09,1.49"/><path class="cls-25" d="M228.29,1069s8.51,12.12,21.09,1.49"/><path class="cls-25" d="M249.75,1069s8.51,12.12,21.08,1.49"/><path class="cls-25" d="M271.2,1069s8.52,12.12,21.09,1.49"/><path class="cls-25" d="M292.66,1069s8.51,12.12,21.08,1.49"/><path class="cls-25" d="M314.11,1069s8.52,12.12,21.09,1.49"/><path class="cls-25" d="M335.57,1069s8.51,12.12,21.09,1.49"/><path class="cls-25" d="M357,1069s8.51,12.12,21.08,1.49"/><path class="cls-25" d="M374.1,1069s8.51,12.12,21.09,1.49"/><path class="cls-25" d="M45.2,1079.66s8.51,12.12,21.09,1.49"/><path class="cls-25" d="M37,1137s8.52,12.11,21.09,1.48"/><path class="cls-25" d="M40.86,1112.85s8.51,12.11,21.08,1.48"/><path class="cls-25" d="M66.82,1079.34s8.52,12.12,21.09,1.49"/><path class="cls-25" d="M88.28,1079.34s8.51,12.12,21.08,1.49"/><path class="cls-25" d="M109.73,1079.34s8.52,12.12,21.09,1.49"/><path class="cls-25" d="M131.19,1079.34s8.51,12.12,21.09,1.49"/><path class="cls-25" d="M152.65,1079.34s8.51,12.12,21.08,1.49"/><path class="cls-25" d="M174.1,1079.34s8.52,12.12,21.09,1.49"/><path class="cls-25" d="M195.56,1079.34s8.51,12.12,21.08,1.49"/><path class="cls-25" d="M217,1079.34s8.52,12.12,21.09,1.49"/><path class="cls-25" d="M238.47,1079.34s8.51,12.12,21.09,1.49"/><path class="cls-25" d="M259.93,1079.34s8.51,12.12,21.08,1.49"/><path class="cls-25" d="M281.38,1079.34s8.52,12.12,21.09,1.49"/><path class="cls-25" d="M302.84,1079.34s8.51,12.12,21.08,1.49"/><path class="cls-25" d="M324.29,1079.34s8.52,12.12,21.09,1.49"/><path class="cls-25" d="M345.75,1079.34s8.51,12.12,21.09,1.49"/><path class="cls-25" d="M366.05,1079.34s8.51,12.12,21.08,1.49"/><path class="cls-25" d="M53.35,1090.94s8.52,12.12,21.09,1.49"/><path class="cls-25" d="M76.81,1090.94s8.51,12.12,21.09,1.49"/><path class="cls-25" d="M98.27,1090.94s8.51,12.12,21.08,1.49"/><path class="cls-25" d="M119.72,1090.94s8.52,12.12,21.09,1.49"/><path class="cls-25" d="M141.18,1090.94s8.51,12.12,21.08,1.49"/><path class="cls-25" d="M162.63,1090.94s8.52,12.12,21.09,1.49"/><path class="cls-25" d="M184.09,1090.94s8.51,12.12,21.09,1.49"/><path class="cls-25" d="M205.55,1090.94s8.51,12.12,21.08,1.49"/><path class="cls-25" d="M227,1090.94s8.52,12.12,21.09,1.49"/><path class="cls-25" d="M248.46,1090.94s8.51,12.12,21.08,1.49"/><path class="cls-25" d="M269.91,1090.94s8.52,12.12,21.09,1.49"/><path class="cls-25" d="M291.37,1090.94s8.51,12.12,21.08,1.49"/><path class="cls-25" d="M312.82,1090.94s8.52,12.12,21.09,1.49"/><path class="cls-25" d="M334.28,1090.94s8.51,12.12,21.09,1.49"/><path class="cls-25" d="M355.74,1090.94s8.51,12.12,21.08,1.49"/><path class="cls-25" d="M376,1090.94s8.52,12.12,21.09,1.49"/><path class="cls-25" d="M45,1102.21s8.52,12.12,21.09,1.49"/><path class="cls-25" d="M66.5,1102.21s8.51,12.12,21.09,1.49"/><path class="cls-25" d="M88,1102.21s8.51,12.12,21.08,1.49"/><path class="cls-25" d="M109.41,1102.21s8.52,12.12,21.09,1.49"/><path class="cls-25" d="M130.87,1102.21s8.51,12.12,21.08,1.49"/><path class="cls-25" d="M152.32,1102.21s8.52,12.12,21.09,1.49"/><path class="cls-25" d="M173.78,1102.21s8.51,12.12,21.09,1.49"/><path class="cls-25" d="M195.24,1102.21s8.51,12.12,21.08,1.49"/><path class="cls-25" d="M216.69,1102.21s8.52,12.12,21.09,1.49"/><path class="cls-25" d="M238.15,1102.21s8.51,12.12,21.08,1.49"/><path class="cls-25" d="M259.6,1102.21s8.52,12.12,21.09,1.49"/><path class="cls-25" d="M281.06,1102.21s8.51,12.12,21.09,1.49"/><path class="cls-25" d="M302.52,1102.21s8.51,12.12,21.08,1.49"/><path class="cls-25" d="M324,1102.21s8.52,12.12,21.09,1.49"/><path class="cls-25" d="M345.43,1102.21s8.51,12.12,21.08,1.49"/><path class="cls-25" d="M365.72,1102.21s8.52,12.12,21.09,1.49"/><path class="cls-25" d="M58.82,1114.13s8.51,12.12,21.08,1.49"/><path class="cls-25" d="M79.06,1115.1s8.52,12.12,21.09,1.49"/><path class="cls-25" d="M100.52,1115.1s8.51,12.12,21.09,1.49"/><path class="cls-25" d="M122,1115.1s8.51,12.12,21.08,1.49"/><path class="cls-25" d="M143.43,1115.1s8.52,12.12,21.09,1.49"/><path class="cls-25" d="M164.89,1115.1s8.51,12.12,21.08,1.49"/><path class="cls-25" d="M186.34,1115.1s8.52,12.12,21.09,1.49"/><path class="cls-25" d="M207.8,1115.1s8.51,12.12,21.09,1.49"/><path class="cls-25" d="M229.26,1115.1s8.51,12.12,21.08,1.49"/><path class="cls-25" d="M250.71,1115.1s8.52,12.12,21.09,1.49"/><path class="cls-25" d="M272.17,1115.1s8.51,12.12,21.08,1.49"/><path class="cls-25" d="M293.62,1115.1s8.52,12.12,21.09,1.49"/><path class="cls-25" d="M315.08,1115.1s8.51,12.12,21.09,1.49"/><path class="cls-25" d="M336.54,1115.1s8.51,12.12,21.08,1.49"/><path class="cls-25" d="M358,1115.1s8.52,12.12,21.09,1.49"/><path class="cls-25" d="M378.29,1115.1s8.51,12.12,21.08,1.49"/><path class="cls-25" d="M44.08,1125.73s8.51,12.12,21.08,1.49"/><path class="cls-25" d="M65.53,1125.73s8.52,12.12,21.09,1.49"/><path class="cls-25" d="M87,1125.73s8.51,12.12,21.09,1.49"/><path class="cls-25" d="M108.45,1125.73s8.51,12.12,21.08,1.49"/><path class="cls-25" d="M129.9,1125.73s8.52,12.12,21.09,1.49"/><path class="cls-25" d="M151.36,1125.73s8.51,12.12,21.08,1.49"/><path class="cls-25" d="M172.81,1125.73s8.52,12.12,21.09,1.49"/><path class="cls-25" d="M194.27,1125.73s8.51,12.12,21.09,1.49"/><path class="cls-25" d="M215.73,1125.73s8.51,12.12,21.08,1.49"/><path class="cls-25" d="M237.18,1125.73s8.52,12.12,21.09,1.49"/><path class="cls-25" d="M258.64,1125.73s8.51,12.12,21.08,1.49"/><path class="cls-25" d="M280.09,1125.73s8.52,12.12,21.09,1.49"/><path class="cls-25" d="M301.55,1125.73s8.51,12.12,21.09,1.49"/><path class="cls-25" d="M323,1125.73s8.51,12.12,21.08,1.49"/><path class="cls-25" d="M344.46,1125.73s8.52,12.12,21.09,1.49"/><path class="cls-25" d="M364.76,1125.73s8.51,12.12,21.08,1.49"/><path class="cls-25" d="M54.39,1137.65s8.51,12.12,21.08,1.49"/><path class="cls-25" d="M75.84,1137.65s8.52,12.12,21.09,1.49"/><path class="cls-25" d="M97.3,1137.65s8.51,12.12,21.08,1.49"/><path class="cls-25" d="M118.75,1137.65s8.52,12.12,21.09,1.49"/><path class="cls-25" d="M140.21,1137.65s8.51,12.12,21.09,1.49"/><path class="cls-25" d="M161.67,1137.65s8.51,12.12,21.08,1.49"/><path class="cls-25" d="M183.12,1137.65s8.52,12.12,21.09,1.49"/><path class="cls-25" d="M204.58,1137.65s8.51,12.12,21.08,1.49"/><path class="cls-25" d="M226,1137.65s8.52,12.12,21.09,1.49"/><path class="cls-25" d="M247.49,1137.65s8.51,12.12,21.09,1.49"/><path class="cls-25" d="M269,1137.65s8.51,12.12,21.08,1.49"/><path class="cls-25" d="M290.4,1137.65s8.52,12.12,21.09,1.49"/><path class="cls-25" d="M311.86,1137.65s8.51,12.12,21.08,1.49"/><path class="cls-25" d="M333.31,1137.65s8.52,12.12,21.09,1.49"/><path class="cls-25" d="M354.77,1137.65s8.51,12.12,21.09,1.49"/><path class="cls-25" d="M375.07,1137.65s8.51,12.12,21.08,1.49"/><path class="cls-25" d="M43.11,1148.93s8.52,12.11,21.09,1.48"/><path class="cls-25" d="M64.57,1148.93s8.51,12.11,21.08,1.48"/><path class="cls-25" d="M86,1148.93s8.52,12.11,21.09,1.48"/><path class="cls-25" d="M107.48,1148.93s8.51,12.11,21.09,1.48"/><path class="cls-25" d="M128.94,1148.93s8.51,12.11,21.08,1.48"/><path class="cls-25" d="M150.39,1148.93s8.52,12.11,21.09,1.48"/><path class="cls-25" d="M171.85,1148.93s8.51,12.11,21.08,1.48"/><path class="cls-25" d="M193.3,1148.93s8.52,12.11,21.09,1.48"/><path class="cls-25" d="M214.76,1148.93s8.51,12.11,21.09,1.48"/><path class="cls-25" d="M236.22,1148.93s8.51,12.11,21.08,1.48"/><path class="cls-25" d="M257.67,1148.93s8.52,12.11,21.09,1.48"/><path class="cls-25" d="M279.13,1148.93s8.51,12.11,21.08,1.48"/><path class="cls-25" d="M300.58,1148.93s8.52,12.11,21.09,1.48"/><path class="cls-25" d="M322,1148.93s8.51,12.11,21.09,1.48"/><path class="cls-25" d="M343.5,1148.93s8.51,12.11,21.08,1.48"/><path class="cls-25" d="M363.79,1148.93s8.51,12.11,21.09,1.48"/><path class="cls-25" d="M51.81,1158.91s8.51,12.12,21.09,1.49"/><path class="cls-25" d="M32.24,1159.64s8.51,12.12,21.09,1.48"/><path class="cls-25" d="M73.27,1158.91s8.51,12.12,21.08,1.49"/><path class="cls-25" d="M94.72,1158.91s8.52,12.12,21.09,1.49"/><path class="cls-25" d="M116.18,1158.91s8.51,12.12,21.08,1.49"/><path class="cls-25" d="M137.63,1158.91s8.52,12.12,21.09,1.49"/><path class="cls-25" d="M159.09,1158.91s8.51,12.12,21.09,1.49"/><path class="cls-25" d="M180.55,1158.91s8.51,12.12,21.08,1.49"/><path class="cls-25" d="M202,1158.91s8.52,12.12,21.09,1.49"/><path class="cls-25" d="M223.46,1158.91s8.51,12.12,21.08,1.49"/><path class="cls-25" d="M244.91,1158.91s8.52,12.12,21.09,1.49"/><path class="cls-25" d="M266.37,1158.91s8.51,12.12,21.09,1.49"/><path class="cls-25" d="M287.83,1158.91s8.51,12.12,21.08,1.49"/><path class="cls-25" d="M309.28,1158.91s8.52,12.12,21.09,1.49"/><path class="cls-25" d="M330.74,1158.91s8.51,12.12,21.08,1.49"/><path class="cls-25" d="M352.19,1158.91s8.52,12.12,21.09,1.49"/><path class="cls-25" d="M372.49,1158.91s8.51,12.12,21.08,1.49"/><path class="cls-25" d="M39.89,1169.22s8.51,12.12,21.09,1.49"/><path class="cls-25" d="M61.35,1169.22s8.51,12.12,21.08,1.49"/><path class="cls-25" d="M82.8,1169.22s8.52,12.12,21.09,1.49"/><path class="cls-25" d="M104.26,1169.22s8.51,12.12,21.08,1.49"/><path class="cls-25" d="M125.71,1169.22s8.52,12.12,21.09,1.49"/><path class="cls-25" d="M147.17,1169.22s8.51,12.12,21.09,1.49"/><path class="cls-25" d="M168.63,1169.22s8.51,12.12,21.08,1.49"/><path class="cls-25" d="M190.08,1169.22s8.52,12.12,21.09,1.49"/><path class="cls-25" d="M211.54,1169.22s8.51,12.12,21.08,1.49"/><path class="cls-25" d="M233,1169.22s8.52,12.12,21.09,1.49"/><path class="cls-25" d="M254.45,1169.22s8.51,12.12,21.09,1.49"/><path class="cls-25" d="M275.91,1169.22s8.51,12.12,21.08,1.49"/><path class="cls-25" d="M297.36,1169.22s8.52,12.12,21.09,1.49"/><path class="cls-25" d="M318.82,1169.22s8.51,12.12,21.08,1.49"/><path class="cls-25" d="M340.27,1169.22s8.52,12.12,21.09,1.49"/><path class="cls-25" d="M360.57,1169.22s8.51,12.12,21.08,1.49"/></g><path class="cls-23" d="M61.44,1002.6s8.51,12.12,21.09,1.49"/><path class="cls-23" d="M82.9,1002.6s8.51,12.12,21.08,1.49"/><path class="cls-23" d="M104.35,1002.6s8.52,12.12,21.09,1.49"/><path class="cls-23" d="M125.81,1002.6s8.51,12.12,21.08,1.49"/><path class="cls-23" d="M147.26,1002.6s8.52,12.12,21.09,1.49"/><path class="cls-23" d="M168.72,1002.6s8.51,12.12,21.09,1.49"/><path class="cls-23" d="M190.18,1002.6s8.51,12.12,21.08,1.49"/><path class="cls-23" d="M211.63,1002.6s8.52,12.12,21.09,1.49"/><path class="cls-23" d="M233.09,1002.6s8.51,12.12,21.08,1.49"/><path class="cls-23" d="M254.54,1002.6s8.52,12.12,21.09,1.49"/><path class="cls-23" d="M276,1002.6s8.51,12.12,21.09,1.49"/><path class="cls-23" d="M297.46,1002.6s8.51,12.12,21.08,1.49"/><path class="cls-23" d="M318.91,1002.6s8.52,12.12,21.09,1.49"/><path class="cls-23" d="M340.37,1002.6s8.51,12.12,21.08,1.49"/><path class="cls-23" d="M361.82,1002.6s8.52,12.12,21.09,1.49"/><path class="cls-23" d="M383.09,1168.19s8.51,12.12,21.08,1.48"/><path class="cls-23" d="M390.5,1157.23s8.51,12.12,21.08,1.49"/><path class="cls-23" d="M386.63,1146.28s8.51,12.12,21.09,1.49"/><path class="cls-23" d="M384.7,1124.05s8.51,12.12,21.08,1.49"/><path class="cls-23" d="M59.51,1013.88S68,1026,80.59,1015.37"/><path class="cls-23" d="M73.23,1013.56s8.52,12.11,21.09,1.48"/><path class="cls-23" d="M94.69,1013.56s8.51,12.11,21.08,1.48"/><path class="cls-23" d="M116.14,1013.56s8.52,12.11,21.09,1.48"/><path class="cls-23" d="M137.6,1013.56s8.51,12.11,21.09,1.48"/><path class="cls-23" d="M159.06,1013.56s8.51,12.11,21.08,1.48"/><path class="cls-23" d="M180.51,1013.56s8.52,12.11,21.09,1.48"/><path class="cls-23" d="M202,1013.56s8.51,12.11,21.08,1.48"/><path class="cls-23" d="M223.42,1013.56s8.52,12.11,21.09,1.48"/><path class="cls-23" d="M244.88,1013.56s8.51,12.11,21.09,1.48"/><path class="cls-23" d="M266.34,1013.56s8.51,12.11,21.08,1.48"/><path class="cls-23" d="M287.79,1013.56s8.52,12.11,21.09,1.48"/><path class="cls-23" d="M309.25,1013.56s8.51,12.11,21.08,1.48"/><path class="cls-23" d="M330.7,1013.56s8.52,12.11,21.09,1.48"/><path class="cls-23" d="M352.16,1013.56s8.51,12.11,21.09,1.48"/><path class="cls-23" d="M59.51,1024.83S68,1037,80.59,1026.32"/><path class="cls-23" d="M81,1024.83s8.52,12.12,21.09,1.49"/><path class="cls-23" d="M102.42,1024.83s8.51,12.12,21.09,1.49"/><path class="cls-23" d="M123.88,1024.83s8.51,12.12,21.08,1.49"/><path class="cls-23" d="M145.33,1024.83s8.52,12.12,21.09,1.49"/><path class="cls-23" d="M166.79,1024.83s8.51,12.12,21.08,1.49"/><path class="cls-23" d="M188.24,1024.83s8.52,12.12,21.09,1.49"/><path class="cls-23" d="M209.7,1024.83s8.51,12.12,21.09,1.49"/><path class="cls-23" d="M231.16,1024.83s8.51,12.12,21.08,1.49"/><path class="cls-23" d="M252.61,1024.83s8.52,12.12,21.09,1.49"/><path class="cls-23" d="M274.07,1024.83s8.51,12.12,21.08,1.49"/><path class="cls-23" d="M295.52,1024.83s8.52,12.12,21.09,1.49"/><path class="cls-23" d="M317,1024.83s8.51,12.12,21.09,1.49"/><path class="cls-23" d="M338.44,1024.83s8.51,12.12,21.08,1.49"/><path class="cls-23" d="M359.89,1024.83s8.52,12.12,21.09,1.49"/><path class="cls-23" d="M53.14,1034.5s8.52,12.11,21.09,1.48"/><path class="cls-23" d="M68.72,1035.46s8.52,12.12,21.09,1.49"/><path class="cls-23" d="M90.18,1035.46s8.51,12.12,21.08,1.49"/><path class="cls-23" d="M111.63,1035.46s8.52,12.12,21.09,1.49"/><path class="cls-23" d="M380.51,1101.66s8.51,12.12,21.08,1.49"/><path class="cls-23" d="M133.09,1035.46s8.51,12.12,21.09,1.49"/><path class="cls-23" d="M154.55,1035.46s8.51,12.12,21.08,1.49"/><path class="cls-23" d="M176,1035.46s8.52,12.12,21.09,1.49"/><path class="cls-23" d="M197.46,1035.46s8.51,12.12,21.08,1.49"/><path class="cls-23" d="M218.91,1035.46s8.52,12.12,21.09,1.49"/><path class="cls-23" d="M240.37,1035.46s8.51,12.12,21.09,1.49"/><path class="cls-23" d="M261.83,1035.46s8.51,12.12,21.08,1.49"/><path class="cls-23" d="M283.28,1035.46s8.52,12.12,21.09,1.49"/><path class="cls-23" d="M304.74,1035.46s8.51,12.12,21.08,1.49"/><path class="cls-23" d="M326.19,1035.46s8.52,12.12,21.09,1.49"/><path class="cls-23" d="M347.65,1035.46s8.51,12.12,21.09,1.49"/><path class="cls-23" d="M367.94,1035.46s8.52,12.12,21.09,1.49"/><path class="cls-23" d="M53.57,1047.06s8.52,12.12,21.09,1.49"/><path class="cls-23" d="M79,1047.06s8.51,12.12,21.09,1.49"/><path class="cls-23" d="M100.49,1047.06s8.51,12.12,21.08,1.49"/><path class="cls-23" d="M121.94,1047.06s8.52,12.12,21.09,1.49"/><path class="cls-23" d="M143.4,1047.06s8.51,12.12,21.08,1.49"/><path class="cls-23" d="M164.85,1047.06s8.52,12.12,21.09,1.49"/><path class="cls-23" d="M186.31,1047.06s8.51,12.12,21.09,1.49"/><path class="cls-23" d="M207.77,1047.06s8.51,12.12,21.08,1.49"/><path class="cls-23" d="M229.22,1047.06s8.52,12.12,21.09,1.49"/><path class="cls-23" d="M250.68,1047.06s8.51,12.12,21.08,1.49"/><path class="cls-23" d="M272.13,1047.06s8.52,12.12,21.09,1.49"/><path class="cls-23" d="M293.59,1047.06s8.51,12.12,21.09,1.49"/><path class="cls-23" d="M315.05,1047.06s8.51,12.12,21.08,1.49"/><path class="cls-23" d="M336.5,1047.06s8.52,12.12,21.09,1.49"/><path class="cls-23" d="M358,1047.06s8.51,12.12,21.08,1.49"/><path class="cls-23" d="M48.74,1056.4s8.52,12.12,21.09,1.49"/><path class="cls-23" d="M69.37,1057.05s8.51,12.11,21.08,1.48"/><path class="cls-23" d="M90.82,1057.05s8.52,12.11,21.09,1.48"/><path class="cls-23" d="M112.28,1057.05s8.51,12.11,21.08,1.48"/><path class="cls-23" d="M133.73,1057.05s8.52,12.11,21.09,1.48"/><path class="cls-23" d="M155.19,1057.05s8.51,12.11,21.09,1.48"/><path class="cls-23" d="M176.65,1057.05s8.51,12.11,21.08,1.48"/><path class="cls-23" d="M198.1,1057.05s8.52,12.11,21.09,1.48"/><path class="cls-23" d="M219.56,1057.05s8.51,12.11,21.08,1.48"/><path class="cls-23" d="M241,1057.05s8.52,12.11,21.09,1.48"/><path class="cls-23" d="M262.47,1057.05s8.51,12.11,21.09,1.48"/><path class="cls-23" d="M283.93,1057.05s8.51,12.11,21.08,1.48"/><path class="cls-23" d="M305.38,1057.05s8.52,12.11,21.09,1.48"/><path class="cls-23" d="M326.84,1057.05s8.51,12.11,21.08,1.48"/><path class="cls-23" d="M348.29,1057.05s8.52,12.11,21.09,1.48"/><path class="cls-23" d="M368.59,1057.05s8.51,12.11,21.09,1.48"/><path class="cls-23" d="M53.64,1067s8.52,12.12,21.09,1.49"/><path class="cls-23" d="M77.1,1067s8.51,12.12,21.08,1.49"/><path class="cls-23" d="M98.55,1067s8.52,12.12,21.09,1.49"/><path class="cls-23" d="M120,1067s8.51,12.12,21.09,1.49"/><path class="cls-23" d="M141.47,1067s8.51,12.12,21.08,1.49"/><path class="cls-23" d="M162.92,1067s8.52,12.12,21.09,1.49"/><path class="cls-23" d="M184.38,1067s8.51,12.12,21.08,1.49"/><path class="cls-23" d="M205.83,1067s8.52,12.12,21.09,1.49"/><path class="cls-23" d="M227.29,1067s8.51,12.12,21.09,1.49"/><path class="cls-23" d="M248.75,1067s8.51,12.12,21.08,1.49"/><path class="cls-23" d="M270.2,1067s8.52,12.12,21.09,1.49"/><path class="cls-23" d="M291.66,1067s8.51,12.12,21.08,1.49"/><path class="cls-23" d="M313.11,1067s8.52,12.12,21.09,1.49"/><path class="cls-23" d="M334.57,1067s8.51,12.12,21.09,1.49"/><path class="cls-23" d="M356,1067s8.51,12.12,21.08,1.49"/><path class="cls-23" d="M373.1,1067s8.51,12.12,21.09,1.49"/><path class="cls-23" d="M45.2,1077.66s8.51,12.12,21.09,1.49"/><path class="cls-23" d="M36,1135s8.52,12.11,21.09,1.48"/><path class="cls-23" d="M39.86,1110.85s8.51,12.11,21.08,1.48"/><path class="cls-23" d="M65.82,1077.34s8.52,12.12,21.09,1.49"/><path class="cls-23" d="M87.28,1077.34s8.51,12.12,21.08,1.49"/><path class="cls-23" d="M108.73,1077.34s8.52,12.12,21.09,1.49"/><path class="cls-23" d="M130.19,1077.34s8.51,12.12,21.09,1.49"/><path class="cls-23" d="M151.65,1077.34s8.51,12.12,21.08,1.49"/><path class="cls-23" d="M173.1,1077.34s8.52,12.12,21.09,1.49"/><path class="cls-23" d="M194.56,1077.34s8.51,12.12,21.08,1.49"/><path class="cls-23" d="M216,1077.34s8.52,12.12,21.09,1.49"/><path class="cls-23" d="M237.47,1077.34s8.51,12.12,21.09,1.49"/><path class="cls-23" d="M258.93,1077.34s8.51,12.12,21.08,1.49"/><path class="cls-23" d="M280.38,1077.34s8.52,12.12,21.09,1.49"/><path class="cls-23" d="M301.84,1077.34s8.51,12.12,21.08,1.49"/><path class="cls-23" d="M323.29,1077.34s8.52,12.12,21.09,1.49"/><path class="cls-23" d="M344.75,1077.34s8.51,12.12,21.09,1.49"/><path class="cls-23" d="M365.05,1077.34s8.51,12.12,21.08,1.49"/><path class="cls-23" d="M54.35,1088.94s8.52,12.12,21.09,1.49"/><path class="cls-23" d="M75.81,1088.94s8.51,12.12,21.09,1.49"/><path class="cls-23" d="M97.27,1088.94s8.51,12.12,21.08,1.49"/><path class="cls-23" d="M118.72,1088.94s8.52,12.12,21.09,1.49"/><path class="cls-23" d="M140.18,1088.94s8.51,12.12,21.08,1.49"/><path class="cls-23" d="M161.63,1088.94s8.52,12.12,21.09,1.49"/><path class="cls-23" d="M183.09,1088.94s8.51,12.12,21.09,1.49"/><path class="cls-23" d="M204.55,1088.94s8.51,12.12,21.08,1.49"/><path class="cls-23" d="M226,1088.94s8.52,12.12,21.09,1.49"/><path class="cls-23" d="M247.46,1088.94s8.51,12.12,21.08,1.49"/><path class="cls-23" d="M268.91,1088.94s8.52,12.12,21.09,1.49"/><path class="cls-23" d="M290.37,1088.94s8.51,12.12,21.08,1.49"/><path class="cls-23" d="M311.82,1088.94s8.52,12.12,21.09,1.49"/><path class="cls-23" d="M333.28,1088.94s8.51,12.12,21.09,1.49"/><path class="cls-23" d="M354.74,1088.94s8.51,12.12,21.08,1.49"/><path class="cls-23" d="M375,1088.94s8.52,12.12,21.09,1.49"/><path class="cls-23" d="M44,1100.21s8.52,12.12,21.09,1.49"/><path class="cls-23" d="M65.5,1100.21s8.51,12.12,21.09,1.49"/><path class="cls-23" d="M87,1100.21s8.51,12.12,21.08,1.49"/><path class="cls-23" d="M108.41,1100.21s8.52,12.12,21.09,1.49"/><path class="cls-23" d="M129.87,1100.21s8.51,12.12,21.08,1.49"/><path class="cls-23" d="M151.32,1100.21s8.52,12.12,21.09,1.49"/><path class="cls-23" d="M172.78,1100.21s8.51,12.12,21.09,1.49"/><path class="cls-23" d="M194.24,1100.21s8.51,12.12,21.08,1.49"/><path class="cls-23" d="M215.69,1100.21s8.52,12.12,21.09,1.49"/><path class="cls-23" d="M237.15,1100.21s8.51,12.12,21.08,1.49"/><path class="cls-23" d="M258.6,1100.21s8.52,12.12,21.09,1.49"/><path class="cls-23" d="M280.06,1100.21s8.51,12.12,21.09,1.49"/><path class="cls-23" d="M301.52,1100.21s8.51,12.12,21.08,1.49"/><path class="cls-23" d="M323,1100.21s8.52,12.12,21.09,1.49"/><path class="cls-23" d="M344.43,1100.21s8.51,12.12,21.08,1.49"/><path class="cls-23" d="M364.72,1100.21s8.52,12.12,21.09,1.49"/><path class="cls-23" d="M57.82,1112.13s8.51,12.12,21.08,1.49"/><path class="cls-23" d="M78.06,1113.1s8.52,12.12,21.09,1.49"/><path class="cls-23" d="M99.52,1113.1s8.51,12.12,21.09,1.49"/><path class="cls-23" d="M121,1113.1s8.51,12.12,21.08,1.49"/><path class="cls-23" d="M142.43,1113.1s8.52,12.12,21.09,1.49"/><path class="cls-23" d="M163.89,1113.1s8.51,12.12,21.08,1.49"/><path class="cls-23" d="M185.34,1113.1s8.52,12.12,21.09,1.49"/><path class="cls-23" d="M206.8,1113.1s8.51,12.12,21.09,1.49"/><path class="cls-23" d="M228.26,1113.1s8.51,12.12,21.08,1.49"/><path class="cls-23" d="M249.71,1113.1s8.52,12.12,21.09,1.49"/><path class="cls-23" d="M271.17,1113.1s8.51,12.12,21.08,1.49"/><path class="cls-23" d="M292.62,1113.1s8.52,12.12,21.09,1.49"/><path class="cls-23" d="M314.08,1113.1s8.51,12.12,21.09,1.49"/><path class="cls-23" d="M335.54,1113.1s8.51,12.12,21.08,1.49"/><path class="cls-23" d="M357,1113.1s8.52,12.12,21.09,1.49"/><path class="cls-23" d="M377.29,1113.1s8.51,12.12,21.08,1.49"/><path class="cls-23" d="M43.08,1123.73s8.51,12.12,21.08,1.49"/><path class="cls-23" d="M64.53,1123.73s8.52,12.12,21.09,1.49"/><path class="cls-23" d="M86,1123.73s8.51,12.12,21.09,1.49"/><path class="cls-23" d="M107.45,1123.73s8.51,12.12,21.08,1.49"/><path class="cls-23" d="M128.9,1123.73s8.52,12.12,21.09,1.49"/><path class="cls-23" d="M150.36,1123.73s8.51,12.12,21.08,1.49"/><path class="cls-23" d="M171.81,1123.73s8.52,12.12,21.09,1.49"/><path class="cls-23" d="M193.27,1123.73s8.51,12.12,21.09,1.49"/><path class="cls-23" d="M214.73,1123.73s8.51,12.12,21.08,1.49"/><path class="cls-23" d="M236.18,1123.73s8.52,12.12,21.09,1.49"/><path class="cls-23" d="M257.64,1123.73s8.51,12.12,21.08,1.49"/><path class="cls-23" d="M279.09,1123.73s8.52,12.12,21.09,1.49"/><path class="cls-23" d="M300.55,1123.73s8.51,12.12,21.09,1.49"/><path class="cls-23" d="M322,1123.73s8.51,12.12,21.08,1.49"/><path class="cls-23" d="M343.46,1123.73s8.52,12.12,21.09,1.49"/><path class="cls-23" d="M363.76,1123.73s8.51,12.12,21.08,1.49"/><path class="cls-23" d="M53.39,1135.65s8.51,12.12,21.08,1.49"/><path class="cls-23" d="M74.84,1135.65s8.52,12.12,21.09,1.49"/><path class="cls-23" d="M96.3,1135.65s8.51,12.12,21.08,1.49"/><path class="cls-23" d="M117.75,1135.65s8.52,12.12,21.09,1.49"/><path class="cls-23" d="M139.21,1135.65s8.51,12.12,21.09,1.49"/><path class="cls-23" d="M160.67,1135.65s8.51,12.12,21.08,1.49"/><path class="cls-23" d="M182.12,1135.65s8.52,12.12,21.09,1.49"/><path class="cls-23" d="M203.58,1135.65s8.51,12.12,21.08,1.49"/><path class="cls-23" d="M225,1135.65s8.52,12.12,21.09,1.49"/><path class="cls-23" d="M246.49,1135.65s8.51,12.12,21.09,1.49"/><path class="cls-23" d="M268,1135.65s8.51,12.12,21.08,1.49"/><path class="cls-23" d="M289.4,1135.65s8.52,12.12,21.09,1.49"/><path class="cls-23" d="M310.86,1135.65s8.51,12.12,21.08,1.49"/><path class="cls-23" d="M332.31,1135.65s8.52,12.12,21.09,1.49"/><path class="cls-23" d="M353.77,1135.65s8.51,12.12,21.09,1.49"/><path class="cls-23" d="M374.07,1135.65s8.51,12.12,21.08,1.49"/><path class="cls-23" d="M42.11,1146.93s8.52,12.11,21.09,1.48"/><path class="cls-23" d="M63.57,1146.93s8.51,12.11,21.08,1.48"/><path class="cls-23" d="M85,1146.93s8.52,12.11,21.09,1.48"/><path class="cls-23" d="M106.48,1146.93s8.51,12.11,21.09,1.48"/><path class="cls-23" d="M127.94,1146.93s8.51,12.11,21.08,1.48"/><path class="cls-23" d="M149.39,1146.93s8.52,12.11,21.09,1.48"/><path class="cls-23" d="M170.85,1146.93s8.51,12.11,21.08,1.48"/><path class="cls-23" d="M192.3,1146.93s8.52,12.11,21.09,1.48"/><path class="cls-23" d="M213.76,1146.93s8.51,12.11,21.09,1.48"/><path class="cls-23" d="M235.22,1146.93s8.51,12.11,21.08,1.48"/><path class="cls-23" d="M256.67,1146.93s8.52,12.11,21.09,1.48"/><path class="cls-23" d="M278.13,1146.93s8.51,12.11,21.08,1.48"/><path class="cls-23" d="M299.58,1146.93s8.52,12.11,21.09,1.48"/><path class="cls-23" d="M321,1146.93s8.51,12.11,21.09,1.48"/><path class="cls-23" d="M342.5,1146.93s8.51,12.11,21.08,1.48"/><path class="cls-23" d="M362.79,1146.93s8.51,12.11,21.09,1.48"/><path class="cls-23" d="M50.81,1156.91s8.51,12.12,21.09,1.49"/><path class="cls-23" d="M31.24,1157.64s8.51,12.12,21.09,1.48"/><path class="cls-23" d="M72.27,1156.91s8.51,12.12,21.08,1.49"/><path class="cls-23" d="M93.72,1156.91s8.52,12.12,21.09,1.49"/><path class="cls-23" d="M115.18,1156.91s8.51,12.12,21.08,1.49"/><path class="cls-23" d="M136.63,1156.91s8.52,12.12,21.09,1.49"/><path class="cls-23" d="M158.09,1156.91s8.51,12.12,21.09,1.49"/><path class="cls-23" d="M179.55,1156.91s8.51,12.12,21.08,1.49"/><path class="cls-23" d="M201,1156.91s8.52,12.12,21.09,1.49"/><path class="cls-23" d="M222.46,1156.91s8.51,12.12,21.08,1.49"/><path class="cls-23" d="M243.91,1156.91s8.52,12.12,21.09,1.49"/><path class="cls-23" d="M265.37,1156.91s8.51,12.12,21.09,1.49"/><path class="cls-23" d="M286.83,1156.91s8.51,12.12,21.08,1.49"/><path class="cls-23" d="M308.28,1156.91s8.52,12.12,21.09,1.49"/><path class="cls-23" d="M329.74,1156.91s8.51,12.12,21.08,1.49"/><path class="cls-23" d="M351.19,1156.91s8.52,12.12,21.09,1.49"/><path class="cls-23" d="M371.49,1156.91s8.51,12.12,21.08,1.49"/><path class="cls-23" d="M38.89,1167.22s8.51,12.12,21.09,1.49"/><path class="cls-23" d="M60.35,1167.22s8.51,12.12,21.08,1.49"/><path class="cls-23" d="M81.8,1167.22s8.52,12.12,21.09,1.49"/><path class="cls-23" d="M103.26,1167.22s8.51,12.12,21.08,1.49"/><path class="cls-23" d="M124.71,1167.22s8.52,12.12,21.09,1.49"/><path class="cls-23" d="M146.17,1167.22s8.51,12.12,21.09,1.49"/><path class="cls-23" d="M167.63,1167.22s8.51,12.12,21.08,1.49"/><path class="cls-23" d="M189.08,1167.22s8.52,12.12,21.09,1.49"/><path class="cls-23" d="M210.54,1167.22s8.51,12.12,21.08,1.49"/><path class="cls-23" d="M232,1167.22s8.52,12.12,21.09,1.49"/><path class="cls-23" d="M253.45,1167.22s8.51,12.12,21.09,1.49"/><path class="cls-23" d="M274.91,1167.22s8.51,12.12,21.08,1.49"/><path class="cls-23" d="M296.36,1167.22s8.52,12.12,21.09,1.49"/><path class="cls-23" d="M317.82,1167.22s8.51,12.12,21.08,1.49"/><path class="cls-23" d="M339.27,1167.22s8.52,12.12,21.09,1.49"/><path class="cls-23" d="M359.57,1167.22s8.51,12.12,21.08,1.49"/><path class="cls-27" d="M178.77,1276.91a763.33,763.33,0,0,1-107.16,0c-6.26-17.39-6.49-36.46,0-57.43q52.32-2.13,107.16,0A88.55,88.55,0,0,1,178.77,1276.91Z"/><path class="cls-28" d="M173.7,1275.05a810,810,0,0,1-107.16,0c-6.25-16.42-6.49-34.43,0-54.23q52.32-2,107.16,0A79.21,79.21,0,0,1,173.7,1275.05Z"/><line class="cls-29" x1="120.75" y1="1221.67" x2="120.75" y2="1276.06"/><line class="cls-30" x1="63.52" y1="1247.93" x2="176.6" y2="1247.93"/><line class="cls-28" x1="118.86" y1="1219.6" x2="118.86" y2="1277.19"/><line class="cls-28" x1="61.71" y1="1246.79" x2="179.44" y2="1246.79"/><path class="cls-31" d="M380.21,1279.92a691.62,691.62,0,0,1-98.17,0c-5.73-16.13-6-33.83,0-53.28q47.93-2,98.17,0A83.2,83.2,0,0,1,380.21,1279.92Z"/><path class="cls-32" d="M375,1275.19a732.34,732.34,0,0,1-98.16,0c-5.73-15.23-5.95-31.93,0-50.3q47.93-1.86,98.16,0A74.27,74.27,0,0,1,375,1275.19Z"/><line class="cls-33" x1="326.48" y1="1224.94" x2="326.48" y2="1276.12"/><line class="cls-34" x1="276.9" y1="1250.03" x2="374.93" y2="1250.03"/><line class="cls-32" x1="324.74" y1="1223.76" x2="324.74" y2="1277.18"/><line class="cls-32" x1="270.68" y1="1248.97" x2="380.24" y2="1248.97"/><path class="cls-35" d="M208.69,1248.61H244.8a12.87,12.87,0,0,1,12.87,12.87V1370.2a0,0,0,0,1,0,0H195.82a0,0,0,0,1,0,0V1261.48A12.87,12.87,0,0,1,208.69,1248.61Z"/><path class="cls-36" d="M205.47,1246.84h36.11a12.87,12.87,0,0,1,12.87,12.87v108.73a0,0,0,0,1,0,0H192.6a0,0,0,0,1,0,0V1259.71A12.87,12.87,0,0,1,205.47,1246.84Z"/><circle class="cls-37" cx="243.12" cy="1313.46" r="3.86"/><circle class="cls-38" cx="242.24" cy="1312.49" r="3.86"/><g class="cls-39"><rect class="cls-40" x="265.4" y="1309.08" width="129.99" height="57.5"/><line class="cls-40" x1="272.65" y1="1309.08" x2="272.65" y2="1366.1"/><line class="cls-40" x1="280.86" y1="1309.08" x2="280.86" y2="1366.1"/><line class="cls-40" x1="289.08" y1="1309.08" x2="289.08" y2="1366.1"/><line class="cls-40" x1="297.29" y1="1309.08" x2="297.29" y2="1366.1"/><line class="cls-40" x1="305.51" y1="1309.08" x2="305.51" y2="1366.1"/><line class="cls-40" x1="313.72" y1="1309.08" x2="313.72" y2="1366.1"/><line class="cls-40" x1="321.94" y1="1309.08" x2="321.94" y2="1366.1"/><line class="cls-40" x1="330.15" y1="1309.08" x2="330.15" y2="1366.1"/><line class="cls-40" x1="338.37" y1="1309.08" x2="338.37" y2="1366.1"/><line class="cls-40" x1="346.58" y1="1309.08" x2="346.58" y2="1366.1"/><line class="cls-40" x1="354.79" y1="1309.08" x2="354.79" y2="1366.1"/><line class="cls-40" x1="363.01" y1="1309.08" x2="363.01" y2="1366.1"/><line class="cls-40" x1="371.22" y1="1309.08" x2="371.22" y2="1366.1"/><line class="cls-40" x1="379.44" y1="1309.08" x2="379.44" y2="1366.1"/><line class="cls-40" x1="387.65" y1="1309.08" x2="387.65" y2="1366.1"/></g><rect class="cls-41" x="262.91" y="1308.03" width="129.99" height="57.5"/><line class="cls-41" x1="270.16" y1="1308.03" x2="270.16" y2="1365.05"/><line class="cls-41" x1="278.37" y1="1308.03" x2="278.37" y2="1365.05"/><line class="cls-41" x1="286.59" y1="1308.03" x2="286.59" y2="1365.05"/><line class="cls-41" x1="294.8" y1="1308.03" x2="294.8" y2="1365.05"/><line class="cls-41" x1="303.02" y1="1308.03" x2="303.02" y2="1365.05"/><line class="cls-41" x1="311.23" y1="1308.03" x2="311.23" y2="1365.05"/><line class="cls-41" x1="319.45" y1="1308.03" x2="319.45" y2="1365.05"/><line class="cls-41" x1="327.66" y1="1308.03" x2="327.66" y2="1365.05"/><line class="cls-41" x1="335.88" y1="1308.03" x2="335.88" y2="1365.05"/><line class="cls-41" x1="344.09" y1="1308.03" x2="344.09" y2="1365.05"/><line class="cls-41" x1="352.3" y1="1308.03" x2="352.3" y2="1365.05"/><line class="cls-41" x1="360.52" y1="1308.03" x2="360.52" y2="1365.05"/><line class="cls-41" x1="368.73" y1="1308.03" x2="368.73" y2="1365.05"/><line class="cls-41" x1="376.95" y1="1308.03" x2="376.95" y2="1365.05"/><line class="cls-41" x1="385.16" y1="1308.03" x2="385.16" y2="1365.05"/><g class="cls-39"><rect class="cls-40" x="54.39" y="1309.4" width="129.99" height="57.5"/><line class="cls-40" x1="61.64" y1="1309.4" x2="61.64" y2="1366.42"/><line class="cls-40" x1="69.86" y1="1309.4" x2="69.86" y2="1366.42"/><line class="cls-40" x1="78.07" y1="1309.4" x2="78.07" y2="1366.42"/><line class="cls-40" x1="86.29" y1="1309.4" x2="86.29" y2="1366.42"/><line class="cls-40" x1="94.5" y1="1309.4" x2="94.5" y2="1366.42"/><line class="cls-40" x1="102.71" y1="1309.4" x2="102.71" y2="1366.42"/><line class="cls-40" x1="110.93" y1="1309.4" x2="110.93" y2="1366.42"/><line class="cls-40" x1="119.14" y1="1309.4" x2="119.14" y2="1366.42"/><line class="cls-40" x1="127.36" y1="1309.4" x2="127.36" y2="1366.42"/><line class="cls-40" x1="135.57" y1="1309.4" x2="135.57" y2="1366.42"/><line class="cls-40" x1="143.79" y1="1309.4" x2="143.79" y2="1366.42"/><line class="cls-40" x1="152" y1="1309.4" x2="152" y2="1366.42"/><line class="cls-40" x1="160.22" y1="1309.4" x2="160.22" y2="1366.42"/><line class="cls-40" x1="168.43" y1="1309.4" x2="168.43" y2="1366.42"/><line class="cls-40" x1="176.65" y1="1309.4" x2="176.65" y2="1366.42"/></g><rect class="cls-41" x="51.9" y="1308.35" width="129.99" height="57.5"/><line class="cls-41" x1="59.15" y1="1308.35" x2="59.15" y2="1365.37"/><line class="cls-41" x1="67.37" y1="1308.35" x2="67.37" y2="1365.37"/><line class="cls-41" x1="75.58" y1="1308.35" x2="75.58" y2="1365.37"/><line class="cls-41" x1="83.8" y1="1308.35" x2="83.8" y2="1365.37"/><line class="cls-41" x1="92.01" y1="1308.35" x2="92.01" y2="1365.37"/><line class="cls-41" x1="100.22" y1="1308.35" x2="100.22" y2="1365.37"/><line class="cls-41" x1="108.44" y1="1308.35" x2="108.44" y2="1365.37"/><line class="cls-41" x1="116.65" y1="1308.35" x2="116.65" y2="1365.37"/><line class="cls-41" x1="124.87" y1="1308.35" x2="124.87" y2="1365.37"/><line class="cls-41" x1="133.08" y1="1308.35" x2="133.08" y2="1365.37"/><line class="cls-41" x1="141.3" y1="1308.35" x2="141.3" y2="1365.37"/><line class="cls-41" x1="149.51" y1="1308.35" x2="149.51" y2="1365.37"/><line class="cls-41" x1="157.73" y1="1308.35" x2="157.73" y2="1365.37"/><line class="cls-41" x1="165.94" y1="1308.35" x2="165.94" y2="1365.37"/><line class="cls-41" x1="174.16" y1="1308.35" x2="174.16" y2="1365.37"/><path class="cls-42" d="M191.38,1366.66h65.36a4.21,4.21,0,0,1,4.21,4.21v7.71a0,0,0,0,1,0,0H187.17a0,0,0,0,1,0,0v-7.71A4.21,4.21,0,0,1,191.38,1366.66Z"/><rect class="cls-43" x="45.51" y="1363.69" width="18.39" height="10.35" rx="3.87"/><rect class="cls-43" x="63.17" y="1364.69" width="18.39" height="10.35" rx="3.87"/><rect class="cls-43" x="80.82" y="1364.69" width="18.39" height="10.35" rx="3.87"/><rect class="cls-43" x="98.47" y="1364.69" width="18.39" height="10.35" rx="3.87"/><rect class="cls-43" x="116.13" y="1364.69" width="18.39" height="10.35" rx="3.87"/><rect class="cls-43" x="133.78" y="1364.69" width="18.39" height="10.35" rx="3.87"/><rect class="cls-43" x="151.43" y="1364.69" width="18.39" height="10.35" rx="3.87"/><rect class="cls-43" x="169.09" y="1364.69" width="18.39" height="10.35" rx="3.87"/><path class="cls-44" d="M189,1378.9h70.13a4,4,0,0,1,4,4v7.9a0,0,0,0,1,0,0H185a0,0,0,0,1,0,0v-7.9A4,4,0,0,1,189,1378.9Z"/><rect class="cls-43" x="260.36" y="1365.78" width="18.39" height="10.35" rx="3.87"/><rect class="cls-43" x="278.01" y="1365.78" width="18.39" height="10.35" rx="3.87"/><rect class="cls-43" x="295.66" y="1365.78" width="18.39" height="10.35" rx="3.87"/><rect class="cls-43" x="313.32" y="1365.78" width="18.39" height="10.35" rx="3.87"/><rect class="cls-43" x="330.97" y="1365.78" width="18.39" height="10.35" rx="3.87"/><rect class="cls-43" x="348.62" y="1365.78" width="18.39" height="10.35" rx="3.87"/><rect class="cls-43" x="366.28" y="1365.78" width="18.39" height="10.35" rx="3.87"/><rect class="cls-43" x="383.93" y="1365.78" width="18.39" height="10.35" rx="3.87"/><path class="cls-45" d="M271.59,1353a4.49,4.49,0,0,0-5.57,1.17C264.24,1358.36,269.54,1352.51,271.59,1353Z"/><path class="cls-45" d="M265.32,1346.7a2.59,2.59,0,0,0-1.57,2.86C265,1351.78,264.31,1347.43,265.32,1346.7Z"/><path class="cls-45" d="M261.2,1342.53s2.13-.24,2.69,1.57C263.68,1346.34,262.46,1342.67,261.2,1342.53Z"/><path class="cls-45" d="M259.51,1351.07s4.91-.68,6.36,3.53C265.68,1359.45,262.77,1350.33,259.51,1351.07Z"/><path class="cls-46" d="M265.6,1360a7.69,7.69,0,0,0,.13-4.9,18.37,18.37,0,0,0-2-4.54l-.66-1.06a4.15,4.15,0,0,1-.59-1.37,4.07,4.07,0,0,1,.55-2.83,10.44,10.44,0,0,1,1.67-2.08l.92-.89a2.38,2.38,0,0,0,.38-.47.24.24,0,0,0,0-.24.45.45,0,0,0-.25-.16.46.46,0,0,1,.33.1.38.38,0,0,1,.07.37,2.33,2.33,0,0,1-.27.62c-.23.38-.48.74-.72,1.09a12.58,12.58,0,0,0-1.26,2.12,3.36,3.36,0,0,0-.31,2.12,3.11,3.11,0,0,0,.46,1l.67,1.13a14.49,14.49,0,0,1,1.8,5A6.67,6.67,0,0,1,265.6,1360Z"/><path class="cls-47" d="M264.93,1365.48h4.82a1.46,1.46,0,0,0,1.46-1.44l2-8a1.45,1.45,0,0,0-1.46-1.44h-9.19a1.44,1.44,0,0,0-1.46,1.44l2.36,8A1.45,1.45,0,0,0,264.93,1365.48Z"/><rect class="cls-48" x="260.04" y="1354.47" width="14.17" height="1.44" rx="0.72" transform="translate(534.26 2710.38) rotate(-180)"/><polygon class="cls-49" points="266.05 1338.41 264.96 1340.42 262.69 1340.01 264.28 1341.65 263.19 1343.65 265.27 1342.67 266.86 1344.31 266.55 1342.06 268.63 1341.07 266.36 1340.67 266.05 1338.41"/><polygon class="cls-50" points="264.83 1344.42 265.93 1342.6 268.02 1343.08 266.61 1341.48 267.72 1339.67 265.74 1340.49 264.33 1338.9 264.52 1341.01 262.55 1341.83 264.64 1342.31 264.83 1344.42"/><ellipse class="cls-51" cx="265.46" cy="1341.59" rx="0.69" ry="0.68"/><g class="cls-52"><path d="M69.57,1303H48.65s-.12-1.52-.12-5.11h0c0-3.59-5-7.94-1-7.94h22c4,0,7.34,2.93,7.34,6.52h0C76.91,1300.08,73.61,1303,69.57,1303Z"/><rect x="132.16" y="1284.01" width="32.62" height="13.05" rx="6.52"/><rect x="132.32" y="1194.61" width="32.62" height="13.05" rx="6.52"/><rect x="345.42" y="1202.02" width="32.62" height="13.05" rx="6.52"/><rect x="235.08" y="1186.88" width="32.62" height="13.05" rx="6.52"/></g><path class="cls-53" d="M174.37,1352.54a4.47,4.47,0,0,1,5.51,1.14C181.65,1357.75,176.4,1352,174.37,1352.54Z"/><path class="cls-53" d="M180.69,1344.89a2.5,2.5,0,0,1,2.1-2.4C185.22,1343,181,1343.7,180.69,1344.89Z"/><path class="cls-53" d="M185.52,1340.35s-2.11-.23-2.67,1.53C183.07,1344.07,184.27,1340.49,185.52,1340.35Z"/><path class="cls-53" d="M186.13,1350.64s-4.87-.67-6.3,3.44C180,1358.82,182.9,1349.91,186.13,1350.64Z"/><path class="cls-54" d="M181.65,1359.38a7.51,7.51,0,0,1-2.27-5.62,5.88,5.88,0,0,1,1.1-3,8.85,8.85,0,0,1,2.3-2.19l1.26-.79a6.65,6.65,0,0,0,1.07-.87,1.91,1.91,0,0,0,.71-2.12,5,5,0,0,0-1.84-2,18.53,18.53,0,0,0-2.57-1.49,11.67,11.67,0,0,1,2.88,1,5.22,5.22,0,0,1,2.39,2.12,2.41,2.41,0,0,1,.16,1.81,3.88,3.88,0,0,1-.9,1.48,12.12,12.12,0,0,1-2.49,1.86,6.58,6.58,0,0,0-3.16,4.33A8.6,8.6,0,0,0,181.65,1359.38Z"/><path class="cls-47" d="M182.32,1364.7h-4.78a1.44,1.44,0,0,1-1.45-1.41l-2-7.83a1.43,1.43,0,0,1,1.44-1.41h9.1a1.44,1.44,0,0,1,1.45,1.41l-2.34,7.83A1.43,1.43,0,0,1,182.32,1364.7Z"/><rect class="cls-48" x="173.12" y="1353.95" width="14.03" height="1.41" rx="0.58"/><polygon class="cls-51" points="181.21 1338.28 182.29 1340.23 184.53 1339.84 182.95 1341.44 184.03 1343.39 181.98 1342.43 180.4 1344.03 180.71 1341.84 178.66 1340.87 180.9 1340.48 181.21 1338.28"/><polygon class="cls-55" points="182.41 1344.14 181.32 1342.37 179.25 1342.83 180.65 1341.27 179.55 1339.5 181.51 1340.31 182.9 1338.75 182.72 1340.81 184.67 1341.62 182.6 1342.08 182.41 1344.14"/><ellipse class="cls-51" cx="181.78" cy="1341.38" rx="0.68" ry="0.66"/><rect class="cls-42" x="42.76" y="1288.06" width="32.62" height="13.05" rx="6.52"/><rect class="cls-42" x="130.09" y="1283.07" width="32.62" height="13.05" rx="6.52"/><rect class="cls-56" x="129.77" y="1193.03" width="32.62" height="13.05" rx="6.52"/><rect class="cls-42" x="344.15" y="1200.12" width="32.62" height="13.05" rx="6.52"/><rect class="cls-42" x="233.01" y="1184.65" width="32.62" height="13.05" rx="6.52"/><path class="cls-57" d="M22.05,1361c-2.59-14,3.54-21.44,13.11-26.22,6.31-13.45,16.39-15.13,28.84-9.44,14.5-3.1,26.82-1.39,34.08,11.54,13.3,3.09,18.46,11.66,17.83,24.12,4.72,10,1.57,20.45-11.54,24.12H47.74C24.67,1388.81,16.28,1367.31,22.05,1361Z"/><path class="cls-58" d="M17.33,1362.59c-2.59-14,3.55-21.44,13.11-26.21,6.31-13.46,16.39-15.13,28.84-9.44,14.5-3.11,26.83-1.39,34.08,11.53,13.3,3.09,18.46,11.66,17.83,24.12,4.72,10,1.57,20.45-11.54,24.12H43C20,1390.38,11.56,1368.89,17.33,1362.59Z"/><polygon class="cls-59" points="359.09 322.43 359.12 322.38 359.07 322.38 216 74.58 72.93 322.38 72.88 322.38 72.91 322.43 72.88 322.47 72.93 322.47 216 570.27 359.07 322.47 359.12 322.47 359.09 322.43"/><path d="M358.84,322.43a.64.64,0,0,1,.06-.18l.22.38h-.19l-.08-.12-18.44-30.66-18.3-30.73-36.6-61.47L213,76.34h6.1l-17.63,31.12-17.79,31-35.6,62L76.83,324.63l-1.3,2.25H72.88l3.89-6.74,0,.05,1.3,2.26-1.3,2.23,0,.05L72.88,318h2.66l1.29,2.24L148,444.32l35.6,62,17.77,31L219,568.52H213l72.55-123.31,36.59-61.47L340.41,353l18.44-30.65.08-.13h.19l-.22.38A.58.58,0,0,1,358.84,322.43Zm.5,0a.11.11,0,0,0,0-.08l-.22.37h-.05l.21-.12-143,247.86L216,571l-.32-.56L72.5,322.72l.43.25H72l.43-.75,0,0v.5l0-.05-.44-.75h.92l-.43.25L215.67,74.39l.33-.56.33.56L359.28,322.25l-.21-.12h.05l.22.37A.09.09,0,0,0,359.34,322.43Z"/></g></svg>