<svg xmlns="http://www.w3.org/2000/svg" viewBox="0 0 432 1393.49"><defs><style>.cls-1{fill:#404040;}.cls-2{fill:#111;}.cls-2,.cls-59{opacity:0.35;}.cls-3{fill:#535353;}.cls-4{opacity:0.36;}.cls-5{opacity:0.37;}.cls-6{fill:#353535;}.cls-7{fill:#5d5d5d;}.cls-8{fill:#424242;}.cls-9{fill:#212121;}.cls-10{fill:#3e3e3e;}.cls-11{fill:#1c1c1c;}.cls-12{fill:#272727;}.cls-13{fill:#2c2c2c;}.cls-14{fill:#202020;}.cls-15{fill:#191919;}.cls-16{fill:#101010;}.cls-17{fill:#1a1a1a;}.cls-18{fill:#333;}.cls-19{fill:#4c4c4c;}.cls-19,.cls-21,.cls-22,.cls-25,.cls-26,.cls-30,.cls-31,.cls-34,.cls-35{stroke:#000;}.cls-19,.cls-21,.cls-22,.cls-24,.cls-25,.cls-26,.cls-27,.cls-29,.cls-30,.cls-31,.cls-32,.cls-33,.cls-34,.cls-35,.cls-36,.cls-38,.cls-40,.cls-42,.cls-43,.cls-44,.cls-45,.cls-46,.cls-47,.cls-48,.cls-49,.cls-50,.cls-51,.cls-52,.cls-53,.cls-54,.cls-55,.cls-56,.cls-57,.cls-58,.cls-60,.cls-61,.cls-73,.cls-74,.cls-75,.cls-76{stroke-miterlimit:10;}.cls-20{opacity:0.19;}.cls-22{stroke-width:0.96px;}.cls-23{opacity:0.25;}.cls-24,.cls-25,.cls-26,.cls-27,.cls-29,.cls-30,.cls-31,.cls-32,.cls-33,.cls-34,.cls-35,.cls-36,.cls-60,.cls-61{fill:#a0a0a0;}.cls-24,.cls-27,.cls-29,.cls-32,.cls-33,.cls-36,.cls-40,.cls-43,.cls-44,.cls-60,.cls-61{stroke:#dadada;}.cls-24{stroke-width:2.14px;}.cls-25{stroke-width:3.39px;}.cls-25,.cls-30,.cls-34{opacity:0.09;}.cls-26{stroke-width:3.2px;}.cls-26,.cls-31,.cls-35{opacity:0.1;}.cls-27{stroke-width:2.85px;}.cls-28{opacity:0.2;}.cls-29{stroke-width:3.15px;}.cls-30{stroke-width:4.95px;}.cls-31{stroke-width:4.26px;}.cls-32{stroke-width:4.2px;}.cls-33{stroke-width:4.17px;}.cls-34{stroke-width:4.91px;}.cls-35{stroke-width:3.85px;}.cls-36{stroke-width:4.17px;}.cls-37{opacity:0.39;}.cls-38,.cls-44{fill:#262626;}.cls-38,.cls-45,.cls-46,.cls-47,.cls-48,.cls-49,.cls-50,.cls-51,.cls-52,.cls-53,.cls-54,.cls-55,.cls-56,.cls-57,.cls-58,.cls-73,.cls-74,.cls-75,.cls-76{stroke:#333;}.cls-38{stroke-width:2px;}.cls-39{opacity:0.38;}.cls-40{fill:#323232;stroke-width:0.66px;}.cls-41{opacity:0.44;}.cls-42,.cls-43{fill:none;stroke-width:3.7px;}.cls-42{stroke:#1a1a1a;}.cls-44{stroke-width:0.75px;}.cls-45,.cls-54,.cls-55,.cls-56,.cls-57,.cls-58,.cls-74{fill:#414141;}.cls-45{stroke-width:0.72px;}.cls-46,.cls-47,.cls-48,.cls-49,.cls-50,.cls-51,.cls-52{fill:#1e1e1e;}.cls-46{stroke-width:0.71px;}.cls-47{stroke-width:0.72px;}.cls-48{stroke-width:0.72px;}.cls-49{stroke-width:0.72px;}.cls-50{stroke-width:0.73px;}.cls-51{stroke-width:0.73px;}.cls-52{stroke-width:0.73px;}.cls-53{fill:#363636;stroke-width:0.29px;}.cls-54{stroke-width:0.74px;}.cls-55{stroke-width:0.76px;}.cls-56{stroke-width:0.79px;}.cls-57{stroke-width:0.81px;}.cls-58{stroke-width:0.84px;}.cls-59{fill:#050505;}.cls-60{stroke-width:3.43px;}.cls-61{stroke-width:2.29px;}.cls-62{fill:#131313;opacity:0.32;}.cls-63{fill:#383838;}.cls-64{fill:#6e6e6e;}.cls-65{fill:#636363;}.cls-66{fill:#4a4a4a;}.cls-67{fill:#5e5e5e;}.cls-68{fill:#949494;}.cls-69{opacity:0.3;}.cls-70{fill:#3c3c3c;}.cls-71{fill:#4e4e4e;}.cls-72{fill:#ccc;}.cls-73{fill:#444;}.cls-73,.cls-74,.cls-75,.cls-76{stroke-width:0.74px;}.cls-75{fill:#373737;}.cls-76{fill:#4f4f4f;}.cls-77{fill:#a4a4a4;}</style></defs><title>houseGrayScale</title><g id="Layer_2" data-name="Layer 2"><path class="cls-1" d="M388.74,1365.35c-115,14.88-229.55,14.25-343.58,0-4.94-134.52-4.73-268.36,0-400.56H388.74C395.4,1086,394.84,1220.76,388.74,1365.35Z"/><polygon class="cls-2" points="392.79 1076.11 57.43 1075.55 41.09 1052.89 392.31 1057.08 392.79 1076.11"/><path class="cls-3" d="M133.22,905.07H86.82c-2.15-29.58-2.44-58,0-84.55h46.4A583.38,583.38,0,0,1,133.22,905.07Z"/><path class="cls-4" d="M133.35,823.91,90.6,824c-2.66,0-4.83-3.25-4.83-6.48h0c0-3.23,2.15-5.85,4.81-5.85,13.86,1.17,27.08,1.38,39.27,0,2.66,0,4.81,2.62,4.81,5.85l-1.24.67Z"/><path class="cls-3" d="M133.51,821.29H85.77a5.85,5.85,0,0,1-5.85-5.85h0a5.85,5.85,0,0,1,5.85-5.85c16.85,1.18,32.92,1.38,47.74,0a5.85,5.85,0,0,1,5.85,5.85h0A5.85,5.85,0,0,1,133.51,821.29Z"/><g class="cls-5"><rect x="87.21" y="826.59" width="11.5" height="6.14" rx="3.07"/><rect x="97.69" y="835.54" width="11.5" height="6.14" rx="3.07"/><rect x="110.34" y="827.77" width="11.5" height="6.14" rx="3.07"/><path d="M133.06,839.85H127.7a3.08,3.08,0,0,1-3.07-3.07h0a3.07,3.07,0,0,1,3.07-3.06h5.36c1.69,0,1.41,1.12,1.41,2.81h0C134.47,838.22,134.75,839.85,133.06,839.85Z"/><rect x="105.45" y="845.99" width="11.5" height="6.14" rx="3.07"/><rect x="87.34" y="842.92" width="11.5" height="6.14" rx="3.07"/><rect x="121.27" y="844.26" width="11.5" height="6.14" rx="3.07"/><rect x="86.76" y="861.8" width="11.69" height="6.23" rx="3.12"/><rect x="123.29" y="863.43" width="11.5" height="6.14" rx="3.07"/><rect x="102.1" y="865.23" width="12.46" height="6.64" rx="3.32"/><path d="M133.45,888.07h-5.37A3.08,3.08,0,0,1,125,885h0a3.07,3.07,0,0,1,3.07-3.06h5.37c1.68,0,1.12,1.12,1.12,2.81h0C134.57,886.44,135.13,888.07,133.45,888.07Z"/><rect x="90.79" y="881.27" width="12.39" height="6.61" rx="3.3"/><rect x="85.99" y="893.06" width="11.5" height="6.14" rx="3.07"/><rect x="104.4" y="896.03" width="11.5" height="6.14" rx="3.07"/><rect x="111.78" y="886.25" width="11.5" height="6.14" rx="3.07"/><rect x="121.66" y="897.5" width="11.8" height="6.3" rx="3.15"/></g><rect class="cls-6" x="86.44" y="826.02" width="11.5" height="6.14" rx="3.07"/><rect class="cls-7" x="96.92" y="834.96" width="11.5" height="6.14" rx="3.07"/><rect class="cls-8" x="109.58" y="827.2" width="11.5" height="6.14" rx="3.07"/><rect class="cls-9" x="123.86" y="833.14" width="11.5" height="6.14" rx="3.07"/><rect class="cls-10" x="104.69" y="845.41" width="11.5" height="6.14" rx="3.07"/><rect class="cls-11" x="86.57" y="842.34" width="11.5" height="6.14" rx="3.07"/><rect class="cls-12" x="120.51" y="843.69" width="11.5" height="6.14" rx="3.07"/><rect class="cls-13" x="85.99" y="861.23" width="11.69" height="6.23" rx="3.12"/><rect class="cls-14" x="122.52" y="862.86" width="11.5" height="6.14" rx="3.07"/><rect class="cls-15" x="101.33" y="864.65" width="12.46" height="6.64" rx="3.32"/><rect class="cls-14" x="124.24" y="881.36" width="11.5" height="6.14" rx="3.07"/><rect class="cls-16" x="90.02" y="880.69" width="12.39" height="6.61" rx="3.3"/><rect class="cls-17" x="85.23" y="892.48" width="11.5" height="6.14" rx="3.07"/><rect class="cls-18" x="103.63" y="895.45" width="11.5" height="6.14" rx="3.07"/><rect class="cls-9" x="111.01" y="885.67" width="11.5" height="6.14" rx="3.07"/><rect class="cls-11" x="120.89" y="896.92" width="11.8" height="6.3" rx="3.15"/><path class="cls-19" d="M409.8,1057.89H22.2c5.29-60.14,15-121.14,36.44-182.94H374.91C391.33,931.86,402.53,993.21,409.8,1057.89Z"/><g class="cls-20"><path class="cls-21" d="M55.81,883.57s8.52,12.12,21.09,1.49"/><path class="cls-21" d="M77.27,883.57s8.51,12.12,21.08,1.49"/><path class="cls-21" d="M98.72,883.57s8.52,12.12,21.09,1.49"/><path class="cls-21" d="M120.18,883.57s8.51,12.12,21.09,1.49"/><path class="cls-21" d="M141.63,883.57s8.52,12.12,21.09,1.49"/><path class="cls-21" d="M163.09,883.57s8.52,12.12,21.09,1.49"/><path class="cls-21" d="M184.55,883.57s8.51,12.12,21.08,1.49"/><path class="cls-21" d="M206,883.57s8.52,12.12,21.09,1.49"/><path class="cls-21" d="M227.46,883.57s8.51,12.12,21.08,1.49"/><path class="cls-21" d="M248.91,883.57s8.52,12.12,21.09,1.49"/><path class="cls-21" d="M270.37,883.57s8.51,12.12,21.09,1.49"/><path class="cls-21" d="M291.83,883.57s8.51,12.12,21.08,1.49"/><path class="cls-21" d="M313.28,883.57s8.52,12.12,21.09,1.49"/><path class="cls-21" d="M334.74,883.57s8.51,12.12,21.08,1.49"/><path class="cls-21" d="M356.19,883.57s8.52,12.12,21.09,1.49"/><path class="cls-21" d="M377.46,1049.16s8.51,12.12,21.08,1.48"/><path class="cls-22" d="M384.87,1038.2s7.89,12.12,19.55,1.49"/><path class="cls-21" d="M381,1027.25s8.51,12.12,21.09,1.49"/><path class="cls-21" d="M379.07,1005s8.51,12.12,21.08,1.49"/><path class="cls-21" d="M53.88,894.85S62.39,907,75,896.34"/><path class="cls-21" d="M67.6,894.53s8.52,12.11,21.09,1.48"/><path class="cls-21" d="M89.06,894.53s8.51,12.11,21.08,1.48"/><path class="cls-21" d="M110.51,894.53S119,906.64,131.6,896"/><path class="cls-21" d="M132,894.53s8.51,12.11,21.09,1.48"/><path class="cls-21" d="M153.43,894.53s8.51,12.11,21.08,1.48"/><path class="cls-21" d="M174.88,894.53S183.4,906.64,196,896"/><path class="cls-21" d="M196.34,894.53s8.51,12.11,21.08,1.48"/><path class="cls-21" d="M217.79,894.53s8.52,12.11,21.09,1.48"/><path class="cls-21" d="M239.25,894.53s8.51,12.11,21.09,1.48"/><path class="cls-21" d="M260.71,894.53s8.51,12.11,21.08,1.48"/><path class="cls-21" d="M282.16,894.53s8.52,12.11,21.09,1.48"/><path class="cls-21" d="M303.62,894.53s8.51,12.11,21.08,1.48"/><path class="cls-21" d="M325.07,894.53s8.52,12.11,21.09,1.48"/><path class="cls-21" d="M346.53,894.53S355,906.64,367.62,896"/><path class="cls-21" d="M53.88,905.8s8.51,12.12,21.08,1.49"/><path class="cls-21" d="M75.33,905.8s8.52,12.12,21.09,1.49"/><path class="cls-21" d="M96.79,905.8s8.51,12.12,21.09,1.49"/><path class="cls-21" d="M118.25,905.8s8.51,12.12,21.08,1.49"/><path class="cls-21" d="M139.7,905.8s8.52,12.12,21.09,1.49"/><path class="cls-21" d="M161.16,905.8s8.51,12.12,21.08,1.49"/><path class="cls-21" d="M182.61,905.8s8.52,12.12,21.09,1.49"/><path class="cls-21" d="M204.07,905.8s8.51,12.12,21.09,1.49"/><path class="cls-21" d="M225.53,905.8s8.51,12.12,21.08,1.49"/><path class="cls-21" d="M247,905.8s8.52,12.12,21.09,1.49"/><path class="cls-21" d="M268.44,905.8s8.51,12.12,21.08,1.49"/><path class="cls-21" d="M289.89,905.8s8.52,12.12,21.09,1.49"/><path class="cls-21" d="M311.35,905.8s8.51,12.12,21.09,1.49"/><path class="cls-21" d="M332.81,905.8s8.51,12.12,21.08,1.49"/><path class="cls-21" d="M354.26,905.8s8.52,12.12,21.09,1.49"/><path class="cls-21" d="M45.51,915.47S54,927.58,66.6,917"/><path class="cls-21" d="M63.09,916.43s8.52,12.12,21.09,1.49"/><path class="cls-21" d="M84.55,916.43s8.51,12.12,21.08,1.49"/><path class="cls-21" d="M106,916.43s8.52,12.12,21.09,1.49"/><path class="cls-21" d="M374.88,982.63s8.51,12.12,21.09,1.49"/><path class="cls-21" d="M127.46,916.43s8.51,12.12,21.09,1.49"/><path class="cls-21" d="M148.92,916.43s8.51,12.12,21.08,1.49"/><path class="cls-21" d="M170.37,916.43s8.52,12.12,21.09,1.49"/><path class="cls-21" d="M191.83,916.43s8.51,12.12,21.08,1.49"/><path class="cls-21" d="M213.28,916.43s8.52,12.12,21.09,1.49"/><path class="cls-21" d="M234.74,916.43s8.51,12.12,21.09,1.49"/><path class="cls-21" d="M256.2,916.43s8.51,12.12,21.08,1.49"/><path class="cls-21" d="M277.65,916.43s8.52,12.12,21.09,1.49"/><path class="cls-21" d="M299.11,916.43s8.51,12.12,21.08,1.49"/><path class="cls-21" d="M320.56,916.43s8.52,12.12,21.09,1.49"/><path class="cls-21" d="M342,916.43s8.51,12.12,21.09,1.49"/><path class="cls-21" d="M362.32,916.43s8.51,12.12,21.08,1.49"/><path class="cls-21" d="M46,928s8.51,12.12,21.08,1.49"/><path class="cls-21" d="M73.4,928s8.52,12.12,21.09,1.49"/><path class="cls-21" d="M94.86,928s8.51,12.12,21.08,1.49"/><path class="cls-21" d="M116.31,928s8.52,12.12,21.09,1.49"/><path class="cls-21" d="M137.77,928s8.51,12.12,21.09,1.49"/><path class="cls-21" d="M159.23,928s8.51,12.12,21.08,1.49"/><path class="cls-21" d="M180.68,928s8.52,12.12,21.09,1.49"/><path class="cls-21" d="M202.14,928s8.51,12.12,21.08,1.49"/><path class="cls-21" d="M223.59,928s8.52,12.12,21.09,1.49"/><path class="cls-21" d="M245.05,928s8.51,12.12,21.08,1.49"/><path class="cls-21" d="M266.5,928s8.52,12.12,21.09,1.49"/><path class="cls-21" d="M288,928s8.52,12.12,21.09,1.49"/><path class="cls-21" d="M309.42,928s8.51,12.12,21.08,1.49"/><path class="cls-21" d="M330.87,928s8.52,12.12,21.09,1.49"/><path class="cls-21" d="M352.33,928s8.51,12.12,21.08,1.49"/><path class="cls-21" d="M41.11,937.37s8.52,12.12,21.09,1.49"/><path class="cls-21" d="M63.74,938s8.51,12.11,21.08,1.48"/><path class="cls-21" d="M85.19,938s8.52,12.11,21.09,1.48"/><path class="cls-21" d="M106.65,938s8.51,12.11,21.08,1.48"/><path class="cls-21" d="M128.1,938s8.52,12.11,21.09,1.48"/><path class="cls-21" d="M149.56,938s8.51,12.11,21.09,1.48"/><path class="cls-21" d="M171,938s8.51,12.11,21.08,1.48"/><path class="cls-21" d="M192.47,938s8.52,12.11,21.09,1.48"/><path class="cls-21" d="M213.93,938s8.51,12.11,21.08,1.48"/><path class="cls-21" d="M235.38,938s8.52,12.11,21.09,1.48"/><path class="cls-21" d="M256.84,938s8.51,12.11,21.09,1.48"/><path class="cls-21" d="M278.3,938s8.51,12.11,21.08,1.48"/><path class="cls-21" d="M299.75,938s8.52,12.11,21.09,1.48"/><path class="cls-21" d="M321.21,938s8.51,12.11,21.08,1.48"/><path class="cls-21" d="M342.66,938s8.52,12.11,21.09,1.48"/><path class="cls-21" d="M363,938s8.51,12.11,21.09,1.48"/><path class="cls-21" d="M47,948s8.52,12.12,21.09,1.49"/><path class="cls-21" d="M71.47,948s8.51,12.12,21.08,1.49"/><path class="cls-21" d="M92.92,948s8.52,12.12,21.09,1.49"/><path class="cls-21" d="M114.38,948s8.51,12.12,21.09,1.49"/><path class="cls-21" d="M135.84,948s8.51,12.12,21.08,1.49"/><path class="cls-21" d="M157.29,948s8.52,12.12,21.09,1.49"/><path class="cls-21" d="M178.75,948s8.51,12.12,21.08,1.49"/><path class="cls-21" d="M200.2,948s8.52,12.12,21.09,1.49"/><path class="cls-21" d="M221.66,948s8.51,12.12,21.09,1.49"/><path class="cls-21" d="M243.12,948s8.51,12.12,21.08,1.49"/><path class="cls-21" d="M264.57,948s8.52,12.12,21.09,1.49"/><path class="cls-21" d="M286,948s8.51,12.12,21.08,1.49"/><path class="cls-21" d="M307.48,948s8.52,12.12,21.09,1.49"/><path class="cls-21" d="M328.94,948s8.51,12.12,21.09,1.49"/><path class="cls-21" d="M350.4,948s8.51,12.12,21.08,1.49"/><path class="cls-21" d="M367.47,948s8.51,12.12,21.09,1.49"/><path class="cls-21" d="M38.57,958.63s8.51,12.12,21.09,1.49"/><path class="cls-21" d="M30.36,1016s8.52,12.11,21.09,1.48"/><path class="cls-21" d="M34.23,991.81s8.51,12.12,21.08,1.49"/><path class="cls-21" d="M60.19,958.31s8.52,12.12,21.09,1.49"/><path class="cls-21" d="M81.65,958.31s8.51,12.12,21.09,1.49"/><path class="cls-21" d="M103.11,958.31s8.51,12.12,21.08,1.49"/><path class="cls-21" d="M124.56,958.31s8.52,12.12,21.09,1.49"/><path class="cls-21" d="M146,958.31s8.51,12.12,21.08,1.49"/><path class="cls-21" d="M167.47,958.31s8.52,12.12,21.09,1.49"/><path class="cls-21" d="M188.93,958.31s8.51,12.12,21.09,1.49"/><path class="cls-21" d="M210.38,958.31s8.52,12.12,21.09,1.49"/><path class="cls-21" d="M231.84,958.31s8.52,12.12,21.09,1.49"/><path class="cls-21" d="M253.3,958.31s8.51,12.12,21.08,1.49"/><path class="cls-21" d="M274.75,958.31s8.52,12.12,21.09,1.49"/><path class="cls-21" d="M296.21,958.31s8.51,12.12,21.08,1.49"/><path class="cls-21" d="M317.66,958.31s8.52,12.12,21.09,1.49"/><path class="cls-21" d="M339.12,958.31s8.51,12.12,21.09,1.49"/><path class="cls-21" d="M359.42,958.31s8.51,12.12,21.08,1.49"/><path class="cls-21" d="M46.72,969.91S55.24,982,67.81,971.4"/><path class="cls-21" d="M70.18,969.91S78.69,982,91.27,971.4"/><path class="cls-21" d="M91.64,969.91s8.51,12.12,21.08,1.49"/><path class="cls-21" d="M113.09,969.91s8.52,12.12,21.09,1.49"/><path class="cls-21" d="M134.55,969.91s8.51,12.12,21.08,1.49"/><path class="cls-21" d="M156,969.91s8.52,12.12,21.09,1.49"/><path class="cls-21" d="M177.46,969.91S186,982,198.55,971.4"/><path class="cls-21" d="M198.92,969.91S207.43,982,220,971.4"/><path class="cls-21" d="M220.37,969.91s8.52,12.12,21.09,1.49"/><path class="cls-21" d="M241.83,969.91s8.51,12.12,21.08,1.49"/><path class="cls-21" d="M263.28,969.91s8.52,12.12,21.09,1.49"/><path class="cls-21" d="M284.74,969.91s8.51,12.12,21.09,1.49"/><path class="cls-21" d="M306.2,969.91s8.51,12.12,21.08,1.49"/><path class="cls-21" d="M327.65,969.91s8.52,12.12,21.09,1.49"/><path class="cls-21" d="M349.11,969.91s8.51,12.12,21.08,1.49"/><path class="cls-21" d="M369.4,969.91s8.52,12.12,21.09,1.49"/><path class="cls-21" d="M38.42,981.18s8.51,12.12,21.08,1.49"/><path class="cls-21" d="M59.87,981.18S68.39,993.3,81,982.67"/><path class="cls-21" d="M81.33,981.18s8.51,12.12,21.08,1.49"/><path class="cls-21" d="M102.78,981.18s8.52,12.12,21.09,1.49"/><path class="cls-21" d="M124.24,981.18s8.51,12.12,21.09,1.49"/><path class="cls-21" d="M145.69,981.18s8.52,12.12,21.09,1.49"/><path class="cls-21" d="M167.15,981.18s8.52,12.12,21.09,1.49"/><path class="cls-21" d="M188.61,981.18s8.51,12.12,21.08,1.49"/><path class="cls-21" d="M210.06,981.18s8.52,12.12,21.09,1.49"/><path class="cls-21" d="M231.52,981.18s8.51,12.12,21.08,1.49"/><path class="cls-21" d="M253,981.18s8.52,12.12,21.09,1.49"/><path class="cls-21" d="M274.43,981.18s8.51,12.12,21.09,1.49"/><path class="cls-21" d="M295.89,981.18s8.51,12.12,21.08,1.49"/><path class="cls-21" d="M317.34,981.18s8.52,12.12,21.09,1.49"/><path class="cls-21" d="M338.8,981.18s8.51,12.12,21.08,1.49"/><path class="cls-21" d="M359.09,981.18s8.52,12.12,21.09,1.49"/><path class="cls-21" d="M52.19,993.1s8.51,12.12,21.08,1.49"/><path class="cls-21" d="M72.43,994.07s8.52,12.12,21.09,1.49"/><path class="cls-21" d="M93.89,994.07s8.51,12.12,21.09,1.49"/><path class="cls-21" d="M115.35,994.07s8.51,12.12,21.08,1.49"/><path class="cls-21" d="M136.8,994.07s8.52,12.12,21.09,1.49"/><path class="cls-21" d="M158.26,994.07s8.51,12.12,21.08,1.49"/><path class="cls-21" d="M179.71,994.07s8.52,12.12,21.09,1.49"/><path class="cls-21" d="M201.17,994.07s8.51,12.12,21.09,1.49"/><path class="cls-21" d="M222.63,994.07s8.51,12.12,21.08,1.49"/><path class="cls-21" d="M244.08,994.07s8.52,12.12,21.09,1.49"/><path class="cls-21" d="M265.54,994.07s8.51,12.12,21.08,1.49"/><path class="cls-21" d="M287,994.07s8.52,12.12,21.09,1.49"/><path class="cls-21" d="M308.45,994.07s8.51,12.12,21.09,1.49"/><path class="cls-21" d="M329.91,994.07s8.51,12.12,21.08,1.49"/><path class="cls-21" d="M351.36,994.07s8.52,12.12,21.09,1.49"/><path class="cls-21" d="M371.66,994.07s8.51,12.12,21.08,1.49"/><path class="cls-21" d="M37.45,1004.7s8.51,12.12,21.08,1.49"/><path class="cls-21" d="M58.9,1004.7s8.52,12.12,21.09,1.49"/><path class="cls-21" d="M80.36,1004.7s8.51,12.12,21.09,1.49"/><path class="cls-21" d="M101.82,1004.7s8.51,12.12,21.08,1.49"/><path class="cls-21" d="M123.27,1004.7s8.52,12.12,21.09,1.49"/><path class="cls-21" d="M144.73,1004.7s8.51,12.12,21.08,1.49"/><path class="cls-21" d="M166.18,1004.7s8.52,12.12,21.09,1.49"/><path class="cls-21" d="M187.64,1004.7s8.51,12.12,21.09,1.49"/><path class="cls-21" d="M209.1,1004.7s8.51,12.12,21.08,1.49"/><path class="cls-21" d="M230.55,1004.7s8.52,12.12,21.09,1.49"/><path class="cls-21" d="M252,1004.7s8.51,12.12,21.08,1.49"/><path class="cls-21" d="M273.46,1004.7s8.52,12.12,21.09,1.49"/><path class="cls-21" d="M294.92,1004.7s8.51,12.12,21.09,1.49"/><path class="cls-21" d="M316.38,1004.7s8.51,12.12,21.08,1.49"/><path class="cls-21" d="M337.83,1004.7s8.52,12.12,21.09,1.49"/><path class="cls-21" d="M358.13,1004.7s8.51,12.12,21.08,1.49"/><path class="cls-21" d="M47.76,1016.62s8.51,12.12,21.08,1.49"/><path class="cls-21" d="M69.21,1016.62s8.52,12.12,21.09,1.49"/><path class="cls-21" d="M90.67,1016.62s8.51,12.12,21.09,1.49"/><path class="cls-21" d="M112.13,1016.62s8.51,12.12,21.08,1.49"/><path class="cls-21" d="M133.58,1016.62s8.52,12.12,21.09,1.49"/><path class="cls-21" d="M155,1016.62s8.51,12.12,21.08,1.49"/><path class="cls-21" d="M176.49,1016.62s8.52,12.12,21.09,1.49"/><path class="cls-21" d="M198,1016.62s8.51,12.12,21.09,1.49"/><path class="cls-21" d="M219.41,1016.62s8.51,12.12,21.08,1.49"/><path class="cls-21" d="M240.86,1016.62s8.52,12.12,21.09,1.49"/><path class="cls-21" d="M262.32,1016.62s8.51,12.12,21.08,1.49"/><path class="cls-21" d="M283.77,1016.62s8.52,12.12,21.09,1.49"/><path class="cls-21" d="M305.23,1016.62s8.51,12.12,21.08,1.49"/><path class="cls-21" d="M326.68,1016.62s8.52,12.12,21.09,1.49"/><path class="cls-21" d="M348.14,1016.62s8.51,12.12,21.09,1.49"/><path class="cls-21" d="M368.44,1016.62s8.51,12.12,21.08,1.49"/><path class="cls-21" d="M36.48,1027.9S45,1040,57.57,1029.38"/><path class="cls-21" d="M57.94,1027.9S66.45,1040,79,1029.38"/><path class="cls-21" d="M79.39,1027.9s8.52,12.11,21.09,1.48"/><path class="cls-21" d="M100.85,1027.9s8.51,12.11,21.09,1.48"/><path class="cls-21" d="M122.31,1027.9s8.51,12.11,21.08,1.48"/><path class="cls-21" d="M143.76,1027.9s8.52,12.11,21.09,1.48"/><path class="cls-21" d="M165.22,1027.9s8.51,12.11,21.08,1.48"/><path class="cls-21" d="M186.67,1027.9s8.52,12.11,21.09,1.48"/><path class="cls-21" d="M208.13,1027.9s8.51,12.11,21.09,1.48"/><path class="cls-21" d="M229.59,1027.9s8.51,12.11,21.08,1.48"/><path class="cls-21" d="M251,1027.9s8.52,12.11,21.09,1.48"/><path class="cls-21" d="M272.5,1027.9s8.51,12.11,21.08,1.48"/><path class="cls-21" d="M294,1027.9s8.52,12.11,21.09,1.48"/><path class="cls-21" d="M315.41,1027.9s8.51,12.11,21.09,1.48"/><path class="cls-21" d="M336.87,1027.9s8.51,12.11,21.08,1.48"/><path class="cls-21" d="M357.16,1027.9s8.52,12.11,21.09,1.48"/><path class="cls-21" d="M45.18,1037.88s8.51,12.12,21.09,1.49"/><path class="cls-21" d="M25.61,1038.61s8.51,12.11,21.09,1.48"/><path class="cls-21" d="M66.64,1037.88s8.51,12.12,21.08,1.49"/><path class="cls-21" d="M88.09,1037.88s8.52,12.12,21.09,1.49"/><path class="cls-21" d="M109.55,1037.88s8.51,12.12,21.08,1.49"/><path class="cls-21" d="M131,1037.88s8.52,12.12,21.09,1.49"/><path class="cls-21" d="M152.46,1037.88s8.51,12.12,21.09,1.49"/><path class="cls-21" d="M173.92,1037.88s8.51,12.12,21.08,1.49"/><path class="cls-21" d="M195.37,1037.88s8.52,12.12,21.09,1.49"/><path class="cls-21" d="M216.83,1037.88s8.51,12.12,21.08,1.49"/><path class="cls-21" d="M238.28,1037.88s8.52,12.12,21.09,1.49"/><path class="cls-21" d="M259.74,1037.88s8.51,12.12,21.09,1.49"/><path class="cls-21" d="M281.2,1037.88s8.51,12.12,21.08,1.49"/><path class="cls-21" d="M302.65,1037.88s8.52,12.12,21.09,1.49"/><path class="cls-21" d="M324.11,1037.88s8.51,12.12,21.08,1.49"/><path class="cls-21" d="M345.56,1037.88s8.52,12.12,21.09,1.49"/><path class="cls-21" d="M365.86,1037.88s8.51,12.12,21.08,1.49"/><path class="cls-21" d="M33.26,1048.19s8.51,12.12,21.09,1.49"/><path class="cls-21" d="M54.72,1048.19s8.51,12.12,21.08,1.49"/><path class="cls-21" d="M76.17,1048.19s8.52,12.12,21.09,1.49"/><path class="cls-21" d="M97.63,1048.19s8.51,12.12,21.08,1.49"/><path class="cls-21" d="M119.08,1048.19s8.52,12.12,21.09,1.49"/><path class="cls-21" d="M140.54,1048.19s8.51,12.12,21.09,1.49"/><path class="cls-21" d="M162,1048.19s8.51,12.12,21.08,1.49"/><path class="cls-21" d="M183.45,1048.19s8.52,12.12,21.09,1.49"/><path class="cls-21" d="M204.91,1048.19s8.51,12.12,21.08,1.49"/><path class="cls-21" d="M226.36,1048.19s8.52,12.12,21.09,1.49"/><path class="cls-21" d="M247.82,1048.19s8.51,12.12,21.09,1.49"/><path class="cls-21" d="M269.28,1048.19s8.51,12.12,21.08,1.49"/><path class="cls-21" d="M290.73,1048.19s8.52,12.12,21.09,1.49"/><path class="cls-21" d="M312.19,1048.19s8.51,12.12,21.08,1.49"/><path class="cls-21" d="M333.64,1048.19s8.52,12.12,21.09,1.49"/><path class="cls-21" d="M353.94,1048.19s8.51,12.12,21.09,1.49"/></g><path class="cls-19" d="M54.81,881.57s8.52,12.12,21.09,1.49"/><path class="cls-19" d="M76.27,881.57s8.51,12.12,21.08,1.49"/><path class="cls-19" d="M97.72,881.57s8.52,12.12,21.09,1.49"/><path class="cls-19" d="M119.18,881.57s8.51,12.12,21.08,1.49"/><path class="cls-19" d="M140.63,881.57s8.52,12.12,21.09,1.49"/><path class="cls-19" d="M162.09,881.57s8.52,12.12,21.09,1.49"/><path class="cls-19" d="M183.55,881.57s8.51,12.12,21.08,1.49"/><path class="cls-19" d="M205,881.57s8.52,12.12,21.09,1.49"/><path class="cls-19" d="M226.46,881.57s8.51,12.12,21.08,1.49"/><path class="cls-19" d="M247.91,881.57s8.52,12.12,21.09,1.49"/><path class="cls-19" d="M269.37,881.57s8.51,12.12,21.09,1.49"/><path class="cls-19" d="M290.83,881.57s8.51,12.12,21.08,1.49"/><path class="cls-19" d="M312.28,881.57s8.52,12.12,21.09,1.49"/><path class="cls-19" d="M333.74,881.57s8.51,12.12,21.08,1.49"/><path class="cls-19" d="M355.19,881.57s8.52,12.12,21.09,1.49"/><path class="cls-19" d="M376.46,1047.16s8.51,12.12,21.08,1.48"/><path class="cls-19" d="M383.87,1036.2s8.51,12.12,21.08,1.49"/><path class="cls-19" d="M380,1025.25s8.51,12.12,21.09,1.49"/><path class="cls-19" d="M378.07,1003s8.51,12.12,21.08,1.49"/><path class="cls-19" d="M52.88,892.85S61.39,905,74,894.34"/><path class="cls-19" d="M66.6,892.53s8.52,12.11,21.09,1.48"/><path class="cls-19" d="M88.06,892.53s8.51,12.11,21.08,1.48"/><path class="cls-19" d="M109.51,892.53S118,904.64,130.6,894"/><path class="cls-19" d="M131,892.53s8.51,12.11,21.09,1.48"/><path class="cls-19" d="M152.43,892.53s8.51,12.11,21.08,1.48"/><path class="cls-19" d="M173.88,892.53S182.4,904.64,195,894"/><path class="cls-19" d="M195.34,892.53s8.51,12.11,21.08,1.48"/><path class="cls-19" d="M216.79,892.53s8.52,12.11,21.09,1.48"/><path class="cls-19" d="M238.25,892.53s8.51,12.11,21.09,1.48"/><path class="cls-19" d="M259.71,892.53s8.51,12.11,21.08,1.48"/><path class="cls-19" d="M281.16,892.53s8.52,12.11,21.09,1.48"/><path class="cls-19" d="M302.62,892.53s8.51,12.11,21.08,1.48"/><path class="cls-19" d="M324.07,892.53s8.52,12.11,21.09,1.48"/><path class="cls-19" d="M345.53,892.53S354,904.64,366.62,894"/><path class="cls-19" d="M52.88,903.8s8.51,12.12,21.08,1.49"/><path class="cls-19" d="M74.33,903.8s8.52,12.12,21.09,1.49"/><path class="cls-19" d="M95.79,903.8s8.51,12.12,21.09,1.49"/><path class="cls-19" d="M117.25,903.8s8.51,12.12,21.08,1.49"/><path class="cls-19" d="M138.7,903.8s8.52,12.12,21.09,1.49"/><path class="cls-19" d="M160.16,903.8s8.51,12.12,21.08,1.49"/><path class="cls-19" d="M181.61,903.8s8.52,12.12,21.09,1.49"/><path class="cls-19" d="M203.07,903.8s8.51,12.12,21.09,1.49"/><path class="cls-19" d="M224.53,903.8s8.51,12.12,21.08,1.49"/><path class="cls-19" d="M246,903.8s8.52,12.12,21.09,1.49"/><path class="cls-19" d="M267.44,903.8s8.51,12.12,21.08,1.49"/><path class="cls-19" d="M288.89,903.8s8.52,12.12,21.09,1.49"/><path class="cls-19" d="M310.35,903.8s8.51,12.12,21.09,1.49"/><path class="cls-19" d="M331.81,903.8s8.51,12.12,21.08,1.49"/><path class="cls-19" d="M353.26,903.8s8.52,12.12,21.09,1.49"/><path class="cls-19" d="M46.51,913.47S55,925.58,67.6,915"/><path class="cls-19" d="M62.09,914.43s8.52,12.12,21.09,1.49"/><path class="cls-19" d="M83.55,914.43s8.51,12.12,21.08,1.49"/><path class="cls-19" d="M105,914.43s8.52,12.12,21.09,1.49"/><path class="cls-19" d="M373.88,980.63s8.51,12.12,21.09,1.49"/><path class="cls-19" d="M126.46,914.43s8.51,12.12,21.09,1.49"/><path class="cls-19" d="M147.92,914.43s8.51,12.12,21.08,1.49"/><path class="cls-19" d="M169.37,914.43s8.52,12.12,21.09,1.49"/><path class="cls-19" d="M190.83,914.43s8.51,12.12,21.08,1.49"/><path class="cls-19" d="M212.28,914.43s8.52,12.12,21.09,1.49"/><path class="cls-19" d="M233.74,914.43s8.51,12.12,21.09,1.49"/><path class="cls-19" d="M255.2,914.43s8.51,12.12,21.08,1.49"/><path class="cls-19" d="M276.65,914.43s8.52,12.12,21.09,1.49"/><path class="cls-19" d="M298.11,914.43s8.51,12.12,21.08,1.49"/><path class="cls-19" d="M319.56,914.43s8.52,12.12,21.09,1.49"/><path class="cls-19" d="M341,914.43s8.51,12.12,21.09,1.49"/><path class="cls-19" d="M361.32,914.43s8.51,12.12,21.08,1.49"/><path class="cls-19" d="M47,926s8.51,12.12,21.08,1.49"/><path class="cls-19" d="M72.4,926s8.52,12.12,21.09,1.49"/><path class="cls-19" d="M93.86,926s8.51,12.12,21.08,1.49"/><path class="cls-19" d="M115.31,926s8.52,12.12,21.09,1.49"/><path class="cls-19" d="M136.77,926s8.51,12.12,21.09,1.49"/><path class="cls-19" d="M158.23,926s8.51,12.12,21.08,1.49"/><path class="cls-19" d="M179.68,926s8.52,12.12,21.09,1.49"/><path class="cls-19" d="M201.14,926s8.51,12.12,21.08,1.49"/><path class="cls-19" d="M222.59,926s8.52,12.12,21.09,1.49"/><path class="cls-19" d="M244.05,926s8.51,12.12,21.08,1.49"/><path class="cls-19" d="M265.5,926s8.52,12.12,21.09,1.49"/><path class="cls-19" d="M287,926s8.52,12.12,21.09,1.49"/><path class="cls-19" d="M308.42,926s8.51,12.12,21.08,1.49"/><path class="cls-19" d="M329.87,926s8.52,12.12,21.09,1.49"/><path class="cls-19" d="M351.33,926s8.51,12.12,21.08,1.49"/><path class="cls-19" d="M42.11,935.37s8.52,12.12,21.09,1.49"/><path class="cls-19" d="M62.74,936s8.51,12.11,21.08,1.48"/><path class="cls-19" d="M84.19,936s8.52,12.11,21.09,1.48"/><path class="cls-19" d="M105.65,936s8.51,12.11,21.08,1.48"/><path class="cls-19" d="M127.1,936s8.52,12.11,21.09,1.48"/><path class="cls-19" d="M148.56,936s8.51,12.11,21.09,1.48"/><path class="cls-19" d="M170,936s8.51,12.11,21.08,1.48"/><path class="cls-19" d="M191.47,936s8.52,12.11,21.09,1.48"/><path class="cls-19" d="M212.93,936s8.51,12.11,21.08,1.48"/><path class="cls-19" d="M234.38,936s8.52,12.11,21.09,1.48"/><path class="cls-19" d="M255.84,936s8.51,12.11,21.09,1.48"/><path class="cls-19" d="M277.3,936s8.51,12.11,21.08,1.48"/><path class="cls-19" d="M298.75,936s8.52,12.11,21.09,1.48"/><path class="cls-19" d="M320.21,936s8.51,12.11,21.08,1.48"/><path class="cls-19" d="M341.66,936s8.52,12.11,21.09,1.48"/><path class="cls-19" d="M362,936s8.51,12.11,21.09,1.48"/><path class="cls-19" d="M47,946s8.52,12.12,21.09,1.49"/><path class="cls-19" d="M70.47,946s8.51,12.12,21.08,1.49"/><path class="cls-19" d="M91.92,946s8.52,12.12,21.09,1.49"/><path class="cls-19" d="M113.38,946s8.51,12.12,21.09,1.49"/><path class="cls-19" d="M134.84,946s8.51,12.12,21.08,1.49"/><path class="cls-19" d="M156.29,946s8.52,12.12,21.09,1.49"/><path class="cls-19" d="M177.75,946s8.51,12.12,21.08,1.49"/><path class="cls-19" d="M199.2,946s8.52,12.12,21.09,1.49"/><path class="cls-19" d="M220.66,946s8.51,12.12,21.09,1.49"/><path class="cls-19" d="M242.12,946s8.51,12.12,21.08,1.49"/><path class="cls-19" d="M263.57,946s8.52,12.12,21.09,1.49"/><path class="cls-19" d="M285,946s8.51,12.12,21.08,1.49"/><path class="cls-19" d="M306.48,946s8.52,12.12,21.09,1.49"/><path class="cls-19" d="M327.94,946s8.51,12.12,21.09,1.49"/><path class="cls-19" d="M349.4,946s8.51,12.12,21.08,1.49"/><path class="cls-19" d="M366.47,946s8.51,12.12,21.09,1.49"/><path class="cls-19" d="M38.57,956.63s8.51,12.12,21.09,1.49"/><path class="cls-19" d="M29.36,1014s8.52,12.11,21.09,1.48"/><path class="cls-19" d="M33.23,989.81s8.51,12.12,21.08,1.49"/><path class="cls-19" d="M59.19,956.31s8.52,12.12,21.09,1.49"/><path class="cls-19" d="M80.65,956.31s8.51,12.12,21.09,1.49"/><path class="cls-19" d="M102.11,956.31s8.51,12.12,21.08,1.49"/><path class="cls-19" d="M123.56,956.31s8.52,12.12,21.09,1.49"/><path class="cls-19" d="M145,956.31s8.51,12.12,21.08,1.49"/><path class="cls-19" d="M166.47,956.31s8.52,12.12,21.09,1.49"/><path class="cls-19" d="M187.93,956.31s8.51,12.12,21.09,1.49"/><path class="cls-19" d="M209.38,956.31s8.52,12.12,21.09,1.49"/><path class="cls-19" d="M230.84,956.31s8.52,12.12,21.09,1.49"/><path class="cls-19" d="M252.3,956.31s8.51,12.12,21.08,1.49"/><path class="cls-19" d="M273.75,956.31s8.52,12.12,21.09,1.49"/><path class="cls-19" d="M295.21,956.31s8.51,12.12,21.08,1.49"/><path class="cls-19" d="M316.66,956.31s8.52,12.12,21.09,1.49"/><path class="cls-19" d="M338.12,956.31s8.51,12.12,21.09,1.49"/><path class="cls-19" d="M358.42,956.31s8.51,12.12,21.08,1.49"/><path class="cls-19" d="M47.72,967.91S56.24,980,68.81,969.4"/><path class="cls-19" d="M69.18,967.91S77.69,980,90.27,969.4"/><path class="cls-19" d="M90.64,967.91s8.51,12.12,21.08,1.49"/><path class="cls-19" d="M112.09,967.91s8.52,12.12,21.09,1.49"/><path class="cls-19" d="M133.55,967.91s8.51,12.12,21.08,1.49"/><path class="cls-19" d="M155,967.91s8.52,12.12,21.09,1.49"/><path class="cls-19" d="M176.46,967.91S185,980,197.55,969.4"/><path class="cls-19" d="M197.92,967.91S206.43,980,219,969.4"/><path class="cls-19" d="M219.37,967.91s8.52,12.12,21.09,1.49"/><path class="cls-19" d="M240.83,967.91s8.51,12.12,21.08,1.49"/><path class="cls-19" d="M262.28,967.91s8.52,12.12,21.09,1.49"/><path class="cls-19" d="M283.74,967.91s8.51,12.12,21.09,1.49"/><path class="cls-19" d="M305.2,967.91s8.51,12.12,21.08,1.49"/><path class="cls-19" d="M326.65,967.91s8.52,12.12,21.09,1.49"/><path class="cls-19" d="M348.11,967.91s8.51,12.12,21.08,1.49"/><path class="cls-19" d="M368.4,967.91s8.52,12.12,21.09,1.49"/><path class="cls-19" d="M37.42,979.18s8.51,12.12,21.08,1.49"/><path class="cls-19" d="M58.87,979.18S67.39,991.3,80,980.67"/><path class="cls-19" d="M80.33,979.18s8.51,12.12,21.08,1.49"/><path class="cls-19" d="M101.78,979.18s8.52,12.12,21.09,1.49"/><path class="cls-19" d="M123.24,979.18s8.51,12.12,21.09,1.49"/><path class="cls-19" d="M144.69,979.18s8.52,12.12,21.09,1.49"/><path class="cls-19" d="M166.15,979.18s8.52,12.12,21.09,1.49"/><path class="cls-19" d="M187.61,979.18s8.51,12.12,21.08,1.49"/><path class="cls-19" d="M209.06,979.18s8.52,12.12,21.09,1.49"/><path class="cls-19" d="M230.52,979.18s8.51,12.12,21.08,1.49"/><path class="cls-19" d="M252,979.18s8.52,12.12,21.09,1.49"/><path class="cls-19" d="M273.43,979.18s8.51,12.12,21.09,1.49"/><path class="cls-19" d="M294.89,979.18s8.51,12.12,21.08,1.49"/><path class="cls-19" d="M316.34,979.18s8.52,12.12,21.09,1.49"/><path class="cls-19" d="M337.8,979.18s8.51,12.12,21.08,1.49"/><path class="cls-19" d="M358.09,979.18s8.52,12.12,21.09,1.49"/><path class="cls-19" d="M51.19,991.1s8.51,12.12,21.08,1.49"/><path class="cls-19" d="M71.43,992.07s8.52,12.12,21.09,1.49"/><path class="cls-19" d="M92.89,992.07s8.51,12.12,21.09,1.49"/><path class="cls-19" d="M114.35,992.07s8.51,12.12,21.08,1.49"/><path class="cls-19" d="M135.8,992.07s8.52,12.12,21.09,1.49"/><path class="cls-19" d="M157.26,992.07s8.51,12.12,21.08,1.49"/><path class="cls-19" d="M178.71,992.07s8.52,12.12,21.09,1.49"/><path class="cls-19" d="M200.17,992.07s8.51,12.12,21.09,1.49"/><path class="cls-19" d="M221.63,992.07s8.51,12.12,21.08,1.49"/><path class="cls-19" d="M243.08,992.07s8.52,12.12,21.09,1.49"/><path class="cls-19" d="M264.54,992.07s8.51,12.12,21.08,1.49"/><path class="cls-19" d="M286,992.07s8.52,12.12,21.09,1.49"/><path class="cls-19" d="M307.45,992.07s8.51,12.12,21.09,1.49"/><path class="cls-19" d="M328.91,992.07s8.51,12.12,21.08,1.49"/><path class="cls-19" d="M350.36,992.07s8.52,12.12,21.09,1.49"/><path class="cls-19" d="M370.66,992.07s8.51,12.12,21.08,1.49"/><path class="cls-19" d="M36.45,1002.7s8.51,12.12,21.08,1.49"/><path class="cls-19" d="M57.9,1002.7s8.52,12.12,21.09,1.49"/><path class="cls-19" d="M79.36,1002.7s8.51,12.12,21.09,1.49"/><path class="cls-19" d="M100.82,1002.7s8.51,12.12,21.08,1.49"/><path class="cls-19" d="M122.27,1002.7s8.52,12.12,21.09,1.49"/><path class="cls-19" d="M143.73,1002.7s8.51,12.12,21.08,1.49"/><path class="cls-19" d="M165.18,1002.7s8.52,12.12,21.09,1.49"/><path class="cls-19" d="M186.64,1002.7s8.51,12.12,21.09,1.49"/><path class="cls-19" d="M208.1,1002.7s8.51,12.12,21.08,1.49"/><path class="cls-19" d="M229.55,1002.7s8.52,12.12,21.09,1.49"/><path class="cls-19" d="M251,1002.7s8.51,12.12,21.08,1.49"/><path class="cls-19" d="M272.46,1002.7s8.52,12.12,21.09,1.49"/><path class="cls-19" d="M293.92,1002.7s8.51,12.12,21.09,1.49"/><path class="cls-19" d="M315.38,1002.7s8.51,12.12,21.08,1.49"/><path class="cls-19" d="M336.83,1002.7s8.52,12.12,21.09,1.49"/><path class="cls-19" d="M357.13,1002.7s8.51,12.12,21.08,1.49"/><path class="cls-19" d="M46.76,1014.62s8.51,12.12,21.08,1.49"/><path class="cls-19" d="M68.21,1014.62s8.52,12.12,21.09,1.49"/><path class="cls-19" d="M89.67,1014.62s8.51,12.12,21.09,1.49"/><path class="cls-19" d="M111.13,1014.62s8.51,12.12,21.08,1.49"/><path class="cls-19" d="M132.58,1014.62s8.52,12.12,21.09,1.49"/><path class="cls-19" d="M154,1014.62s8.51,12.12,21.08,1.49"/><path class="cls-19" d="M175.49,1014.62s8.52,12.12,21.09,1.49"/><path class="cls-19" d="M197,1014.62s8.51,12.12,21.09,1.49"/><path class="cls-19" d="M218.41,1014.62s8.51,12.12,21.08,1.49"/><path class="cls-19" d="M239.86,1014.62s8.52,12.12,21.09,1.49"/><path class="cls-19" d="M261.32,1014.62s8.51,12.12,21.08,1.49"/><path class="cls-19" d="M282.77,1014.62s8.52,12.12,21.09,1.49"/><path class="cls-19" d="M304.23,1014.62s8.51,12.12,21.08,1.49"/><path class="cls-19" d="M325.68,1014.62s8.52,12.12,21.09,1.49"/><path class="cls-19" d="M347.14,1014.62s8.51,12.12,21.09,1.49"/><path class="cls-19" d="M367.44,1014.62s8.51,12.12,21.08,1.49"/><path class="cls-19" d="M35.48,1025.9S44,1038,56.57,1027.38"/><path class="cls-19" d="M56.94,1025.9S65.45,1038,78,1027.38"/><path class="cls-19" d="M78.39,1025.9s8.52,12.11,21.09,1.48"/><path class="cls-19" d="M99.85,1025.9s8.51,12.11,21.09,1.48"/><path class="cls-19" d="M121.31,1025.9s8.51,12.11,21.08,1.48"/><path class="cls-19" d="M142.76,1025.9s8.52,12.11,21.09,1.48"/><path class="cls-19" d="M164.22,1025.9s8.51,12.11,21.08,1.48"/><path class="cls-19" d="M185.67,1025.9s8.52,12.11,21.09,1.48"/><path class="cls-19" d="M207.13,1025.9s8.51,12.11,21.09,1.48"/><path class="cls-19" d="M228.59,1025.9s8.51,12.11,21.08,1.48"/><path class="cls-19" d="M250,1025.9s8.52,12.11,21.09,1.48"/><path class="cls-19" d="M271.5,1025.9s8.51,12.11,21.08,1.48"/><path class="cls-19" d="M293,1025.9s8.52,12.11,21.09,1.48"/><path class="cls-19" d="M314.41,1025.9s8.51,12.11,21.09,1.48"/><path class="cls-19" d="M335.87,1025.9s8.51,12.11,21.08,1.48"/><path class="cls-19" d="M356.16,1025.9s8.52,12.11,21.09,1.48"/><path class="cls-19" d="M44.18,1035.88s8.51,12.12,21.09,1.49"/><path class="cls-19" d="M24.61,1036.61s8.51,12.11,21.09,1.48"/><path class="cls-19" d="M65.64,1035.88s8.51,12.12,21.08,1.49"/><path class="cls-19" d="M87.09,1035.88s8.52,12.12,21.09,1.49"/><path class="cls-19" d="M108.55,1035.88s8.51,12.12,21.08,1.49"/><path class="cls-19" d="M130,1035.88s8.52,12.12,21.09,1.49"/><path class="cls-19" d="M151.46,1035.88s8.51,12.12,21.09,1.49"/><path class="cls-19" d="M172.92,1035.88s8.51,12.12,21.08,1.49"/><path class="cls-19" d="M194.37,1035.88s8.52,12.12,21.09,1.49"/><path class="cls-19" d="M215.83,1035.88s8.51,12.12,21.08,1.49"/><path class="cls-19" d="M237.28,1035.88s8.52,12.12,21.09,1.49"/><path class="cls-19" d="M258.74,1035.88s8.51,12.12,21.09,1.49"/><path class="cls-19" d="M280.2,1035.88s8.51,12.12,21.08,1.49"/><path class="cls-19" d="M301.65,1035.88s8.52,12.12,21.09,1.49"/><path class="cls-19" d="M323.11,1035.88s8.51,12.12,21.08,1.49"/><path class="cls-19" d="M344.56,1035.88s8.52,12.12,21.09,1.49"/><path class="cls-19" d="M364.86,1035.88s8.51,12.12,21.08,1.49"/><path class="cls-19" d="M32.26,1046.19s8.51,12.12,21.09,1.49"/><path class="cls-19" d="M53.72,1046.19s8.51,12.12,21.08,1.49"/><path class="cls-19" d="M75.17,1046.19s8.52,12.12,21.09,1.49"/><path class="cls-19" d="M96.63,1046.19s8.51,12.12,21.08,1.49"/><path class="cls-19" d="M118.08,1046.19s8.52,12.12,21.09,1.49"/><path class="cls-19" d="M139.54,1046.19s8.51,12.12,21.09,1.49"/><path class="cls-19" d="M161,1046.19s8.51,12.12,21.08,1.49"/><path class="cls-19" d="M182.45,1046.19s8.52,12.12,21.09,1.49"/><path class="cls-19" d="M203.91,1046.19s8.51,12.12,21.08,1.49"/><path class="cls-19" d="M225.36,1046.19s8.52,12.12,21.09,1.49"/><path class="cls-19" d="M246.82,1046.19s8.51,12.12,21.09,1.49"/><path class="cls-19" d="M268.28,1046.19s8.51,12.12,21.08,1.49"/><path class="cls-19" d="M289.73,1046.19s8.52,12.12,21.09,1.49"/><path class="cls-19" d="M311.19,1046.19s8.51,12.12,21.08,1.49"/><path class="cls-19" d="M332.64,1046.19s8.52,12.12,21.09,1.49"/><path class="cls-19" d="M352.94,1046.19s8.51,12.12,21.09,1.49"/><path class="cls-23" d="M353.56,1152.93a204.41,204.41,0,0,1-53.29,0c-3.11-16.13-3.23-33.82,0-53.27a356.32,356.32,0,0,1,53.29,0A150.37,150.37,0,0,1,353.56,1152.93Z"/><path class="cls-24" d="M348.55,1151.2a215.85,215.85,0,0,1-53.28,0c-3.11-15.22-3.23-31.93,0-50.29a377.41,377.41,0,0,1,53.28,0A134.15,134.15,0,0,1,348.55,1151.2Z"/><line class="cls-25" x1="322.22" y1="1100.96" x2="322.22" y2="1152.14"/><line class="cls-26" x1="295.31" y1="1126.05" x2="348.52" y2="1126.05"/><line class="cls-27" x1="321.28" y1="1099.78" x2="321.28" y2="1153.19"/><line class="cls-27" x1="291.94" y1="1124.99" x2="351.4" y2="1124.99"/><path class="cls-23" d="M139.73,1152.21a205.21,205.21,0,0,1-53.28,0c-3.11-16.13-3.23-33.83,0-53.28a357.52,357.52,0,0,1,53.28,0A150.43,150.43,0,0,1,139.73,1152.21Z"/><path class="cls-24" d="M134.73,1150.48a216.42,216.42,0,0,1-53.29,0c-3.11-15.23-3.23-31.94,0-50.3a377.55,377.55,0,0,1,53.29,0A134.2,134.2,0,0,1,134.73,1150.48Z"/><line class="cls-25" x1="108.4" y1="1100.23" x2="108.4" y2="1151.41"/><line class="cls-26" x1="81.49" y1="1125.32" x2="134.7" y2="1125.32"/><line class="cls-27" x1="107.45" y1="1099.05" x2="107.45" y2="1152.47"/><line class="cls-27" x1="78.11" y1="1124.26" x2="137.58" y2="1124.26"/><path class="cls-28" d="M166.94,1261.05a763.33,763.33,0,0,1-107.16,0c-6.26-17.38-6.5-36.46,0-57.43q52.32-2.11,107.16,0A88.61,88.61,0,0,1,166.94,1261.05Z"/><path class="cls-29" d="M161.87,1259.19a810,810,0,0,1-107.16,0c-6.26-16.42-6.5-34.43,0-54.23q52.32-2,107.16,0A79.21,79.21,0,0,1,161.87,1259.19Z"/><line class="cls-30" x1="108.92" y1="1205.81" x2="108.92" y2="1260.2"/><line class="cls-31" x1="51.69" y1="1232.07" x2="164.76" y2="1232.07"/><line class="cls-32" x1="107.02" y1="1203.75" x2="107.02" y2="1261.33"/><line class="cls-33" x1="49.88" y1="1230.93" x2="167.61" y2="1230.93"/><path class="cls-28" d="M382.21,1261.05a763.33,763.33,0,0,1-107.16,0c-6.26-17.38-6.49-36.46,0-57.43q52.32-2.11,107.16,0A88.55,88.55,0,0,1,382.21,1261.05Z"/><path class="cls-29" d="M377.14,1259.19a810,810,0,0,1-107.16,0c-6.26-16.42-6.49-34.43,0-54.23q52.32-2,107.16,0A79.21,79.21,0,0,1,377.14,1259.19Z"/><line class="cls-34" x1="324.19" y1="1205.57" x2="324.19" y2="1258.96"/><line class="cls-35" x1="266.72" y1="1232.07" x2="380.04" y2="1232.07"/><line class="cls-32" x1="322.3" y1="1203.75" x2="322.3" y2="1261.33"/><line class="cls-36" x1="264.3" y1="1230.93" x2="382.88" y2="1230.93"/><path class="cls-37" d="M202.06,1197.11h36.11A12.87,12.87,0,0,1,251,1210V1318.7a0,0,0,0,1,0,0H189.19a0,0,0,0,1,0,0V1210A12.87,12.87,0,0,1,202.06,1197.11Z"/><path class="cls-38" d="M198.84,1195.33H235a12.87,12.87,0,0,1,12.87,12.87v108.73a0,0,0,0,1,0,0H186a0,0,0,0,1,0,0V1208.2A12.87,12.87,0,0,1,198.84,1195.33Z"/><circle class="cls-39" cx="236.49" cy="1261.96" r="3.86"/><circle class="cls-40" cx="235.61" cy="1260.99" r="3.86"/><g class="cls-41"><rect class="cls-42" x="258.77" y="1257.57" width="129.99" height="57.5"/><line class="cls-42" x1="266.02" y1="1257.57" x2="266.02" y2="1314.59"/><line class="cls-42" x1="274.23" y1="1257.57" x2="274.23" y2="1314.59"/><line class="cls-42" x1="282.45" y1="1257.57" x2="282.45" y2="1314.59"/><line class="cls-42" x1="290.66" y1="1257.57" x2="290.66" y2="1314.59"/><line class="cls-42" x1="298.88" y1="1257.57" x2="298.88" y2="1314.59"/><line class="cls-42" x1="307.09" y1="1257.57" x2="307.09" y2="1314.59"/><line class="cls-42" x1="315.31" y1="1257.57" x2="315.31" y2="1314.59"/><line class="cls-42" x1="323.52" y1="1257.57" x2="323.52" y2="1314.59"/><line class="cls-42" x1="331.74" y1="1257.57" x2="331.74" y2="1314.59"/><line class="cls-42" x1="339.95" y1="1257.57" x2="339.95" y2="1314.59"/><line class="cls-42" x1="348.17" y1="1257.57" x2="348.17" y2="1314.59"/><line class="cls-42" x1="356.38" y1="1257.57" x2="356.38" y2="1314.59"/><line class="cls-42" x1="364.59" y1="1257.57" x2="364.59" y2="1314.59"/><line class="cls-42" x1="372.81" y1="1257.57" x2="372.81" y2="1314.59"/><line class="cls-42" x1="381.02" y1="1257.57" x2="381.02" y2="1314.59"/></g><rect class="cls-43" x="256.28" y="1256.53" width="129.99" height="57.5"/><line class="cls-43" x1="263.53" y1="1256.53" x2="263.53" y2="1313.55"/><line class="cls-43" x1="271.74" y1="1256.53" x2="271.74" y2="1313.55"/><line class="cls-43" x1="279.96" y1="1256.53" x2="279.96" y2="1313.55"/><line class="cls-43" x1="288.17" y1="1256.53" x2="288.17" y2="1313.55"/><line class="cls-43" x1="296.39" y1="1256.53" x2="296.39" y2="1313.55"/><line class="cls-43" x1="304.6" y1="1256.53" x2="304.6" y2="1313.55"/><line class="cls-43" x1="312.82" y1="1256.53" x2="312.82" y2="1313.55"/><line class="cls-43" x1="321.03" y1="1256.53" x2="321.03" y2="1313.55"/><line class="cls-43" x1="329.25" y1="1256.53" x2="329.25" y2="1313.55"/><line class="cls-43" x1="337.46" y1="1256.53" x2="337.46" y2="1313.55"/><line class="cls-43" x1="345.68" y1="1256.53" x2="345.68" y2="1313.55"/><line class="cls-43" x1="353.89" y1="1256.53" x2="353.89" y2="1313.55"/><line class="cls-43" x1="362.1" y1="1256.53" x2="362.1" y2="1313.55"/><line class="cls-43" x1="370.32" y1="1256.53" x2="370.32" y2="1313.55"/><line class="cls-43" x1="378.53" y1="1256.53" x2="378.53" y2="1313.55"/><g class="cls-41"><rect class="cls-42" x="47.76" y="1257.9" width="129.99" height="57.5"/><line class="cls-42" x1="55.01" y1="1257.9" x2="55.01" y2="1314.92"/><line class="cls-42" x1="63.23" y1="1257.9" x2="63.23" y2="1314.92"/><line class="cls-42" x1="71.44" y1="1257.9" x2="71.44" y2="1314.92"/><line class="cls-42" x1="79.66" y1="1257.9" x2="79.66" y2="1314.92"/><line class="cls-42" x1="87.87" y1="1257.9" x2="87.87" y2="1314.92"/><line class="cls-42" x1="96.09" y1="1257.9" x2="96.09" y2="1314.92"/><line class="cls-42" x1="104.3" y1="1257.9" x2="104.3" y2="1314.92"/><line class="cls-42" x1="112.51" y1="1257.9" x2="112.51" y2="1314.92"/><line class="cls-42" x1="120.73" y1="1257.9" x2="120.73" y2="1314.92"/><line class="cls-42" x1="128.94" y1="1257.9" x2="128.94" y2="1314.92"/><line class="cls-42" x1="137.16" y1="1257.9" x2="137.16" y2="1314.92"/><line class="cls-42" x1="145.37" y1="1257.9" x2="145.37" y2="1314.92"/><line class="cls-42" x1="153.59" y1="1257.9" x2="153.59" y2="1314.92"/><line class="cls-42" x1="161.8" y1="1257.9" x2="161.8" y2="1314.92"/><line class="cls-42" x1="170.02" y1="1257.9" x2="170.02" y2="1314.92"/></g><rect class="cls-43" x="45.27" y="1256.85" width="129.99" height="57.5"/><line class="cls-43" x1="52.52" y1="1256.85" x2="52.52" y2="1313.87"/><line class="cls-43" x1="60.74" y1="1256.85" x2="60.74" y2="1313.87"/><line class="cls-43" x1="68.95" y1="1256.85" x2="68.95" y2="1313.87"/><line class="cls-43" x1="77.17" y1="1256.85" x2="77.17" y2="1313.87"/><line class="cls-43" x1="85.38" y1="1256.85" x2="85.38" y2="1313.87"/><line class="cls-43" x1="93.6" y1="1256.85" x2="93.6" y2="1313.87"/><line class="cls-43" x1="101.81" y1="1256.85" x2="101.81" y2="1313.87"/><line class="cls-43" x1="110.02" y1="1256.85" x2="110.02" y2="1313.87"/><line class="cls-43" x1="118.24" y1="1256.85" x2="118.24" y2="1313.87"/><line class="cls-43" x1="126.45" y1="1256.85" x2="126.45" y2="1313.87"/><line class="cls-43" x1="134.67" y1="1256.85" x2="134.67" y2="1313.87"/><line class="cls-43" x1="142.88" y1="1256.85" x2="142.88" y2="1313.87"/><line class="cls-43" x1="151.1" y1="1256.85" x2="151.1" y2="1313.87"/><line class="cls-43" x1="159.31" y1="1256.85" x2="159.31" y2="1313.87"/><line class="cls-43" x1="167.53" y1="1256.85" x2="167.53" y2="1313.87"/><path class="cls-44" d="M390.61,1379.42a2546.73,2546.73,0,0,1-347.35,0,6.7,6.7,0,0,1-6.15-5.51,155.79,155.79,0,0,1,0-54.06,6.69,6.69,0,0,1,6.6-5.54h346.7a6.73,6.73,0,0,1,6.57,5.41c3.65,17.63,3.41,35.74-.18,54.27A6.71,6.71,0,0,1,390.61,1379.42Z"/><path class="cls-45" d="M187.07,1315.16H247.8a4.34,4.34,0,0,1,4.34,4.34v7.58a0,0,0,0,1,0,0H182.73a0,0,0,0,1,0,0v-7.58A4.34,4.34,0,0,1,187.07,1315.16Z"/><rect class="cls-46" x="254.05" y="1321.69" width="18.12" height="62.21" rx="3.87"/><rect class="cls-46" x="270.72" y="1321.44" width="18.12" height="62.21" rx="3.87"/><rect class="cls-46" x="288.36" y="1320.96" width="18.12" height="62.21" rx="3.87"/><rect class="cls-46" x="305.99" y="1320.96" width="18.12" height="62.21" rx="3.87"/><rect class="cls-46" x="324.11" y="1319.99" width="18.12" height="62.21" rx="3.87"/><rect class="cls-46" x="342.24" y="1319.27" width="18.12" height="62.21" rx="3.87"/><rect class="cls-46" x="359.15" y="1319.72" width="18.12" height="62.21" rx="3.87"/><rect class="cls-46" x="39.2" y="1320.59" width="18.12" height="62.21" rx="3.87"/><rect class="cls-46" x="55.88" y="1320.35" width="18.12" height="62.21" rx="3.87"/><rect class="cls-47" x="73.51" y="1319.87" width="18.12" height="63.52" rx="3.87"/><rect class="cls-48" x="91.15" y="1319.87" width="18.12" height="63.73" rx="3.87"/><rect class="cls-49" x="109.27" y="1318.9" width="18.12" height="64.62" rx="3.87"/><rect class="cls-50" x="127.39" y="1318.18" width="18.12" height="65.92" rx="3.87"/><rect class="cls-51" x="144.3" y="1318.63" width="18.12" height="66.11" rx="3.87"/><rect class="cls-52" x="162.49" y="1318.42" width="18.12" height="65.84" rx="3.87"/><rect class="cls-53" x="38.88" y="1313.18" width="18.39" height="10.35" rx="3.87"/><rect class="cls-53" x="56.54" y="1313.18" width="18.39" height="10.35" rx="3.87"/><rect class="cls-53" x="74.19" y="1313.18" width="18.39" height="10.35" rx="3.87"/><rect class="cls-53" x="91.84" y="1313.18" width="18.39" height="10.35" rx="3.87"/><rect class="cls-53" x="109.5" y="1313.18" width="18.39" height="10.35" rx="3.87"/><rect class="cls-53" x="127.15" y="1313.18" width="18.39" height="10.35" rx="3.87"/><rect class="cls-53" x="144.8" y="1313.18" width="18.39" height="10.35" rx="3.87"/><rect class="cls-53" x="162.46" y="1313.18" width="18.39" height="10.35" rx="3.87"/><rect class="cls-46" x="377.34" y="1319.51" width="18.12" height="62.21" rx="3.87"/><path class="cls-54" d="M185.91,1327.4h64.38a4.68,4.68,0,0,1,4.68,4.68v7.24a0,0,0,0,1,0,0H181.22a0,0,0,0,1,0,0v-7.24A4.68,4.68,0,0,1,185.91,1327.4Z"/><path class="cls-55" d="M183.33,1339.29h69.55a4.72,4.72,0,0,1,4.72,4.72v7.2a0,0,0,0,1,0,0h-79a0,0,0,0,1,0,0V1344A4.72,4.72,0,0,1,183.33,1339.29Z"/><path class="cls-56" d="M180.63,1351.21H254.9a5.16,5.16,0,0,1,5.16,5.16v6.76a0,0,0,0,1,0,0h-84.6a0,0,0,0,1,0,0v-6.76A5.16,5.16,0,0,1,180.63,1351.21Z"/><path class="cls-57" d="M262.29,1375.37a407.59,407.59,0,0,1-88.54,0v-8.46a3.46,3.46,0,0,1,3.47-3.46h81.6a3.46,3.46,0,0,1,3.47,3.46Z"/><path class="cls-58" d="M265.63,1387a463.08,463.08,0,0,1-94.47,0v-8.36a3.35,3.35,0,0,1,3.61-3.3,630.56,630.56,0,0,0,87.26,0,3.34,3.34,0,0,1,3.6,3.3Z"/><rect class="cls-59" x="206.2" y="1213.15" width="28.83" height="30.32" rx="14.42"/><rect class="cls-60" x="204.01" y="1212.88" width="27.29" height="27.29" rx="13.65"/><line class="cls-61" x1="217.64" y1="1213.25" x2="217.64" y2="1240.63"/><line class="cls-61" x1="204.2" y1="1226.8" x2="231.3" y2="1226.8"/><rect class="cls-53" x="253.73" y="1314.28" width="18.39" height="10.35" rx="3.87"/><rect class="cls-53" x="271.38" y="1314.28" width="18.39" height="10.35" rx="3.87"/><rect class="cls-53" x="289.03" y="1314.28" width="18.39" height="10.35" rx="3.87"/><rect class="cls-53" x="306.69" y="1314.28" width="18.39" height="10.35" rx="3.87"/><rect class="cls-53" x="324.34" y="1314.28" width="18.39" height="10.35" rx="3.87"/><rect class="cls-53" x="341.99" y="1314.28" width="18.39" height="10.35" rx="3.87"/><rect class="cls-53" x="359.65" y="1314.28" width="18.39" height="10.35" rx="3.87"/><rect class="cls-53" x="377.3" y="1314.28" width="18.39" height="10.35" rx="3.87"/><path class="cls-62" d="M283.29,1361.59c-2.58-14,3.55-21.44,13.11-26.22,6.31-13.45,16.4-15.13,28.84-9.44,14.5-3.1,26.83-1.39,34.08,11.54,13.3,3.09,18.46,11.65,17.83,24.12,4.72,10,1.57,20.45-11.53,24.12H309C285.91,1389.38,277.52,1367.88,283.29,1361.59Z"/><path class="cls-63" d="M278.57,1363.16c-2.58-14.05,3.55-21.44,13.11-26.22,6.31-13.45,16.4-15.13,28.84-9.44,14.5-3.1,26.83-1.39,34.08,11.54,13.3,3.09,18.46,11.66,17.83,24.12,4.72,10,1.58,20.45-11.53,24.12H304.27C281.2,1391,272.81,1369.45,278.57,1363.16Z"/><path class="cls-62" d="M60.53,1361.59c-2.59-14,3.54-21.44,13.11-26.22,6.31-13.45,16.39-15.13,28.84-9.44,14.5-3.1,26.82-1.39,34.08,11.54,13.3,3.09,18.45,11.65,17.83,24.12,4.72,10,1.57,20.45-11.54,24.12H86.22C63.15,1389.38,54.76,1367.88,60.53,1361.59Z"/><path class="cls-63" d="M55.81,1363.16c-2.59-14.05,3.54-21.44,13.11-26.22,6.31-13.45,16.39-15.13,28.84-9.44,14.5-3.1,26.82-1.39,34.08,11.54,13.3,3.09,18.45,11.66,17.83,24.12,4.72,10,1.57,20.45-11.54,24.12H81.5C58.43,1391,50,1369.45,55.81,1363.16Z"/><path class="cls-8" d="M265,1301.52a4.48,4.48,0,0,0-5.57,1.17C257.61,1306.86,262.91,1301,265,1301.52Z"/><path class="cls-8" d="M258.69,1295.2a2.58,2.58,0,0,0-1.57,2.86C258.36,1300.28,257.68,1295.93,258.69,1295.2Z"/><path class="cls-8" d="M254.57,1291s2.13-.24,2.7,1.56C257.05,1294.84,255.83,1291.17,254.57,1291Z"/><path class="cls-8" d="M252.88,1299.57s4.91-.69,6.36,3.53C259.05,1308,256.14,1298.82,252.88,1299.57Z"/><path class="cls-64" d="M259,1308.52a7.66,7.66,0,0,0,.13-4.89,18.21,18.21,0,0,0-2-4.54l-.66-1.07a4,4,0,0,1-.59-1.36,4.11,4.11,0,0,1,.55-2.84,10.37,10.37,0,0,1,1.67-2.07l.92-.9a2.32,2.32,0,0,0,.38-.46.24.24,0,0,0,0-.24.47.47,0,0,0-.25-.17.58.58,0,0,1,.33.1.4.4,0,0,1,.07.38,2.48,2.48,0,0,1-.27.62c-.23.38-.48.74-.72,1.09a12.58,12.58,0,0,0-1.26,2.12,3.33,3.33,0,0,0-.31,2.11,3.06,3.06,0,0,0,.46,1l.67,1.13a14.49,14.49,0,0,1,1.8,5A6.63,6.63,0,0,1,259,1308.52Z"/><path class="cls-65" d="M258.3,1314h4.82a1.45,1.45,0,0,0,1.46-1.44l2-8a1.46,1.46,0,0,0-1.46-1.44h-9.19a1.45,1.45,0,0,0-1.46,1.44l2.36,8A1.45,1.45,0,0,0,258.3,1314Z"/><rect class="cls-3" x="253.41" y="1302.96" width="14.17" height="1.44" rx="0.72" transform="translate(521 2607.37) rotate(-180)"/><polygon class="cls-66" points="259.42 1286.91 258.33 1288.91 256.06 1288.51 257.65 1290.15 256.56 1292.15 258.64 1291.16 260.23 1292.81 259.92 1290.55 262 1289.57 259.73 1289.16 259.42 1286.91"/><polygon class="cls-67" points="258.2 1292.91 259.3 1291.1 261.39 1291.57 259.98 1289.98 261.09 1288.16 259.11 1288.99 257.71 1287.39 257.89 1289.5 255.92 1290.33 258.01 1290.81 258.2 1292.91"/><ellipse class="cls-68" cx="258.84" cy="1290.09" rx="0.69" ry="0.68"/><g class="cls-69"><rect x="232.83" y="1062.45" width="32.62" height="13.05" rx="6.52"/><rect x="163.25" y="1089.02" width="32.62" height="13.05" rx="6.52"/><rect x="45.18" y="1120.43" width="32.62" height="13.05" rx="6.52"/><rect x="61.77" y="1170.2" width="32.62" height="13.05" rx="6.52"/><rect x="153.1" y="1164.24" width="32.62" height="13.05" rx="6.52"/><rect x="325.13" y="1185.67" width="32.62" height="13.05" rx="6.52"/><path d="M393.26,1167.79H373.69a6.55,6.55,0,0,1-6.52-6.53h0a6.55,6.55,0,0,1,6.52-6.52h19.57c3.59,0,.25,1.57.25,5.16l-.09,1C393.42,1164.53,393.51,1161.26,393.26,1167.79Z"/><rect x="256.03" y="1139.28" width="32.62" height="13.05" rx="6.52"/></g><path class="cls-70" d="M167.74,1301a4.47,4.47,0,0,1,5.51,1.14C175,1306.25,169.77,1300.54,167.74,1301Z"/><path class="cls-70" d="M174.06,1293.38a2.5,2.5,0,0,1,2.1-2.39C178.59,1291.45,174.4,1292.19,174.06,1293.38Z"/><path class="cls-70" d="M178.89,1288.85s-2.11-.24-2.67,1.52C176.44,1292.57,177.64,1289,178.89,1288.85Z"/><path class="cls-70" d="M179.5,1299.13s-4.87-.67-6.3,3.45C173.39,1307.31,176.27,1298.4,179.5,1299.13Z"/><path class="cls-71" d="M175,1307.87a7.5,7.5,0,0,1-2.27-5.61,5.85,5.85,0,0,1,1.1-3,8.85,8.85,0,0,1,2.3-2.19l1.27-.79a7,7,0,0,0,1.06-.87,1.91,1.91,0,0,0,.71-2.12,5,5,0,0,0-1.84-2,18.53,18.53,0,0,0-2.57-1.49,11.27,11.27,0,0,1,2.88,1,5.11,5.11,0,0,1,2.39,2.12,2.41,2.41,0,0,1,.16,1.81,3.88,3.88,0,0,1-.9,1.48,12.5,12.5,0,0,1-2.49,1.86,6.56,6.56,0,0,0-3.16,4.33A8.55,8.55,0,0,0,175,1307.87Z"/><path class="cls-65" d="M175.69,1313.19h-4.78a1.43,1.43,0,0,1-1.44-1.4l-2-7.83a1.43,1.43,0,0,1,1.44-1.41H178a1.43,1.43,0,0,1,1.45,1.41l-2.34,7.83A1.43,1.43,0,0,1,175.69,1313.19Z"/><rect class="cls-3" x="166.49" y="1302.45" width="14.03" height="1.41" rx="0.58"/><polygon class="cls-68" points="174.58 1286.78 175.66 1288.73 177.9 1288.34 176.32 1289.94 177.41 1291.89 175.35 1290.93 173.77 1292.53 174.08 1290.33 172.03 1289.37 174.27 1288.97 174.58 1286.78"/><polygon class="cls-72" points="175.79 1292.63 174.69 1290.86 172.62 1291.33 174.02 1289.77 172.92 1288 174.88 1288.81 176.27 1287.25 176.09 1289.31 178.04 1290.11 175.97 1290.58 175.79 1292.63"/><ellipse class="cls-68" cx="175.15" cy="1289.88" rx="0.68" ry="0.66"/><rect class="cls-73" x="229.83" y="1059.45" width="32.62" height="13.05" rx="6.52"/><rect class="cls-74" x="160.25" y="1086.02" width="32.62" height="13.05" rx="6.52"/><rect class="cls-75" x="43.18" y="1117.43" width="32.62" height="13.05" rx="6.52"/><rect class="cls-74" x="58.77" y="1167.2" width="32.62" height="13.05" rx="6.52"/><rect class="cls-74" x="150.1" y="1162.21" width="32.62" height="13.05" rx="6.52"/><rect class="cls-76" x="322.13" y="1182.67" width="32.62" height="13.05" rx="6.52"/><rect class="cls-74" x="364.17" y="1151.74" width="32.62" height="13.05" rx="6.52"/><rect class="cls-74" x="253.03" y="1136.28" width="32.62" height="13.05" rx="6.52"/></g><g id="Layer_3" data-name="Layer 3"><polygon class="cls-77" points="359.09 321.82 359.12 321.78 359.07 321.78 216 73.98 72.93 321.78 72.88 321.78 72.91 321.82 72.88 321.87 72.93 321.87 216 569.67 359.07 321.87 359.12 321.87 359.09 321.82"/><path d="M358.69,321.82a.68.68,0,0,1,.08-.24l.35.6h-.28l-.12-.2L214.27,75h3.46l-142,248.4L74.79,325H72.88l2.77-4.8,0,0,.92,1.59-.92,1.61,0,.05-2.77-4.8h1.89l.94,1.61,143.75,247.4h-6.92l146.18-246,.12-.2h.28l-.35.6A.73.73,0,0,1,358.69,321.82Zm.8,0a.25.25,0,0,0,0-.15l-.35.6h-.05l.34-.2-140,249.6L216,577.78l-3.5-6.11L70.16,323.47l2.77,1.6h-.05l-5.55,0,2.78-4.78,0,0v3.2l0,0-2.76-4.83,5.53,0h.05l-2.77,1.6L214.27,73,216,70l1.71,3,141.68,248.6-.34-.2h.05l.35.6A.3.3,0,0,0,359.49,321.82Z"/></g></svg>