<svg id="Layer_1" data-name="Layer 1" xmlns="http://www.w3.org/2000/svg" xmlns:xlink="http://www.w3.org/1999/xlink" viewBox="0 0 1231.89 611"><defs><style>.cls-1{fill:#9bbeed;}.cls-2{fill:#60605f;}.cls-3{fill:#dba703;}.cls-4{fill:url(#linear-gradient);}.cls-5{fill:#e9eef4;opacity:0.8;}.cls-6,.cls-7,.cls-8{fill:none;stroke-miterlimit:10;}.cls-6{stroke:#444;stroke-width:29px;}.cls-7,.cls-8{stroke:#dba703;stroke-width:3px;}.cls-8{stroke-dasharray:12 10;}.cls-9{fill:#f9f9f9;}</style><linearGradient id="linear-gradient" x1="415.64" y1="611.83" x2="415.64" y2="455.16" gradientUnits="userSpaceOnUse"><stop offset="0" stop-color="#9bbeed"/><stop offset="0.27" stop-color="#619ea9"/><stop offset="0.55" stop-color="#2d816c"/><stop offset="0.75" stop-color="#0c6f45"/><stop offset="0.85" stop-color="#006837"/></linearGradient></defs><title>houseBackground</title><rect class="cls-1" x="0.76" width="1229.28" height="611"/><polygon class="cls-2" points="182.28 505.87 301.46 262.1 414.13 484.2 574.48 246.94 715.32 474.45 809.58 278.36 973.18 490.7 1060.93 309.77 1140.02 522.12 182.28 531.88 182.28 505.87"/><circle class="cls-3" cx="277.47" cy="174.77" r="77.8"/><path class="cls-4" d="M-199.5,496s573.11-155.6,1230.28,7.73V611.83H-199.42Z" transform="translate(200.09 -0.83)"/><path class="cls-5" d="M-56.47,269.83s68.05-10.55,116.94-6.77,128.54,11.34,127,7-53.32-29.69-83.41-37.79S78.75,183.44,59.94,180.2s-36.86-18.89-61.68-4.32-31.82,25.64-41.6,24.56-32.34,8.1-39.11,26.45-29.25,29.61-55.67,35.63C-174.37,270.8-131.69,283.87-56.47,269.83Z" transform="translate(200.09 -0.83)"/><path class="cls-5" d="M81.08,278.05s68-11,116.89-7.54S326.59,281,325.05,276.69s-53.51-29.34-83.65-37.24-25.68-48.68-44.51-51.79-37-18.65-61.71-3.91-31.64,25.84-41.43,24.83-32.29,8.31-38.94,26.71-29,29.8-55.43,36C-36.81,279.8,6,292.59,81.08,278.05Z" transform="translate(200.09 -0.83)"/><path class="cls-5" d="M689.94,188.18s68-11,116.89-7.55,128.61,10.49,127.08,6.18-53.51-29.34-83.65-37.24-25.68-48.68-44.51-51.79-37-18.65-61.71-3.91-31.64,25.84-41.43,24.83-32.29,8.31-38.94,26.71-29,29.8-55.43,36C572,189.92,614.81,202.71,689.94,188.18Z" transform="translate(200.09 -0.83)"/><path class="cls-5" d="M454.37,334.94s68-11,116.89-7.54,128.61,10.48,127.08,6.18-53.51-29.34-83.65-37.24-25.68-48.68-44.51-51.8-37-18.65-61.71-3.91S476.83,266.48,467,265.46s-32.29,8.32-38.94,26.72-29.05,29.79-55.43,36C336.47,336.69,379.24,349.48,454.37,334.94Z" transform="translate(200.09 -0.83)"/><path class="cls-5" d="M6.84,285s67.4-14.08,116.42-12.86,129,4.61,127.23.38-54.79-26.87-85.26-33.39-27.88-47.45-46.83-49.71-37.79-16.94-61.82-1.09S26.15,215.59,16.33,215s-31.88,9.78-37.69,28.46S-49,274.57-75.09,282C-110.86,292.13-67.55,303,6.84,285Z" transform="translate(200.09 -0.83)"/><line class="cls-6" y1="558.93" x2="1231.89" y2="558.93"/><line class="cls-7" y1="555.07" x2="6" y2="555.07"/><line class="cls-8" x1="16" y1="555.07" x2="1220.89" y2="555.07"/><line class="cls-7" x1="1225.89" y1="555.07" x2="1231.89" y2="555.07"/><path class="cls-9" d="M833.76,360.44S843.51,381,850,374.53s20.86.27,26.55,6,8.93-2.43,8.93-2.43L860.85,310.6Z" transform="translate(200.09 -0.83)"/><path class="cls-9" d="M586.74,326.86s23.49,19.8,28.49,12.09,20.45-4.09,27.2.28,8.23-8,8.23-8l-41.17-52Z" transform="translate(200.09 -0.83)"/><path class="cls-9" d="M342.52,291.21s23,22.23,29.58,15.08,23-1.87,29.82,3.21,10.16-7.12,10.16-7.12L374.13,246.2Z" transform="translate(200.09 -0.83)"/><path class="cls-9" d="M76.09,312.77s16.43,16.19,23,9.05,23-1.87,29.82,3.2,1.72-7.55,1.72-7.55l-29.51-55.74Z" transform="translate(200.09 -0.83)"/></svg>