<svg id="Layer_1" data-name="Layer 1" xmlns="http://www.w3.org/2000/svg" viewBox="0 0 381.99 864"><defs><style>.cls-1{fill:#938558;}.cls-2{fill:#fabc90;}.cls-3{fill:#fbc8a5;}.cls-4{fill:#d0c4b1;}.cls-5{fill:#543213;}.cls-6{fill:#43443d;}.cls-7{fill:#7f724e;}.cls-8{fill:#eae9e8;}.cls-9{fill:#f9b280;}.cls-10{fill:#72463b;}.cls-11{fill:#fffdf3;}.cls-12{fill:#c17752;}.cls-13{fill:#614e40;}.cls-14{fill:#070707;}.cls-15,.cls-16{fill:#494949;}.cls-16,.cls-17,.cls-23{stroke:#000;}.cls-16,.cls-17,.cls-18,.cls-22,.cls-23,.cls-27{stroke-miterlimit:10;}.cls-16{stroke-width:0.58px;}.cls-17{stroke-width:1.77px;}.cls-18,.cls-22,.cls-27{fill:none;}.cls-18{stroke:#232323;stroke-width:7.54px;}.cls-19{opacity:0.25;}.cls-20{fill:#545454;}.cls-21{fill:#3d3d3d;}.cls-22{stroke:#543213;stroke-width:11.36px;}.cls-23{stroke-width:2.34px;}.cls-24{fill:#6d644b;}.cls-25{fill:#f9af7d;}.cls-26{fill:blue;}.cls-27{stroke:#191919;stroke-width:11.35px;}.cls-28{fill:#603f25;}.cls-29{fill:#191919;}</style></defs><title>SherlockNew</title><path class="cls-1" d="M160.07,278.25c-4.87,2.71-8.86,8.64-10.12,15.05l-7.21,36.77c-1.92,9.74,3,17,10.47,15.09,6.59-1.68,14.54-50.73,22.76-54.65,36-17.16,82.67-5.31,99.12-17.6,3.76-2.82-7.13-5.27-5.82-10.39L264,249.84c.14-3.15-7.13-4.35-7.13-4.35C248.66,240.19,160.07,278.25,160.07,278.25Z"/><path class="cls-2" d="M212.15,281.69c1.78,0,36.68-6.25,50.88-15.34.25-.12,0,0,0,0-.75-.85-21.08-37-16.31-59,0,0-29.91,24.25-61.38,23.06,0,0-8.19,52-9.5,53.48-1.55,1.81-4.08,2.13-1.65,2.38,12,1.24,25.55-4.17,38-4.6"/><path class="cls-3" d="M60.29,274.58l11.35,1.81s4.74,1,5.23,3.39,2.9,18,2.9,18-6.27,12.63-8.16,15.19l-10.06.8s-5.66-10.23-.83-14.63,8.84-7.64,8.84-7.64-.71-5.43.4-8.95c0,0-10.56-1.81-9.67-7.92"/><path class="cls-4" d="M170.29,774.33l3.65,30.5-3.65-2c4.24,2.46,9.13,4.52,13.32,4.14,5.62-.51,11.49,2.44,15.54,1.35l-7.54-41.48c-12.33.78-17.31,7.62-21.32,7.47"/><path class="cls-4" d="M270.07,774.33l3.65,30.5-3.65-2c4.25,2.46,9.13,4.52,13.32,4.14,5.62-.51,11.5,2.44,15.54,1.35l-7.54-41.48c-12.33.78-17.31,7.62-21.32,7.47"/><path class="cls-5" d="M282.71,782.24s-11.84-27.75-13.45,24.9c-3.29,6.94-19.5,14.39-30.53,14.66-16.18.4-16.12,9.28-18,17.68,9.49,23.13,69.85-6.78,70.28-2.62s16.81.34,22.47-5-4.75-28.39-5.2-28.84l.51-22.38c-4.14,1.55-13.85-3.58-19.59-2.86-4.29.55-3.42,6-7.76,2.45"/><path class="cls-5" d="M183.33,782.15s-11.78-27.64-13.39,24.8c-3.27,6.91-19.42,14.33-30.4,14.6-16.12.4-16.06,9.24-17.89,17.61,9.45,23,69.56-6.76,70-2.62s16.74.35,22.38-5-4.73-28.28-5.17-28.72l.5-22.3c-4.12,1.55-13.79-3.56-19.51-2.84-4.27.54-3.41,5.94-7.73,2.44"/><path class="cls-6" d="M334.83,542.47c-1.93,11.48-9.72,34.13-11.78,36.65l-8.13,82.32L314.79,791l-1.81,1.2c-3.34,2.24-16.2,8.93-41,1.69L265,789.58,259.28,677.1c-1.47-2.72-2.31-7.72-2.5-14.92-.12-4.73,0-10.59,1.22-14.15l-22.11-55.74c-12,2.24-14.41,2.11-19.76,1.1l-18.6,69.14L211.09,799l-2.72,2.73a139.66,139.66,0,0,1-14,.74,85.13,85.13,0,0,1-23.06-2.87l-5.91-2.07L146,670.3a19.78,19.78,0,0,1-4-12.17,20,20,0,0,1,3.38-11.33L133.41,496.3l180.49-14,1.34,1.7C335.34,509.29,337,529.76,334.83,542.47Z"/><path class="cls-7" d="M162.94,296.89,76.45,368,75.16,307.9l-22.23,1.19S48,393.28,54.82,400.22s90.29-37.28,90.29-37.28Z"/><path class="cls-8" d="M252.5,254.5c-43.35,23.24-59.1,38.39-74.17,23.88-.67-.65-3,.61-3.77,1.13-.15.09-1.31.33-1.46.43a75.46,75.46,0,0,0-33.44,69.16l4.88,57.08S108,497.24,146.3,523.07c18.73,12.62,137.41,12.67,165-7.47s-11.39-216.37-11.39-216.37S258.27,255.6,252.5,254.5Z"/><path class="cls-9" d="M60.05,303s-10.16-19.7-7.85-35c11.54,1,22.42-5.25,22.44-.54,0,9.11,14.48,3.83,14.77,10.13s-6.82,22.7-6.82,22.7l-7.43,7.6Z"/><path class="cls-5" d="M41,276.15c12.08.24,43.72-11.39,57.62-18.17,4.94-5.33,7,.24,7.87,2.42s-4.76,4.12-7.13,3.39S63.18,282.69,41,281.73,29,275.91,41,276.15Z"/><path class="cls-3" d="M77.21,268l10,5.69s4.08,2.62,3.71,5-3.59,17.82-3.59,17.82-10.31,9.63-13,11.36L64.64,305s-1.71-11.56,4.35-14S80,287,80,287s1.24-5.33,3.52-8.23c0,0-9.26-5.41-6.27-10.82"/><path class="cls-3" d="M68.17,280.34a4,4,0,0,0,4,3.59,3.33,3.33,0,0,0,3.62-3.42l-.9-15.23a4.06,4.06,0,0,0-4-3.61,3.36,3.36,0,0,0-3.62,3.44Z"/><path class="cls-3" d="M81.41,266.41s-.87,13.17-1.43,15.65c-.39,1.7-3.86.31-4-3.12S74.85,263,74.85,263s1.36-1.39,2.54-1.19a5.7,5.7,0,0,1,4,4.59"/><path class="cls-3" d="M62.21,283.83a4.32,4.32,0,0,0,4.4,3.64,3.44,3.44,0,0,0,3.16-4.13l-2.71-16.82a4.35,4.35,0,0,0-4.41-3.64A3.46,3.46,0,0,0,59.49,267Z"/><path class="cls-3" d="M55.36,281c.37,1.72,2.37,2.91,4.43,2.65s3.44-1.84,3.05-3.56l-3.05-13.46c-.39-1.71-2.39-2.9-4.45-2.65s-3.44,1.85-3,3.57Z"/><path class="cls-2" d="M147.89,111.13l-.69,3c-.46,2-1,3.93-1.68,5.86-3.59,11.11-1.14,32.66.41,33.57L142.81,169l-3.34,10.14a34.86,34.86,0,0,0-1.71,12.21c.34,9,1.11,16.19,3.12,20.83,1.26,2.91,6.58,25.62,6.58,25.62,2.54,9,2.06,12.27,8.44,19.1l7.36,6.4-.16-67.45-9.52,2.48,14.3-46.65,12.33-72.13L168,86.29l-.13.08a48,48,0,0,0-16.55,17l-1.2,2.06a21.31,21.31,0,0,0-2.25,5.71"/><path class="cls-3" d="M237.24,235.88c-21.53,16.9-47.05,23.37-74.11,27.42l0-67.45-12.45,4.8,9.22-36.11,19.8-84.69a80.13,80.13,0,0,1,11.84-5.49,79,79,0,0,1,33.83-4.8c12.41,1,18.89,4.48,29.11,10.29,13,7.38,18.86,10.92,23.31,18.64a38.59,38.59,0,0,1,3.9,28l-1.26,15.79c1.54,4.92-.87,13.43-.87,18.59v10c-1.8,5.93-6.51,21.25-9.74,31.73a34.74,34.74,0,0,1-12,17.28C250.66,225.45,241.08,232.86,237.24,235.88Z"/><path class="cls-10" d="M152.89,225.8c14.77,9.28,41.57-6.79,41.57-6.79"/><path class="cls-11" d="M200.91,168.6c9.35-.58,15.86-10.31,15.51-13.67s-7.8-1.55-17.11-.57-21.1,3.21-20.75,6.57C178.56,160.93,182.56,169.73,200.91,168.6Z"/><path class="cls-11" d="M147.45,152.86c.25-3.67,3.51-2.33,7.62-2s7.52-.6,7.26,3.07-3.33,12.26-7.44,12-7.7-9.33-7.44-13"/><path class="cls-12" d="M152.85,225.64c13.77,5,41.61-6.63,41.61-6.63"/><path class="cls-13" d="M185.59,140c.08-1.07,20.58-10.81,28.23-6.34,6.88,4,15.65,13.84,15.65,13.84-7.31-4.17-12.79-7.11-19.25-7.8a36.36,36.36,0,0,0-25.13,7.13Z"/><path class="cls-13" d="M162.86,150s-6.53-5.55-9.93-6-8.15,1.51-8.15,1.51l17.3,11.31Z"/><path class="cls-13" d="M161.58,157.71s-10.1,41.17-11.94,43.4,15.2-6.05,15.2-6.05l-12.94,4.79Z"/><path class="cls-3" d="M272.82,148.85s3.88-13.85,12.36-9,4.24,24.26-4.59,24.67-7.77-15.68-7.77-15.68"/><path class="cls-14" d="M277.54,527.33a37.6,37.6,0,0,0,2.9,7.21,28.74,28.74,0,0,0,4.42,6.2,25.4,25.4,0,0,0,5.88,4.78,30.6,30.6,0,0,0,3.4,1.81,16.59,16.59,0,0,0,1.8.74c.61.23,1.22.48,1.83.74-.65-.09-1.3-.18-2-.3a12.64,12.64,0,0,1-1.94-.42,23.56,23.56,0,0,1-7.22-3.51c-.56-.38-1-.87-1.56-1.3-.25-.23-.51-.44-.76-.68l-.69-.74a23,23,0,0,1-4.36-6.77A21.36,21.36,0,0,1,277.54,527.33Z"/><path class="cls-14" d="M149.92,552a36.61,36.61,0,0,0,7.11-3.13,28.85,28.85,0,0,0,6.05-4.62,25.53,25.53,0,0,0,4.59-6,29.12,29.12,0,0,0,1.69-3.46,14.94,14.94,0,0,0,.69-1.83c.21-.61.44-1.23.68-1.85-.06.65-.14,1.31-.23,2a14.38,14.38,0,0,1-.36,2,21.51,21.51,0,0,1-1.31,3.79,22.7,22.7,0,0,1-2,3.54c-.36.57-.84,1.06-1.25,1.59l-.65.79-.72.71a22.87,22.87,0,0,1-6.63,4.58A21.24,21.24,0,0,1,149.92,552Z"/><path class="cls-13" d="M247.75,108.82S242.81,128,251,134.07s11.8,18.65,9.06,22.5,10.7,9.87,11.79,5.21-5.48-22.5,1.92-25c6.86-1.1,5.22,1.92,8,1.37s2.47-7.13,1.65-11.52,2.47-2.2-1.92-10.7S247.75,108.82,247.75,108.82Z"/><path class="cls-15" d="M138.26,120S-20.87,231.91,226,120C226,120,195.44,110.73,138.26,120Z"/><path class="cls-16" d="M283.44,130.47s-17-5.87-32.62-8c-4.71-2.62,29.43,1.72,35.47,2.34a4.47,4.47,0,0,1,.24,2.27l-6.92,1Z"/><path class="cls-17" d="M221.81,29.81a2.68,2.68,0,0,1,4.28.07c1.56,2,3.22,4.6,1.31,4.6C224.66,34.47,217.46,34.59,221.81,29.81Z"/><path class="cls-17" d="M222.81,30.51a2.69,2.69,0,0,1,4.29.06c1.55,2,3.21,4.61,1.3,4.6C225.66,35.16,218.47,35.28,222.81,30.51Z"/><path class="cls-17" d="M222.41,30.42c1.55-1,3.17-1.37,4.28.07,1.56,2,3.22,4.6,1.31,4.6C225.26,35.08,215.45,34.83,222.41,30.42Z"/><path class="cls-15" d="M287,126.46s20.45,13,34.48,32.65c1.74,3.89,2.78,6.37,3.14,7.24,0,.05,0,.11-.08.06-1.81-2.29-16.77-18.46-46.88-38.75C283,125,287,126.46,287,126.46Z"/><path class="cls-18" d="M225.93,30s11.11-13.06,24,2.92c7.62,9.46-25.07,1.16-25.07,1.16s-2.86-17-15.57-18.34C197.77,14.46,200,42,225.93,30Z"/><path class="cls-15" d="M287,126.46s-4.58-63.8-49-86.7c-6.89-3.55-14.5-4-22.12-3.41C156.11,41,137.47,115.82,138.26,120c0,0,55.45-8.12,83.23,0C221.49,120.06,246.76,120.76,287,126.46Z"/><path class="cls-19" d="M230.8,32.86c8.88,9.45,31.63,44.69,29.39,90.61l-61.39-6.68s18.26-38.54,19.25-79.45C218.11,34.53,229,31,230.8,32.86Z"/><path class="cls-20" d="M226.64,32.83c8.75,9.3,30.93,43.61,29.49,88.5a2,2,0,0,1-2.25,1.92l-56.36-5.15a2,2,0,0,1-1.71-2.75c3.93-9.29,17.24-43.2,18.08-78C214,34.5,224.85,30.93,226.64,32.83Z"/><path class="cls-21" d="M228.61,31.87c8.88,9.45,31.63,44.69,29.39,90.61l-61.31-5.6s18.18-39.62,19.17-80.53C215.92,33.54,226.82,30,228.61,31.87Z"/><line class="cls-22" x1="146.15" y1="523.92" x2="219.11" y2="529.65"/><path class="cls-1" d="M180.79,300.38s-9.8,368-22.31,365.45c-8.9,1-38.06-46.41-41.71-58.9,5-106.76,18.12-333.73,48.8-333C176,271.63,180.79,300.38,180.79,300.38Z"/><path class="cls-1" d="M317.12,324.73s20.34,185.21,42.68,215.13-158,151.78-165.41,128.56-6.4-252.65,1.8-268.56S313,290.85,317.12,324.73Z"/><path class="cls-23" d="M300.14,503.81l1.39-1.88a3.88,3.88,0,0,0-.92-5.49l-38.72-26.56a3.88,3.88,0,0,0-6.08,3.4l.16,3a3.85,3.85,0,0,0,1.68,3l37.17,25.39A3.87,3.87,0,0,0,300.14,503.81Z"/><path class="cls-24" d="M157.23,278.38a5.11,5.11,0,0,0-2.91,2.75c-4.28,9.74-24.75,53.42-50.9,60.63-8.57,2.36,50.68,65.32,72.81,42.31a4.81,4.81,0,0,0,1-1.59c7-18.51,12.5-72.61,7.19-77.28-1.63-3.48-9.12-15.94-17.24-27.63C166.22,272.46,160.3,277.25,157.23,278.38Z"/><path class="cls-7" d="M340.33,376.27c-7.48,22.56-37.16,97.21-37.16,97.21l-24-12.34s14.35-76.72,31-87.72l-54.06-38c-4-3.23-7.1-11.11-7.42-15.74-1.15-16.54,22.79-31.86,36-21.83C304.29,312.72,347.5,354.67,340.33,376.27Z"/><path class="cls-25" d="M294.67,469.16s4.39,20.78-1.65,33.74c-12.35,5.25-36.67-6.28-32-20.17,1.08-4.7,8.52-13.9,11.17-17.07a5.55,5.55,0,0,1,2.27-1.62l6.52-2.49Z"/><path class="cls-24" d="M255.61,249.67c1.9-2,5.2.24,5.2.24,6.31,12.63,49.26,49.67,56.31,72.89,1.68,5.51,9.06,8.11,9.36,11.88.53,6.35-13.19,20.08-24.73,33.21-26.54,30.17-74.62,69-96.65,74.25-5,1.18-9.62-3.08-10.94-10.23C189.45,406.39,197,324.64,198,314.53a3.18,3.18,0,0,1,.8-1.8Z"/><ellipse class="cls-26" cx="224.95" cy="449.85" rx="14.9" ry="37.36" transform="translate(-270.53 363.46) rotate(-53.54)"/><ellipse class="cls-27" cx="225.94" cy="449.78" rx="14.9" ry="37.36" transform="translate(-270.08 364.23) rotate(-53.54)"/><path class="cls-1" d="M283.16,273.46c.5,3.69-14,21.05-15.67,24.25-8.81,17.18-34.21,50.91-54.2,70.21-4.19,4.05-9.18,1.46-10.5-5.32l-8.71-33.89a22,22,0,0,1,2.9-14.33s56.4-63.76,60.49-66.09C261.91,245.76,286.05,271.08,283.16,273.46Z"/><path class="cls-1" d="M151.79,279.8A3.28,3.28,0,0,0,150.2,282c-.83,4.22,1.88,10.9,2.11,12.64,1.61,12.2,9.46,43,15.23,55.29,1.21,2.58,6.83,6.81,8.39,1.28L188,320.51c2.32-5.1-.77-11.62-1.47-13a3.69,3.69,0,0,1-.23-.58l-9.93-33.88a2.63,2.63,0,0,0-1.63-2.17,21.13,21.13,0,0,0-6.91-.7,3.32,3.32,0,0,0-1.84.66C163.68,272.6,154.88,278,151.79,279.8Z"/><path class="cls-8" d="M179,270.22l-2.47,2.6a9.72,9.72,0,0,0,.21,3.05l3.64,7.92,5.8-20.5Z"/><path class="cls-2" d="M180.52,260.28l-2.58,17.19S185.06,288,193,279C199.58,276.77,189,259.74,180.52,260.28Z"/><rect class="cls-24" x="221.02" y="525.6" width="104.96" height="64.21" rx="12" transform="matrix(0.95, -0.31, 0.31, 0.95, -158.36, 111.24)"/><rect class="cls-7" x="210.29" y="518.57" width="109.56" height="24.56" rx="3.88" transform="translate(-150.51 107.34) rotate(-17.92)"/><rect class="cls-24" x="115.02" y="519.99" width="25.91" height="58.83" rx="6.66" transform="translate(98.74 -13.95) rotate(10.14)"/><rect class="cls-7" x="117.17" y="519.98" width="30.35" height="15.13" rx="3.33" transform="translate(120.32 -16.21) rotate(12.82)"/><path class="cls-28" d="M23.7,268.5H41.37a1.77,1.77,0,0,1,1.77,1.77v13.14a9.33,9.33,0,0,1-9.33,9.33H31.27a9.33,9.33,0,0,1-9.33-9.33V270.27a1.77,1.77,0,0,1,1.77-1.77Z" transform="translate(-48.12 9.88) rotate(-9.97)"/><ellipse class="cls-29" cx="127.69" cy="527.78" rx="3.14" ry="2.23" transform="translate(-413.38 481.94) rotate(-71.56)"/><circle class="cls-29" cx="263.65" cy="532.98" r="6.28"/></svg>