<svg xmlns="http://www.w3.org/2000/svg" viewBox="0 0 800 1500"><defs><style>.cls-1{fill:#272728;}.cls-2{fill:#fcc9a6;}.cls-3{fill:#d1c5b2;}.cls-4{fill:#004d6c;}.cls-5{fill:#333;}.cls-6{fill:#fab382;}.cls-7{fill:#fbbd91;}.cls-8{fill:#fffef4;}.cls-9{fill:#896852;}.cls-10{fill:#614d40;}.cls-11{fill:#352922;}.cls-12{fill:#7a5641;}.cls-13{fill:#d7be28;stroke:#020202;stroke-miterlimit:10;}.cls-14{fill:#070808;}.cls-15{fill:#fab17d;}</style></defs><title>Characters</title><g id="Layer_2" data-name="Layer 2"><path class="cls-1" d="M467.66,437.31c3.21,0,66.43-11.32,92.14-27.79.46-.22.05.05,0,0-1.35-1.54-38.17-66.95-29.55-106.82,0,0-54.17,43.91-111.16,41.76,0,0-14.83,94.11-17.2,96.86-2.81,3.28-11.07-.91-6.68-.46,21.69,2.24,50-2.78,72.45-3.55"/><path class="cls-2" d="M153.48,538.57l18.69-9.16s8.07-3.44,11.27-.44,23,23.52,23,23.52,3.91,25.25,3.8,31l-14.05,11.67S177.16,586,179.7,574.41s5.1-20.55,5.1-20.55-6.71-7.29-8.74-13.66c0,0-17.52,8.35-22.58-1.63"/><path class="cls-3" d="M391.84,1329.55l6.6,55.26-6.6-3.59c7.68,4.46,16.53,8.18,24.12,7.49,10.18-.92,20.81,4.42,28.14,2.45L430.45,1316c-22.34,1.43-31.35,13.8-38.61,13.53"/><path class="cls-3" d="M572.56,1329.55l6.61,55.26-6.61-3.59c7.68,4.46,16.53,8.18,24.12,7.49,10.18-.92,20.82,4.42,28.15,2.45L611.17,1316c-22.34,1.43-31.35,13.8-38.61,13.53"/><path d="M395.41,1376.42l-16.3,15.71c-15.62,15-34.55,23.36-54.09,23.8-28.67.65-65.87,5.46-47,27.44,28.94,33.74,139.71-3,139.71-3s31.22-4.89,41.26-13.61-9.86-40.64-10.65-41.36l-1.7-9c-7.32,2.52-20.74,8.11-30.92,9.29-7.59.88-12.62-3.57-20.3-9.29"/><path d="M577.58,1376.42l-14.94,15.71c-14.31,15-31.65,23.36-49.56,23.8-26.27.65-60.35,5.46-43.08,27.44,26.53,33.74,128-3,128-3s28.61-4.89,37.8-13.61-9-40.64-9.76-41.36l-1.55-9c-6.71,2.52-19,8.11-28.33,9.29-6.95.88-11.56-3.57-18.6-9.29"/><path class="cls-4" d="M630.47,807.85l-298,24.53,20.09,268.21a29.94,29.94,0,0,0-6,18.51c0,7.72,2.56,14.52,6.5,19.13l38.71,230.4c13.58,4.06,32.56,6.59,60.68,3.61L405.8,1127.33l45.8-144s25.47,8,56.64,0l37.34,117.74c-4,5.6-3.32,44.75,1.57,50.12l16.9,207c10,3.09,44.48,11.74,64.11-2.09L619.63,1123l27.49-177.52s47-52.61-16.65-137.61"/><path class="cls-5" d="M328.68,464.4,275,660l-64.67-87.61-31.66,25s80.62,129.74,98,132.89,94.69-149.47,94.69-149.47Z"/><path class="cls-1" d="M638.52,456l-75.27-51.39c-1.14.64-2.29,1.25-3.43,1.83C482.88,444,434.38,429.22,402.46,426.91a7.56,7.56,0,0,0-4.76,1.26c-24.95,16.87-69,36.23-69,36.23L345.2,657.34S255.76,828.45,348.39,869c37.46,16.42,248.87,23,298.78-13.53S638.52,456,638.52,456"/><path class="cls-5" d="M516.22,609.2c-40.66-14.15-170.27-85-170.27-85L359,499s143.71,25.22,163.18,55.59l70.3-96.89c6-7.19,20.31-12.54,28.71-13,30-1.65,57.08,42.12,38.57,65.78C632.26,545.63,555.13,622.76,516.22,609.2Z"/><path class="cls-6" d="M171.08,519.09s-17.59-38.24-20.18-46.31c-1.77-5.56,6.51-9.46,11.7-.26s25.26,41.33,25.26,41.33-.43,6.85-2.85,8.93-9.34,3.06-13.93-3.69"/><path class="cls-6" d="M182.8,580.88s-35.61-18.53-48.16-43.57c18.1-10.59,27.7-31.18,32.64-24.24,9.57,13.45,25.43-9.45,32.44-.43s13.61,40.72,13.61,40.72l-3.05,19Z"/><path class="cls-2" d="M171.59,511.11l20.72-2s8.77-.39,10.71,3.54,13.3,30.11,13.3,30.11-5.2,25-7.33,30.38l-17.26,6s-14.61-15.32-8.17-25.25,12-17.44,12-17.44-3.72-9.19-3.39-15.86c0,0-19.33,1.66-20.57-9.46"/><path class="cls-2" d="M171.15,538.87c2.19,2.77,6.54,3.27,9.7,1.13s4-6.09,1.79-8.84L165.4,509.55c-2.19-2.76-6.54-3.26-9.72-1.13s-4,6.09-1.76,8.85Z"/><path class="cls-2" d="M166,550.27a7.82,7.82,0,0,0,10.31.78,6.23,6.23,0,0,0,.37-9.41l-21.58-22.06a7.87,7.87,0,0,0-10.33-.78,6.28,6.28,0,0,0-.37,9.42Z"/><path class="cls-2" d="M152.83,553.15c2.35,2.16,6.55,1.83,9.33-.7s3.16-6.32.79-8.45l-18.57-16.73c-2.36-2.13-6.56-1.8-9.35.72s-3.15,6.32-.77,8.45Z"/><path class="cls-7" d="M343.75,120.33l-1.29,5.56c-.85,3.69-2,7.32-3.13,10.92-6.69,20.7-2.12,60.89.77,62.57l-11,29-6.22,18.89a65,65,0,0,0-3.2,22.78c.64,16.84,2.08,30.17,5.82,38.82A42.75,42.75,0,0,1,329.12,326v3.46a78.55,78.55,0,0,0,3,21.66l.21.77a109.34,109.34,0,0,0,25.3,44.88l14.83,15.88L369.1,302.86l-14.74-20L381,195.93,404,61.46,381.27,74l-.24.15a89.56,89.56,0,0,0-30.86,31.66L348,109.69a38.91,38.91,0,0,0-4.2,10.64"/><path class="cls-2" d="M564.93,310.53c-26.76,21-42.53,32.86-54.62,42.35a294.44,294.44,0,0,1-138.16,59.67l-.65.1-3.31-109.79L345,311.79l21.09-91.9L403,62a150.52,150.52,0,0,1,22.54-10.41,147,147,0,0,1,63.61-8.69c22.48,2,34.48,8.43,53.25,19.1,24.52,13.94,35.48,20.55,43.8,35.37a71.61,71.61,0,0,1,7,51.25l-8.37,36A95.28,95.28,0,0,1,589.14,213v18.7c-5.29,17.49-24.21,78.8-24.21,78.8"/><path class="cls-8" d="M408.63,208.61c-.66-6.27,13.61-5.85,31-7.69s31.24-5.22,31.9,1.05-11.56,23.66-28.92,25.49-33.29-12.58-33.95-18.85"/><path class="cls-8" d="M342.93,198.12c.47-6.84,6.54-4.34,14.2-3.8s14-1.12,13.54,5.72-6.21,22.85-13.87,22.32-14.35-17.4-13.87-24.24"/><path class="cls-9" d="M404.17,343.33c-17.95-11.89-49.36-6.26-49.36-6.26"/><path class="cls-10" d="M407.48,156.4c0-2,30.81-16.29,45.66-9,13.34,6.5,36.94,16.92,36.94,16.92q-49.81-23.72-82.6,4.87Z"/><path class="cls-10" d="M371.66,192.77s-12.19-10.34-18.52-11.22S338,184.36,338,184.36l32.25,21.09Z"/><path class="cls-10" d="M363,233.23S344.2,310,340.78,314.13s28.32-11.27,28.32-11.27L345,311.79Z"/><path class="cls-2" d="M576.63,190.64s7.24-25.81,23-16.75,7.9,45.22-8.56,46-14.49-29.24-14.49-29.24"/><circle class="cls-11" cx="418.83" cy="281.33" r="3.99"/><path class="cls-12" d="M456.25,221.82c-2.56,8.67,2.17,38.95,2.17,38.95"/><path class="cls-12" d="M456.23,171.66c-1.83,4.17-1.45,19.51-1.45,19.51"/><circle class="cls-13" cx="403.94" cy="426.29" r="3.16"/><circle class="cls-13" cx="407.11" cy="430.61" r="3.16"/><circle class="cls-13" cx="409.21" cy="435.49" r="3.16"/><circle class="cls-13" cx="411.76" cy="440.03" r="3.16"/><circle class="cls-13" cx="413.54" cy="444.69" r="3.16"/><circle class="cls-13" cx="415.99" cy="449.1" r="3.16"/><circle class="cls-13" cx="418.08" cy="454.53" r="3.16"/><circle class="cls-13" cx="421.25" cy="458.63" r="3.16"/><circle class="cls-13" cx="424.41" cy="463.18" r="3.16"/><circle class="cls-13" cx="428.51" cy="466.34" r="3.16"/><circle class="cls-13" cx="432.5" cy="469.5" r="3.16"/><circle class="cls-13" cx="436.38" cy="471.9" r="3.16"/><circle class="cls-13" cx="441.04" cy="473.94" r="3.16"/><circle class="cls-13" cx="445.55" cy="476.37" r="3.16"/><circle class="cls-13" cx="450.9" cy="478.24" r="3.16"/><circle class="cls-13" cx="456.96" cy="479.41" r="3.16"/><circle class="cls-13" cx="462.36" cy="481.02" r="3.16"/><circle class="cls-13" cx="467.45" cy="481.46" r="3.16"/><circle class="cls-13" cx="472.83" cy="481.46" r="3.16"/><circle class="cls-13" cx="477.6" cy="480.02" r="3.16"/><circle class="cls-13" cx="482.54" cy="477.27" r="3.16"/><circle class="cls-13" cx="487.12" cy="475.08" r="3.16"/><circle class="cls-13" cx="492.37" cy="473.28" r="3.16"/><circle class="cls-13" cx="497.54" cy="470.21" r="3.16"/><circle class="cls-13" cx="502.71" cy="467.51" r="3.16"/><circle class="cls-13" cx="507.05" cy="465.58" r="3.16"/><circle class="cls-13" cx="512.2" cy="463.18" r="3.16"/><circle class="cls-13" cx="517.08" cy="460.02" r="3.16"/><circle class="cls-13" cx="521.01" cy="456.25" r="3.16"/><circle class="cls-13" cx="524.84" cy="452.26" r="3.16"/><circle class="cls-13" cx="528" cy="448.21" r="3.16"/><circle class="cls-13" cx="531.16" cy="444.69" r="3.16"/><circle class="cls-13" cx="533.93" cy="440.03" r="3.16"/><circle class="cls-13" cx="536.82" cy="435.49" r="3.16"/><circle class="cls-13" cx="540.14" cy="431.86" r="3.16"/><circle class="cls-13" cx="543.3" cy="427.45" r="3.16"/><circle class="cls-13" cx="545.96" cy="423.13" r="3.16"/><circle class="cls-13" cx="549.13" cy="418.91" r="3.16"/><circle class="cls-13" cx="552.95" cy="414.48" r="3.16"/><circle class="cls-13" cx="555.22" cy="411.31" r="3.16"/><circle class="cls-13" cx="558.6" cy="406.36" r="3.16"/><path class="cls-14" d="M586.08,882.2a66.92,66.92,0,0,0,5.26,13.06,54.21,54.21,0,0,0,8,11.25,49.93,49.93,0,0,0,10.65,8.7,73.3,73.3,0,0,0,12.78,5.9,39.78,39.78,0,0,1-20.16-7.65,42.44,42.44,0,0,1-5.47-4.91,45.73,45.73,0,0,1-4.48-5.82,42.41,42.41,0,0,1-3.39-6.47A38.43,38.43,0,0,1,586.08,882.2Z"/><path class="cls-14" d="M355,926.87a67,67,0,0,0,12.87-5.68,53.48,53.48,0,0,0,11-8.33,49.64,49.64,0,0,0,8.35-10.93,73.61,73.61,0,0,0,5.48-13,40.19,40.19,0,0,1-3.39,14,41,41,0,0,1-3.6,6.39,43.8,43.8,0,0,1-4.73,5.63,46.05,46.05,0,0,1-5.67,4.66,41.56,41.56,0,0,1-6.36,3.6A38.3,38.3,0,0,1,355,926.87Z"/><path class="cls-15" d="M324.94,502.11S263,482.76,256,479.29c-4.81-2.39-1.75-10.85,7.75-8.5s63.63,9.18,63.35,12.28,5.32,20.2-2.17,19"/><path class="cls-15" d="M346,524.17s-36.13,13.18-60.91,5.65c-3.39-18.12-1.54-40.24,6.32-39.19,15.22,2,11.05-24.33,21.66-23.4s35.69,17.09,35.69,17.09L359,499Z"/></g></svg>