<svg xmlns="http://www.w3.org/2000/svg" xmlns:xlink="http://www.w3.org/1999/xlink" viewBox="0 0 800 1500"><defs><style>.cls-1,.cls-15,.cls-16,.cls-19,.cls-21,.cls-5,.cls-7{fill:none;}.cls-2{fill:#fab17d;}.cls-3{fill:#d0c3af;}.cls-4{fill:#252627;}.cls-19,.cls-21,.cls-5{stroke:#000001;}.cls-15,.cls-16,.cls-19,.cls-21,.cls-5,.cls-7{stroke-miterlimit:10;}.cls-5,.cls-7{stroke-width:4px;}.cls-6{fill:#520e10;}.cls-7{stroke:#000;}.cls-8{fill:#f8f9f9;}.cls-9{fill:#edb48e;}.cls-10{fill:#fcc7a3;}.cls-11{fill:#fffef3;}.cls-12{fill:#584231;}.cls-13{fill:#f47b5c;}.cls-14{fill:#d0aa2b;}.cls-15,.cls-16{stroke:#171515;}.cls-15{stroke-width:0.55px;}.cls-16{stroke-width:1.18px;}.cls-17{fill:#614d40;}.cls-18{fill:#282828;}.cls-19{stroke-width:3.66px;}.cls-20{fill:#4a4a4a;}.cls-21{stroke-width:2.61px;}.cls-22{fill:#000001;}.cls-23{opacity:0.41;}.cls-24{clip-path:url(#clip-path);}</style><clipPath id="clip-path"><rect class="cls-1" x="339.63" y="34.7" width="78.41" height="112.44"/></clipPath></defs><title>Characters</title><g id="Layer_3" data-name="Layer 3"><path class="cls-2" d="M109.31,559.85,126.73,545s7.67-5.87,11.9-3.54,30.94,18.8,30.94,18.8,11.05,25.84,12.49,32l-11.8,16.26S147.45,603.91,147,590.9s-.16-23.28-.16-23.28-9.14-5.94-13-12.18c0,0-16.4,13.67-24.51,4.41"/><path class="cls-3" d="M361.07,1337.23l6.6,55.25-6.6-3.59c7.68,4.46,16.53,8.19,24.11,7.49,10.19-.91,20.82,4.43,28.15,2.46l-13.65-75.14c-22.34,1.43-31.35,13.8-38.61,13.53"/><path class="cls-3" d="M541.79,1337.23l6.61,55.25-6.61-3.59c7.68,4.46,16.53,8.19,24.12,7.49,10.18-.91,20.82,4.43,28.15,2.46L580.4,1323.7c-22.34,1.43-31.35,13.8-38.61,13.53"/><path d="M364.64,1384.1l-16.3,15.71c-15.62,15-34.55,23.36-54.09,23.8-28.67.65-65.87,5.46-47,27.44,28.94,33.74,139.71-3,139.71-3s31.22-4.89,41.26-13.61-9.86-40.64-10.65-41.36l-1.7-9c-7.32,2.52-20.74,8.11-30.92,9.28-7.59.89-12.62-3.57-20.3-9.28"/><path d="M546.81,1384.1l-14.94,15.71c-14.31,15-31.65,23.36-49.56,23.8-26.27.65-60.35,5.46-43.08,27.44,26.53,33.74,128-3,128-3s28.61-4.89,37.8-13.61-9-40.64-9.76-41.36l-1.55-9c-6.71,2.52-19,8.11-28.33,9.28-6.95.89-11.56-3.57-18.6-9.28"/><path class="cls-4" d="M583.08,836c55.75,51.07,25.32,140.67,25.32,140.67l-26.77,177.52,8.31,233.21c-19.11,13.83-52.66,5.19-62.41,2.1l-16.46-207c-4.75-5.37-5.41-44.53-1.52-50.12L466.61,993.26c-30.34,8-41.75-.69-41.75-.69l-51.39,165.95L419,1403.44c-27.38,3-45.85.45-59.08-3.62l-37.68-230.4c-3.84-4.6-6.33-11.41-6.33-19.13a30.53,30.53,0,0,1,5.81-18.51l4.19-285.68Z"/><path class="cls-5" d="M583.08,836c55.75,51.07,25.32,140.67,25.32,140.67l-26.77,177.52,8.31,233.21c-19.11,13.83-52.66,5.19-62.41,2.1l-16.46-207c-4.75-5.37-5.41-44.53-1.52-50.12L466.61,993.26c-30.34,8-41.75-.69-41.75-.69l-51.39,165.95L419,1403.44c-27.38,3-45.85.45-59.08-3.62l-37.68-230.4c-3.84-4.6-6.33-11.41-6.33-19.13a30.53,30.53,0,0,1,5.81-18.51l4.19-285.68Z"/><path class="cls-6" d="M323.69,466.34,244.92,665.76A1.12,1.12,0,0,1,243,666L180.2,581a1.12,1.12,0,0,0-1.6-.21l-29.93,23.61a1.14,1.14,0,0,0-.25,1.51c7.68,11.64,91.15,137.68,107.69,140.68,17.05,3.07,68.06-178.26,69.71-184.16a1,1,0,0,0,0-.3V466.75a1.12,1.12,0,0,0-2.17-.41"/><path class="cls-7" d="M323.69,466.34,244.92,665.76A1.12,1.12,0,0,1,243,666L180.2,581a1.12,1.12,0,0,0-1.6-.21l-29.93,23.61a1.14,1.14,0,0,0-.25,1.51c7.68,11.64,91.15,137.68,107.69,140.68,17.05,3.07,68.06-178.26,69.71-184.16a1,1,0,0,0,0-.3V466.75A1.12,1.12,0,0,0,323.69,466.34Z"/><path class="cls-8" d="M607.75,463.72l-98.19-46.18c-1.14.63-92.13,22.28-124,20-1.69-.12-59.65,23.33-59.65,23.33-5.24,32.25-42.49,420-8.24,415.89,32,32.56,334.86,4.33,294.62-42.6-30.27-35.3-58.35-368.27-4.49-370.4"/><path class="cls-7" d="M607.75,463.72l-98.19-46.18c-1.14.63-92.13,22.28-124,20-1.69-.12-59.65,23.33-59.65,23.33-5.24,32.25-42.49,420-8.24,415.89,32,32.56,334.86,4.33,294.62-42.6-30.27-35.3-58.35-368.27-4.49-370.4"/><path d="M460.91,463.27c-22.14,0-40.53-.95-54.79-2.86-24-3.21-44.83-3.76-47.2-12.82L366.8,444c1.34,5.15,21.64,13.5,110,11.86,49.68-.93,85-18.83,99.5-5.85l.72,7.19c-.49.05-1.16-2-78,5.43-5.53.53-33,.6-38.12.6"/><path d="M447.25,540.34c-113.77,0-122.08-11.15-127.85-14.57l1.09-10.3c1.34,4,14.78,17,131.48,16.7,63.51-.19,126.52-4.31,127.15-4.35l.54,8.14c-.63,0-63.9,4.18-127.66,4.37h-4.75"/><path d="M440.18,500.75c-102.89,0-110.14-12-116.68-18.45l2.07-5.55c1.34,4,14.61,16.95,129.48,15.76,62.52-.65,124.55-5.24,125.17-5.29l.61,8.14c-.62.05-62.91,4.66-125.7,5.31q-7.75.09-14.95.08"/><path d="M445.26,583c-35.74,0-64.81-1.25-86.47-3.74-31-3.56-39.94-7.82-44.27-15.13l2.67-6c1.35,4,14.9,17,132.68,16.7,64.08-.19,127.72-4.32,128.35-4.36l.54,8.18c-.64,0-64.49,4.19-128.84,4.38h-4.66"/><path d="M442.84,625.63c-36.13,0-65.53-1.25-87.44-3.74-31.36-3.56-40.77-6.91-44.2-14.33l2.1-6.87c1.34,3.95,14.73,16.7,129.53,16.7h4.71c64.82-.19,129.14-4.31,129.78-4.36l.53,8.23c-.64,0-65.22,4.18-130.29,4.38h-4.72"/><path d="M440.57,668.28c-36.5,0-66.19-1.26-88.32-3.74-31.67-3.56-42-6.14-45.15-15.42l2.59-5.83c1.37,4,15.2,17,135.59,16.69,65.48-.19,130.49-4.31,131.14-4.35l.53,8.27c-.65,0-65.88,4.18-131.61,4.37h-4.77"/><path d="M442.38,711c-37.65,0-68.28-1.26-91.1-3.74-32.64-3.55-41.71-7.66-46.4-13.66l2.38-7.71c1.4,3.95,15.34,16.69,135.11,16.69h4.87c67.57-.19,134.65-4.31,135.32-4.35l.52,8.4c-.67,0-68,4.18-135.78,4.37h-4.92"/><path d="M444.7,753.63c-38.28,0-69.41-1.26-92.61-3.74-33.16-3.55-43.33-8.85-48.1-13.53l2.22-7.91c.71,2,7.2,8.76,46.77,13,23.89,2.56,56.42,3.8,96.66,3.68,68.7-.19,136.9-4.31,137.58-4.35l.51,8.47c-.68,0-69.09,4.18-138,4.37h-5"/><path d="M448.44,796.31c-39.29,0-71.24-1.26-95.05-3.74-34-3.54-47.73-7.9-51.17-17.19l2.66-5.54c.73,2,8.73,9.94,49.41,14.18,24.53,2.55,57.94,3.8,99.25,3.68,70.51-.19,140.49-4.31,141.19-4.35l.51,8.58c-.7,0-70.92,4.18-141.67,4.37h-5.13"/><path d="M455.87,839c-41.28,0-74.86-1.25-99.88-3.73-45.7-4.54-48.83-10-52.11-14.82l1-9c.77,2,9.13,10.76,52,15,25.8,2.56,60.93,3.81,104.38,3.69,74.14-.19,147.71-4.32,148.44-4.36l.5,8.8c-.74.05-74.54,4.18-148.91,4.37h-5.4"/><path d="M445.23,881.8h-.88c-117.66-.06-135.58-13-138.83-22.74l1.19-4.24c1.34,4,21.29,18.75,137.61,18.82h.91c63,0,125.25-3.85,125.87-3.89L550,877.91c-.38,0-2.13,1.45-34.68,2.58-20.82.72-45.37,1.31-70,1.31"/><path class="cls-9" d="M445.48,440.15c2.93,0,44.75-2.68,68.26-18.68-21-22.64-18.66-81-10.77-119.74,0,0-43.44,48.2-95.55,46.11,0,0,17.59,66.28-18.31,88.66-3.44,2.15,35.81,4.4,56.37,3.65"/><path class="cls-9" d="M534.25,701.8s-46.91,44.81-53.33,49.27c-4.43,3-10.35-3.73-3.69-10.9s38.84-51.24,41.42-49.49,20.25,5.12,15.6,11.12"/><path class="cls-9" d="M563.73,694.09s-6,38-24.55,56c-17.49-5.8-35.95-18.13-31.23-24.5,9.14-12.34-15.94-21.45-10-30.28s32.22-23,32.22-23l17.83-1.9Z"/><path class="cls-6" d="M668,579.56c-22.9,18.54-102.47,75.62-120.23,88.33a4.23,4.23,0,0,0-.9,6l15.48,20.4a4.21,4.21,0,0,0,5.17,1.26c22.14-10.44,155.64-74.8,168-112.88a4,4,0,0,0,.06-2.23C728.1,551.31,612.93,447.53,583,448.27c-14.56.36-23.55,10.8-29,21.59A27.38,27.38,0,0,0,563.74,505l103.87,67.71a4.23,4.23,0,0,1,.36,6.83"/><path class="cls-7" d="M668,579.56c-22.9,18.54-102.47,75.62-120.23,88.33a4.23,4.23,0,0,0-.9,6l15.48,20.4a4.21,4.21,0,0,0,5.17,1.26c22.14-10.44,155.64-74.8,168-112.88a4,4,0,0,0,.06-2.23C728.1,551.31,612.93,447.53,583,448.27c-14.56.36-23.55,10.8-29,21.59A27.38,27.38,0,0,0,563.74,505l103.87,67.71A4.23,4.23,0,0,1,668,579.56Z"/><path class="cls-9" d="M122.76,534.3s-.68-16.55-2.47-30.58c-.93-7.29,22.38-12.81,24.89-15.89a14.46,14.46,0,0,1,3-3c8.28-5.54,9.64,3.22,9.64,3.22.51,5-6.38,8.05-14.55,13a11.46,11.46,0,0,0-5.43,11.42c.78,5.38,1.19,9.7,1.32,11.18a9.67,9.67,0,0,0,.15,1.08c.4,2.19,1.81,10.58.07,13.07-2,2.89-9.9,2.5-16.63-3.44"/><path class="cls-9" d="M150,598.23s-40.92-11.32-61.11-34.6c2.33-2.3,1.78-8.79,5.52-9,3-.21,3.65-2.28,2.37-5.8-2.12-5.78,4.6-10.31,8.81-9.29,4.48,1.08.85-4.26,2.64-4.7,6.18-1.52,5.17-7.4,8.85-5.87,12.19,5.05,9.7-16,20-6.71,5.26,16.9,40,37.1,40,37.1L179,580.4Z"/><path class="cls-9" d="M160.55,493.44l22.15,5.81s9.2,2.94,9.7,7.74,2.26,36.14,2.26,36.14S175,567.63,179,580.4L160.17,592s-14-42.07-3.55-49.86,19-13.43,19-13.43-.34-10.9,2.55-17.66c0,0-20.58-5.65-17.63-17.59"/><path class="cls-9" d="M115,542.38c2.82,2.12,7.3,1.57,10-1.22s1.67-6-1.13-8.15l-22.37-15.84c-2.82-2.12-7-3.49-8.84-.15-1.09,2-.61,7,2.2,9.12Z"/><path class="cls-9" d="M97,524.39c3.38-1.94,3.78-14.22,3.78-14.22-.35-3.5,1.7-15-2-14.09-2.2.54-6.83,3.93-6.49,7.43C92.2,504.59,88.63,529.19,97,524.39Z"/><path class="cls-9" d="M98.15,550.61a9.13,9.13,0,0,0,11.78-1.19c2.89-3.22,3-6-.62-8.51L87.84,530.63l-4.28-8.2a11.57,11.57,0,0,0-6.78-5.84c-2.23-.67-4.3-.47-5.52,1.62-1.55,2.66,1.45,4.66,3.77,9.9l6.32,11.38Z"/><path class="cls-9" d="M92.08,567c2.1,1.95,4.83.94,6-2.2s.54-7.28-1.57-9.2l-11.38-6.29c-2.12-1.93-15.8-24-20.62-16.3-1.8,2.86,8.83,17,11,18.92Z"/><path class="cls-6" d="M509.56,417.54c-3,2-44.78,31.35-118.6,16l-5.45,4s66.61,33.21,130.23-17Z"/><path class="cls-9" d="M366.33,132.36l-23.67,32.7a43.43,43.43,0,0,0-8,31.18l3.71,28.3-12.49,25s-7.62,20.78-4.46,43l1,4.5c3.55,16.88-.41,33.95-.08,51.2.17,9.11-.49,11.83,6.8,20.79l8.86,16.6,6.6,11.6c1.9,2.34,4.16,4.92,12.93,3l5.14-1.07-3.33-80.68-10-17.64,28.49-76.5,30.78-117.31c-.93.53-38.39,19.06-42.21,25.28"/><path class="cls-10" d="M433.29,392.89l-59.67,16.24a17,17,0,0,1-11.27-1.48c-5-2.55-11.71-6.19-14.57-7.2a5.22,5.22,0,0,1-3.25-3.22l-1.07-3.14.12-69.14L321.2,338.23l44.56-127,27.48-106.48a149.83,149.83,0,0,1,21.26-7.41A151.38,151.38,0,0,1,477,93.89c21.4,3.37,32.47,10,49.74,20.85h0c33.83,21.29,36.22,62,36.22,62l-3.74,50.52c2.14,8.4-5.42,18.67-6,27.24l-4,22.17c-2.94,7.18-7.23,21.6-11,34.86-5,17.69-34.11,40-34.11,40C496,366.34,433.29,392.89,433.29,392.89Z"/><path class="cls-11" d="M383.36,213.29c0-7.55,12-6.15,26.78-7.26s26.77-4.29,26.77,3.26-13.73,24.35-28.52,25.45-25-13.9-25-21.45"/><path class="cls-11" d="M338.73,207.82c.91-6.34,6.39-3.58,13.5-2.56s13.14-.06,12.22,6.28-8.31,13.9-15.41,12.87-11.23-10.24-10.31-16.59"/><path class="cls-12" d="M382,190.66s30.6-17.36,44.82-16.45,32,17.82,32,17.82c-29.31-13.95-54.71-7.6-77.77,10.85Z"/><path class="cls-12" d="M364.5,205.09s-12.09-9.46-18.21-10.06a73.7,73.7,0,0,0-13.46.28l31.76,19Z"/><path class="cls-13" d="M377,350.79c-.19,2.55-20.45,3.13-29,7.89-4.17,2-5.49,2.86-8.75,2-10.6-2.72-14.94-8.81-14.76-11.28.23-3,21.6-1.67,24.66-1.53s28.09-.1,27.87,2.9"/><path class="cls-12" d="M355.66,237s-34,98.32-37.52,102S346,319.55,346,319.55l-22.45,14.36Z"/><path class="cls-12" d="M346.2,376.63c-5.05-.46-4.41-8.89-5.51-11.31-.24-.52-2.56-3.35-2-3.56,5.46,1.66,9.82-4.43,20.17-5.7.6.92-11.91,20.63-12.62,20.57"/><path class="cls-10" d="M552.08,205.62s11.41-25.54,24.78-13.62-4.45,60-20.17,58.15-4.61-44.53-4.61-44.53"/><path class="cls-14" d="M407.61,249.79a32,32,0,1,1,34.28-29.53,32,32,0,0,1-34.28,29.53m4.11-55.15a23.3,23.3,0,1,0,21.5,25,23.32,23.32,0,0,0-21.5-25"/><path class="cls-15" d="M407.61,249.79a32,32,0,1,1,34.28-29.53A32,32,0,0,1,407.61,249.79Zm4.11-55.15a23.3,23.3,0,1,0,21.5,25A23.32,23.32,0,0,0,411.72,194.64Z"/><path class="cls-14" d="M449.88,222a7.29,7.29,0,1,1-6.73-7.82,7.29,7.29,0,0,1,6.73,7.82"/><path class="cls-16" d="M449.88,222a7.29,7.29,0,1,1-6.73-7.82A7.29,7.29,0,0,1,449.88,222Z"/><path class="cls-14" d="M451.61,226.7a3.4,3.4,0,1,1-3.37-3.43,3.4,3.4,0,0,1,3.37,3.43"/><path class="cls-15" d="M451.61,226.7a3.4,3.4,0,1,1-3.37-3.43A3.4,3.4,0,0,1,451.61,226.7Z"/><path class="cls-14" d="M454.66,231.57a3.4,3.4,0,1,1-3.37-3.43,3.42,3.42,0,0,1,3.37,3.43"/><path class="cls-15" d="M454.66,231.57a3.4,3.4,0,1,1-3.37-3.43A3.42,3.42,0,0,1,454.66,231.57Z"/><path class="cls-14" d="M457,237a3.4,3.4,0,1,1-3.37-3.43A3.39,3.39,0,0,1,457,237"/><path class="cls-15" d="M457,237a3.4,3.4,0,1,1-3.37-3.43A3.39,3.39,0,0,1,457,237Z"/><path class="cls-14" d="M458.73,242.91a3.4,3.4,0,1,1-3.37-3.43,3.39,3.39,0,0,1,3.37,3.43"/><path class="cls-15" d="M458.73,242.91a3.4,3.4,0,1,1-3.37-3.43A3.39,3.39,0,0,1,458.73,242.91Z"/><path class="cls-14" d="M459.59,248.6a3.4,3.4,0,1,1-3.37-3.43,3.41,3.41,0,0,1,3.37,3.43"/><path class="cls-15" d="M459.59,248.6a3.4,3.4,0,1,1-3.37-3.43A3.41,3.41,0,0,1,459.59,248.6Z"/><path class="cls-14" d="M460.24,254.4a3.4,3.4,0,1,1-3.37-3.43,3.39,3.39,0,0,1,3.37,3.43"/><path class="cls-15" d="M460.24,254.4a3.4,3.4,0,1,1-3.37-3.43A3.39,3.39,0,0,1,460.24,254.4Z"/><path class="cls-14" d="M460.77,260.28a3.4,3.4,0,1,1-3.37-3.43,3.4,3.4,0,0,1,3.37,3.43"/><path class="cls-15" d="M460.77,260.28a3.4,3.4,0,1,1-3.37-3.43A3.4,3.4,0,0,1,460.77,260.28Z"/><path class="cls-14" d="M460.65,266.4a3.4,3.4,0,1,1-3.37-3.43,3.4,3.4,0,0,1,3.37,3.43"/><path class="cls-15" d="M460.65,266.4a3.4,3.4,0,1,1-3.37-3.43A3.4,3.4,0,0,1,460.65,266.4Z"/><path class="cls-14" d="M460.79,272.7a3.4,3.4,0,1,1-3.37-3.43,3.39,3.39,0,0,1,3.37,3.43"/><path class="cls-15" d="M460.79,272.7a3.4,3.4,0,1,1-3.37-3.43A3.39,3.39,0,0,1,460.79,272.7Z"/><path class="cls-14" d="M460.74,278.5a3.4,3.4,0,1,1-3.37-3.43,3.39,3.39,0,0,1,3.37,3.43"/><path class="cls-15" d="M460.74,278.5a3.4,3.4,0,1,1-3.37-3.43A3.39,3.39,0,0,1,460.74,278.5Z"/><path class="cls-14" d="M460.69,284.81a3.4,3.4,0,1,1-3.37-3.43,3.4,3.4,0,0,1,3.37,3.43"/><path class="cls-15" d="M460.69,284.81a3.4,3.4,0,1,1-3.37-3.43A3.4,3.4,0,0,1,460.69,284.81Z"/><path class="cls-14" d="M460.43,291a3.4,3.4,0,1,1-3.37-3.43,3.39,3.39,0,0,1,3.37,3.43"/><path class="cls-15" d="M460.43,291a3.4,3.4,0,1,1-3.37-3.43A3.39,3.39,0,0,1,460.43,291Z"/><path class="cls-14" d="M459.87,297.2a3.4,3.4,0,1,1-3.37-3.43,3.41,3.41,0,0,1,3.37,3.43"/><path class="cls-15" d="M459.87,297.2a3.4,3.4,0,1,1-3.37-3.43A3.41,3.41,0,0,1,459.87,297.2Z"/><path class="cls-14" d="M459.82,302.91a3.4,3.4,0,1,1-3.37-3.43,3.41,3.41,0,0,1,3.37,3.43"/><path class="cls-15" d="M459.82,302.91a3.4,3.4,0,1,1-3.37-3.43A3.41,3.41,0,0,1,459.82,302.91Z"/><path class="cls-14" d="M459.64,308.89a3.4,3.4,0,1,1-3.37-3.43,3.4,3.4,0,0,1,3.37,3.43"/><path class="cls-15" d="M459.64,308.89a3.4,3.4,0,1,1-3.37-3.43A3.4,3.4,0,0,1,459.64,308.89Z"/><path class="cls-14" d="M458.06,314.55a3.4,3.4,0,1,1-3.37-3.43,3.4,3.4,0,0,1,3.37,3.43"/><path class="cls-15" d="M458.06,314.55a3.4,3.4,0,1,1-3.37-3.43A3.4,3.4,0,0,1,458.06,314.55Z"/><path class="cls-14" d="M456.3,320.26a3.4,3.4,0,1,1-3.37-3.43,3.4,3.4,0,0,1,3.37,3.43"/><path class="cls-15" d="M456.3,320.26a3.4,3.4,0,1,1-3.37-3.43A3.4,3.4,0,0,1,456.3,320.26Z"/><path class="cls-14" d="M455.89,325.69a3.4,3.4,0,1,1-3.37-3.43,3.39,3.39,0,0,1,3.37,3.43"/><path class="cls-15" d="M455.89,325.69a3.4,3.4,0,1,1-3.37-3.43A3.39,3.39,0,0,1,455.89,325.69Z"/><path class="cls-14" d="M458,331.37A3.4,3.4,0,1,1,454.6,328a3.4,3.4,0,0,1,3.37,3.42"/><path class="cls-15" d="M458,331.37A3.4,3.4,0,1,1,454.6,328,3.4,3.4,0,0,1,458,331.37Z"/><path class="cls-14" d="M461,336.49a3.4,3.4,0,1,1-3.37-3.43,3.41,3.41,0,0,1,3.37,3.43"/><path class="cls-15" d="M461,336.49a3.4,3.4,0,1,1-3.37-3.43A3.41,3.41,0,0,1,461,336.49Z"/><path class="cls-14" d="M460.19,342.5a3.4,3.4,0,1,1-3.37-3.43,3.41,3.41,0,0,1,3.37,3.43"/><path class="cls-15" d="M460.19,342.5a3.4,3.4,0,1,1-3.37-3.43A3.41,3.41,0,0,1,460.19,342.5Z"/><path class="cls-14" d="M457.77,347.81a3.4,3.4,0,1,1-3.37-3.43,3.4,3.4,0,0,1,3.37,3.43"/><path class="cls-15" d="M457.77,347.81a3.4,3.4,0,1,1-3.37-3.43A3.4,3.4,0,0,1,457.77,347.81Z"/><path class="cls-14" d="M456.32,353.51a3.4,3.4,0,1,1-3.37-3.43,3.42,3.42,0,0,1,3.37,3.43"/><path class="cls-15" d="M456.32,353.51a3.4,3.4,0,1,1-3.37-3.43A3.42,3.42,0,0,1,456.32,353.51Z"/><path class="cls-14" d="M456,358.85a3.4,3.4,0,1,1-3.37-3.43,3.4,3.4,0,0,1,3.37,3.43"/><path class="cls-17" d="M496,183.5c30.62,26.79,39.4,47.53,25.38,63.9,1,6.3,22.7-5.14,22.7-5.14-3.56-16.21,1.42-48,29-61.56C573.14,180.7,533.73,163.26,496,183.5Z"/><path class="cls-15" d="M456,358.85a3.4,3.4,0,1,1-3.37-3.43A3.4,3.4,0,0,1,456,358.85Z"/><path class="cls-14" d="M456.54,364.28a3.4,3.4,0,1,1-3.37-3.42,3.41,3.41,0,0,1,3.37,3.42"/><path class="cls-15" d="M456.54,364.28a3.4,3.4,0,1,1-3.37-3.42A3.41,3.41,0,0,1,456.54,364.28Z"/><path class="cls-14" d="M458.15,369.77a3.4,3.4,0,1,1-3.37-3.42,3.39,3.39,0,0,1,3.37,3.42"/><path class="cls-15" d="M458.15,369.77a3.4,3.4,0,1,1-3.37-3.42A3.39,3.39,0,0,1,458.15,369.77Z"/><path class="cls-14" d="M459.19,375.86a3.4,3.4,0,1,1-3.37-3.43,3.4,3.4,0,0,1,3.37,3.43"/><path class="cls-15" d="M459.19,375.86a3.4,3.4,0,1,1-3.37-3.43A3.4,3.4,0,0,1,459.19,375.86Z"/><path class="cls-14" d="M459.28,382.13a3.4,3.4,0,1,1-3.37-3.42,3.39,3.39,0,0,1,3.37,3.42"/><path class="cls-15" d="M459.28,382.13a3.4,3.4,0,1,1-3.37-3.42A3.39,3.39,0,0,1,459.28,382.13Z"/><path class="cls-14" d="M458.53,388.1a3.4,3.4,0,1,1-3.37-3.43,3.41,3.41,0,0,1,3.37,3.43"/><path class="cls-15" d="M458.53,388.1a3.4,3.4,0,1,1-3.37-3.43A3.41,3.41,0,0,1,458.53,388.1Z"/><path class="cls-14" d="M458.09,392.67a3.4,3.4,0,1,1-3.62-3.17,3.42,3.42,0,0,1,3.62,3.17"/><path class="cls-15" d="M458.09,392.67a3.4,3.4,0,1,1-3.62-3.17A3.42,3.42,0,0,1,458.09,392.67Z"/><path class="cls-14" d="M459.47,398a3.4,3.4,0,1,1-3.62-3.17,3.4,3.4,0,0,1,3.62,3.17"/><path class="cls-15" d="M459.47,398a3.4,3.4,0,1,1-3.62-3.17A3.4,3.4,0,0,1,459.47,398Z"/><path class="cls-14" d="M460.28,403.93a3.4,3.4,0,1,1-3.61-3.17,3.39,3.39,0,0,1,3.61,3.17"/><path class="cls-15" d="M460.28,403.93a3.4,3.4,0,1,1-3.61-3.17A3.39,3.39,0,0,1,460.28,403.93Z"/><path class="cls-14" d="M460.85,409.89a3.4,3.4,0,1,1-3.61-3.17,3.4,3.4,0,0,1,3.61,3.17"/><path class="cls-15" d="M460.85,409.89a3.4,3.4,0,1,1-3.61-3.17A3.4,3.4,0,0,1,460.85,409.89Z"/><path class="cls-14" d="M462.12,416.23a3.4,3.4,0,1,1-3.62-3.17,3.42,3.42,0,0,1,3.62,3.17"/><path class="cls-15" d="M462.12,416.23a3.4,3.4,0,1,1-3.62-3.17A3.42,3.42,0,0,1,462.12,416.23Z"/><path class="cls-14" d="M463.1,422.45a3.4,3.4,0,1,1-3.62-3.17,3.4,3.4,0,0,1,3.62,3.17"/><path class="cls-15" d="M463.1,422.45a3.4,3.4,0,1,1-3.62-3.17A3.4,3.4,0,0,1,463.1,422.45Z"/><path class="cls-14" d="M465,428a3.4,3.4,0,1,1-3.62-3.17A3.4,3.4,0,0,1,465,428"/><path class="cls-15" d="M465,428a3.4,3.4,0,1,1-3.62-3.17A3.4,3.4,0,0,1,465,428Z"/><path class="cls-14" d="M467.86,433.49a3.4,3.4,0,1,1-3.62-3.17,3.4,3.4,0,0,1,3.62,3.17"/><path class="cls-15" d="M467.86,433.49a3.4,3.4,0,1,1-3.62-3.17A3.4,3.4,0,0,1,467.86,433.49Z"/><path class="cls-18" d="M595.25,157.2c-9.45,38.76-63,36.05-135.52,17.22-42.61-11.06-71.69-16.09-91.68-39.16-14-16.19-33.5-27.15-28.71-42.9C349.68,58.43,361.56-.37,468.93,63.91c7,7.45,2.94,1.26,10.18,1.68,82-6.6,126.16,50.53,116.14,91.61"/><path class="cls-19" d="M595.25,157.2c-9.45,38.76-63,36.05-135.52,17.22-42.61-11.06-71.69-16.09-91.68-39.16-14-16.19-33.5-27.15-28.71-42.9C349.68,58.43,361.56-.37,468.93,63.91c7,7.45,2.94,1.26,10.18,1.68C561.11,59,605.27,116.12,595.25,157.2Z"/><path class="cls-20" d="M487.6,88.52s21.8-12.25,23.27,2.28c.9,8.92-2.75-.78-8.88-.17-5.28.53-11.67,3.77-11.67,3.77a4.28,4.28,0,0,1-2.72-5.88"/><path class="cls-21" d="M487.6,88.52s21.8-12.25,23.27,2.28c.9,8.92-2.75-.78-8.88-.17-5.28.53-11.67,3.77-11.67,3.77A4.28,4.28,0,0,1,487.6,88.52Z"/><path class="cls-22" d="M481.52,79.27c-1.27-1.18-2.37-2.36-3.45-3.54l-3.14-3.5c-1.06-1.13-2.1-2.23-3.2-3.33s-2.28-2.08-3.61-3.22a10.26,10.26,0,0,1,5,1.31,16.75,16.75,0,0,1,4,3.22,18.94,18.94,0,0,1,2.87,4.2,14,14,0,0,1,1.51,4.86"/><g class="cls-23"><g class="cls-24"><path class="cls-22" d="M418,39.78c-15.18,34.74-10,126.3-40.55,103.86-16.39-12-16.36-15.85-34.93-35.14C332,90.16,352.75,50.94,362,45.68c22.88-21.09,49.51-5.2,56-5.9"/></g></g></g></svg>