<svg id="Layer_4" data-name="Layer 4" xmlns="http://www.w3.org/2000/svg" viewBox="0 0 800 1500"><defs><style>.cls-1{fill:#a37f5f;}.cls-2{fill:#d1c5b2;}.cls-3{fill:#004d6c;}.cls-4{fill:#7c3418;}.cls-5{fill:#ad886c;}.cls-6{fill:#690b13;}.cls-7{fill:#fffef4;}.cls-8{fill:#614d40;}.cls-9{fill:#a3665a;}.cls-10{fill:#070808;}</style></defs><title>Characters</title><path class="cls-1" d="M107.49,604.08l7.81-19.29s3.71-8,8.09-7.86,32.85,2.15,32.85,2.15,19.77,16.19,23.53,20.56l-2.67,18.07s-20.34,5.86-26.16-4.45-9.92-18.7-9.92-18.7-9.87-.95-15.63-4.33c0,0-7.47,17.9-17.9,13.85"/><path class="cls-2" d="M410.3,1322.21l6.61,55.25-6.61-3.59c7.69,4.46,16.54,8.18,24.12,7.49,10.19-.92,20.82,4.42,28.15,2.46l-13.66-75.14c-22.33,1.43-31.34,13.8-38.61,13.53"/><path class="cls-2" d="M591,1322.21l6.61,55.25-6.61-3.59c7.68,4.46,16.53,8.18,24.12,7.49,10.18-.92,20.82,4.42,28.15,2.46l-13.66-75.14c-22.34,1.43-31.35,13.8-38.61,13.53"/><path d="M413.88,1369.08l-16.3,15.7c-15.62,15-34.55,23.36-54.09,23.81-28.67.65-65.87,5.46-47,27.43,28.95,33.75,139.71-3,139.71-3s31.23-4.9,41.26-13.61-9.86-40.64-10.65-41.37l-1.69-9c-7.33,2.52-20.74,8.11-30.92,9.28-7.59.89-12.62-3.57-20.3-9.28"/><path d="M596.05,1369.08l-14.94,15.7c-14.31,15-31.66,23.36-49.56,23.81-26.27.65-60.35,5.46-43.08,27.43,26.52,33.75,128-3,128-3s28.61-4.9,37.8-13.61-9-40.64-9.76-41.37l-1.55-9c-6.71,2.52-19,8.11-28.33,9.28-7,.89-11.56-3.57-18.6-9.28"/><path class="cls-3" d="M648.93,800.5l-286,21,8.11,271.77a30,30,0,0,0-6,18.52c0,7.71,2.56,14.52,6.5,19.12l38.7,230.41c13.59,4.06,32.57,6.59,60.69,3.61L424.27,1120l52.79-166s11.72,8.67,42.89.69l44.1,139.06c-4,5.59-3.32,44.75,1.56,50.12l16.91,207c10,3.09,44.48,11.74,64.11-2.09l-8.54-233.22,27.5-177.52s47-52.6-16.66-137.61"/><path class="cls-1" d="M492.29,426.13c3,0,62-11,86-27,.42-.21,2.52,2,3,1.82a1.49,1.49,0,0,0,.15-2.55,1,1,0,0,1-.15-.14c-1.26-1.49-17.4-26.87-9.35-65.6,0,0-86,37.06-139.16,35,0,0,4.59,20.43,0,37.15-.59,2.14-9.27,13.7-11.48,16.37a5.18,5.18,0,0,0,3.45,8.44c20.24,2.17,46.63-2.71,67.62-3.46"/><path class="cls-4" d="M657,448.7l-72-49.18a6.56,6.56,0,0,0-6.64-.41l0,0c-75,36.56-123,23.44-155,20.63a13.9,13.9,0,0,0-8.89,2.24c-20.41,13.42-51.86,28.09-63.1,33.19a6.47,6.47,0,0,0-3.78,6.45l16,186.5a6.46,6.46,0,0,1-.66,3.46c-8.78,17.47-63.19,128,4,210.1,37.46,16.42,248.86,22.95,298.78-13.53S657,448.7,657,448.7"/><path class="cls-5" d="M622.18,823.4s-1.29,2.91-11.93,9.12c-15,9-22.57,33.92-22.57,43.4,2.61,1.65,3.74,1.29,3.74,1.29,1.59-.79,4.5-5.43,8.19-11.43-.42,1.74-6.2,9.36-6.89,11.23,15.26,10.33,38.46,9.83,38.46,9.83s26.72-.44,30.09-10.54-6.46-40.12-6.46-40.12l-4.34-14.71Z"/><path class="cls-6" d="M676.31,613.38c-15.58,14.26-57.4,209.71-57.4,209.71l34.52,3.22s76.05-180.65,87.17-222.24c-4.35-27.51-48.77-149-87.36-162.31-15.18-5.24-30-1-40.82,7.34-13.23,10.2-6.21,26.55-8.23,43.13C600,526.57,631.26,591,676.31,613.38Z"/><path class="cls-1" d="M107.6,577.82s-38.62-16.73-45.94-21c-5-3-1.47-11.39,8.54-8s46.39,13.91,46.39,13.91,4.26,5.39,3.84,8.56-4.91,8.5-12.83,6.54"/><path class="cls-1" d="M157.56,616s-38.88,10-64.94-.3c6.41-20-.19-41.7,8.13-39.83,16.1,3.63,12.63-24,23.87-22s37.31,21.23,37.31,21.23l10.41,16.19Z"/><path class="cls-5" d="M102.65,571.54l14.09-15.33s6.27-6.14,10.34-4.51,30,13.55,30,13.55,12.82,22.11,14.81,27.52l-8.85,16s-21.11-1.66-22.94-13.35-2.71-21-2.71-21-8.91-4.35-13.11-9.55c0,0-13.29,14.15-21.63,6.69"/><path class="cls-5" d="M120.85,592.51c3.47.6,7.05-1.94,8-5.63s-1.11-7.19-4.57-7.78L97,574.51c-3.47-.59-7,1.94-8,5.64s1.12,7.18,4.59,7.77Z"/><path class="cls-6" d="M351.32,455.19c-16.75,9.33-68,91.45-65.63,184.79L168.51,585.37V624s84.38,63.92,115.93,89.73a17.85,17.85,0,0,0,24.1-1.34c31.8-32.7,54.08-113.52,48.26-154.44Z"/><path class="cls-5" d="M124.61,604.45a7.85,7.85,0,0,0,8.2-6.3,6.23,6.23,0,0,0-6-7.25l-30.79-2a7.86,7.86,0,0,0-8.21,6.31,6.27,6.27,0,0,0,6,7.26Z"/><path class="cls-5" d="M116.74,615.37c3.19,0,6.1-3,6.48-6.75s-1.87-6.82-5-6.82l-25-.06c-3.19,0-6.1,3-6.49,6.77s1.87,6.82,5.07,6.81Z"/><path class="cls-6" d="M580.35,394.18s-62.82,41.08-159,22.71l-5.2,3.94s101.93,26.71,165.55-23.52Z"/><path class="cls-1" d="M384.46,102.54,363.28,139.6a49.87,49.87,0,0,0-5.67,34.16l5.79,30.15-10.6,27.85-4.56,6.84c-10.17,27.6-2.16,41,2.64,64.7l1.92,36.15,10,35.44,31.62,33.86L391.25,303.3l-14.16-19.19,25.61-83.52L424.67,72,402.94,83.5a53.26,53.26,0,0,0-18.48,19"/><path class="cls-5" d="M478,396.1l-84.44,12.65L390.38,303.3l-14.16-19.19,28.08-96L423.8,72c20.27-11.53,38.49-15,49.81-18.48,46.13-2.41,58.64,4,84.09,18.48h0c35.32,20.09,41.35,24.32,53.47,63.11l-12.72,54.7A91.49,91.49,0,0,1,602.61,217v18c-4.71,15.55-22.37,81.65-25,95.43a6.53,6.53,0,0,1-2.3,3.87C564.2,343.32,508.67,387.63,478,396.1Z"/><path class="cls-7" d="M432.75,198c-.64-6,13.07-5.62,29.75-7.38s30-5,30.63,1-12.36,12.33-29,14.09S433.38,204,432.75,198"/><path class="cls-7" d="M366.89,196.41c.45-6.58,6.28-4.17,13.64-3.66s13.46-1.07,13,5.5-6.79,11.49-14.14,11-13-6.25-12.5-12.82"/><path class="cls-8" d="M427.75,181.31s29.61-8.54,43.86-8.69S504.5,177,504.5,177l-76.75,16.6Z"/><path class="cls-8" d="M396.75,181.31s-12.76-8.54-18.9-8.69S363.67,177,363.67,177l33.08,16.6Z"/><path class="cls-9" d="M427.66,326.65c0,3.32-14.49,6-32.36,6S363,330,363,326.65s14.48-6,32.35-6,32.36,2.69,32.36,6"/><path class="cls-8" d="M404.3,189S367,278.55,363.67,282.53s26.71,20.77,26.71,20.77l-14.16-19.19Z"/><path class="cls-8" d="M356.9,308.17l-5.83,24.73,12.87-16.66,12.24,4.08,9-2.47L398,320.32l11.53-3.79,7.69,3.79,12.29-3.61,13,22.38-10.54-32.33c-4.53-3.38-17.91-4.57-29.12-4.57H383.31c-11.71,0-22.28,2.37-26.41,6"/><path class="cls-8" d="M396.75,127.07c-21-1.3-41.32-25.3-44.84-31.63,3.08,4,27.17,17.45,28.17,11.81l16.67-33.32c11.79-13.23,37.79-19.18,55.34-21.66,32.07-4.54,83.38-6.08,113.62,22.51C630.65,77.31,611.92,188.36,607.5,188s-17.08,36.42-14.83,40.8-17.28,5.44-21.82,2.13,11.2-45.76-5.67-56.23c-25.41-15.78-27.67-30.13-23.09-61.17-19.4,25.13-28.3-1.11-60.88,10.09s-84.46,3.41-84.46,3.41"/><path class="cls-5" d="M590.59,195.51s7-24.79,22.14-16.09,7.59,43.43-8.23,44.17-13.91-28.08-13.91-28.08"/><path class="cls-1" d="M519.61,271.87c-10.54,3.87-36.95,30.32-36.95,30.32"/><path class="cls-10" d="M586.72,875.68a168.78,168.78,0,0,0,20,6.57,106.7,106.7,0,0,0,20.4,3.3,66.2,66.2,0,0,0,20.28-1.95,62,62,0,0,0,18.82-8.78,42.88,42.88,0,0,1-17.68,12.32,53.69,53.69,0,0,1-21.67,3.13,74.31,74.31,0,0,1-21.25-4.48A73.15,73.15,0,0,1,586.72,875.68Z"/></svg>