<svg xmlns="http://www.w3.org/2000/svg" viewBox="0 0 800 1500"><defs><style>.cls-1{fill:#231f20;}.cls-2{fill:#e8c79b;}.cls-15,.cls-3{fill:#f8d7a5;}.cls-4{fill:#695ba7;}.cls-5{fill:#c41f43;}.cls-6,.cls-8{fill:#614d40;}.cls-7{fill:#fffef4;}.cls-8{opacity:0.68;}.cls-9{fill:#a9dff4;opacity:0.4;}.cls-10,.cls-11,.cls-16{fill:none;}.cls-10,.cls-11{stroke:#666766;}.cls-10,.cls-11,.cls-15,.cls-16{stroke-miterlimit:10;}.cls-10{stroke-width:2.03px;}.cls-11{stroke-width:1.02px;}.cls-12{fill:#f47b5c;}.cls-13{fill:#650b36;}.cls-14{fill:#bdd9e0;}.cls-14,.cls-15,.cls-16{opacity:0.69;}.cls-15,.cls-16{stroke:#bdd9e0;}.cls-15{stroke-width:5.97px;}.cls-16{stroke-width:4.91px;}</style></defs><title>Characters</title><g id="Layer_5" data-name="Layer 5"><path class="cls-1" d="M558.87,257.12c-22.46,27.42-53.25,54.47-90.69,54.47s-53.17-22-88.55-54.47c-76.08-69.75,45.85-37.89,83.29-37.89S642.59,154.93,558.87,257.12Z"/><path class="cls-2" d="M535.41,382.73c-10-18.72-70.2-63.19-66.87-75.54.95-3.53-7.76-2.67-9-3.09-.62,7-.72,15.59-15.09,30.17-7.81,7.94-25.07,18.59-41.09,27.63,18.13,4.6,19,33.3,52.35,54.26,0,0,73-9.82,82.76-26A53.15,53.15,0,0,0,535.41,382.73Z"/><path class="cls-3" d="M477.39,322.08c2.52,12.48-36.18,109.42-35.14,112.43,6.63-11,102.91-30.58,102.83-77.44-34.44-13.38-71.2-21.55-72.35-53.41C471.48,304,477.39,322.08,477.39,322.08Z"/><path class="cls-3" d="M561.75,583.28l85.48-88.72a1.33,1.33,0,0,0,.27-2.06L527.33,372.13l56.25,5.76A9.09,9.09,0,0,1,589.7,381L686.61,493.1a8,8,0,0,1-2.92,12.55l-91.23,70.2Z"/><path class="cls-3" d="M561.75,583.28s-15.33,9.55-16.62,18.05,24.3,35.06,24.3,35.06l20.26,7.12,19.93,3.08s-11.2-4.91-18.08-6.47c-2.33-1.52-14.63-6-6.75-5.86l14.51-.63,12.2-6.8s-8.21-.67-12.86,2.76c-3.33-1-8.63-.55-12.64-.55-7.71-4.09-14-21.33-19.13-26.64s25.59-26.55,25.59-26.55Z"/><path class="cls-3" d="M600.63,612s-8,6.88-13,7.93c-2.28,1.43-9.34.07-13,2.69l2.14,6.9,14.8-6C595,621.26,598,617.37,600.63,612Z"/><path class="cls-4" d="M532.07,1339.75s-19.07,35.37-40.89,39.19L473.77,1414l-25.7,16.15,3.44,6.67,62.74-15.35,15.89-47.92,5.59,42.7,10.06-1.76,1.75-48.35S547.54,1357,532.07,1339.75Z"/><path class="cls-2" d="M470.81,849.18s18.45,98.28,2.64,118.32c14.19,51.6-1.91,155.64-25.71,245.06-11,61.27-16.84,119.33-13.11,148.46L445,1384.15c-9.5-1.15-21.49-5.8-34.29-11.57L396.53,1352s13.86-13.64,15.46-25,6.38-88.67,4.42-114.29c-13.14-57.78-8.59-177.38,7.1-233.5-7.86-14.27-3-35.35-11-57.89a639.78,639.78,0,0,1-40.53-86Z"/><path class="cls-3" d="M499.59,843.58s-24.92,97.29-10.46,118c-17.58,50.88-8.38,155.49,9.47,245.86,6.91,61.68,8.93,119.92,3.28,148.83l-11.77,24.81,31.32-10.93a12.83,12.83,0,0,0,5.89-4.21L540,1349.74s-11-13.63-13.25-26.4c-2-11.33-.5-88.83,3.15-114.32,16.93-57.09,20.3-176.72,8.34-233.47,8.79-13.89,5.34-35.16,14.8-57.3,7.7-42.49,34.63-114.31,34.63-114.31Z"/><path class="cls-2" d="M500.7,245.23c-6.81,38.7,14.43,39.9-14.66,35.64-10.16,21.66-20.89,38-21.35,56.52l-14-8.86c-36.51-22.86-63-118.7-63-118.7s42.09-84.34,95.23-71.36C482.65,181.41,498.52,230.78,500.7,245.23Z"/><path class="cls-3" d="M464.69,337.39c.48-19.84,8.57-33.65,18.62-56.52,16.76-.18,11.92,4.05,12.49-20.45a168.73,168.73,0,0,0-4.42-41.66,243.32,243.32,0,0,1-6.62-57.94S458,138.44,458.05,138.43C510,151.94,602.62,149.62,556.77,243L553.05,241s-38.73,70.74-74.86,89.5C475.89,331.72,464.69,337.39,464.69,337.39Z"/><path class="cls-1" d="M364.06,264.07a70.3,70.3,0,0,1-9.77-33c-.4-10.38,1.79-15.24,3.39-25.46C368.14,138.9,388.55,103.31,515,121.48c33.49,4.81,60.92,29.71,67.82,62.83s-1.81,70.38-11.84,92.87c-25.86,54.26,20.54,37.47,20.54,37.47-34.12,41-73.78-.33-53.24-47.19,39.87-84.85,14-68.91,14-68.91-29.34,3.76-60.57-1.36-85.89-8.05a41.93,41.93,0,0,0-52.44,37.13c-1.26,15.61-.79,29.78-1.51,42-1.82,31.07-11.32,49.3-76.7,45.72C335.73,315.32,394.4,315.61,364.06,264.07Z"/><path class="cls-1" d="M488.61,83.45a13.91,13.91,0,0,0-4.49-13.54c-13.78-11.67-48.31-8.32-63.3,0-18.11,10-14,20.15-.87,38.82C446.12,146,461.32,178.16,475.73,163,485.7,152.53,478.89,124.59,488.61,83.45Z"/><path class="cls-5" d="M484.88,118.06c2.79-.06-25.61-15.24-58,.89C426,119.77,452.18,114.68,484.88,118.06Z"/><polygon class="cls-2" points="346.83 372.13 252.26 467.18 149.51 346.91 248.27 522.16 374.89 394.36 346.83 372.13"/><path class="cls-5" d="M541.4,567.9c-18.74-42.3-18.74-66-18.55-121.54,37.87-6.16,40.13-32.43,43-39.52,27.44-23.43,25.67-28.63,25.67-28.63s-16.58-14.5-57.56-26.54c-22.52,23.47-54.15,47.92-54.15,47.92-44.15-21-51.29-35-75.26-39.59-36.52.13-71.61,18.21-71.61,18.21s1.26,7.84,37.54,29.36c-7.82,26.94,31.41,49.08,50.9,42.27.9,21.67,3.21,50.66,6.43,80.51,4.94,45.92-5.57,72.92-21.19,95.95-57.68,85-60.79,188.26-5.9,274.54,8.14,12.79,13.68,20.36,13.68,20.36L551,917.9s82.56-177.15,23.49-279a405,405,0,0,1-29.43-61.18Z"/><path class="cls-4" d="M398.69,1349.36s24.09,33.19,46.31,34.79l22.38,33.07,27.87,13.45-2.45,7-64.52-8.93-22.75-46,.68,43L396,1425l-8.79-47.82S391,1357.38,398.69,1349.36Z"/><path class="cls-6" d="M497,250.57c-.25,12.31-.46,21.15,0,28.9-.17,2.44-1.19,2.88-5.43,2.66a54.53,54.53,0,0,1-7.82-1l10.08.28a2.08,2.08,0,0,0,2.08-2.26Z"/><path class="cls-7" d="M448.84,222.41c-.58,1.66,5.17,2.62,12.05,4.43s12.27,3.77,12.86,2.11-3.44-7.32-10.31-9.12-14,.93-14.6,2.58"/><path class="cls-7" d="M508.4,230.42c1,2.29,4.94.3,10.22-1.29s9.84-2.2,8.88-4.49-5.67-3-11-1.44-9.11,4.93-8.15,7.22"/><path class="cls-8" d="M478.2,215.88c0-1.44-20.68-12.61-33.38-9.8-9.48,4.9-4.62,4.46-4.62,4.46C460.65,208.3,462,207.66,478,221,480,218.51,480.66,219.59,478.2,215.88Z"/><path class="cls-8" d="M503,225.59c0-1.44,20.09-13.54,32.9-11.31,9.69,4.46,4.83,4.25,4.83,4.25-20.54-1.31-21.9-1.89-37.29,12.17C501.3,228.29,500.66,229.4,503,225.59Z"/><path class="cls-9" d="M527,234.21a13.28,13.28,0,0,1-26.54,0c0-7.08,5.94-7.61,13.27-7.61S527,227.13,527,234.21Z"/><path class="cls-10" d="M527,234.21a13.28,13.28,0,0,1-26.54,0c0-7.08,5.94-7.61,13.27-7.61S527,227.13,527,234.21Z"/><path class="cls-9" d="M486.84,234.21a13.28,13.28,0,0,1-26.54,0c0-7.08,5.94-7.61,13.27-7.61S486.84,227.13,486.84,234.21Z"/><path class="cls-10" d="M486.84,234.21a13.28,13.28,0,0,1-26.54,0c0-7.08,5.94-7.61,13.27-7.61S486.84,227.13,486.84,234.21Z"/><path class="cls-11" d="M486.84,234.21s8.41-5.08,13.62,0"/><path class="cls-12" d="M457,291c.09,1,8,5.52,12.05,7.4,2,.8,7.84.58,11.06-.08,4.57-.94,6.21-2.11,6.12-3.08-.1-1.18-10.24-.66-11.7-.6s-14.37-3.57-14.26-2.39"/><path class="cls-2" d="M142,350.84l8.4-4.81s3.63-1.81,5.07-.24,10.35,12.36,10.35,12.36,8.33,16.36,26.24,38.53l-17.37-5.14s-5.78-10.27-20.9-21.89c-4.89-3.76,2.29-10.78,2.29-10.78s-3-3.83-3.93-7.18c0,0-7.87,4.39-10.15-.85"/><path class="cls-3" d="M159.17,372.13s-20-8.81-25.66-22c8.13-5.56,12.45-16.37,14.67-12.73,4.3,7.07,11.42-5,14.58-.22s6.12,21.38,6.12,21.38l-1.38,10Z"/><path class="cls-13" d="M159,316.66a172.77,172.77,0,0,0,23.2,3c20.31-1.52,22.26-1.21,25.56-3.23s-7.83,14.7-22.67,15-16.91-2.42-22.27-4.88S159,316.66,159,316.66Z"/><path class="cls-14" d="M218.16,303.87c15.49,8.51-13.52,29-30.87,32.75-36.41,8-34.09-21.29-33.44-30.22,1.25-17.36,19.72-46.31,30.86-32.75C197.28,289,201.1,294.5,218.16,303.87Z"/><line class="cls-15" x1="126.17" y1="365.32" x2="159.04" y2="331.49"/><path class="cls-16" d="M111.44,354s20.21,12.51,23.09,26.24"/><path class="cls-2" d="M150.11,336.41l9.32-1.05s3.94-.21,4.81,1.86,6,15.81,6,15.81-2.34,13.14-3.3,16l-7.75,3.15s-6.57-8.05-3.68-13.26,5.39-9.16,5.39-9.16-1.67-4.83-1.52-8.33c0,0-8.69.87-9.25-5"/><path class="cls-2" d="M149.92,351a3,3,0,0,0,4.36.6,3.51,3.51,0,0,0,.8-4.65l-7.75-11.35A3,3,0,0,0,143,335a3.51,3.51,0,0,0-.8,4.65Z"/><path class="cls-2" d="M147.59,357a3.16,3.16,0,0,0,4.64.41,3.64,3.64,0,0,0,.16-4.94l-9.7-11.59a3.16,3.16,0,0,0-4.64-.41,3.68,3.68,0,0,0-.16,4.95Z"/><path class="cls-2" d="M141.68,358.49a2.88,2.88,0,0,0,4.2-.37,3.28,3.28,0,0,0,.35-4.43l-8.34-8.79a2.9,2.9,0,0,0-4.21.38,3.3,3.3,0,0,0-.34,4.44Z"/></g></svg>