<svg xmlns="http://www.w3.org/2000/svg" viewBox="0 0 800 1500"><defs><style>.cls-1{fill:#fcc9a6;}.cls-2{fill:#fab382;}.cls-3{fill:#fbbd91;}.cls-4{fill:#d1c5b2;}.cls-5{fill:#303030;}.cls-6{fill:#40403f;}.cls-7{fill:#e8e8e8;}.cls-8{fill:#b27440;}.cls-9{fill:#4c4c4d;}.cls-10,.cls-11,.cls-9{stroke:#2d2d2d;}.cls-10,.cls-11,.cls-12,.cls-9{stroke-miterlimit:10;}.cls-11,.cls-9{stroke-width:2px;}.cls-10,.cls-11{fill:none;}.cls-10{stroke-width:3px;}.cls-12{fill:#f7f7f7;stroke:#843a1c;stroke-width:0.58px;}.cls-13{fill:#fffef4;}.cls-14{fill:#843a1c;}.cls-15{fill:#614d40;}.cls-16{fill:#070808;}.cls-17{fill:#fab17d;}</style></defs><title>Characters</title><g id="Layer_2" data-name="Layer 2"><path class="cls-1" d="M274.72,916l-20.2,5s-8.62,1.66-11.12-1.94-17.54-27.86-17.54-27.86,1.51-25.51,2.84-31.12l16.2-8.44s16.68,13,11.75,23.79-9.32,19-9.32,19,5,8.54,5.66,15.19c0,0,18.89-4.45,21.73,6.37"/><path class="cls-2" d="M255,868.48s30.9,25.63,37.87,52.76c-19.93,6.53-33.65,24.63-37,16.8-6.51-15.17-26.85,3.87-31.8-6.43s-4.7-42.67-4.7-42.67l7-17.93Z"/><path class="cls-1" d="M257.51,912c-1.55-3.17-5.71-4.58-9.24-3.16s-5.17,5.12-3.62,8.27l12.29,24.75c1.56,3.16,5.7,4.58,9.25,3.17s5.15-5.12,3.6-8.28Z"/><path class="cls-1" d="M266.86,901.82a7.83,7.83,0,0,0-9.5-4.08,6.24,6.24,0,0,0-3.39,8.79l13.28,27.85a7.87,7.87,0,0,0,9.52,4.09,6.28,6.28,0,0,0,3.4-8.79Z"/><path class="cls-1" d="M247.17,945.66s-12.49-22.72-14.3-27.5c-1.22-3.28,5-5.4,8.72.09s18.16,24.68,18.16,24.68-.43,4-2.27,5.17-7,1.6-10.31-2.44"/><path class="cls-1" d="M280.91,898.87c-1.34-2.89-5.34-4.2-8.88-2.94s-5.35,4.62-4,7.49L278.74,926c1.36,2.88,5.36,4.2,8.91,2.94s5.34-4.62,4-7.5Z"/><path class="cls-2" d="M251.22,939.05l-20.68-2.41s-8.66-1.47-9.72-5.73-6.65-32.24-6.65-32.24,10.38-23.36,13.59-28.14l18.13-2.21s11.05,18.06,2.66,26.4-15.41,14.52-15.41,14.52,1.7,9.77,0,16.22c0,0,19.25,2.45,18.12,13.59"/><path class="cls-3" d="M408,457.52c3.21,0,65.37-54.75,91.08-71.22.46-.22.05.05,0,0-1.35-1.53-38.18-66.95-29.55-106.82,0,0-54.17,43.91-111.17,41.76,0,0-14.82,94.12-17.19,96.87-2.82,3.27-11.07-.92-6.68-.47,21.68,2.24,36.39,30.3,58.87,29.53Z"/><path class="cls-4" d="M331.06,1306.33l6.61,55.26-6.61-3.59c7.69,4.46,16.54,8.18,24.12,7.49,10.19-.92,20.82,4.42,28.15,2.45l-13.66-75.14c-22.33,1.43-31.34,13.8-38.61,13.53"/><path class="cls-4" d="M511.79,1306.33l6.61,55.26-6.61-3.59c7.68,4.46,16.53,8.18,24.12,7.49,10.18-.92,20.82,4.42,28.15,2.45L550.4,1292.8c-22.34,1.43-31.35,13.8-38.61,13.53"/><path d="M334.64,1353.21l-16.3,15.7c-15.62,15-34.55,23.36-54.09,23.8-28.67.66-65.87,5.47-47,27.44,29,33.74,139.72-3,139.72-3s31.22-4.89,41.26-13.61-9.86-40.63-10.65-41.36l-1.7-9c-7.33,2.51-20.74,8.1-30.92,9.28-7.59.88-12.62-3.57-20.3-9.28"/><path d="M516.81,1353.21l-14.94,15.7c-14.31,15-31.65,23.36-49.56,23.8-26.27.66-60.35,5.47-43.08,27.44,26.53,33.74,128-3,128-3s28.61-4.89,37.8-13.61-9-40.63-9.76-41.36l-1.55-9c-6.71,2.51-19,8.1-28.33,9.28-6.95.88-11.56-3.57-18.6-9.28"/><path class="cls-5" d="M585.25,940.3l-13.69,173.16L570,1360.77c-19.63,13.83-68.87,13.23-78.89,10.14l-5.82-224.83c-4.88-5.37-5.55-44.52-1.56-50.12l-38.6-105.21c-31.17,8-46.2,6.27-46.2,6.27l-36,120.43,27.76,249.63c-28.12,3-58.73,5.89-72.31,1.83l-20.11-217.54c-3.93-4.61-13.05-33.92-8.62-70.76L273.77,807.52,580,816.17C586.26,851.41,586.93,894.26,585.25,940.3Z"/><path class="cls-5" d="M267.91,441.18,207.69,660.34a105.53,105.53,0,0,0-3.41,36.59l15.27,185L265.71,876s0-145.89,3.19-190.79c1.25-17.57,41.59-127.69,41.59-127.69Z"/><path class="cls-6" d="M503.64,381.43c-1.19.64-2.38,1.26-3.56,1.83C410.45,479,398.73,493.1,336.93,403.69A8,8,0,0,0,332,405c-25.87,16.86-71.56,36.22-71.56,36.22l17.13,192.94c-6.73,28.58-26.49,148.21-5.32,232.89,13.49,12.12,66.67,19.08,126.73,20.08,4.82.08,9.74-7.66,14.64-7.66,4.43,0,8.83,7.75,13.29,7.69,70.45-1,143.35-9.94,169.16-28.14-1.29-66.41-15.76-307.07,13.7-394,.88-19.89-17.53-37.08-35.66-46.59Z"/><path class="cls-7" d="M336.79,402.49s40.58,37.81,71.32,51.21c20.17-15.78,57.67-50.83,90.6-73.94,26.6,27.38-88.49,266.81-88.49,266.81S333,434.89,336.79,402.49Z"/><path class="cls-8" d="M286.24,545.56,294,532.1a14.08,14.08,0,0,1,18.88-4.47L336.23,545Z"/><path class="cls-9" d="M298.23,426.83s26.8-28,43-25c15.83,3,66.88,233.91,69.17,244.64,0,0-.07.07-.09,0L323.51,460.55l11,.12Z"/><path class="cls-9" d="M545.87,415.83s-27.75-37.59-47.16-36.07c-19,1.48-85.47,255.55-88.33,266.72,0,0,.06.07.09,0L511.82,453.31,498.91,452Z"/><path class="cls-5" d="M455.45,586c-39.69-4.24-152.09-56.57-168.31-64.2a2.53,2.53,0,0,1-1.35-3l12.44-43s91.7,20,165.29,49.94c5-12.55,68.19-91.23,68.19-91.23,6-7.2,20.31-12.55,28.7-13,30-1.65,61.92,35.11,49.39,62.41C586,535.64,502.7,591,455.45,586Z"/><line class="cls-10" x1="410.42" y1="646.48" x2="415.66" y2="879.43"/><line class="cls-11" x1="478.12" y1="736.36" x2="566.23" y2="723.9"/><line class="cls-11" x1="276.28" y1="727.44" x2="364.27" y2="740.71"/><line class="cls-11" x1="364.38" y1="758.3" x2="361.39" y2="798.21"/><line class="cls-11" x1="275.26" y1="747.66" x2="272.27" y2="778.26"/><line class="cls-11" x1="277.92" y1="794.55" x2="339.78" y2="808.85"/><line class="cls-11" x1="570.89" y1="741.01" x2="572.22" y2="795.22"/><line class="cls-11" x1="474.12" y1="754.31" x2="478.12" y2="804.19"/><line class="cls-11" x1="500.06" y1="811.51" x2="559.59" y2="803.53"/><line class="cls-11" x1="285.18" y1="546.14" x2="342.77" y2="546.14"/><rect class="cls-12" x="209.35" y="415.64" width="35.51" height="57.84" transform="translate(-262.58 347.52) rotate(-51.73)"/><rect class="cls-12" x="224.41" y="408.83" width="35.51" height="57.84" transform="translate(-106.55 79.05) rotate(-15.24)"/><rect class="cls-12" x="200.82" y="438.73" width="35.51" height="57.84" transform="translate(712.8 318.61) rotate(98.27)"/><path class="cls-3" d="M272.47,175.78a125.08,125.08,0,0,1,21.71-54,58.82,58.82,0,0,1,8.48-9.87l.09-.09,28.41-22-9.76,135.3-11.31,84.95,16.8,16.28L347,427.89l-15.82-2a15.73,15.73,0,0,1-12.76-10.19c-7.12-19.65-23.6-52.59-24.55-58.38l-6.58-18.57s-16.37-35-12-56.85l2.85-18.52-2.91-16.8c-.63-3.59-2-9.39-2.85-12.93C266.46,225.59,269.19,197.26,272.47,175.78Z"/><path class="cls-1" d="M510.08,303.15c-17.14,39.19-84.92,84-95.26,94.14-41.93,41.11-44.58,20.81-67.85,30.6L326.05,326.5l-21.78-5.45,7-71.33L331.16,89.83c6.65-5.4,3.12-2.22,9.26-5.72a138.54,138.54,0,0,1,57.77-17.93c21.2-1.65,33.35,2.49,52.45,9.51,24.95,9.16,61.18,37.12,59.52,90.29l-1.09,17.13a89.49,89.49,0,0,1,8.41,25.68l2.9,17.38c-2.21,17.08-10.3,77-10.3,77"/><path class="cls-13" d="M372.21,208.59c-21.68,7.08-23.1,13.37-20.55,21.2s7.41,5,29.09-2.07,23.33-14.27,20.78-22.09C401.53,205.63,393.88,201.51,372.21,208.59Z"/><path class="cls-13" d="M278.25,233.57c-.62-6.43,13.5-5.54,20.7-6.23s12.86-3.21,13.48,3.22-2.78,18.95-10,19.64-23.58-10.19-24.2-16.63"/><path class="cls-14" d="M344.37,211.26c-.31-1.86,25.52-14.14,41-15.47,5.34-.46,14.28,1.38,21.13,3.09a.73.73,0,0,1-.22,1.44c-21.3-1.2-40,7.13-58.13,21.37a1.37,1.37,0,0,1-2.21-.84Z"/><path class="cls-14" d="M314.39,221.36s-16.24-5.47-23.91-5.19-17.52,4.1-17.52,4.1l41.89,10.1Z"/><path class="cls-15" d="M311.23,249.72s-15.56,73.12-10.76,74.72c7.67,2.55,26.42,1.92,26.42,1.92L304,321.62Z"/><path class="cls-1" d="M503.35,195.73s1.4-33.14,18-24.35,16.7,54.87,1.55,58.37-19.51-34-19.51-34"/><path class="cls-16" d="M525.31,893A66.92,66.92,0,0,0,530.57,906a53.53,53.53,0,0,0,8,11.26A50.19,50.19,0,0,0,549.18,926a72.57,72.57,0,0,0,12.78,5.9,40,40,0,0,1-13.9-3.84,41.35,41.35,0,0,1-6.26-3.81,42.44,42.44,0,0,1-5.47-4.91,45.73,45.73,0,0,1-4.48-5.82,42.41,42.41,0,0,1-3.39-6.47A38.39,38.39,0,0,1,525.31,893Z"/><path class="cls-16" d="M294.18,937.65A66.37,66.37,0,0,0,307.05,932a53.79,53.79,0,0,0,11-8.32,49.58,49.58,0,0,0,8.34-10.94,72.89,72.89,0,0,0,5.49-13,40.19,40.19,0,0,1-3.39,14,41,41,0,0,1-3.6,6.39,43.13,43.13,0,0,1-4.73,5.63,45.24,45.24,0,0,1-5.67,4.67,42.42,42.42,0,0,1-6.36,3.6A38.28,38.28,0,0,1,294.18,937.65Z"/><path class="cls-17" d="M283.69,488.36s-21.49-34.07-23.54-39.06c-.45-1.08.73-2.31,2.66-3.32-.07-.26-.43-1.22-.07-1.65.55-1.39,4.17-2.79,8.65-1.4a14.21,14.21,0,0,1,7.23,5.33c3.64,5.05,8.83,11.25,10.43,14.83-1.13,1.83-2.34,29-5.36,25.27"/><path class="cls-17" d="M289.48,506s-10-1.92-32.31-3.58a56.69,56.69,0,0,1-9-1.41c-7.81-1.85-20.61-3.46-22.22-5.62-2.85-3.84-3.2-9.88-.15-14.77-1.44-3.32,0-11.52,4.77-11.75-1.32-3.38,3.44-12,7.1-12,2.66-13.4,8.95-14,14.56-12.88,10.47,2.06,35.69,17.09,35.69,17.09l10.29,14.67Z"/><path class="cls-14" d="M465.23,175.18c15.9,9.86,15.71,43.68,20,46.81s22.59,1.6,20.47-2.53-4.31-37.59-2.34-41.28c18-6.8,22.6-100.68-27-98.3C459.77,74,433.41,68,430.52,69c0,0,1.73-.08,8,2.43,3.89,1.56,16.2,5.26,24.9,10.25C434,89.83,441.29,160.31,465.23,175.18Z"/><path class="cls-14" d="M295,114.73a13.41,13.41,0,0,0-9.22,5.42c-5.34,7.2-15,21.71-12.83,29.27l3,10.31s8.21-25,18.22-38c0,0,2.89-4.05,5.65-7.09C299.75,113.67,296.59,114.56,295,114.73Z"/><path class="cls-14" d="M436.76,81.26c-5.95-.62-11.93-.87-17.9-1s-11.95,0-17.91.36a221.65,221.65,0,0,0-35.47,4.64c-5.83,1.25-11.59,2.81-17.27,4.63a153.14,153.14,0,0,0-16.64,6.54A124.69,124.69,0,0,0,316,105.15a113.65,113.65,0,0,0-14.13,11,113.89,113.89,0,0,1,13.87-11.38,125.85,125.85,0,0,1,15.57-9,157,157,0,0,1,34-11.43,223.39,223.39,0,0,1,71.47-3.12Z"/><path class="cls-14" d="M440.07,74.76a152.65,152.65,0,0,0-16.5-2.18c-5.53-.46-11.08-.7-16.62-.69A170.26,170.26,0,0,0,373.9,75c-2.73.5-5.42,1.15-8.12,1.78s-5.35,1.42-8,2.31-5.23,1.81-7.83,2.76l-3.83,1.62c-1.29.51-2.53,1.11-3.78,1.71s-2.52,1.15-3.73,1.83L335,89c-1.22.65-2.37,1.43-3.57,2.14s-2.36,1.44-3.49,2.25l-3.43,2.35-3.3,2.54-1.64,1.27L318,100.87l-3.14,2.74,3.06-2.83,1.54-1.41,1.61-1.32,3.23-2.64L327.67,93c1.11-.84,2.29-1.58,3.47-2.32s2.33-1.53,3.55-2.21l3.64-2c1.21-.71,2.49-1.27,3.72-1.9,2.47-1.3,5.07-2.33,7.63-3.43s5.2-2,7.86-2.83,5.34-1.6,8-2.36S371,74.55,373.72,74a172,172,0,0,1,66.35.72Z"/><path class="cls-14" d="M445.59,74.39a59.24,59.24,0,0,0-9-3.74,83.78,83.78,0,0,0-9.45-2.51A98,98,0,0,0,407.72,66a118,118,0,0,0-38.41,6A158.89,158.89,0,0,0,334,88.51a230.88,230.88,0,0,0-31.35,23.38l7.32-6.51,7.59-6.21c2.63-2,5.23-3.93,7.89-5.83l4.06-2.76c1.35-.92,2.69-1.85,4.1-2.69,2.79-1.71,5.55-3.48,8.45-5,1.44-.78,2.86-1.6,4.32-2.34l4.4-2.17c1.46-.75,3-1.4,4.47-2s3-1.34,4.52-1.94c3.06-1.16,6.11-2.37,9.25-3.32a116.68,116.68,0,0,1,38.71-5.8,98.12,98.12,0,0,1,19.47,2.42,79.25,79.25,0,0,1,9.42,2.74A58.18,58.18,0,0,1,445.59,74.39Z"/><path class="cls-14" d="M301.54,343.75a58.55,58.55,0,0,0,15.44,13c5.76,3.28,12.32,5.09,18.72,4.35a31.56,31.56,0,0,0,9.28-2.55,42.41,42.41,0,0,0,4.28-2.35c.69-.44,1.42-.81,2.07-1.32l2-1.46a81.09,81.09,0,0,0,14-14.34l.08-.11h0c1.77-1.73,3.48-3.52,5.38-5.13l1.41-1.22,1.49-1.14c.5-.38,1-.76,1.49-1.13l1.57-1a33,33,0,0,1,3.29-1.84l1.77-.7a16.15,16.15,0,0,1,1.84-.52,15.14,15.14,0,0,1,1.9-.22,7.62,7.62,0,0,1,1.91.23,4.71,4.71,0,0,1,3,2.17,4.43,4.43,0,0,0-3.08-1.58,7.15,7.15,0,0,0-1.73,0,13.51,13.51,0,0,0-1.69.44c-.54.24-1.1.39-1.62.67l-1.56.84a34.58,34.58,0,0,0-2.9,2.06l-1.4,1.11c-.45.39-.88.81-1.33,1.21l-1.32,1.21-1.26,1.29c-1.72,1.67-3.28,3.52-4.89,5.3l.1-.12c-1,1.41-2.06,2.8-3.1,4.19s-2.24,2.68-3.36,4-2.41,2.55-3.65,3.79l-2,1.75a23.72,23.72,0,0,1-2,1.7,43.43,43.43,0,0,1-9.1,5.61A33.1,33.1,0,0,1,336,364.63a29.85,29.85,0,0,1-10.73-1.18,36,36,0,0,1-9.58-4.63A48.11,48.11,0,0,1,301.54,343.75Z"/></g></svg>